<?xml version="1.0" encoding="utf-8" standalone="no"?>
<!DOCTYPE svg PUBLIC "-//W3C//DTD SVG 1.1//EN"
  "http://www.w3.org/Graphics/SVG/1.1/DTD/svg11.dtd">
<!-- Created with matplotlib (https://matplotlib.org/) -->
<svg height="288pt" version="1.1" viewBox="0 0 648 288" width="648pt" xmlns="http://www.w3.org/2000/svg" xmlns:xlink="http://www.w3.org/1999/xlink">
 <defs>
  <style type="text/css">
*{stroke-linecap:butt;stroke-linejoin:round;}
  </style>
 </defs>
 <g id="figure_1">
  <g id="patch_1">
   <path d="M 0 288 
L 648 288 
L 648 0 
L 0 0 
z
" style="fill:#ffffff;"/>
  </g>
  <g id="axes_1">
   <g id="patch_2">
    <path d="M 129.6 244.8 
L 583.2 244.8 
L 583.2 34.56 
L 129.6 34.56 
z
" style="fill:#eaeaf2;"/>
   </g>
   <g id="matplotlib.axis_1">
    <g id="xtick_1">
     <g id="line2d_1">
      <path clip-path="url(#p5d577e4c61)" d="M 129.6 244.8 
L 129.6 34.56 
" style="fill:none;stroke:#ffffff;stroke-linecap:round;"/>
     </g>
     <g id="text_1">
      <!-- 0 -->
      <defs>
       <path d="M 31.78125 66.40625 
Q 24.171875 66.40625 20.328125 58.90625 
Q 16.5 51.421875 16.5 36.375 
Q 16.5 21.390625 20.328125 13.890625 
Q 24.171875 6.390625 31.78125 6.390625 
Q 39.453125 6.390625 43.28125 13.890625 
Q 47.125 21.390625 47.125 36.375 
Q 47.125 51.421875 43.28125 58.90625 
Q 39.453125 66.40625 31.78125 66.40625 
z
M 31.78125 74.21875 
Q 44.046875 74.21875 50.515625 64.515625 
Q 56.984375 54.828125 56.984375 36.375 
Q 56.984375 17.96875 50.515625 8.265625 
Q 44.046875 -1.421875 31.78125 -1.421875 
Q 19.53125 -1.421875 13.0625 8.265625 
Q 6.59375 17.96875 6.59375 36.375 
Q 6.59375 54.828125 13.0625 64.515625 
Q 19.53125 74.21875 31.78125 74.21875 
z
" id="DejaVuSans-48"/>
      </defs>
      <g style="fill:#262626;" transform="translate(126.8005 260.986625)scale(0.088 -0.088)">
       <use xlink:href="#DejaVuSans-48"/>
      </g>
     </g>
    </g>
    <g id="xtick_2">
     <g id="line2d_2">
      <path clip-path="url(#p5d577e4c61)" d="M 181.168543 244.8 
L 181.168543 34.56 
" style="fill:none;stroke:#ffffff;stroke-linecap:round;"/>
     </g>
     <g id="text_2">
      <!-- 5000 -->
      <defs>
       <path d="M 10.796875 72.90625 
L 49.515625 72.90625 
L 49.515625 64.59375 
L 19.828125 64.59375 
L 19.828125 46.734375 
Q 21.96875 47.46875 24.109375 47.828125 
Q 26.265625 48.1875 28.421875 48.1875 
Q 40.625 48.1875 47.75 41.5 
Q 54.890625 34.8125 54.890625 23.390625 
Q 54.890625 11.625 47.5625 5.09375 
Q 40.234375 -1.421875 26.90625 -1.421875 
Q 22.3125 -1.421875 17.546875 -0.640625 
Q 12.796875 0.140625 7.71875 1.703125 
L 7.71875 11.625 
Q 12.109375 9.234375 16.796875 8.0625 
Q 21.484375 6.890625 26.703125 6.890625 
Q 35.15625 6.890625 40.078125 11.328125 
Q 45.015625 15.765625 45.015625 23.390625 
Q 45.015625 31 40.078125 35.4375 
Q 35.15625 39.890625 26.703125 39.890625 
Q 22.75 39.890625 18.8125 39.015625 
Q 14.890625 38.140625 10.796875 36.28125 
z
" id="DejaVuSans-53"/>
      </defs>
      <g style="fill:#262626;" transform="translate(169.970543 260.986625)scale(0.088 -0.088)">
       <use xlink:href="#DejaVuSans-53"/>
       <use x="63.623047" xlink:href="#DejaVuSans-48"/>
       <use x="127.246094" xlink:href="#DejaVuSans-48"/>
       <use x="190.869141" xlink:href="#DejaVuSans-48"/>
      </g>
     </g>
    </g>
    <g id="xtick_3">
     <g id="line2d_3">
      <path clip-path="url(#p5d577e4c61)" d="M 232.737086 244.8 
L 232.737086 34.56 
" style="fill:none;stroke:#ffffff;stroke-linecap:round;"/>
     </g>
     <g id="text_3">
      <!-- 10000 -->
      <defs>
       <path d="M 12.40625 8.296875 
L 28.515625 8.296875 
L 28.515625 63.921875 
L 10.984375 60.40625 
L 10.984375 69.390625 
L 28.421875 72.90625 
L 38.28125 72.90625 
L 38.28125 8.296875 
L 54.390625 8.296875 
L 54.390625 0 
L 12.40625 0 
z
" id="DejaVuSans-49"/>
      </defs>
      <g style="fill:#262626;" transform="translate(218.739586 260.986625)scale(0.088 -0.088)">
       <use xlink:href="#DejaVuSans-49"/>
       <use x="63.623047" xlink:href="#DejaVuSans-48"/>
       <use x="127.246094" xlink:href="#DejaVuSans-48"/>
       <use x="190.869141" xlink:href="#DejaVuSans-48"/>
       <use x="254.492188" xlink:href="#DejaVuSans-48"/>
      </g>
     </g>
    </g>
    <g id="xtick_4">
     <g id="line2d_4">
      <path clip-path="url(#p5d577e4c61)" d="M 284.30563 244.8 
L 284.30563 34.56 
" style="fill:none;stroke:#ffffff;stroke-linecap:round;"/>
     </g>
     <g id="text_4">
      <!-- 15000 -->
      <g style="fill:#262626;" transform="translate(270.30813 260.986625)scale(0.088 -0.088)">
       <use xlink:href="#DejaVuSans-49"/>
       <use x="63.623047" xlink:href="#DejaVuSans-53"/>
       <use x="127.246094" xlink:href="#DejaVuSans-48"/>
       <use x="190.869141" xlink:href="#DejaVuSans-48"/>
       <use x="254.492188" xlink:href="#DejaVuSans-48"/>
      </g>
     </g>
    </g>
    <g id="xtick_5">
     <g id="line2d_5">
      <path clip-path="url(#p5d577e4c61)" d="M 335.874173 244.8 
L 335.874173 34.56 
" style="fill:none;stroke:#ffffff;stroke-linecap:round;"/>
     </g>
     <g id="text_5">
      <!-- 20000 -->
      <defs>
       <path d="M 19.1875 8.296875 
L 53.609375 8.296875 
L 53.609375 0 
L 7.328125 0 
L 7.328125 8.296875 
Q 12.9375 14.109375 22.625 23.890625 
Q 32.328125 33.6875 34.8125 36.53125 
Q 39.546875 41.84375 41.421875 45.53125 
Q 43.3125 49.21875 43.3125 52.78125 
Q 43.3125 58.59375 39.234375 62.25 
Q 35.15625 65.921875 28.609375 65.921875 
Q 23.96875 65.921875 18.8125 64.3125 
Q 13.671875 62.703125 7.8125 59.421875 
L 7.8125 69.390625 
Q 13.765625 71.78125 18.9375 73 
Q 24.125 74.21875 28.421875 74.21875 
Q 39.75 74.21875 46.484375 68.546875 
Q 53.21875 62.890625 53.21875 53.421875 
Q 53.21875 48.921875 51.53125 44.890625 
Q 49.859375 40.875 45.40625 35.40625 
Q 44.1875 33.984375 37.640625 27.21875 
Q 31.109375 20.453125 19.1875 8.296875 
z
" id="DejaVuSans-50"/>
      </defs>
      <g style="fill:#262626;" transform="translate(321.876673 260.986625)scale(0.088 -0.088)">
       <use xlink:href="#DejaVuSans-50"/>
       <use x="63.623047" xlink:href="#DejaVuSans-48"/>
       <use x="127.246094" xlink:href="#DejaVuSans-48"/>
       <use x="190.869141" xlink:href="#DejaVuSans-48"/>
       <use x="254.492188" xlink:href="#DejaVuSans-48"/>
      </g>
     </g>
    </g>
    <g id="xtick_6">
     <g id="line2d_6">
      <path clip-path="url(#p5d577e4c61)" d="M 387.442716 244.8 
L 387.442716 34.56 
" style="fill:none;stroke:#ffffff;stroke-linecap:round;"/>
     </g>
     <g id="text_6">
      <!-- 25000 -->
      <g style="fill:#262626;" transform="translate(373.445216 260.986625)scale(0.088 -0.088)">
       <use xlink:href="#DejaVuSans-50"/>
       <use x="63.623047" xlink:href="#DejaVuSans-53"/>
       <use x="127.246094" xlink:href="#DejaVuSans-48"/>
       <use x="190.869141" xlink:href="#DejaVuSans-48"/>
       <use x="254.492188" xlink:href="#DejaVuSans-48"/>
      </g>
     </g>
    </g>
    <g id="xtick_7">
     <g id="line2d_7">
      <path clip-path="url(#p5d577e4c61)" d="M 439.011259 244.8 
L 439.011259 34.56 
" style="fill:none;stroke:#ffffff;stroke-linecap:round;"/>
     </g>
     <g id="text_7">
      <!-- 30000 -->
      <defs>
       <path d="M 40.578125 39.3125 
Q 47.65625 37.796875 51.625 33 
Q 55.609375 28.21875 55.609375 21.1875 
Q 55.609375 10.40625 48.1875 4.484375 
Q 40.765625 -1.421875 27.09375 -1.421875 
Q 22.515625 -1.421875 17.65625 -0.515625 
Q 12.796875 0.390625 7.625 2.203125 
L 7.625 11.71875 
Q 11.71875 9.328125 16.59375 8.109375 
Q 21.484375 6.890625 26.8125 6.890625 
Q 36.078125 6.890625 40.9375 10.546875 
Q 45.796875 14.203125 45.796875 21.1875 
Q 45.796875 27.640625 41.28125 31.265625 
Q 36.765625 34.90625 28.71875 34.90625 
L 20.21875 34.90625 
L 20.21875 43.015625 
L 29.109375 43.015625 
Q 36.375 43.015625 40.234375 45.921875 
Q 44.09375 48.828125 44.09375 54.296875 
Q 44.09375 59.90625 40.109375 62.90625 
Q 36.140625 65.921875 28.71875 65.921875 
Q 24.65625 65.921875 20.015625 65.03125 
Q 15.375 64.15625 9.8125 62.3125 
L 9.8125 71.09375 
Q 15.4375 72.65625 20.34375 73.4375 
Q 25.25 74.21875 29.59375 74.21875 
Q 40.828125 74.21875 47.359375 69.109375 
Q 53.90625 64.015625 53.90625 55.328125 
Q 53.90625 49.265625 50.4375 45.09375 
Q 46.96875 40.921875 40.578125 39.3125 
z
" id="DejaVuSans-51"/>
      </defs>
      <g style="fill:#262626;" transform="translate(425.013759 260.986625)scale(0.088 -0.088)">
       <use xlink:href="#DejaVuSans-51"/>
       <use x="63.623047" xlink:href="#DejaVuSans-48"/>
       <use x="127.246094" xlink:href="#DejaVuSans-48"/>
       <use x="190.869141" xlink:href="#DejaVuSans-48"/>
       <use x="254.492188" xlink:href="#DejaVuSans-48"/>
      </g>
     </g>
    </g>
    <g id="xtick_8">
     <g id="line2d_8">
      <path clip-path="url(#p5d577e4c61)" d="M 490.579802 244.8 
L 490.579802 34.56 
" style="fill:none;stroke:#ffffff;stroke-linecap:round;"/>
     </g>
     <g id="text_8">
      <!-- 35000 -->
      <g style="fill:#262626;" transform="translate(476.582302 260.986625)scale(0.088 -0.088)">
       <use xlink:href="#DejaVuSans-51"/>
       <use x="63.623047" xlink:href="#DejaVuSans-53"/>
       <use x="127.246094" xlink:href="#DejaVuSans-48"/>
       <use x="190.869141" xlink:href="#DejaVuSans-48"/>
       <use x="254.492188" xlink:href="#DejaVuSans-48"/>
      </g>
     </g>
    </g>
    <g id="xtick_9">
     <g id="line2d_9">
      <path clip-path="url(#p5d577e4c61)" d="M 542.148346 244.8 
L 542.148346 34.56 
" style="fill:none;stroke:#ffffff;stroke-linecap:round;"/>
     </g>
     <g id="text_9">
      <!-- 40000 -->
      <defs>
       <path d="M 37.796875 64.3125 
L 12.890625 25.390625 
L 37.796875 25.390625 
z
M 35.203125 72.90625 
L 47.609375 72.90625 
L 47.609375 25.390625 
L 58.015625 25.390625 
L 58.015625 17.1875 
L 47.609375 17.1875 
L 47.609375 0 
L 37.796875 0 
L 37.796875 17.1875 
L 4.890625 17.1875 
L 4.890625 26.703125 
z
" id="DejaVuSans-52"/>
      </defs>
      <g style="fill:#262626;" transform="translate(528.150846 260.986625)scale(0.088 -0.088)">
       <use xlink:href="#DejaVuSans-52"/>
       <use x="63.623047" xlink:href="#DejaVuSans-48"/>
       <use x="127.246094" xlink:href="#DejaVuSans-48"/>
       <use x="190.869141" xlink:href="#DejaVuSans-48"/>
       <use x="254.492188" xlink:href="#DejaVuSans-48"/>
      </g>
     </g>
    </g>
    <g id="text_10">
     <!-- count -->
     <defs>
      <path d="M 48.78125 52.59375 
L 48.78125 44.1875 
Q 44.96875 46.296875 41.140625 47.34375 
Q 37.3125 48.390625 33.40625 48.390625 
Q 24.65625 48.390625 19.8125 42.84375 
Q 14.984375 37.3125 14.984375 27.296875 
Q 14.984375 17.28125 19.8125 11.734375 
Q 24.65625 6.203125 33.40625 6.203125 
Q 37.3125 6.203125 41.140625 7.25 
Q 44.96875 8.296875 48.78125 10.40625 
L 48.78125 2.09375 
Q 45.015625 0.34375 40.984375 -0.53125 
Q 36.96875 -1.421875 32.421875 -1.421875 
Q 20.0625 -1.421875 12.78125 6.34375 
Q 5.515625 14.109375 5.515625 27.296875 
Q 5.515625 40.671875 12.859375 48.328125 
Q 20.21875 56 33.015625 56 
Q 37.15625 56 41.109375 55.140625 
Q 45.0625 54.296875 48.78125 52.59375 
z
" id="DejaVuSans-99"/>
      <path d="M 30.609375 48.390625 
Q 23.390625 48.390625 19.1875 42.75 
Q 14.984375 37.109375 14.984375 27.296875 
Q 14.984375 17.484375 19.15625 11.84375 
Q 23.34375 6.203125 30.609375 6.203125 
Q 37.796875 6.203125 41.984375 11.859375 
Q 46.1875 17.53125 46.1875 27.296875 
Q 46.1875 37.015625 41.984375 42.703125 
Q 37.796875 48.390625 30.609375 48.390625 
z
M 30.609375 56 
Q 42.328125 56 49.015625 48.375 
Q 55.71875 40.765625 55.71875 27.296875 
Q 55.71875 13.875 49.015625 6.21875 
Q 42.328125 -1.421875 30.609375 -1.421875 
Q 18.84375 -1.421875 12.171875 6.21875 
Q 5.515625 13.875 5.515625 27.296875 
Q 5.515625 40.765625 12.171875 48.375 
Q 18.84375 56 30.609375 56 
z
" id="DejaVuSans-111"/>
      <path d="M 8.5 21.578125 
L 8.5 54.6875 
L 17.484375 54.6875 
L 17.484375 21.921875 
Q 17.484375 14.15625 20.5 10.265625 
Q 23.53125 6.390625 29.59375 6.390625 
Q 36.859375 6.390625 41.078125 11.03125 
Q 45.3125 15.671875 45.3125 23.6875 
L 45.3125 54.6875 
L 54.296875 54.6875 
L 54.296875 0 
L 45.3125 0 
L 45.3125 8.40625 
Q 42.046875 3.421875 37.71875 1 
Q 33.40625 -1.421875 27.6875 -1.421875 
Q 18.265625 -1.421875 13.375 4.4375 
Q 8.5 10.296875 8.5 21.578125 
z
M 31.109375 56 
z
" id="DejaVuSans-117"/>
      <path d="M 54.890625 33.015625 
L 54.890625 0 
L 45.90625 0 
L 45.90625 32.71875 
Q 45.90625 40.484375 42.875 44.328125 
Q 39.84375 48.1875 33.796875 48.1875 
Q 26.515625 48.1875 22.3125 43.546875 
Q 18.109375 38.921875 18.109375 30.90625 
L 18.109375 0 
L 9.078125 0 
L 9.078125 54.6875 
L 18.109375 54.6875 
L 18.109375 46.1875 
Q 21.34375 51.125 25.703125 53.5625 
Q 30.078125 56 35.796875 56 
Q 45.21875 56 50.046875 50.171875 
Q 54.890625 44.34375 54.890625 33.015625 
z
" id="DejaVuSans-110"/>
      <path d="M 18.3125 70.21875 
L 18.3125 54.6875 
L 36.8125 54.6875 
L 36.8125 47.703125 
L 18.3125 47.703125 
L 18.3125 18.015625 
Q 18.3125 11.328125 20.140625 9.421875 
Q 21.96875 7.515625 27.59375 7.515625 
L 36.8125 7.515625 
L 36.8125 0 
L 27.59375 0 
Q 17.1875 0 13.234375 3.875 
Q 9.28125 7.765625 9.28125 18.015625 
L 9.28125 47.703125 
L 2.6875 47.703125 
L 2.6875 54.6875 
L 9.28125 54.6875 
L 9.28125 70.21875 
z
" id="DejaVuSans-116"/>
     </defs>
     <g style="fill:#262626;" transform="translate(342.858 274.11125)scale(0.096 -0.096)">
      <use xlink:href="#DejaVuSans-99"/>
      <use x="54.980469" xlink:href="#DejaVuSans-111"/>
      <use x="116.162109" xlink:href="#DejaVuSans-117"/>
      <use x="179.541016" xlink:href="#DejaVuSans-110"/>
      <use x="242.919922" xlink:href="#DejaVuSans-116"/>
     </g>
    </g>
   </g>
   <g id="matplotlib.axis_2">
    <g id="ytick_1">
     <g id="text_11">
      <!-- born_place_locality -->
      <defs>
       <path d="M 48.6875 27.296875 
Q 48.6875 37.203125 44.609375 42.84375 
Q 40.53125 48.484375 33.40625 48.484375 
Q 26.265625 48.484375 22.1875 42.84375 
Q 18.109375 37.203125 18.109375 27.296875 
Q 18.109375 17.390625 22.1875 11.75 
Q 26.265625 6.109375 33.40625 6.109375 
Q 40.53125 6.109375 44.609375 11.75 
Q 48.6875 17.390625 48.6875 27.296875 
z
M 18.109375 46.390625 
Q 20.953125 51.265625 25.265625 53.625 
Q 29.59375 56 35.59375 56 
Q 45.5625 56 51.78125 48.09375 
Q 58.015625 40.1875 58.015625 27.296875 
Q 58.015625 14.40625 51.78125 6.484375 
Q 45.5625 -1.421875 35.59375 -1.421875 
Q 29.59375 -1.421875 25.265625 0.953125 
Q 20.953125 3.328125 18.109375 8.203125 
L 18.109375 0 
L 9.078125 0 
L 9.078125 75.984375 
L 18.109375 75.984375 
z
" id="DejaVuSans-98"/>
       <path d="M 41.109375 46.296875 
Q 39.59375 47.171875 37.8125 47.578125 
Q 36.03125 48 33.890625 48 
Q 26.265625 48 22.1875 43.046875 
Q 18.109375 38.09375 18.109375 28.8125 
L 18.109375 0 
L 9.078125 0 
L 9.078125 54.6875 
L 18.109375 54.6875 
L 18.109375 46.1875 
Q 20.953125 51.171875 25.484375 53.578125 
Q 30.03125 56 36.53125 56 
Q 37.453125 56 38.578125 55.875 
Q 39.703125 55.765625 41.0625 55.515625 
z
" id="DejaVuSans-114"/>
       <path d="M 50.984375 -16.609375 
L 50.984375 -23.578125 
L -0.984375 -23.578125 
L -0.984375 -16.609375 
z
" id="DejaVuSans-95"/>
       <path d="M 18.109375 8.203125 
L 18.109375 -20.796875 
L 9.078125 -20.796875 
L 9.078125 54.6875 
L 18.109375 54.6875 
L 18.109375 46.390625 
Q 20.953125 51.265625 25.265625 53.625 
Q 29.59375 56 35.59375 56 
Q 45.5625 56 51.78125 48.09375 
Q 58.015625 40.1875 58.015625 27.296875 
Q 58.015625 14.40625 51.78125 6.484375 
Q 45.5625 -1.421875 35.59375 -1.421875 
Q 29.59375 -1.421875 25.265625 0.953125 
Q 20.953125 3.328125 18.109375 8.203125 
z
M 48.6875 27.296875 
Q 48.6875 37.203125 44.609375 42.84375 
Q 40.53125 48.484375 33.40625 48.484375 
Q 26.265625 48.484375 22.1875 42.84375 
Q 18.109375 37.203125 18.109375 27.296875 
Q 18.109375 17.390625 22.1875 11.75 
Q 26.265625 6.109375 33.40625 6.109375 
Q 40.53125 6.109375 44.609375 11.75 
Q 48.6875 17.390625 48.6875 27.296875 
z
" id="DejaVuSans-112"/>
       <path d="M 9.421875 75.984375 
L 18.40625 75.984375 
L 18.40625 0 
L 9.421875 0 
z
" id="DejaVuSans-108"/>
       <path d="M 34.28125 27.484375 
Q 23.390625 27.484375 19.1875 25 
Q 14.984375 22.515625 14.984375 16.5 
Q 14.984375 11.71875 18.140625 8.90625 
Q 21.296875 6.109375 26.703125 6.109375 
Q 34.1875 6.109375 38.703125 11.40625 
Q 43.21875 16.703125 43.21875 25.484375 
L 43.21875 27.484375 
z
M 52.203125 31.203125 
L 52.203125 0 
L 43.21875 0 
L 43.21875 8.296875 
Q 40.140625 3.328125 35.546875 0.953125 
Q 30.953125 -1.421875 24.3125 -1.421875 
Q 15.921875 -1.421875 10.953125 3.296875 
Q 6 8.015625 6 15.921875 
Q 6 25.140625 12.171875 29.828125 
Q 18.359375 34.515625 30.609375 34.515625 
L 43.21875 34.515625 
L 43.21875 35.40625 
Q 43.21875 41.609375 39.140625 45 
Q 35.0625 48.390625 27.6875 48.390625 
Q 23 48.390625 18.546875 47.265625 
Q 14.109375 46.140625 10.015625 43.890625 
L 10.015625 52.203125 
Q 14.9375 54.109375 19.578125 55.046875 
Q 24.21875 56 28.609375 56 
Q 40.484375 56 46.34375 49.84375 
Q 52.203125 43.703125 52.203125 31.203125 
z
" id="DejaVuSans-97"/>
       <path d="M 56.203125 29.59375 
L 56.203125 25.203125 
L 14.890625 25.203125 
Q 15.484375 15.921875 20.484375 11.0625 
Q 25.484375 6.203125 34.421875 6.203125 
Q 39.59375 6.203125 44.453125 7.46875 
Q 49.3125 8.734375 54.109375 11.28125 
L 54.109375 2.78125 
Q 49.265625 0.734375 44.1875 -0.34375 
Q 39.109375 -1.421875 33.890625 -1.421875 
Q 20.796875 -1.421875 13.15625 6.1875 
Q 5.515625 13.8125 5.515625 26.8125 
Q 5.515625 40.234375 12.765625 48.109375 
Q 20.015625 56 32.328125 56 
Q 43.359375 56 49.78125 48.890625 
Q 56.203125 41.796875 56.203125 29.59375 
z
M 47.21875 32.234375 
Q 47.125 39.59375 43.09375 43.984375 
Q 39.0625 48.390625 32.421875 48.390625 
Q 24.90625 48.390625 20.390625 44.140625 
Q 15.875 39.890625 15.1875 32.171875 
z
" id="DejaVuSans-101"/>
       <path d="M 9.421875 54.6875 
L 18.40625 54.6875 
L 18.40625 0 
L 9.421875 0 
z
M 9.421875 75.984375 
L 18.40625 75.984375 
L 18.40625 64.59375 
L 9.421875 64.59375 
z
" id="DejaVuSans-105"/>
       <path d="M 32.171875 -5.078125 
Q 28.375 -14.84375 24.75 -17.8125 
Q 21.140625 -20.796875 15.09375 -20.796875 
L 7.90625 -20.796875 
L 7.90625 -13.28125 
L 13.1875 -13.28125 
Q 16.890625 -13.28125 18.9375 -11.515625 
Q 21 -9.765625 23.484375 -3.21875 
L 25.09375 0.875 
L 2.984375 54.6875 
L 12.5 54.6875 
L 29.59375 11.921875 
L 46.6875 54.6875 
L 56.203125 54.6875 
z
" id="DejaVuSans-121"/>
      </defs>
      <g style="fill:#262626;" transform="translate(35.849625 42.108112)scale(0.088 -0.088)">
       <use xlink:href="#DejaVuSans-98"/>
       <use x="63.476562" xlink:href="#DejaVuSans-111"/>
       <use x="124.658203" xlink:href="#DejaVuSans-114"/>
       <use x="165.755859" xlink:href="#DejaVuSans-110"/>
       <use x="229.134766" xlink:href="#DejaVuSans-95"/>
       <use x="279.134766" xlink:href="#DejaVuSans-112"/>
       <use x="342.611328" xlink:href="#DejaVuSans-108"/>
       <use x="370.394531" xlink:href="#DejaVuSans-97"/>
       <use x="431.673828" xlink:href="#DejaVuSans-99"/>
       <use x="486.654297" xlink:href="#DejaVuSans-101"/>
       <use x="548.177734" xlink:href="#DejaVuSans-95"/>
       <use x="598.177734" xlink:href="#DejaVuSans-108"/>
       <use x="625.960938" xlink:href="#DejaVuSans-111"/>
       <use x="687.142578" xlink:href="#DejaVuSans-99"/>
       <use x="742.123047" xlink:href="#DejaVuSans-97"/>
       <use x="803.402344" xlink:href="#DejaVuSans-108"/>
       <use x="831.185547" xlink:href="#DejaVuSans-105"/>
       <use x="858.96875" xlink:href="#DejaVuSans-116"/>
       <use x="898.177734" xlink:href="#DejaVuSans-121"/>
      </g>
     </g>
    </g>
    <g id="ytick_2">
     <g id="text_12">
      <!-- died_age -->
      <defs>
       <path d="M 45.40625 46.390625 
L 45.40625 75.984375 
L 54.390625 75.984375 
L 54.390625 0 
L 45.40625 0 
L 45.40625 8.203125 
Q 42.578125 3.328125 38.25 0.953125 
Q 33.9375 -1.421875 27.875 -1.421875 
Q 17.96875 -1.421875 11.734375 6.484375 
Q 5.515625 14.40625 5.515625 27.296875 
Q 5.515625 40.1875 11.734375 48.09375 
Q 17.96875 56 27.875 56 
Q 33.9375 56 38.25 53.625 
Q 42.578125 51.265625 45.40625 46.390625 
z
M 14.796875 27.296875 
Q 14.796875 17.390625 18.875 11.75 
Q 22.953125 6.109375 30.078125 6.109375 
Q 37.203125 6.109375 41.296875 11.75 
Q 45.40625 17.390625 45.40625 27.296875 
Q 45.40625 37.203125 41.296875 42.84375 
Q 37.203125 48.484375 30.078125 48.484375 
Q 22.953125 48.484375 18.875 42.84375 
Q 14.796875 37.203125 14.796875 27.296875 
z
" id="DejaVuSans-100"/>
       <path d="M 45.40625 27.984375 
Q 45.40625 37.75 41.375 43.109375 
Q 37.359375 48.484375 30.078125 48.484375 
Q 22.859375 48.484375 18.828125 43.109375 
Q 14.796875 37.75 14.796875 27.984375 
Q 14.796875 18.265625 18.828125 12.890625 
Q 22.859375 7.515625 30.078125 7.515625 
Q 37.359375 7.515625 41.375 12.890625 
Q 45.40625 18.265625 45.40625 27.984375 
z
M 54.390625 6.78125 
Q 54.390625 -7.171875 48.1875 -13.984375 
Q 42 -20.796875 29.203125 -20.796875 
Q 24.46875 -20.796875 20.265625 -20.09375 
Q 16.0625 -19.390625 12.109375 -17.921875 
L 12.109375 -9.1875 
Q 16.0625 -11.328125 19.921875 -12.34375 
Q 23.78125 -13.375 27.78125 -13.375 
Q 36.625 -13.375 41.015625 -8.765625 
Q 45.40625 -4.15625 45.40625 5.171875 
L 45.40625 9.625 
Q 42.625 4.78125 38.28125 2.390625 
Q 33.9375 0 27.875 0 
Q 17.828125 0 11.671875 7.65625 
Q 5.515625 15.328125 5.515625 27.984375 
Q 5.515625 40.671875 11.671875 48.328125 
Q 17.828125 56 27.875 56 
Q 33.9375 56 38.28125 53.609375 
Q 42.625 51.21875 45.40625 46.390625 
L 45.40625 54.6875 
L 54.390625 54.6875 
z
" id="DejaVuSans-103"/>
      </defs>
      <g style="fill:#262626;" transform="translate(80.273125 50.517712)scale(0.088 -0.088)">
       <use xlink:href="#DejaVuSans-100"/>
       <use x="63.476562" xlink:href="#DejaVuSans-105"/>
       <use x="91.259766" xlink:href="#DejaVuSans-101"/>
       <use x="152.783203" xlink:href="#DejaVuSans-100"/>
       <use x="216.259766" xlink:href="#DejaVuSans-95"/>
       <use x="266.259766" xlink:href="#DejaVuSans-97"/>
       <use x="327.539062" xlink:href="#DejaVuSans-103"/>
       <use x="391.015625" xlink:href="#DejaVuSans-101"/>
      </g>
     </g>
    </g>
    <g id="ytick_3">
     <g id="text_13">
      <!-- died_place_locality -->
      <g style="fill:#262626;" transform="translate(36.98125 58.927312)scale(0.088 -0.088)">
       <use xlink:href="#DejaVuSans-100"/>
       <use x="63.476562" xlink:href="#DejaVuSans-105"/>
       <use x="91.259766" xlink:href="#DejaVuSans-101"/>
       <use x="152.783203" xlink:href="#DejaVuSans-100"/>
       <use x="216.259766" xlink:href="#DejaVuSans-95"/>
       <use x="266.259766" xlink:href="#DejaVuSans-112"/>
       <use x="329.736328" xlink:href="#DejaVuSans-108"/>
       <use x="357.519531" xlink:href="#DejaVuSans-97"/>
       <use x="418.798828" xlink:href="#DejaVuSans-99"/>
       <use x="473.779297" xlink:href="#DejaVuSans-101"/>
       <use x="535.302734" xlink:href="#DejaVuSans-95"/>
       <use x="585.302734" xlink:href="#DejaVuSans-108"/>
       <use x="613.085938" xlink:href="#DejaVuSans-111"/>
       <use x="674.267578" xlink:href="#DejaVuSans-99"/>
       <use x="729.248047" xlink:href="#DejaVuSans-97"/>
       <use x="790.527344" xlink:href="#DejaVuSans-108"/>
       <use x="818.310547" xlink:href="#DejaVuSans-105"/>
       <use x="846.09375" xlink:href="#DejaVuSans-116"/>
       <use x="885.302734" xlink:href="#DejaVuSans-121"/>
      </g>
     </g>
    </g>
    <g id="ytick_4">
     <g id="text_14">
      <!-- enlisted_regt0 -->
      <defs>
       <path d="M 44.28125 53.078125 
L 44.28125 44.578125 
Q 40.484375 46.53125 36.375 47.5 
Q 32.28125 48.484375 27.875 48.484375 
Q 21.1875 48.484375 17.84375 46.4375 
Q 14.5 44.390625 14.5 40.28125 
Q 14.5 37.15625 16.890625 35.375 
Q 19.28125 33.59375 26.515625 31.984375 
L 29.59375 31.296875 
Q 39.15625 29.25 43.1875 25.515625 
Q 47.21875 21.78125 47.21875 15.09375 
Q 47.21875 7.46875 41.1875 3.015625 
Q 35.15625 -1.421875 24.609375 -1.421875 
Q 20.21875 -1.421875 15.453125 -0.5625 
Q 10.6875 0.296875 5.421875 2 
L 5.421875 11.28125 
Q 10.40625 8.6875 15.234375 7.390625 
Q 20.0625 6.109375 24.8125 6.109375 
Q 31.15625 6.109375 34.5625 8.28125 
Q 37.984375 10.453125 37.984375 14.40625 
Q 37.984375 18.0625 35.515625 20.015625 
Q 33.0625 21.96875 24.703125 23.78125 
L 21.578125 24.515625 
Q 13.234375 26.265625 9.515625 29.90625 
Q 5.8125 33.546875 5.8125 39.890625 
Q 5.8125 47.609375 11.28125 51.796875 
Q 16.75 56 26.8125 56 
Q 31.78125 56 36.171875 55.265625 
Q 40.578125 54.546875 44.28125 53.078125 
z
" id="DejaVuSans-115"/>
      </defs>
      <g style="fill:#262626;" transform="translate(57.118125 67.336912)scale(0.088 -0.088)">
       <use xlink:href="#DejaVuSans-101"/>
       <use x="61.523438" xlink:href="#DejaVuSans-110"/>
       <use x="124.902344" xlink:href="#DejaVuSans-108"/>
       <use x="152.685547" xlink:href="#DejaVuSans-105"/>
       <use x="180.46875" xlink:href="#DejaVuSans-115"/>
       <use x="232.568359" xlink:href="#DejaVuSans-116"/>
       <use x="271.777344" xlink:href="#DejaVuSans-101"/>
       <use x="333.300781" xlink:href="#DejaVuSans-100"/>
       <use x="396.777344" xlink:href="#DejaVuSans-95"/>
       <use x="446.777344" xlink:href="#DejaVuSans-114"/>
       <use x="487.859375" xlink:href="#DejaVuSans-101"/>
       <use x="549.382812" xlink:href="#DejaVuSans-103"/>
       <use x="612.859375" xlink:href="#DejaVuSans-116"/>
       <use x="652.068359" xlink:href="#DejaVuSans-48"/>
      </g>
     </g>
    </g>
    <g id="ytick_5">
     <g id="text_15">
      <!-- died_date -->
      <g style="fill:#262626;" transform="translate(76.82325 75.746512)scale(0.088 -0.088)">
       <use xlink:href="#DejaVuSans-100"/>
       <use x="63.476562" xlink:href="#DejaVuSans-105"/>
       <use x="91.259766" xlink:href="#DejaVuSans-101"/>
       <use x="152.783203" xlink:href="#DejaVuSans-100"/>
       <use x="216.259766" xlink:href="#DejaVuSans-95"/>
       <use x="266.259766" xlink:href="#DejaVuSans-100"/>
       <use x="329.736328" xlink:href="#DejaVuSans-97"/>
       <use x="391.015625" xlink:href="#DejaVuSans-116"/>
       <use x="430.224609" xlink:href="#DejaVuSans-101"/>
      </g>
     </g>
    </g>
    <g id="ytick_6">
     <g id="text_16">
      <!-- homeaddress -->
      <defs>
       <path d="M 54.890625 33.015625 
L 54.890625 0 
L 45.90625 0 
L 45.90625 32.71875 
Q 45.90625 40.484375 42.875 44.328125 
Q 39.84375 48.1875 33.796875 48.1875 
Q 26.515625 48.1875 22.3125 43.546875 
Q 18.109375 38.921875 18.109375 30.90625 
L 18.109375 0 
L 9.078125 0 
L 9.078125 75.984375 
L 18.109375 75.984375 
L 18.109375 46.1875 
Q 21.34375 51.125 25.703125 53.5625 
Q 30.078125 56 35.796875 56 
Q 45.21875 56 50.046875 50.171875 
Q 54.890625 44.34375 54.890625 33.015625 
z
" id="DejaVuSans-104"/>
       <path d="M 52 44.1875 
Q 55.375 50.25 60.0625 53.125 
Q 64.75 56 71.09375 56 
Q 79.640625 56 84.28125 50.015625 
Q 88.921875 44.046875 88.921875 33.015625 
L 88.921875 0 
L 79.890625 0 
L 79.890625 32.71875 
Q 79.890625 40.578125 77.09375 44.375 
Q 74.3125 48.1875 68.609375 48.1875 
Q 61.625 48.1875 57.5625 43.546875 
Q 53.515625 38.921875 53.515625 30.90625 
L 53.515625 0 
L 44.484375 0 
L 44.484375 32.71875 
Q 44.484375 40.625 41.703125 44.40625 
Q 38.921875 48.1875 33.109375 48.1875 
Q 26.21875 48.1875 22.15625 43.53125 
Q 18.109375 38.875 18.109375 30.90625 
L 18.109375 0 
L 9.078125 0 
L 9.078125 54.6875 
L 18.109375 54.6875 
L 18.109375 46.1875 
Q 21.1875 51.21875 25.484375 53.609375 
Q 29.78125 56 35.6875 56 
Q 41.65625 56 45.828125 52.96875 
Q 50 49.953125 52 44.1875 
z
" id="DejaVuSans-109"/>
      </defs>
      <g style="fill:#262626;" transform="translate(60.387875 84.156112)scale(0.088 -0.088)">
       <use xlink:href="#DejaVuSans-104"/>
       <use x="63.378906" xlink:href="#DejaVuSans-111"/>
       <use x="124.560547" xlink:href="#DejaVuSans-109"/>
       <use x="221.972656" xlink:href="#DejaVuSans-101"/>
       <use x="283.496094" xlink:href="#DejaVuSans-97"/>
       <use x="344.775391" xlink:href="#DejaVuSans-100"/>
       <use x="408.251953" xlink:href="#DejaVuSans-100"/>
       <use x="471.728516" xlink:href="#DejaVuSans-114"/>
       <use x="512.810547" xlink:href="#DejaVuSans-101"/>
       <use x="574.333984" xlink:href="#DejaVuSans-115"/>
       <use x="626.433594" xlink:href="#DejaVuSans-115"/>
      </g>
     </g>
    </g>
    <g id="ytick_7">
     <g id="text_17">
      <!-- born_date -->
      <g style="fill:#262626;" transform="translate(75.691625 92.565712)scale(0.088 -0.088)">
       <use xlink:href="#DejaVuSans-98"/>
       <use x="63.476562" xlink:href="#DejaVuSans-111"/>
       <use x="124.658203" xlink:href="#DejaVuSans-114"/>
       <use x="165.755859" xlink:href="#DejaVuSans-110"/>
       <use x="229.134766" xlink:href="#DejaVuSans-95"/>
       <use x="279.134766" xlink:href="#DejaVuSans-100"/>
       <use x="342.611328" xlink:href="#DejaVuSans-97"/>
       <use x="403.890625" xlink:href="#DejaVuSans-116"/>
       <use x="443.099609" xlink:href="#DejaVuSans-101"/>
      </g>
     </g>
    </g>
    <g id="ytick_8">
     <g id="text_18">
      <!-- died_place_name -->
      <g style="fill:#262626;" transform="translate(43.6335 100.975313)scale(0.088 -0.088)">
       <use xlink:href="#DejaVuSans-100"/>
       <use x="63.476562" xlink:href="#DejaVuSans-105"/>
       <use x="91.259766" xlink:href="#DejaVuSans-101"/>
       <use x="152.783203" xlink:href="#DejaVuSans-100"/>
       <use x="216.259766" xlink:href="#DejaVuSans-95"/>
       <use x="266.259766" xlink:href="#DejaVuSans-112"/>
       <use x="329.736328" xlink:href="#DejaVuSans-108"/>
       <use x="357.519531" xlink:href="#DejaVuSans-97"/>
       <use x="418.798828" xlink:href="#DejaVuSans-99"/>
       <use x="473.779297" xlink:href="#DejaVuSans-101"/>
       <use x="535.302734" xlink:href="#DejaVuSans-95"/>
       <use x="585.302734" xlink:href="#DejaVuSans-110"/>
       <use x="648.681641" xlink:href="#DejaVuSans-97"/>
       <use x="709.960938" xlink:href="#DejaVuSans-109"/>
       <use x="807.373047" xlink:href="#DejaVuSans-101"/>
      </g>
     </g>
    </g>
    <g id="ytick_9">
     <g id="text_19">
      <!-- enlisted_number -->
      <g style="fill:#262626;" transform="translate(46.4385 109.384912)scale(0.088 -0.088)">
       <use xlink:href="#DejaVuSans-101"/>
       <use x="61.523438" xlink:href="#DejaVuSans-110"/>
       <use x="124.902344" xlink:href="#DejaVuSans-108"/>
       <use x="152.685547" xlink:href="#DejaVuSans-105"/>
       <use x="180.46875" xlink:href="#DejaVuSans-115"/>
       <use x="232.568359" xlink:href="#DejaVuSans-116"/>
       <use x="271.777344" xlink:href="#DejaVuSans-101"/>
       <use x="333.300781" xlink:href="#DejaVuSans-100"/>
       <use x="396.777344" xlink:href="#DejaVuSans-95"/>
       <use x="446.777344" xlink:href="#DejaVuSans-110"/>
       <use x="510.15625" xlink:href="#DejaVuSans-117"/>
       <use x="573.535156" xlink:href="#DejaVuSans-109"/>
       <use x="670.947266" xlink:href="#DejaVuSans-98"/>
       <use x="734.423828" xlink:href="#DejaVuSans-101"/>
       <use x="795.947266" xlink:href="#DejaVuSans-114"/>
      </g>
     </g>
    </g>
    <g id="ytick_10">
     <g id="text_20">
      <!-- enlisted_regt1 -->
      <g style="fill:#262626;" transform="translate(57.118125 117.794512)scale(0.088 -0.088)">
       <use xlink:href="#DejaVuSans-101"/>
       <use x="61.523438" xlink:href="#DejaVuSans-110"/>
       <use x="124.902344" xlink:href="#DejaVuSans-108"/>
       <use x="152.685547" xlink:href="#DejaVuSans-105"/>
       <use x="180.46875" xlink:href="#DejaVuSans-115"/>
       <use x="232.568359" xlink:href="#DejaVuSans-116"/>
       <use x="271.777344" xlink:href="#DejaVuSans-101"/>
       <use x="333.300781" xlink:href="#DejaVuSans-100"/>
       <use x="396.777344" xlink:href="#DejaVuSans-95"/>
       <use x="446.777344" xlink:href="#DejaVuSans-114"/>
       <use x="487.859375" xlink:href="#DejaVuSans-101"/>
       <use x="549.382812" xlink:href="#DejaVuSans-103"/>
       <use x="612.859375" xlink:href="#DejaVuSans-116"/>
       <use x="652.068359" xlink:href="#DejaVuSans-49"/>
      </g>
     </g>
    </g>
    <g id="ytick_11">
     <g id="text_21">
      <!-- born_place_name -->
      <g style="fill:#262626;" transform="translate(42.501875 126.204112)scale(0.088 -0.088)">
       <use xlink:href="#DejaVuSans-98"/>
       <use x="63.476562" xlink:href="#DejaVuSans-111"/>
       <use x="124.658203" xlink:href="#DejaVuSans-114"/>
       <use x="165.755859" xlink:href="#DejaVuSans-110"/>
       <use x="229.134766" xlink:href="#DejaVuSans-95"/>
       <use x="279.134766" xlink:href="#DejaVuSans-112"/>
       <use x="342.611328" xlink:href="#DejaVuSans-108"/>
       <use x="370.394531" xlink:href="#DejaVuSans-97"/>
       <use x="431.673828" xlink:href="#DejaVuSans-99"/>
       <use x="486.654297" xlink:href="#DejaVuSans-101"/>
       <use x="548.177734" xlink:href="#DejaVuSans-95"/>
       <use x="598.177734" xlink:href="#DejaVuSans-110"/>
       <use x="661.556641" xlink:href="#DejaVuSans-97"/>
       <use x="722.835938" xlink:href="#DejaVuSans-109"/>
       <use x="820.248047" xlink:href="#DejaVuSans-101"/>
      </g>
     </g>
    </g>
    <g id="ytick_12">
     <g id="text_22">
      <!-- enlisted_rank -->
      <defs>
       <path d="M 9.078125 75.984375 
L 18.109375 75.984375 
L 18.109375 31.109375 
L 44.921875 54.6875 
L 56.390625 54.6875 
L 27.390625 29.109375 
L 57.625 0 
L 45.90625 0 
L 18.109375 26.703125 
L 18.109375 0 
L 9.078125 0 
z
" id="DejaVuSans-107"/>
      </defs>
      <g style="fill:#262626;" transform="translate(61.100125 134.613712)scale(0.088 -0.088)">
       <use xlink:href="#DejaVuSans-101"/>
       <use x="61.523438" xlink:href="#DejaVuSans-110"/>
       <use x="124.902344" xlink:href="#DejaVuSans-108"/>
       <use x="152.685547" xlink:href="#DejaVuSans-105"/>
       <use x="180.46875" xlink:href="#DejaVuSans-115"/>
       <use x="232.568359" xlink:href="#DejaVuSans-116"/>
       <use x="271.777344" xlink:href="#DejaVuSans-101"/>
       <use x="333.300781" xlink:href="#DejaVuSans-100"/>
       <use x="396.777344" xlink:href="#DejaVuSans-95"/>
       <use x="446.777344" xlink:href="#DejaVuSans-114"/>
       <use x="487.890625" xlink:href="#DejaVuSans-97"/>
       <use x="549.169922" xlink:href="#DejaVuSans-110"/>
       <use x="612.548828" xlink:href="#DejaVuSans-107"/>
      </g>
     </g>
    </g>
    <g id="ytick_13">
     <g id="text_23">
      <!-- profession -->
      <defs>
       <path d="M 37.109375 75.984375 
L 37.109375 68.5 
L 28.515625 68.5 
Q 23.6875 68.5 21.796875 66.546875 
Q 19.921875 64.59375 19.921875 59.515625 
L 19.921875 54.6875 
L 34.71875 54.6875 
L 34.71875 47.703125 
L 19.921875 47.703125 
L 19.921875 0 
L 10.890625 0 
L 10.890625 47.703125 
L 2.296875 47.703125 
L 2.296875 54.6875 
L 10.890625 54.6875 
L 10.890625 58.5 
Q 10.890625 67.625 15.140625 71.796875 
Q 19.390625 75.984375 28.609375 75.984375 
z
" id="DejaVuSans-102"/>
      </defs>
      <g style="fill:#262626;" transform="translate(74.426625 143.023313)scale(0.088 -0.088)">
       <use xlink:href="#DejaVuSans-112"/>
       <use x="63.476562" xlink:href="#DejaVuSans-114"/>
       <use x="104.558594" xlink:href="#DejaVuSans-111"/>
       <use x="165.740234" xlink:href="#DejaVuSans-102"/>
       <use x="200.945312" xlink:href="#DejaVuSans-101"/>
       <use x="262.46875" xlink:href="#DejaVuSans-115"/>
       <use x="314.568359" xlink:href="#DejaVuSans-115"/>
       <use x="366.667969" xlink:href="#DejaVuSans-105"/>
       <use x="394.451172" xlink:href="#DejaVuSans-111"/>
       <use x="455.632812" xlink:href="#DejaVuSans-110"/>
      </g>
     </g>
    </g>
    <g id="ytick_14">
     <g id="text_24">
      <!-- memorated_place_locality -->
      <g style="fill:#262626;" transform="translate(4.609625 151.432912)scale(0.088 -0.088)">
       <use xlink:href="#DejaVuSans-109"/>
       <use x="97.412109" xlink:href="#DejaVuSans-101"/>
       <use x="158.935547" xlink:href="#DejaVuSans-109"/>
       <use x="256.347656" xlink:href="#DejaVuSans-111"/>
       <use x="317.529297" xlink:href="#DejaVuSans-114"/>
       <use x="358.642578" xlink:href="#DejaVuSans-97"/>
       <use x="419.921875" xlink:href="#DejaVuSans-116"/>
       <use x="459.130859" xlink:href="#DejaVuSans-101"/>
       <use x="520.654297" xlink:href="#DejaVuSans-100"/>
       <use x="584.130859" xlink:href="#DejaVuSans-95"/>
       <use x="634.130859" xlink:href="#DejaVuSans-112"/>
       <use x="697.607422" xlink:href="#DejaVuSans-108"/>
       <use x="725.390625" xlink:href="#DejaVuSans-97"/>
       <use x="786.669922" xlink:href="#DejaVuSans-99"/>
       <use x="841.650391" xlink:href="#DejaVuSans-101"/>
       <use x="903.173828" xlink:href="#DejaVuSans-95"/>
       <use x="953.173828" xlink:href="#DejaVuSans-108"/>
       <use x="980.957031" xlink:href="#DejaVuSans-111"/>
       <use x="1042.138672" xlink:href="#DejaVuSans-99"/>
       <use x="1097.119141" xlink:href="#DejaVuSans-97"/>
       <use x="1158.398438" xlink:href="#DejaVuSans-108"/>
       <use x="1186.181641" xlink:href="#DejaVuSans-105"/>
       <use x="1213.964844" xlink:href="#DejaVuSans-116"/>
       <use x="1253.173828" xlink:href="#DejaVuSans-121"/>
      </g>
     </g>
    </g>
    <g id="ytick_15">
     <g id="text_25">
      <!-- died_place_topo -->
      <g style="fill:#262626;" transform="translate(48.78425 159.842512)scale(0.088 -0.088)">
       <use xlink:href="#DejaVuSans-100"/>
       <use x="63.476562" xlink:href="#DejaVuSans-105"/>
       <use x="91.259766" xlink:href="#DejaVuSans-101"/>
       <use x="152.783203" xlink:href="#DejaVuSans-100"/>
       <use x="216.259766" xlink:href="#DejaVuSans-95"/>
       <use x="266.259766" xlink:href="#DejaVuSans-112"/>
       <use x="329.736328" xlink:href="#DejaVuSans-108"/>
       <use x="357.519531" xlink:href="#DejaVuSans-97"/>
       <use x="418.798828" xlink:href="#DejaVuSans-99"/>
       <use x="473.779297" xlink:href="#DejaVuSans-101"/>
       <use x="535.302734" xlink:href="#DejaVuSans-95"/>
       <use x="585.302734" xlink:href="#DejaVuSans-116"/>
       <use x="624.511719" xlink:href="#DejaVuSans-111"/>
       <use x="685.693359" xlink:href="#DejaVuSans-112"/>
       <use x="749.169922" xlink:href="#DejaVuSans-111"/>
      </g>
     </g>
    </g>
    <g id="ytick_16">
     <g id="text_26">
      <!-- memorated_place_name -->
      <g style="fill:#262626;" transform="translate(11.261875 168.252113)scale(0.088 -0.088)">
       <use xlink:href="#DejaVuSans-109"/>
       <use x="97.412109" xlink:href="#DejaVuSans-101"/>
       <use x="158.935547" xlink:href="#DejaVuSans-109"/>
       <use x="256.347656" xlink:href="#DejaVuSans-111"/>
       <use x="317.529297" xlink:href="#DejaVuSans-114"/>
       <use x="358.642578" xlink:href="#DejaVuSans-97"/>
       <use x="419.921875" xlink:href="#DejaVuSans-116"/>
       <use x="459.130859" xlink:href="#DejaVuSans-101"/>
       <use x="520.654297" xlink:href="#DejaVuSans-100"/>
       <use x="584.130859" xlink:href="#DejaVuSans-95"/>
       <use x="634.130859" xlink:href="#DejaVuSans-112"/>
       <use x="697.607422" xlink:href="#DejaVuSans-108"/>
       <use x="725.390625" xlink:href="#DejaVuSans-97"/>
       <use x="786.669922" xlink:href="#DejaVuSans-99"/>
       <use x="841.650391" xlink:href="#DejaVuSans-101"/>
       <use x="903.173828" xlink:href="#DejaVuSans-95"/>
       <use x="953.173828" xlink:href="#DejaVuSans-110"/>
       <use x="1016.552734" xlink:href="#DejaVuSans-97"/>
       <use x="1077.832031" xlink:href="#DejaVuSans-109"/>
       <use x="1175.244141" xlink:href="#DejaVuSans-101"/>
      </g>
     </g>
    </g>
    <g id="ytick_17">
     <g id="text_27">
      <!-- victim_type_details -->
      <defs>
       <path d="M 2.984375 54.6875 
L 12.5 54.6875 
L 29.59375 8.796875 
L 46.6875 54.6875 
L 56.203125 54.6875 
L 35.6875 0 
L 23.484375 0 
z
" id="DejaVuSans-118"/>
      </defs>
      <g style="fill:#262626;" transform="translate(35.36425 176.661712)scale(0.088 -0.088)">
       <use xlink:href="#DejaVuSans-118"/>
       <use x="59.179688" xlink:href="#DejaVuSans-105"/>
       <use x="86.962891" xlink:href="#DejaVuSans-99"/>
       <use x="141.943359" xlink:href="#DejaVuSans-116"/>
       <use x="181.152344" xlink:href="#DejaVuSans-105"/>
       <use x="208.935547" xlink:href="#DejaVuSans-109"/>
       <use x="306.347656" xlink:href="#DejaVuSans-95"/>
       <use x="356.347656" xlink:href="#DejaVuSans-116"/>
       <use x="395.556641" xlink:href="#DejaVuSans-121"/>
       <use x="454.736328" xlink:href="#DejaVuSans-112"/>
       <use x="518.212891" xlink:href="#DejaVuSans-101"/>
       <use x="579.736328" xlink:href="#DejaVuSans-95"/>
       <use x="629.736328" xlink:href="#DejaVuSans-100"/>
       <use x="693.212891" xlink:href="#DejaVuSans-101"/>
       <use x="754.736328" xlink:href="#DejaVuSans-116"/>
       <use x="793.945312" xlink:href="#DejaVuSans-97"/>
       <use x="855.224609" xlink:href="#DejaVuSans-105"/>
       <use x="883.007812" xlink:href="#DejaVuSans-108"/>
       <use x="910.791016" xlink:href="#DejaVuSans-115"/>
      </g>
     </g>
    </g>
    <g id="ytick_18">
     <g id="text_28">
      <!-- homeaddresstopo -->
      <g style="fill:#262626;" transform="translate(40.582375 185.071313)scale(0.088 -0.088)">
       <use xlink:href="#DejaVuSans-104"/>
       <use x="63.378906" xlink:href="#DejaVuSans-111"/>
       <use x="124.560547" xlink:href="#DejaVuSans-109"/>
       <use x="221.972656" xlink:href="#DejaVuSans-101"/>
       <use x="283.496094" xlink:href="#DejaVuSans-97"/>
       <use x="344.775391" xlink:href="#DejaVuSans-100"/>
       <use x="408.251953" xlink:href="#DejaVuSans-100"/>
       <use x="471.728516" xlink:href="#DejaVuSans-114"/>
       <use x="512.810547" xlink:href="#DejaVuSans-101"/>
       <use x="574.333984" xlink:href="#DejaVuSans-115"/>
       <use x="626.433594" xlink:href="#DejaVuSans-115"/>
       <use x="678.533203" xlink:href="#DejaVuSans-116"/>
       <use x="717.742188" xlink:href="#DejaVuSans-111"/>
       <use x="778.923828" xlink:href="#DejaVuSans-112"/>
       <use x="842.400391" xlink:href="#DejaVuSans-111"/>
      </g>
     </g>
    </g>
    <g id="ytick_19">
     <g id="text_29">
      <!-- memorated_date -->
      <g style="fill:#262626;" transform="translate(44.451625 193.480912)scale(0.088 -0.088)">
       <use xlink:href="#DejaVuSans-109"/>
       <use x="97.412109" xlink:href="#DejaVuSans-101"/>
       <use x="158.935547" xlink:href="#DejaVuSans-109"/>
       <use x="256.347656" xlink:href="#DejaVuSans-111"/>
       <use x="317.529297" xlink:href="#DejaVuSans-114"/>
       <use x="358.642578" xlink:href="#DejaVuSans-97"/>
       <use x="419.921875" xlink:href="#DejaVuSans-116"/>
       <use x="459.130859" xlink:href="#DejaVuSans-101"/>
       <use x="520.654297" xlink:href="#DejaVuSans-100"/>
       <use x="584.130859" xlink:href="#DejaVuSans-95"/>
       <use x="634.130859" xlink:href="#DejaVuSans-100"/>
       <use x="697.607422" xlink:href="#DejaVuSans-97"/>
       <use x="758.886719" xlink:href="#DejaVuSans-116"/>
       <use x="798.095703" xlink:href="#DejaVuSans-101"/>
      </g>
     </g>
    </g>
    <g id="ytick_20">
     <g id="text_30">
      <!-- work_place_locality -->
      <defs>
       <path d="M 4.203125 54.6875 
L 13.1875 54.6875 
L 24.421875 12.015625 
L 35.59375 54.6875 
L 46.1875 54.6875 
L 57.421875 12.015625 
L 68.609375 54.6875 
L 77.59375 54.6875 
L 63.28125 0 
L 52.6875 0 
L 40.921875 44.828125 
L 29.109375 0 
L 18.5 0 
z
" id="DejaVuSans-119"/>
      </defs>
      <g style="fill:#262626;" transform="translate(34.719375 201.890512)scale(0.088 -0.088)">
       <use xlink:href="#DejaVuSans-119"/>
       <use x="81.787109" xlink:href="#DejaVuSans-111"/>
       <use x="142.96875" xlink:href="#DejaVuSans-114"/>
       <use x="184.082031" xlink:href="#DejaVuSans-107"/>
       <use x="241.992188" xlink:href="#DejaVuSans-95"/>
       <use x="291.992188" xlink:href="#DejaVuSans-112"/>
       <use x="355.46875" xlink:href="#DejaVuSans-108"/>
       <use x="383.251953" xlink:href="#DejaVuSans-97"/>
       <use x="444.53125" xlink:href="#DejaVuSans-99"/>
       <use x="499.511719" xlink:href="#DejaVuSans-101"/>
       <use x="561.035156" xlink:href="#DejaVuSans-95"/>
       <use x="611.035156" xlink:href="#DejaVuSans-108"/>
       <use x="638.818359" xlink:href="#DejaVuSans-111"/>
       <use x="700" xlink:href="#DejaVuSans-99"/>
       <use x="754.980469" xlink:href="#DejaVuSans-97"/>
       <use x="816.259766" xlink:href="#DejaVuSans-108"/>
       <use x="844.042969" xlink:href="#DejaVuSans-105"/>
       <use x="871.826172" xlink:href="#DejaVuSans-116"/>
       <use x="911.035156" xlink:href="#DejaVuSans-121"/>
      </g>
     </g>
    </g>
    <g id="ytick_21">
     <g id="text_31">
      <!-- enlisted_sub -->
      <g style="fill:#262626;" transform="translate(65.035375 210.300112)scale(0.088 -0.088)">
       <use xlink:href="#DejaVuSans-101"/>
       <use x="61.523438" xlink:href="#DejaVuSans-110"/>
       <use x="124.902344" xlink:href="#DejaVuSans-108"/>
       <use x="152.685547" xlink:href="#DejaVuSans-105"/>
       <use x="180.46875" xlink:href="#DejaVuSans-115"/>
       <use x="232.568359" xlink:href="#DejaVuSans-116"/>
       <use x="271.777344" xlink:href="#DejaVuSans-101"/>
       <use x="333.300781" xlink:href="#DejaVuSans-100"/>
       <use x="396.777344" xlink:href="#DejaVuSans-95"/>
       <use x="446.777344" xlink:href="#DejaVuSans-115"/>
       <use x="498.876953" xlink:href="#DejaVuSans-117"/>
       <use x="562.255859" xlink:href="#DejaVuSans-98"/>
      </g>
     </g>
    </g>
    <g id="ytick_22">
     <g id="text_32">
      <!-- employer -->
      <g style="fill:#262626;" transform="translate(78.45675 218.709712)scale(0.088 -0.088)">
       <use xlink:href="#DejaVuSans-101"/>
       <use x="61.523438" xlink:href="#DejaVuSans-109"/>
       <use x="158.935547" xlink:href="#DejaVuSans-112"/>
       <use x="222.412109" xlink:href="#DejaVuSans-108"/>
       <use x="250.195312" xlink:href="#DejaVuSans-111"/>
       <use x="311.376953" xlink:href="#DejaVuSans-121"/>
       <use x="370.556641" xlink:href="#DejaVuSans-101"/>
       <use x="432.080078" xlink:href="#DejaVuSans-114"/>
      </g>
     </g>
    </g>
    <g id="ytick_23">
     <g id="text_33">
      <!-- school_name -->
      <g style="fill:#262626;" transform="translate(62.530125 227.119313)scale(0.088 -0.088)">
       <use xlink:href="#DejaVuSans-115"/>
       <use x="52.099609" xlink:href="#DejaVuSans-99"/>
       <use x="107.080078" xlink:href="#DejaVuSans-104"/>
       <use x="170.458984" xlink:href="#DejaVuSans-111"/>
       <use x="231.640625" xlink:href="#DejaVuSans-111"/>
       <use x="292.822266" xlink:href="#DejaVuSans-108"/>
       <use x="320.605469" xlink:href="#DejaVuSans-95"/>
       <use x="370.605469" xlink:href="#DejaVuSans-110"/>
       <use x="433.984375" xlink:href="#DejaVuSans-97"/>
       <use x="495.263672" xlink:href="#DejaVuSans-109"/>
       <use x="592.675781" xlink:href="#DejaVuSans-101"/>
      </g>
     </g>
    </g>
    <g id="ytick_24">
     <g id="text_34">
      <!-- enlisted_army -->
      <g style="fill:#262626;" transform="translate(57.994 235.528912)scale(0.088 -0.088)">
       <use xlink:href="#DejaVuSans-101"/>
       <use x="61.523438" xlink:href="#DejaVuSans-110"/>
       <use x="124.902344" xlink:href="#DejaVuSans-108"/>
       <use x="152.685547" xlink:href="#DejaVuSans-105"/>
       <use x="180.46875" xlink:href="#DejaVuSans-115"/>
       <use x="232.568359" xlink:href="#DejaVuSans-116"/>
       <use x="271.777344" xlink:href="#DejaVuSans-101"/>
       <use x="333.300781" xlink:href="#DejaVuSans-100"/>
       <use x="396.777344" xlink:href="#DejaVuSans-95"/>
       <use x="446.777344" xlink:href="#DejaVuSans-97"/>
       <use x="508.056641" xlink:href="#DejaVuSans-114"/>
       <use x="549.154297" xlink:href="#DejaVuSans-109"/>
       <use x="646.566406" xlink:href="#DejaVuSans-121"/>
      </g>
     </g>
    </g>
    <g id="ytick_25">
     <g id="text_35">
      <!-- work_company -->
      <g style="fill:#262626;" transform="translate(53.845625 243.938513)scale(0.088 -0.088)">
       <use xlink:href="#DejaVuSans-119"/>
       <use x="81.787109" xlink:href="#DejaVuSans-111"/>
       <use x="142.96875" xlink:href="#DejaVuSans-114"/>
       <use x="184.082031" xlink:href="#DejaVuSans-107"/>
       <use x="241.992188" xlink:href="#DejaVuSans-95"/>
       <use x="291.992188" xlink:href="#DejaVuSans-99"/>
       <use x="346.972656" xlink:href="#DejaVuSans-111"/>
       <use x="408.154297" xlink:href="#DejaVuSans-109"/>
       <use x="505.566406" xlink:href="#DejaVuSans-112"/>
       <use x="569.042969" xlink:href="#DejaVuSans-97"/>
       <use x="630.322266" xlink:href="#DejaVuSans-110"/>
       <use x="693.701172" xlink:href="#DejaVuSans-121"/>
      </g>
     </g>
    </g>
    <g id="text_36">
     <!-- field -->
     <g style="fill:#262626;" transform="translate(-1.386875 150.0375)rotate(-90)scale(0.096 -0.096)">
      <use xlink:href="#DejaVuSans-102"/>
      <use x="35.205078" xlink:href="#DejaVuSans-105"/>
      <use x="62.988281" xlink:href="#DejaVuSans-101"/>
      <use x="124.511719" xlink:href="#DejaVuSans-108"/>
      <use x="152.294922" xlink:href="#DejaVuSans-100"/>
     </g>
    </g>
   </g>
   <g id="patch_3">
    <path clip-path="url(#p5d577e4c61)" d="M 129.6 35.40096 
L 561.6 35.40096 
L 561.6 42.12864 
L 129.6 42.12864 
z
" style="fill:#ea96a3;stroke:#ffffff;stroke-linejoin:miter;"/>
   </g>
   <g id="patch_4">
    <path clip-path="url(#p5d577e4c61)" d="M 129.6 43.81056 
L 426.872024 43.81056 
L 426.872024 50.53824 
L 129.6 50.53824 
z
" style="fill:#e8968c;stroke:#ffffff;stroke-linejoin:miter;"/>
   </g>
   <g id="patch_5">
    <path clip-path="url(#p5d577e4c61)" d="M 129.6 52.22016 
L 366.774044 52.22016 
L 366.774044 58.94784 
L 129.6 58.94784 
z
" style="fill:#e2925a;stroke:#ffffff;stroke-linejoin:miter;"/>
   </g>
   <g id="patch_6">
    <path clip-path="url(#p5d577e4c61)" d="M 129.6 60.62976 
L 275.734938 60.62976 
L 275.734938 67.35744 
L 129.6 67.35744 
z
" style="fill:#cd974c;stroke:#ffffff;stroke-linejoin:miter;"/>
   </g>
   <g id="patch_7">
    <path clip-path="url(#p5d577e4c61)" d="M 129.6 69.03936 
L 258.593554 69.03936 
L 258.593554 75.76704 
L 129.6 75.76704 
z
" style="fill:#bb9b49;stroke:#ffffff;stroke-linejoin:miter;"/>
   </g>
   <g id="patch_8">
    <path clip-path="url(#p5d577e4c61)" d="M 129.6 77.44896 
L 244.587538 77.44896 
L 244.587538 84.17664 
L 129.6 84.17664 
z
" style="fill:#ab9e47;stroke:#ffffff;stroke-linejoin:miter;"/>
   </g>
   <g id="patch_9">
    <path clip-path="url(#p5d577e4c61)" d="M 129.6 85.85856 
L 213.728921 85.85856 
L 213.728921 92.58624 
L 129.6 92.58624 
z
" style="fill:#9ca146;stroke:#ffffff;stroke-linejoin:miter;"/>
   </g>
   <g id="patch_10">
    <path clip-path="url(#p5d577e4c61)" d="M 129.6 94.26816 
L 190.182725 94.26816 
L 190.182725 100.99584 
L 129.6 100.99584 
z
" style="fill:#8ba646;stroke:#ffffff;stroke-linejoin:miter;"/>
   </g>
   <g id="patch_11">
    <path clip-path="url(#p5d577e4c61)" d="M 129.6 102.67776 
L 187.098926 102.67776 
L 187.098926 109.40544 
L 129.6 109.40544 
z
" style="fill:#6fac47;stroke:#ffffff;stroke-linejoin:miter;"/>
   </g>
   <g id="patch_12">
    <path clip-path="url(#p5d577e4c61)" d="M 129.6 111.08736 
L 178.703567 111.08736 
L 178.703567 117.81504 
L 129.6 117.81504 
z
" style="fill:#48b062;stroke:#ffffff;stroke-linejoin:miter;"/>
   </g>
   <g id="patch_13">
    <path clip-path="url(#p5d577e4c61)" d="M 129.6 119.49696 
L 175.877611 119.49696 
L 175.877611 126.22464 
L 129.6 126.22464 
z
" style="fill:#49ae83;stroke:#ffffff;stroke-linejoin:miter;"/>
   </g>
   <g id="patch_14">
    <path clip-path="url(#p5d577e4c61)" d="M 129.6 127.90656 
L 165.677353 127.90656 
L 165.677353 134.63424 
L 129.6 134.63424 
z
" style="fill:#4aad93;stroke:#ffffff;stroke-linejoin:miter;"/>
   </g>
   <g id="patch_15">
    <path clip-path="url(#p5d577e4c61)" d="M 129.6 136.31616 
L 163.387709 136.31616 
L 163.387709 143.04384 
L 129.6 143.04384 
z
" style="fill:#4bac9f;stroke:#ffffff;stroke-linejoin:miter;"/>
   </g>
   <g id="patch_16">
    <path clip-path="url(#p5d577e4c61)" d="M 129.6 144.72576 
L 160.798969 144.72576 
L 160.798969 151.45344 
L 129.6 151.45344 
z
" style="fill:#4baba9;stroke:#ffffff;stroke-linejoin:miter;"/>
   </g>
   <g id="patch_17">
    <path clip-path="url(#p5d577e4c61)" d="M 129.6 153.13536 
L 155.404899 153.13536 
L 155.404899 159.86304 
L 129.6 159.86304 
z
" style="fill:#4eabb5;stroke:#ffffff;stroke-linejoin:miter;"/>
   </g>
   <g id="patch_18">
    <path clip-path="url(#p5d577e4c61)" d="M 129.6 161.54496 
L 151.588827 161.54496 
L 151.588827 168.27264 
L 129.6 168.27264 
z
" style="fill:#50acc3;stroke:#ffffff;stroke-linejoin:miter;"/>
   </g>
   <g id="patch_19">
    <path clip-path="url(#p5d577e4c61)" d="M 129.6 169.95456 
L 147.525226 169.95456 
L 147.525226 176.68224 
L 129.6 176.68224 
z
" style="fill:#55acd5;stroke:#ffffff;stroke-linejoin:miter;"/>
   </g>
   <g id="patch_20">
    <path clip-path="url(#p5d577e4c61)" d="M 129.6 178.36416 
L 144.039192 178.36416 
L 144.039192 185.09184 
L 129.6 185.09184 
z
" style="fill:#7faee5;stroke:#ffffff;stroke-linejoin:miter;"/>
   </g>
   <g id="patch_21">
    <path clip-path="url(#p5d577e4c61)" d="M 129.6 186.77376 
L 140.326257 186.77376 
L 140.326257 193.50144 
L 129.6 193.50144 
z
" style="fill:#a4acea;stroke:#ffffff;stroke-linejoin:miter;"/>
   </g>
   <g id="patch_22">
    <path clip-path="url(#p5d577e4c61)" d="M 129.6 195.18336 
L 135.891362 195.18336 
L 135.891362 201.91104 
L 129.6 201.91104 
z
" style="fill:#bba5ea;stroke:#ffffff;stroke-linejoin:miter;"/>
   </g>
   <g id="patch_23">
    <path clip-path="url(#p5d577e4c61)" d="M 129.6 203.59296 
L 135.365363 203.59296 
L 135.365363 210.32064 
L 129.6 210.32064 
z
" style="fill:#ce9be9;stroke:#ffffff;stroke-linejoin:miter;"/>
   </g>
   <g id="patch_24">
    <path clip-path="url(#p5d577e4c61)" d="M 129.6 212.00256 
L 130.311646 212.00256 
L 130.311646 218.73024 
L 129.6 218.73024 
z
" style="fill:#e28ce7;stroke:#ffffff;stroke-linejoin:miter;"/>
   </g>
   <g id="patch_25">
    <path clip-path="url(#p5d577e4c61)" d="M 129.6 220.41216 
L 129.96098 220.41216 
L 129.96098 227.13984 
L 129.6 227.13984 
z
" style="fill:#e78dd5;stroke:#ffffff;stroke-linejoin:miter;"/>
   </g>
   <g id="patch_26">
    <path clip-path="url(#p5d577e4c61)" d="M 129.6 228.82176 
L 129.888784 228.82176 
L 129.888784 235.54944 
L 129.6 235.54944 
z
" style="fill:#e890c4;stroke:#ffffff;stroke-linejoin:miter;"/>
   </g>
   <g id="patch_27">
    <path clip-path="url(#p5d577e4c61)" d="M 129.6 237.23136 
L 129.630941 237.23136 
L 129.630941 243.95904 
L 129.6 243.95904 
z
" style="fill:#e993b5;stroke:#ffffff;stroke-linejoin:miter;"/>
   </g>
   <g id="patch_28">
    <path d="M 129.6 244.8 
L 129.6 34.56 
" style="fill:none;stroke:#ffffff;stroke-linecap:square;stroke-linejoin:miter;stroke-width:1.25;"/>
   </g>
   <g id="patch_29">
    <path d="M 583.2 244.8 
L 583.2 34.56 
" style="fill:none;stroke:#ffffff;stroke-linecap:square;stroke-linejoin:miter;stroke-width:1.25;"/>
   </g>
   <g id="patch_30">
    <path d="M 129.6 244.8 
L 583.2 244.8 
" style="fill:none;stroke:#ffffff;stroke-linecap:square;stroke-linejoin:miter;stroke-width:1.25;"/>
   </g>
   <g id="patch_31">
    <path d="M 129.6 34.56 
L 583.2 34.56 
" style="fill:none;stroke:#ffffff;stroke-linecap:square;stroke-linejoin:miter;stroke-width:1.25;"/>
   </g>
   <g id="text_37">
    <!-- Data used to calculate ratings -->
    <defs>
     <path d="M 19.671875 64.796875 
L 19.671875 8.109375 
L 31.59375 8.109375 
Q 46.6875 8.109375 53.6875 14.9375 
Q 60.6875 21.78125 60.6875 36.53125 
Q 60.6875 51.171875 53.6875 57.984375 
Q 46.6875 64.796875 31.59375 64.796875 
z
M 9.8125 72.90625 
L 30.078125 72.90625 
Q 51.265625 72.90625 61.171875 64.09375 
Q 71.09375 55.28125 71.09375 36.53125 
Q 71.09375 17.671875 61.125 8.828125 
Q 51.171875 0 30.078125 0 
L 9.8125 0 
z
" id="DejaVuSans-68"/>
     <path id="DejaVuSans-32"/>
    </defs>
    <g style="fill:#262626;" transform="translate(284.04975 28.56)scale(0.096 -0.096)">
     <use xlink:href="#DejaVuSans-68"/>
     <use x="77.001953" xlink:href="#DejaVuSans-97"/>
     <use x="138.28125" xlink:href="#DejaVuSans-116"/>
     <use x="177.490234" xlink:href="#DejaVuSans-97"/>
     <use x="238.769531" xlink:href="#DejaVuSans-32"/>
     <use x="270.556641" xlink:href="#DejaVuSans-117"/>
     <use x="333.935547" xlink:href="#DejaVuSans-115"/>
     <use x="386.035156" xlink:href="#DejaVuSans-101"/>
     <use x="447.558594" xlink:href="#DejaVuSans-100"/>
     <use x="511.035156" xlink:href="#DejaVuSans-32"/>
     <use x="542.822266" xlink:href="#DejaVuSans-116"/>
     <use x="582.03125" xlink:href="#DejaVuSans-111"/>
     <use x="643.212891" xlink:href="#DejaVuSans-32"/>
     <use x="675" xlink:href="#DejaVuSans-99"/>
     <use x="729.980469" xlink:href="#DejaVuSans-97"/>
     <use x="791.259766" xlink:href="#DejaVuSans-108"/>
     <use x="819.042969" xlink:href="#DejaVuSans-99"/>
     <use x="874.023438" xlink:href="#DejaVuSans-117"/>
     <use x="937.402344" xlink:href="#DejaVuSans-108"/>
     <use x="965.185547" xlink:href="#DejaVuSans-97"/>
     <use x="1026.464844" xlink:href="#DejaVuSans-116"/>
     <use x="1065.673828" xlink:href="#DejaVuSans-101"/>
     <use x="1127.197266" xlink:href="#DejaVuSans-32"/>
     <use x="1158.984375" xlink:href="#DejaVuSans-114"/>
     <use x="1200.097656" xlink:href="#DejaVuSans-97"/>
     <use x="1261.376953" xlink:href="#DejaVuSans-116"/>
     <use x="1300.585938" xlink:href="#DejaVuSans-105"/>
     <use x="1328.369141" xlink:href="#DejaVuSans-110"/>
     <use x="1391.748047" xlink:href="#DejaVuSans-103"/>
     <use x="1455.224609" xlink:href="#DejaVuSans-115"/>
    </g>
   </g>
  </g>
 </g>
 <defs>
  <clipPath id="p5d577e4c61">
   <rect height="210.24" width="453.6" x="129.6" y="34.56"/>
  </clipPath>
 </defs>
</svg>
