<?xml version="1.0" encoding="utf-8" standalone="no"?>
<!DOCTYPE svg PUBLIC "-//W3C//DTD SVG 1.1//EN"
  "http://www.w3.org/Graphics/SVG/1.1/DTD/svg11.dtd">
<!-- Created with matplotlib (https://matplotlib.org/) -->
<svg height="216pt" version="1.1" viewBox="0 0 432 216" width="432pt" xmlns="http://www.w3.org/2000/svg" xmlns:xlink="http://www.w3.org/1999/xlink">
 <defs>
  <style type="text/css">
*{stroke-linecap:butt;stroke-linejoin:round;}
  </style>
 </defs>
 <g id="figure_1">
  <g id="patch_1">
   <path d="M 0 216 
L 432 216 
L 432 0 
L 0 0 
z
" style="fill:#ffffff;"/>
  </g>
  <g id="axes_1">
   <g id="patch_2">
    <path d="M 54 183.6 
L 388.8 183.6 
L 388.8 25.92 
L 54 25.92 
z
" style="fill:#eaeaf2;"/>
   </g>
   <g id="matplotlib.axis_1">
    <g id="xtick_1">
     <g id="line2d_1">
      <path clip-path="url(#pba85884fa9)" d="M 54 183.6 
L 54 25.92 
" style="fill:none;stroke:#ffffff;stroke-linecap:round;"/>
     </g>
     <g id="text_1">
      <!-- 0.00% -->
      <defs>
       <path d="M 31.78125 66.40625 
Q 24.171875 66.40625 20.328125 58.90625 
Q 16.5 51.421875 16.5 36.375 
Q 16.5 21.390625 20.328125 13.890625 
Q 24.171875 6.390625 31.78125 6.390625 
Q 39.453125 6.390625 43.28125 13.890625 
Q 47.125 21.390625 47.125 36.375 
Q 47.125 51.421875 43.28125 58.90625 
Q 39.453125 66.40625 31.78125 66.40625 
z
M 31.78125 74.21875 
Q 44.046875 74.21875 50.515625 64.515625 
Q 56.984375 54.828125 56.984375 36.375 
Q 56.984375 17.96875 50.515625 8.265625 
Q 44.046875 -1.421875 31.78125 -1.421875 
Q 19.53125 -1.421875 13.0625 8.265625 
Q 6.59375 17.96875 6.59375 36.375 
Q 6.59375 54.828125 13.0625 64.515625 
Q 19.53125 74.21875 31.78125 74.21875 
z
" id="DejaVuSans-48"/>
       <path d="M 10.6875 12.40625 
L 21 12.40625 
L 21 0 
L 10.6875 0 
z
" id="DejaVuSans-46"/>
       <path d="M 72.703125 32.078125 
Q 68.453125 32.078125 66.03125 28.46875 
Q 63.625 24.859375 63.625 18.40625 
Q 63.625 12.0625 66.03125 8.421875 
Q 68.453125 4.78125 72.703125 4.78125 
Q 76.859375 4.78125 79.265625 8.421875 
Q 81.6875 12.0625 81.6875 18.40625 
Q 81.6875 24.8125 79.265625 28.4375 
Q 76.859375 32.078125 72.703125 32.078125 
z
M 72.703125 38.28125 
Q 80.421875 38.28125 84.953125 32.90625 
Q 89.5 27.546875 89.5 18.40625 
Q 89.5 9.28125 84.9375 3.921875 
Q 80.375 -1.421875 72.703125 -1.421875 
Q 64.890625 -1.421875 60.34375 3.921875 
Q 55.8125 9.28125 55.8125 18.40625 
Q 55.8125 27.59375 60.375 32.9375 
Q 64.9375 38.28125 72.703125 38.28125 
z
M 22.3125 68.015625 
Q 18.109375 68.015625 15.6875 64.375 
Q 13.28125 60.75 13.28125 54.390625 
Q 13.28125 47.953125 15.671875 44.328125 
Q 18.0625 40.71875 22.3125 40.71875 
Q 26.5625 40.71875 28.96875 44.328125 
Q 31.390625 47.953125 31.390625 54.390625 
Q 31.390625 60.6875 28.953125 64.34375 
Q 26.515625 68.015625 22.3125 68.015625 
z
M 66.40625 74.21875 
L 74.21875 74.21875 
L 28.609375 -1.421875 
L 20.796875 -1.421875 
z
M 22.3125 74.21875 
Q 30.03125 74.21875 34.609375 68.875 
Q 39.203125 63.53125 39.203125 54.390625 
Q 39.203125 45.171875 34.640625 39.84375 
Q 30.078125 34.515625 22.3125 34.515625 
Q 14.546875 34.515625 10.03125 39.859375 
Q 5.515625 45.21875 5.515625 54.390625 
Q 5.515625 63.484375 10.046875 68.84375 
Q 14.59375 74.21875 22.3125 74.21875 
z
" id="DejaVuSans-37"/>
      </defs>
      <g style="fill:#262626;" transform="translate(40.022437 199.786625)scale(0.088 -0.088)">
       <use xlink:href="#DejaVuSans-48"/>
       <use x="63.623047" xlink:href="#DejaVuSans-46"/>
       <use x="95.410156" xlink:href="#DejaVuSans-48"/>
       <use x="159.033203" xlink:href="#DejaVuSans-48"/>
       <use x="222.65625" xlink:href="#DejaVuSans-37"/>
      </g>
     </g>
    </g>
    <g id="xtick_2">
     <g id="line2d_2">
      <path clip-path="url(#pba85884fa9)" d="M 120.96 183.6 
L 120.96 25.92 
" style="fill:none;stroke:#ffffff;stroke-linecap:round;"/>
     </g>
     <g id="text_2">
      <!-- 2.00% -->
      <defs>
       <path d="M 19.1875 8.296875 
L 53.609375 8.296875 
L 53.609375 0 
L 7.328125 0 
L 7.328125 8.296875 
Q 12.9375 14.109375 22.625 23.890625 
Q 32.328125 33.6875 34.8125 36.53125 
Q 39.546875 41.84375 41.421875 45.53125 
Q 43.3125 49.21875 43.3125 52.78125 
Q 43.3125 58.59375 39.234375 62.25 
Q 35.15625 65.921875 28.609375 65.921875 
Q 23.96875 65.921875 18.8125 64.3125 
Q 13.671875 62.703125 7.8125 59.421875 
L 7.8125 69.390625 
Q 13.765625 71.78125 18.9375 73 
Q 24.125 74.21875 28.421875 74.21875 
Q 39.75 74.21875 46.484375 68.546875 
Q 53.21875 62.890625 53.21875 53.421875 
Q 53.21875 48.921875 51.53125 44.890625 
Q 49.859375 40.875 45.40625 35.40625 
Q 44.1875 33.984375 37.640625 27.21875 
Q 31.109375 20.453125 19.1875 8.296875 
z
" id="DejaVuSans-50"/>
      </defs>
      <g style="fill:#262626;" transform="translate(106.982438 199.786625)scale(0.088 -0.088)">
       <use xlink:href="#DejaVuSans-50"/>
       <use x="63.623047" xlink:href="#DejaVuSans-46"/>
       <use x="95.410156" xlink:href="#DejaVuSans-48"/>
       <use x="159.033203" xlink:href="#DejaVuSans-48"/>
       <use x="222.65625" xlink:href="#DejaVuSans-37"/>
      </g>
     </g>
    </g>
    <g id="xtick_3">
     <g id="line2d_3">
      <path clip-path="url(#pba85884fa9)" d="M 187.92 183.6 
L 187.92 25.92 
" style="fill:none;stroke:#ffffff;stroke-linecap:round;"/>
     </g>
     <g id="text_3">
      <!-- 4.00% -->
      <defs>
       <path d="M 37.796875 64.3125 
L 12.890625 25.390625 
L 37.796875 25.390625 
z
M 35.203125 72.90625 
L 47.609375 72.90625 
L 47.609375 25.390625 
L 58.015625 25.390625 
L 58.015625 17.1875 
L 47.609375 17.1875 
L 47.609375 0 
L 37.796875 0 
L 37.796875 17.1875 
L 4.890625 17.1875 
L 4.890625 26.703125 
z
" id="DejaVuSans-52"/>
      </defs>
      <g style="fill:#262626;" transform="translate(173.942438 199.786625)scale(0.088 -0.088)">
       <use xlink:href="#DejaVuSans-52"/>
       <use x="63.623047" xlink:href="#DejaVuSans-46"/>
       <use x="95.410156" xlink:href="#DejaVuSans-48"/>
       <use x="159.033203" xlink:href="#DejaVuSans-48"/>
       <use x="222.65625" xlink:href="#DejaVuSans-37"/>
      </g>
     </g>
    </g>
    <g id="xtick_4">
     <g id="line2d_4">
      <path clip-path="url(#pba85884fa9)" d="M 254.88 183.6 
L 254.88 25.92 
" style="fill:none;stroke:#ffffff;stroke-linecap:round;"/>
     </g>
     <g id="text_4">
      <!-- 6.00% -->
      <defs>
       <path d="M 33.015625 40.375 
Q 26.375 40.375 22.484375 35.828125 
Q 18.609375 31.296875 18.609375 23.390625 
Q 18.609375 15.53125 22.484375 10.953125 
Q 26.375 6.390625 33.015625 6.390625 
Q 39.65625 6.390625 43.53125 10.953125 
Q 47.40625 15.53125 47.40625 23.390625 
Q 47.40625 31.296875 43.53125 35.828125 
Q 39.65625 40.375 33.015625 40.375 
z
M 52.59375 71.296875 
L 52.59375 62.3125 
Q 48.875 64.0625 45.09375 64.984375 
Q 41.3125 65.921875 37.59375 65.921875 
Q 27.828125 65.921875 22.671875 59.328125 
Q 17.53125 52.734375 16.796875 39.40625 
Q 19.671875 43.65625 24.015625 45.921875 
Q 28.375 48.1875 33.59375 48.1875 
Q 44.578125 48.1875 50.953125 41.515625 
Q 57.328125 34.859375 57.328125 23.390625 
Q 57.328125 12.15625 50.6875 5.359375 
Q 44.046875 -1.421875 33.015625 -1.421875 
Q 20.359375 -1.421875 13.671875 8.265625 
Q 6.984375 17.96875 6.984375 36.375 
Q 6.984375 53.65625 15.1875 63.9375 
Q 23.390625 74.21875 37.203125 74.21875 
Q 40.921875 74.21875 44.703125 73.484375 
Q 48.484375 72.75 52.59375 71.296875 
z
" id="DejaVuSans-54"/>
      </defs>
      <g style="fill:#262626;" transform="translate(240.902437 199.786625)scale(0.088 -0.088)">
       <use xlink:href="#DejaVuSans-54"/>
       <use x="63.623047" xlink:href="#DejaVuSans-46"/>
       <use x="95.410156" xlink:href="#DejaVuSans-48"/>
       <use x="159.033203" xlink:href="#DejaVuSans-48"/>
       <use x="222.65625" xlink:href="#DejaVuSans-37"/>
      </g>
     </g>
    </g>
    <g id="xtick_5">
     <g id="line2d_5">
      <path clip-path="url(#pba85884fa9)" d="M 321.84 183.6 
L 321.84 25.92 
" style="fill:none;stroke:#ffffff;stroke-linecap:round;"/>
     </g>
     <g id="text_5">
      <!-- 8.00% -->
      <defs>
       <path d="M 31.78125 34.625 
Q 24.75 34.625 20.71875 30.859375 
Q 16.703125 27.09375 16.703125 20.515625 
Q 16.703125 13.921875 20.71875 10.15625 
Q 24.75 6.390625 31.78125 6.390625 
Q 38.8125 6.390625 42.859375 10.171875 
Q 46.921875 13.96875 46.921875 20.515625 
Q 46.921875 27.09375 42.890625 30.859375 
Q 38.875 34.625 31.78125 34.625 
z
M 21.921875 38.8125 
Q 15.578125 40.375 12.03125 44.71875 
Q 8.5 49.078125 8.5 55.328125 
Q 8.5 64.0625 14.71875 69.140625 
Q 20.953125 74.21875 31.78125 74.21875 
Q 42.671875 74.21875 48.875 69.140625 
Q 55.078125 64.0625 55.078125 55.328125 
Q 55.078125 49.078125 51.53125 44.71875 
Q 48 40.375 41.703125 38.8125 
Q 48.828125 37.15625 52.796875 32.3125 
Q 56.78125 27.484375 56.78125 20.515625 
Q 56.78125 9.90625 50.3125 4.234375 
Q 43.84375 -1.421875 31.78125 -1.421875 
Q 19.734375 -1.421875 13.25 4.234375 
Q 6.78125 9.90625 6.78125 20.515625 
Q 6.78125 27.484375 10.78125 32.3125 
Q 14.796875 37.15625 21.921875 38.8125 
z
M 18.3125 54.390625 
Q 18.3125 48.734375 21.84375 45.5625 
Q 25.390625 42.390625 31.78125 42.390625 
Q 38.140625 42.390625 41.71875 45.5625 
Q 45.3125 48.734375 45.3125 54.390625 
Q 45.3125 60.0625 41.71875 63.234375 
Q 38.140625 66.40625 31.78125 66.40625 
Q 25.390625 66.40625 21.84375 63.234375 
Q 18.3125 60.0625 18.3125 54.390625 
z
" id="DejaVuSans-56"/>
      </defs>
      <g style="fill:#262626;" transform="translate(307.862438 199.786625)scale(0.088 -0.088)">
       <use xlink:href="#DejaVuSans-56"/>
       <use x="63.623047" xlink:href="#DejaVuSans-46"/>
       <use x="95.410156" xlink:href="#DejaVuSans-48"/>
       <use x="159.033203" xlink:href="#DejaVuSans-48"/>
       <use x="222.65625" xlink:href="#DejaVuSans-37"/>
      </g>
     </g>
    </g>
    <g id="xtick_6">
     <g id="line2d_6">
      <path clip-path="url(#pba85884fa9)" d="M 388.8 183.6 
L 388.8 25.92 
" style="fill:none;stroke:#ffffff;stroke-linecap:round;"/>
     </g>
     <g id="text_6">
      <!-- 10.00% -->
      <defs>
       <path d="M 12.40625 8.296875 
L 28.515625 8.296875 
L 28.515625 63.921875 
L 10.984375 60.40625 
L 10.984375 69.390625 
L 28.421875 72.90625 
L 38.28125 72.90625 
L 38.28125 8.296875 
L 54.390625 8.296875 
L 54.390625 0 
L 12.40625 0 
z
" id="DejaVuSans-49"/>
      </defs>
      <g style="fill:#262626;" transform="translate(372.022938 199.786625)scale(0.088 -0.088)">
       <use xlink:href="#DejaVuSans-49"/>
       <use x="63.623047" xlink:href="#DejaVuSans-48"/>
       <use x="127.246094" xlink:href="#DejaVuSans-46"/>
       <use x="159.033203" xlink:href="#DejaVuSans-48"/>
       <use x="222.65625" xlink:href="#DejaVuSans-48"/>
       <use x="286.279297" xlink:href="#DejaVuSans-37"/>
      </g>
     </g>
    </g>
    <g id="text_7">
     <!-- score -->
     <defs>
      <path d="M 44.28125 53.078125 
L 44.28125 44.578125 
Q 40.484375 46.53125 36.375 47.5 
Q 32.28125 48.484375 27.875 48.484375 
Q 21.1875 48.484375 17.84375 46.4375 
Q 14.5 44.390625 14.5 40.28125 
Q 14.5 37.15625 16.890625 35.375 
Q 19.28125 33.59375 26.515625 31.984375 
L 29.59375 31.296875 
Q 39.15625 29.25 43.1875 25.515625 
Q 47.21875 21.78125 47.21875 15.09375 
Q 47.21875 7.46875 41.1875 3.015625 
Q 35.15625 -1.421875 24.609375 -1.421875 
Q 20.21875 -1.421875 15.453125 -0.5625 
Q 10.6875 0.296875 5.421875 2 
L 5.421875 11.28125 
Q 10.40625 8.6875 15.234375 7.390625 
Q 20.0625 6.109375 24.8125 6.109375 
Q 31.15625 6.109375 34.5625 8.28125 
Q 37.984375 10.453125 37.984375 14.40625 
Q 37.984375 18.0625 35.515625 20.015625 
Q 33.0625 21.96875 24.703125 23.78125 
L 21.578125 24.515625 
Q 13.234375 26.265625 9.515625 29.90625 
Q 5.8125 33.546875 5.8125 39.890625 
Q 5.8125 47.609375 11.28125 51.796875 
Q 16.75 56 26.8125 56 
Q 31.78125 56 36.171875 55.265625 
Q 40.578125 54.546875 44.28125 53.078125 
z
" id="DejaVuSans-115"/>
      <path d="M 48.78125 52.59375 
L 48.78125 44.1875 
Q 44.96875 46.296875 41.140625 47.34375 
Q 37.3125 48.390625 33.40625 48.390625 
Q 24.65625 48.390625 19.8125 42.84375 
Q 14.984375 37.3125 14.984375 27.296875 
Q 14.984375 17.28125 19.8125 11.734375 
Q 24.65625 6.203125 33.40625 6.203125 
Q 37.3125 6.203125 41.140625 7.25 
Q 44.96875 8.296875 48.78125 10.40625 
L 48.78125 2.09375 
Q 45.015625 0.34375 40.984375 -0.53125 
Q 36.96875 -1.421875 32.421875 -1.421875 
Q 20.0625 -1.421875 12.78125 6.34375 
Q 5.515625 14.109375 5.515625 27.296875 
Q 5.515625 40.671875 12.859375 48.328125 
Q 20.21875 56 33.015625 56 
Q 37.15625 56 41.109375 55.140625 
Q 45.0625 54.296875 48.78125 52.59375 
z
" id="DejaVuSans-99"/>
      <path d="M 30.609375 48.390625 
Q 23.390625 48.390625 19.1875 42.75 
Q 14.984375 37.109375 14.984375 27.296875 
Q 14.984375 17.484375 19.15625 11.84375 
Q 23.34375 6.203125 30.609375 6.203125 
Q 37.796875 6.203125 41.984375 11.859375 
Q 46.1875 17.53125 46.1875 27.296875 
Q 46.1875 37.015625 41.984375 42.703125 
Q 37.796875 48.390625 30.609375 48.390625 
z
M 30.609375 56 
Q 42.328125 56 49.015625 48.375 
Q 55.71875 40.765625 55.71875 27.296875 
Q 55.71875 13.875 49.015625 6.21875 
Q 42.328125 -1.421875 30.609375 -1.421875 
Q 18.84375 -1.421875 12.171875 6.21875 
Q 5.515625 13.875 5.515625 27.296875 
Q 5.515625 40.765625 12.171875 48.375 
Q 18.84375 56 30.609375 56 
z
" id="DejaVuSans-111"/>
      <path d="M 41.109375 46.296875 
Q 39.59375 47.171875 37.8125 47.578125 
Q 36.03125 48 33.890625 48 
Q 26.265625 48 22.1875 43.046875 
Q 18.109375 38.09375 18.109375 28.8125 
L 18.109375 0 
L 9.078125 0 
L 9.078125 54.6875 
L 18.109375 54.6875 
L 18.109375 46.1875 
Q 20.953125 51.171875 25.484375 53.578125 
Q 30.03125 56 36.53125 56 
Q 37.453125 56 38.578125 55.875 
Q 39.703125 55.765625 41.0625 55.515625 
z
" id="DejaVuSans-114"/>
      <path d="M 56.203125 29.59375 
L 56.203125 25.203125 
L 14.890625 25.203125 
Q 15.484375 15.921875 20.484375 11.0625 
Q 25.484375 6.203125 34.421875 6.203125 
Q 39.59375 6.203125 44.453125 7.46875 
Q 49.3125 8.734375 54.109375 11.28125 
L 54.109375 2.78125 
Q 49.265625 0.734375 44.1875 -0.34375 
Q 39.109375 -1.421875 33.890625 -1.421875 
Q 20.796875 -1.421875 13.15625 6.1875 
Q 5.515625 13.8125 5.515625 26.8125 
Q 5.515625 40.234375 12.765625 48.109375 
Q 20.015625 56 32.328125 56 
Q 43.359375 56 49.78125 48.890625 
Q 56.203125 41.796875 56.203125 29.59375 
z
M 47.21875 32.234375 
Q 47.125 39.59375 43.09375 43.984375 
Q 39.0625 48.390625 32.421875 48.390625 
Q 24.90625 48.390625 20.390625 44.140625 
Q 15.875 39.890625 15.1875 32.171875 
z
" id="DejaVuSans-101"/>
     </defs>
     <g style="fill:#262626;" transform="translate(208.398 212.91125)scale(0.096 -0.096)">
      <use xlink:href="#DejaVuSans-115"/>
      <use x="52.099609" xlink:href="#DejaVuSans-99"/>
      <use x="107.080078" xlink:href="#DejaVuSans-111"/>
      <use x="168.261719" xlink:href="#DejaVuSans-114"/>
      <use x="209.34375" xlink:href="#DejaVuSans-101"/>
     </g>
    </g>
   </g>
   <g id="matplotlib.axis_2">
    <g id="ytick_1">
     <g id="line2d_7">
      <path clip-path="url(#pba85884fa9)" d="M 54 183.6 
L 388.8 183.6 
" style="fill:none;stroke:#ffffff;stroke-linecap:round;"/>
     </g>
     <g id="text_8">
      <!-- 0% -->
      <g style="fill:#262626;" transform="translate(30.539625 186.943312)scale(0.088 -0.088)">
       <use xlink:href="#DejaVuSans-48"/>
       <use x="63.623047" xlink:href="#DejaVuSans-37"/>
      </g>
     </g>
    </g>
    <g id="ytick_2">
     <g id="line2d_8">
      <path clip-path="url(#pba85884fa9)" d="M 54 159.287606 
L 388.8 159.287606 
" style="fill:none;stroke:#ffffff;stroke-linecap:round;"/>
     </g>
     <g id="text_9">
      <!-- 5% -->
      <defs>
       <path d="M 10.796875 72.90625 
L 49.515625 72.90625 
L 49.515625 64.59375 
L 19.828125 64.59375 
L 19.828125 46.734375 
Q 21.96875 47.46875 24.109375 47.828125 
Q 26.265625 48.1875 28.421875 48.1875 
Q 40.625 48.1875 47.75 41.5 
Q 54.890625 34.8125 54.890625 23.390625 
Q 54.890625 11.625 47.5625 5.09375 
Q 40.234375 -1.421875 26.90625 -1.421875 
Q 22.3125 -1.421875 17.546875 -0.640625 
Q 12.796875 0.140625 7.71875 1.703125 
L 7.71875 11.625 
Q 12.109375 9.234375 16.796875 8.0625 
Q 21.484375 6.890625 26.703125 6.890625 
Q 35.15625 6.890625 40.078125 11.328125 
Q 45.015625 15.765625 45.015625 23.390625 
Q 45.015625 31 40.078125 35.4375 
Q 35.15625 39.890625 26.703125 39.890625 
Q 22.75 39.890625 18.8125 39.015625 
Q 14.890625 38.140625 10.796875 36.28125 
z
" id="DejaVuSans-53"/>
      </defs>
      <g style="fill:#262626;" transform="translate(30.539625 162.630919)scale(0.088 -0.088)">
       <use xlink:href="#DejaVuSans-53"/>
       <use x="63.623047" xlink:href="#DejaVuSans-37"/>
      </g>
     </g>
    </g>
    <g id="ytick_3">
     <g id="line2d_9">
      <path clip-path="url(#pba85884fa9)" d="M 54 134.975212 
L 388.8 134.975212 
" style="fill:none;stroke:#ffffff;stroke-linecap:round;"/>
     </g>
     <g id="text_10">
      <!-- 10% -->
      <g style="fill:#262626;" transform="translate(24.940625 138.318525)scale(0.088 -0.088)">
       <use xlink:href="#DejaVuSans-49"/>
       <use x="63.623047" xlink:href="#DejaVuSans-48"/>
       <use x="127.246094" xlink:href="#DejaVuSans-37"/>
      </g>
     </g>
    </g>
    <g id="ytick_4">
     <g id="line2d_10">
      <path clip-path="url(#pba85884fa9)" d="M 54 110.662818 
L 388.8 110.662818 
" style="fill:none;stroke:#ffffff;stroke-linecap:round;"/>
     </g>
     <g id="text_11">
      <!-- 15% -->
      <g style="fill:#262626;" transform="translate(24.940625 114.006131)scale(0.088 -0.088)">
       <use xlink:href="#DejaVuSans-49"/>
       <use x="63.623047" xlink:href="#DejaVuSans-53"/>
       <use x="127.246094" xlink:href="#DejaVuSans-37"/>
      </g>
     </g>
    </g>
    <g id="ytick_5">
     <g id="line2d_11">
      <path clip-path="url(#pba85884fa9)" d="M 54 86.350424 
L 388.8 86.350424 
" style="fill:none;stroke:#ffffff;stroke-linecap:round;"/>
     </g>
     <g id="text_12">
      <!-- 20% -->
      <g style="fill:#262626;" transform="translate(24.940625 89.693737)scale(0.088 -0.088)">
       <use xlink:href="#DejaVuSans-50"/>
       <use x="63.623047" xlink:href="#DejaVuSans-48"/>
       <use x="127.246094" xlink:href="#DejaVuSans-37"/>
      </g>
     </g>
    </g>
    <g id="ytick_6">
     <g id="line2d_12">
      <path clip-path="url(#pba85884fa9)" d="M 54 62.03803 
L 388.8 62.03803 
" style="fill:none;stroke:#ffffff;stroke-linecap:round;"/>
     </g>
     <g id="text_13">
      <!-- 25% -->
      <g style="fill:#262626;" transform="translate(24.940625 65.381343)scale(0.088 -0.088)">
       <use xlink:href="#DejaVuSans-50"/>
       <use x="63.623047" xlink:href="#DejaVuSans-53"/>
       <use x="127.246094" xlink:href="#DejaVuSans-37"/>
      </g>
     </g>
    </g>
    <g id="ytick_7">
     <g id="line2d_13">
      <path clip-path="url(#pba85884fa9)" d="M 54 37.725637 
L 388.8 37.725637 
" style="fill:none;stroke:#ffffff;stroke-linecap:round;"/>
     </g>
     <g id="text_14">
      <!-- 30% -->
      <defs>
       <path d="M 40.578125 39.3125 
Q 47.65625 37.796875 51.625 33 
Q 55.609375 28.21875 55.609375 21.1875 
Q 55.609375 10.40625 48.1875 4.484375 
Q 40.765625 -1.421875 27.09375 -1.421875 
Q 22.515625 -1.421875 17.65625 -0.515625 
Q 12.796875 0.390625 7.625 2.203125 
L 7.625 11.71875 
Q 11.71875 9.328125 16.59375 8.109375 
Q 21.484375 6.890625 26.8125 6.890625 
Q 36.078125 6.890625 40.9375 10.546875 
Q 45.796875 14.203125 45.796875 21.1875 
Q 45.796875 27.640625 41.28125 31.265625 
Q 36.765625 34.90625 28.71875 34.90625 
L 20.21875 34.90625 
L 20.21875 43.015625 
L 29.109375 43.015625 
Q 36.375 43.015625 40.234375 45.921875 
Q 44.09375 48.828125 44.09375 54.296875 
Q 44.09375 59.90625 40.109375 62.90625 
Q 36.140625 65.921875 28.71875 65.921875 
Q 24.65625 65.921875 20.015625 65.03125 
Q 15.375 64.15625 9.8125 62.3125 
L 9.8125 71.09375 
Q 15.4375 72.65625 20.34375 73.4375 
Q 25.25 74.21875 29.59375 74.21875 
Q 40.828125 74.21875 47.359375 69.109375 
Q 53.90625 64.015625 53.90625 55.328125 
Q 53.90625 49.265625 50.4375 45.09375 
Q 46.96875 40.921875 40.578125 39.3125 
z
" id="DejaVuSans-51"/>
      </defs>
      <g style="fill:#262626;" transform="translate(24.940625 41.068949)scale(0.088 -0.088)">
       <use xlink:href="#DejaVuSans-51"/>
       <use x="63.623047" xlink:href="#DejaVuSans-48"/>
       <use x="127.246094" xlink:href="#DejaVuSans-37"/>
      </g>
     </g>
    </g>
    <g id="text_15">
     <!-- Kernel density -->
     <defs>
      <path d="M 9.8125 72.90625 
L 19.671875 72.90625 
L 19.671875 42.09375 
L 52.390625 72.90625 
L 65.09375 72.90625 
L 28.90625 38.921875 
L 67.671875 0 
L 54.6875 0 
L 19.671875 35.109375 
L 19.671875 0 
L 9.8125 0 
z
" id="DejaVuSans-75"/>
      <path d="M 54.890625 33.015625 
L 54.890625 0 
L 45.90625 0 
L 45.90625 32.71875 
Q 45.90625 40.484375 42.875 44.328125 
Q 39.84375 48.1875 33.796875 48.1875 
Q 26.515625 48.1875 22.3125 43.546875 
Q 18.109375 38.921875 18.109375 30.90625 
L 18.109375 0 
L 9.078125 0 
L 9.078125 54.6875 
L 18.109375 54.6875 
L 18.109375 46.1875 
Q 21.34375 51.125 25.703125 53.5625 
Q 30.078125 56 35.796875 56 
Q 45.21875 56 50.046875 50.171875 
Q 54.890625 44.34375 54.890625 33.015625 
z
" id="DejaVuSans-110"/>
      <path d="M 9.421875 75.984375 
L 18.40625 75.984375 
L 18.40625 0 
L 9.421875 0 
z
" id="DejaVuSans-108"/>
      <path id="DejaVuSans-32"/>
      <path d="M 45.40625 46.390625 
L 45.40625 75.984375 
L 54.390625 75.984375 
L 54.390625 0 
L 45.40625 0 
L 45.40625 8.203125 
Q 42.578125 3.328125 38.25 0.953125 
Q 33.9375 -1.421875 27.875 -1.421875 
Q 17.96875 -1.421875 11.734375 6.484375 
Q 5.515625 14.40625 5.515625 27.296875 
Q 5.515625 40.1875 11.734375 48.09375 
Q 17.96875 56 27.875 56 
Q 33.9375 56 38.25 53.625 
Q 42.578125 51.265625 45.40625 46.390625 
z
M 14.796875 27.296875 
Q 14.796875 17.390625 18.875 11.75 
Q 22.953125 6.109375 30.078125 6.109375 
Q 37.203125 6.109375 41.296875 11.75 
Q 45.40625 17.390625 45.40625 27.296875 
Q 45.40625 37.203125 41.296875 42.84375 
Q 37.203125 48.484375 30.078125 48.484375 
Q 22.953125 48.484375 18.875 42.84375 
Q 14.796875 37.203125 14.796875 27.296875 
z
" id="DejaVuSans-100"/>
      <path d="M 9.421875 54.6875 
L 18.40625 54.6875 
L 18.40625 0 
L 9.421875 0 
z
M 9.421875 75.984375 
L 18.40625 75.984375 
L 18.40625 64.59375 
L 9.421875 64.59375 
z
" id="DejaVuSans-105"/>
      <path d="M 18.3125 70.21875 
L 18.3125 54.6875 
L 36.8125 54.6875 
L 36.8125 47.703125 
L 18.3125 47.703125 
L 18.3125 18.015625 
Q 18.3125 11.328125 20.140625 9.421875 
Q 21.96875 7.515625 27.59375 7.515625 
L 36.8125 7.515625 
L 36.8125 0 
L 27.59375 0 
Q 17.1875 0 13.234375 3.875 
Q 9.28125 7.765625 9.28125 18.015625 
L 9.28125 47.703125 
L 2.6875 47.703125 
L 2.6875 54.6875 
L 9.28125 54.6875 
L 9.28125 70.21875 
z
" id="DejaVuSans-116"/>
      <path d="M 32.171875 -5.078125 
Q 28.375 -14.84375 24.75 -17.8125 
Q 21.140625 -20.796875 15.09375 -20.796875 
L 7.90625 -20.796875 
L 7.90625 -13.28125 
L 13.1875 -13.28125 
Q 16.890625 -13.28125 18.9375 -11.515625 
Q 21 -9.765625 23.484375 -3.21875 
L 25.09375 0.875 
L 2.984375 54.6875 
L 12.5 54.6875 
L 29.59375 11.921875 
L 46.6875 54.6875 
L 56.203125 54.6875 
z
" id="DejaVuSans-121"/>
     </defs>
     <g style="fill:#262626;" transform="translate(18.944125 139.284)rotate(-90)scale(0.096 -0.096)">
      <use xlink:href="#DejaVuSans-75"/>
      <use x="65.498047" xlink:href="#DejaVuSans-101"/>
      <use x="127.021484" xlink:href="#DejaVuSans-114"/>
      <use x="168.119141" xlink:href="#DejaVuSans-110"/>
      <use x="231.498047" xlink:href="#DejaVuSans-101"/>
      <use x="293.021484" xlink:href="#DejaVuSans-108"/>
      <use x="320.804688" xlink:href="#DejaVuSans-32"/>
      <use x="352.591797" xlink:href="#DejaVuSans-100"/>
      <use x="416.068359" xlink:href="#DejaVuSans-101"/>
      <use x="477.591797" xlink:href="#DejaVuSans-110"/>
      <use x="540.970703" xlink:href="#DejaVuSans-115"/>
      <use x="593.070312" xlink:href="#DejaVuSans-105"/>
      <use x="620.853516" xlink:href="#DejaVuSans-116"/>
      <use x="660.0625" xlink:href="#DejaVuSans-121"/>
     </g>
    </g>
   </g>
   <g id="PolyCollection_1">
    <defs>
     <path d="M 54.961202 -32.404836 
L 54.961202 -32.4 
L 58.571691 -32.4 
L 62.182181 -32.4 
L 65.79267 -32.4 
L 69.403159 -32.4 
L 73.013648 -32.4 
L 76.624137 -32.4 
L 80.234626 -32.4 
L 83.845115 -32.4 
L 87.455604 -32.4 
L 91.066094 -32.4 
L 94.676583 -32.4 
L 98.287072 -32.4 
L 101.897561 -32.4 
L 105.50805 -32.4 
L 109.118539 -32.4 
L 112.729028 -32.4 
L 116.339517 -32.4 
L 119.950007 -32.4 
L 123.560496 -32.4 
L 127.170985 -32.4 
L 130.781474 -32.4 
L 134.391963 -32.4 
L 138.002452 -32.4 
L 141.612941 -32.4 
L 145.22343 -32.4 
L 148.833919 -32.4 
L 152.444409 -32.4 
L 156.054898 -32.4 
L 159.665387 -32.4 
L 163.275876 -32.4 
L 166.886365 -32.4 
L 170.496854 -32.4 
L 174.107343 -32.4 
L 177.717832 -32.4 
L 181.328322 -32.4 
L 184.938811 -32.4 
L 188.5493 -32.4 
L 192.159789 -32.4 
L 195.770278 -32.4 
L 199.380767 -32.4 
L 202.991256 -32.4 
L 206.601745 -32.4 
L 210.212235 -32.4 
L 213.822724 -32.4 
L 217.433213 -32.4 
L 221.043702 -32.4 
L 224.654191 -32.4 
L 228.26468 -32.4 
L 231.875169 -32.4 
L 235.485658 -32.4 
L 239.096147 -32.4 
L 242.706637 -32.4 
L 246.317126 -32.4 
L 249.927615 -32.4 
L 253.538104 -32.4 
L 257.148593 -32.4 
L 260.759082 -32.4 
L 264.369571 -32.4 
L 267.98006 -32.4 
L 271.59055 -32.4 
L 275.201039 -32.4 
L 278.811528 -32.4 
L 282.422017 -32.4 
L 286.032506 -32.4 
L 289.642995 -32.4 
L 293.253484 -32.4 
L 296.863973 -32.4 
L 300.474462 -32.4 
L 304.084952 -32.4 
L 307.695441 -32.4 
L 311.30593 -32.4 
L 314.916419 -32.4 
L 318.526908 -32.4 
L 322.137397 -32.4 
L 325.747886 -32.4 
L 329.358375 -32.4 
L 332.968865 -32.4 
L 336.579354 -32.4 
L 340.189843 -32.4 
L 343.800332 -32.4 
L 347.410821 -32.4 
L 351.02131 -32.4 
L 354.631799 -32.4 
L 358.242288 -32.4 
L 361.852778 -32.4 
L 365.463267 -32.4 
L 369.073756 -32.4 
L 372.684245 -32.4 
L 376.294734 -32.4 
L 379.905223 -32.4 
L 383.515712 -32.4 
L 387.126201 -32.4 
L 390.73669 -32.4 
L 394.34718 -32.4 
L 397.957669 -32.4 
L 401.568158 -32.4 
L 405.178647 -32.4 
L 408.789136 -32.4 
L 412.399625 -32.4 
L 412.399625 -32.408008 
L 412.399625 -32.408008 
L 408.789136 -32.432033 
L 405.178647 -32.505894 
L 401.568158 -32.691268 
L 397.957669 -33.073035 
L 394.34718 -33.723783 
L 390.73669 -34.652958 
L 387.126201 -35.777367 
L 383.515712 -36.933272 
L 379.905223 -37.93008 
L 376.294734 -38.668447 
L 372.684245 -39.335926 
L 369.073756 -40.566775 
L 365.463267 -43.310728 
L 361.852778 -48.198113 
L 358.242288 -54.601138 
L 354.631799 -60.283576 
L 351.02131 -62.554776 
L 347.410821 -60.344096 
L 343.800332 -55.150415 
L 340.189843 -49.887763 
L 336.579354 -47.084989 
L 332.968865 -48.193847 
L 329.358375 -53.881447 
L 325.747886 -64.133135 
L 322.137397 -77.692592 
L 318.526908 -91.408292 
L 314.916419 -100.662817 
L 311.30593 -101.700504 
L 307.695441 -94.502133 
L 304.084952 -83.015593 
L 300.474462 -71.931076 
L 296.863973 -63.547216 
L 293.253484 -57.891503 
L 289.642995 -54.644716 
L 286.032506 -53.774455 
L 282.422017 -54.768735 
L 278.811528 -56.591592 
L 275.201039 -58.976631 
L 271.59055 -63.290607 
L 267.98006 -71.383014 
L 264.369571 -83.183749 
L 260.759082 -95.420464 
L 257.148593 -103.075117 
L 253.538104 -102.799125 
L 249.927615 -95.457066 
L 246.317126 -85.501027 
L 242.706637 -77.967719 
L 239.096147 -75.97255 
L 235.485658 -80.078648 
L 231.875169 -88.500203 
L 228.26468 -97.460773 
L 224.654191 -102.738789 
L 221.043702 -102.544007 
L 217.433213 -99.169955 
L 213.822724 -97.058671 
L 210.212235 -98.679584 
L 206.601745 -102.235637 
L 202.991256 -103.464379 
L 199.380767 -99.678691 
L 195.770278 -92.010431 
L 192.159789 -83.966183 
L 188.5493 -78.403364 
L 184.938811 -76.0505 
L 181.328322 -76.160788 
L 177.717832 -77.745391 
L 174.107343 -80.180983 
L 170.496854 -83.200212 
L 166.886365 -86.702863 
L 163.275876 -90.61909 
L 159.665387 -94.854153 
L 156.054898 -99.298124 
L 152.444409 -103.880166 
L 148.833919 -108.627845 
L 145.22343 -113.687147 
L 141.612941 -119.289033 
L 138.002452 -125.680167 
L 134.391963 -133.057509 
L 130.781474 -141.555333 
L 127.170985 -151.250042 
L 123.560496 -161.981222 
L 119.950007 -172.777755 
L 116.339517 -181.071227 
L 112.729028 -182.571429 
L 109.118539 -172.897915 
L 105.50805 -150.738336 
L 101.897561 -120.031979 
L 98.287072 -88.500816 
L 94.676583 -63.217635 
L 91.066094 -47.069146 
L 87.455604 -38.760326 
L 83.845115 -35.244993 
L 80.234626 -33.917446 
L 76.624137 -33.342288 
L 73.013648 -32.982204 
L 69.403159 -32.719926 
L 65.79267 -32.549028 
L 62.182181 -32.457741 
L 58.571691 -32.418447 
L 54.961202 -32.404836 
z
" id="mb2498066b1" style="stroke:#ffffff;stroke-opacity:0.25;"/>
    </defs>
    <g clip-path="url(#pba85884fa9)">
     <use style="fill:#4c72b0;fill-opacity:0.25;stroke:#ffffff;stroke-opacity:0.25;" x="0" xlink:href="#mb2498066b1" y="216"/>
    </g>
   </g>
   <g id="patch_3">
    <path clip-path="url(#pba85884fa9)" d="M 78.645197 183.6 
L 109.65224 183.6 
L 109.65224 136.799473 
L 78.645197 136.799473 
z
" style="fill:#dd8452;opacity:0.4;stroke:#ffffff;stroke-linejoin:miter;"/>
   </g>
   <g id="patch_4">
    <path clip-path="url(#pba85884fa9)" d="M 109.65224 183.6 
L 140.659284 183.6 
L 140.659284 58.876468 
L 109.65224 58.876468 
z
" style="fill:#dd8452;opacity:0.4;stroke:#ffffff;stroke-linejoin:miter;"/>
   </g>
   <g id="patch_5">
    <path clip-path="url(#pba85884fa9)" d="M 140.659284 183.6 
L 171.666327 183.6 
L 171.666327 115.60285 
L 140.659284 115.60285 
z
" style="fill:#dd8452;opacity:0.4;stroke:#ffffff;stroke-linejoin:miter;"/>
   </g>
   <g id="patch_6">
    <path clip-path="url(#pba85884fa9)" d="M 171.666327 183.6 
L 202.67337 183.6 
L 202.67337 140.928931 
L 171.666327 140.928931 
z
" style="fill:#dd8452;opacity:0.4;stroke:#ffffff;stroke-linejoin:miter;"/>
   </g>
   <g id="patch_7">
    <path clip-path="url(#pba85884fa9)" d="M 202.67337 183.6 
L 233.680414 183.6 
L 233.680414 105.285518 
L 202.67337 105.285518 
z
" style="fill:#dd8452;opacity:0.4;stroke:#ffffff;stroke-linejoin:miter;"/>
   </g>
   <g id="patch_8">
    <path clip-path="url(#pba85884fa9)" d="M 233.680414 183.6 
L 264.687457 183.6 
L 264.687457 123.583943 
L 233.680414 123.583943 
z
" style="fill:#dd8452;opacity:0.4;stroke:#ffffff;stroke-linejoin:miter;"/>
   </g>
   <g id="patch_9">
    <path clip-path="url(#pba85884fa9)" d="M 264.687457 183.6 
L 295.6945 183.6 
L 295.6945 167.473645 
L 264.687457 167.473645 
z
" style="fill:#dd8452;opacity:0.4;stroke:#ffffff;stroke-linejoin:miter;"/>
   </g>
   <g id="patch_10">
    <path clip-path="url(#pba85884fa9)" d="M 295.6945 183.6 
L 326.701544 183.6 
L 326.701544 123.981735 
L 295.6945 123.981735 
z
" style="fill:#dd8452;opacity:0.4;stroke:#ffffff;stroke-linejoin:miter;"/>
   </g>
   <g id="patch_11">
    <path clip-path="url(#pba85884fa9)" d="M 326.701544 183.6 
L 357.708587 183.6 
L 357.708587 161.096347 
L 326.701544 161.096347 
z
" style="fill:#dd8452;opacity:0.4;stroke:#ffffff;stroke-linejoin:miter;"/>
   </g>
   <g id="patch_12">
    <path clip-path="url(#pba85884fa9)" d="M 357.708587 183.6 
L 388.71563 183.6 
L 388.71563 177.342671 
L 357.708587 177.342671 
z
" style="fill:#dd8452;opacity:0.4;stroke:#ffffff;stroke-linejoin:miter;"/>
   </g>
   <g id="line2d_14">
    <path clip-path="url(#pba85884fa9)" d="M 54.961202 183.595164 
L 58.571691 183.581553 
L 62.182181 183.542259 
L 65.79267 183.450972 
L 69.403159 183.280074 
L 73.013648 183.017796 
L 76.624137 182.657712 
L 80.234626 182.082554 
L 83.845115 180.755007 
L 87.455604 177.239674 
L 91.066094 168.930854 
L 94.676583 152.782365 
L 98.287072 127.499184 
L 101.897561 95.968021 
L 105.50805 65.261664 
L 109.118539 43.102085 
L 112.729028 33.428571 
L 116.339517 34.928773 
L 119.950007 43.222245 
L 123.560496 54.018778 
L 127.170985 64.749958 
L 130.781474 74.444667 
L 134.391963 82.942491 
L 138.002452 90.319833 
L 141.612941 96.710967 
L 145.22343 102.312853 
L 148.833919 107.372155 
L 152.444409 112.119834 
L 156.054898 116.701876 
L 159.665387 121.145847 
L 163.275876 125.38091 
L 166.886365 129.297137 
L 170.496854 132.799788 
L 174.107343 135.819017 
L 177.717832 138.254609 
L 181.328322 139.839212 
L 184.938811 139.9495 
L 188.5493 137.596636 
L 192.159789 132.033817 
L 195.770278 123.989569 
L 199.380767 116.321309 
L 202.991256 112.535621 
L 206.601745 113.764363 
L 210.212235 117.320416 
L 213.822724 118.941329 
L 217.433213 116.830045 
L 221.043702 113.455993 
L 224.654191 113.261211 
L 228.26468 118.539227 
L 231.875169 127.499797 
L 235.485658 135.921352 
L 239.096147 140.02745 
L 242.706637 138.032281 
L 246.317126 130.498973 
L 249.927615 120.542934 
L 253.538104 113.200875 
L 257.148593 112.924883 
L 260.759082 120.579536 
L 264.369571 132.816251 
L 267.98006 144.616986 
L 271.59055 152.709393 
L 275.201039 157.023369 
L 278.811528 159.408408 
L 282.422017 161.231265 
L 286.032506 162.225545 
L 289.642995 161.355284 
L 293.253484 158.108497 
L 296.863973 152.452784 
L 300.474462 144.068924 
L 304.084952 132.984407 
L 307.695441 121.497867 
L 311.30593 114.299496 
L 314.916419 115.337183 
L 318.526908 124.591708 
L 322.137397 138.307408 
L 325.747886 151.866865 
L 329.358375 162.118553 
L 332.968865 167.806153 
L 336.579354 168.915011 
L 340.189843 166.112237 
L 343.800332 160.849585 
L 347.410821 155.655904 
L 351.02131 153.445224 
L 354.631799 155.716424 
L 358.242288 161.398862 
L 361.852778 167.801887 
L 365.463267 172.689272 
L 369.073756 175.433225 
L 372.684245 176.664074 
L 376.294734 177.331553 
L 379.905223 178.06992 
L 383.515712 179.066728 
L 387.126201 180.222633 
L 390.73669 181.347042 
L 394.34718 182.276217 
L 397.957669 182.926965 
L 401.568158 183.308732 
L 405.178647 183.494106 
L 408.789136 183.567967 
L 412.399625 183.591992 
" style="fill:none;stroke:#4c72b0;stroke-linecap:round;stroke-width:1.5;"/>
   </g>
   <g id="line2d_15">
    <path clip-path="url(#pba85884fa9)" d="M 54.961202 183.595164 
L 58.571691 183.581553 
L 62.182181 183.542259 
L 65.79267 183.450972 
L 69.403159 183.280074 
L 73.013648 183.017796 
L 76.624137 182.657712 
L 80.234626 182.082554 
L 83.845115 180.755007 
L 87.455604 177.239674 
L 91.066094 168.930854 
L 94.676583 152.782365 
L 98.287072 127.499184 
L 101.897561 95.968021 
L 105.50805 65.261664 
L 109.118539 43.102085 
L 112.729028 33.428571 
L 116.339517 34.928773 
L 119.950007 43.222245 
L 123.560496 54.018778 
L 127.170985 64.749958 
L 130.781474 74.444667 
L 134.391963 82.942491 
L 138.002452 90.319833 
L 141.612941 96.710967 
L 145.22343 102.312853 
L 148.833919 107.372155 
L 152.444409 112.119834 
L 156.054898 116.701876 
L 159.665387 121.145847 
L 163.275876 125.38091 
L 166.886365 129.297137 
L 170.496854 132.799788 
L 174.107343 135.819017 
L 177.717832 138.254609 
L 181.328322 139.839212 
L 184.938811 139.9495 
L 188.5493 137.596636 
L 192.159789 132.033817 
L 195.770278 123.989569 
L 199.380767 116.321309 
L 202.991256 112.535621 
L 206.601745 113.764363 
L 210.212235 117.320416 
L 213.822724 118.941329 
L 217.433213 116.830045 
L 221.043702 113.455993 
L 224.654191 113.261211 
L 228.26468 118.539227 
L 231.875169 127.499797 
L 235.485658 135.921352 
L 239.096147 140.02745 
L 242.706637 138.032281 
L 246.317126 130.498973 
L 249.927615 120.542934 
L 253.538104 113.200875 
L 257.148593 112.924883 
L 260.759082 120.579536 
L 264.369571 132.816251 
L 267.98006 144.616986 
L 271.59055 152.709393 
L 275.201039 157.023369 
L 278.811528 159.408408 
L 282.422017 161.231265 
L 286.032506 162.225545 
L 289.642995 161.355284 
L 293.253484 158.108497 
L 296.863973 152.452784 
L 300.474462 144.068924 
L 304.084952 132.984407 
L 307.695441 121.497867 
L 311.30593 114.299496 
L 314.916419 115.337183 
L 318.526908 124.591708 
L 322.137397 138.307408 
L 325.747886 151.866865 
L 329.358375 162.118553 
L 332.968865 167.806153 
L 336.579354 168.915011 
L 340.189843 166.112237 
L 343.800332 160.849585 
L 347.410821 155.655904 
L 351.02131 153.445224 
L 354.631799 155.716424 
L 358.242288 161.398862 
L 361.852778 167.801887 
L 365.463267 172.689272 
L 369.073756 175.433225 
L 372.684245 176.664074 
L 376.294734 177.331553 
L 379.905223 178.06992 
L 383.515712 179.066728 
L 387.126201 180.222633 
L 390.73669 181.347042 
L 394.34718 182.276217 
L 397.957669 182.926965 
L 401.568158 183.308732 
L 405.178647 183.494106 
L 408.789136 183.567967 
L 412.399625 183.591992 
" style="fill:none;stroke:#dd8452;stroke-linecap:round;stroke-width:1.5;"/>
   </g>
   <g id="patch_13">
    <path d="M 54 183.6 
L 54 25.92 
" style="fill:none;stroke:#ffffff;stroke-linecap:square;stroke-linejoin:miter;stroke-width:1.25;"/>
   </g>
   <g id="patch_14">
    <path d="M 388.8 183.6 
L 388.8 25.92 
" style="fill:none;stroke:#ffffff;stroke-linecap:square;stroke-linejoin:miter;stroke-width:1.25;"/>
   </g>
   <g id="patch_15">
    <path d="M 54 183.6 
L 388.8 183.6 
" style="fill:none;stroke:#ffffff;stroke-linecap:square;stroke-linejoin:miter;stroke-width:1.25;"/>
   </g>
   <g id="patch_16">
    <path d="M 54 25.92 
L 388.8 25.92 
" style="fill:none;stroke:#ffffff;stroke-linecap:square;stroke-linejoin:miter;stroke-width:1.25;"/>
   </g>
   <g id="text_16">
    <!-- scores distribution and kernel density -->
    <defs>
     <path d="M 48.6875 27.296875 
Q 48.6875 37.203125 44.609375 42.84375 
Q 40.53125 48.484375 33.40625 48.484375 
Q 26.265625 48.484375 22.1875 42.84375 
Q 18.109375 37.203125 18.109375 27.296875 
Q 18.109375 17.390625 22.1875 11.75 
Q 26.265625 6.109375 33.40625 6.109375 
Q 40.53125 6.109375 44.609375 11.75 
Q 48.6875 17.390625 48.6875 27.296875 
z
M 18.109375 46.390625 
Q 20.953125 51.265625 25.265625 53.625 
Q 29.59375 56 35.59375 56 
Q 45.5625 56 51.78125 48.09375 
Q 58.015625 40.1875 58.015625 27.296875 
Q 58.015625 14.40625 51.78125 6.484375 
Q 45.5625 -1.421875 35.59375 -1.421875 
Q 29.59375 -1.421875 25.265625 0.953125 
Q 20.953125 3.328125 18.109375 8.203125 
L 18.109375 0 
L 9.078125 0 
L 9.078125 75.984375 
L 18.109375 75.984375 
z
" id="DejaVuSans-98"/>
     <path d="M 8.5 21.578125 
L 8.5 54.6875 
L 17.484375 54.6875 
L 17.484375 21.921875 
Q 17.484375 14.15625 20.5 10.265625 
Q 23.53125 6.390625 29.59375 6.390625 
Q 36.859375 6.390625 41.078125 11.03125 
Q 45.3125 15.671875 45.3125 23.6875 
L 45.3125 54.6875 
L 54.296875 54.6875 
L 54.296875 0 
L 45.3125 0 
L 45.3125 8.40625 
Q 42.046875 3.421875 37.71875 1 
Q 33.40625 -1.421875 27.6875 -1.421875 
Q 18.265625 -1.421875 13.375 4.4375 
Q 8.5 10.296875 8.5 21.578125 
z
M 31.109375 56 
z
" id="DejaVuSans-117"/>
     <path d="M 34.28125 27.484375 
Q 23.390625 27.484375 19.1875 25 
Q 14.984375 22.515625 14.984375 16.5 
Q 14.984375 11.71875 18.140625 8.90625 
Q 21.296875 6.109375 26.703125 6.109375 
Q 34.1875 6.109375 38.703125 11.40625 
Q 43.21875 16.703125 43.21875 25.484375 
L 43.21875 27.484375 
z
M 52.203125 31.203125 
L 52.203125 0 
L 43.21875 0 
L 43.21875 8.296875 
Q 40.140625 3.328125 35.546875 0.953125 
Q 30.953125 -1.421875 24.3125 -1.421875 
Q 15.921875 -1.421875 10.953125 3.296875 
Q 6 8.015625 6 15.921875 
Q 6 25.140625 12.171875 29.828125 
Q 18.359375 34.515625 30.609375 34.515625 
L 43.21875 34.515625 
L 43.21875 35.40625 
Q 43.21875 41.609375 39.140625 45 
Q 35.0625 48.390625 27.6875 48.390625 
Q 23 48.390625 18.546875 47.265625 
Q 14.109375 46.140625 10.015625 43.890625 
L 10.015625 52.203125 
Q 14.9375 54.109375 19.578125 55.046875 
Q 24.21875 56 28.609375 56 
Q 40.484375 56 46.34375 49.84375 
Q 52.203125 43.703125 52.203125 31.203125 
z
" id="DejaVuSans-97"/>
     <path d="M 9.078125 75.984375 
L 18.109375 75.984375 
L 18.109375 31.109375 
L 44.921875 54.6875 
L 56.390625 54.6875 
L 27.390625 29.109375 
L 57.625 0 
L 45.90625 0 
L 18.109375 26.703125 
L 18.109375 0 
L 9.078125 0 
z
" id="DejaVuSans-107"/>
    </defs>
    <g style="fill:#262626;" transform="translate(130.77975 19.92)scale(0.096 -0.096)">
     <use xlink:href="#DejaVuSans-115"/>
     <use x="52.099609" xlink:href="#DejaVuSans-99"/>
     <use x="107.080078" xlink:href="#DejaVuSans-111"/>
     <use x="168.261719" xlink:href="#DejaVuSans-114"/>
     <use x="209.34375" xlink:href="#DejaVuSans-101"/>
     <use x="270.867188" xlink:href="#DejaVuSans-115"/>
     <use x="322.966797" xlink:href="#DejaVuSans-32"/>
     <use x="354.753906" xlink:href="#DejaVuSans-100"/>
     <use x="418.230469" xlink:href="#DejaVuSans-105"/>
     <use x="446.013672" xlink:href="#DejaVuSans-115"/>
     <use x="498.113281" xlink:href="#DejaVuSans-116"/>
     <use x="537.322266" xlink:href="#DejaVuSans-114"/>
     <use x="578.435547" xlink:href="#DejaVuSans-105"/>
     <use x="606.21875" xlink:href="#DejaVuSans-98"/>
     <use x="669.695312" xlink:href="#DejaVuSans-117"/>
     <use x="733.074219" xlink:href="#DejaVuSans-116"/>
     <use x="772.283203" xlink:href="#DejaVuSans-105"/>
     <use x="800.066406" xlink:href="#DejaVuSans-111"/>
     <use x="861.248047" xlink:href="#DejaVuSans-110"/>
     <use x="924.626953" xlink:href="#DejaVuSans-32"/>
     <use x="956.414062" xlink:href="#DejaVuSans-97"/>
     <use x="1017.693359" xlink:href="#DejaVuSans-110"/>
     <use x="1081.072266" xlink:href="#DejaVuSans-100"/>
     <use x="1144.548828" xlink:href="#DejaVuSans-32"/>
     <use x="1176.335938" xlink:href="#DejaVuSans-107"/>
     <use x="1234.199219" xlink:href="#DejaVuSans-101"/>
     <use x="1295.722656" xlink:href="#DejaVuSans-114"/>
     <use x="1336.820312" xlink:href="#DejaVuSans-110"/>
     <use x="1400.199219" xlink:href="#DejaVuSans-101"/>
     <use x="1461.722656" xlink:href="#DejaVuSans-108"/>
     <use x="1489.505859" xlink:href="#DejaVuSans-32"/>
     <use x="1521.292969" xlink:href="#DejaVuSans-100"/>
     <use x="1584.769531" xlink:href="#DejaVuSans-101"/>
     <use x="1646.292969" xlink:href="#DejaVuSans-110"/>
     <use x="1709.671875" xlink:href="#DejaVuSans-115"/>
     <use x="1761.771484" xlink:href="#DejaVuSans-105"/>
     <use x="1789.554688" xlink:href="#DejaVuSans-116"/>
     <use x="1828.763672" xlink:href="#DejaVuSans-121"/>
    </g>
   </g>
   <g id="legend_1">
    <g id="patch_17">
     <path d="M 330.643 45.87675 
L 382.64 45.87675 
Q 384.4 45.87675 384.4 44.11675 
L 384.4 32.08 
Q 384.4 30.32 382.64 30.32 
L 330.643 30.32 
Q 328.883 30.32 328.883 32.08 
L 328.883 44.11675 
Q 328.883 45.87675 330.643 45.87675 
z
" style="fill:#eaeaf2;opacity:0.8;stroke:#cccccc;stroke-linejoin:miter;"/>
    </g>
    <g id="line2d_16">
     <path d="M 332.403 37.446625 
L 350.003 37.446625 
" style="fill:none;stroke:#4c72b0;stroke-linecap:round;stroke-width:1.5;"/>
    </g>
    <g id="line2d_17"/>
    <g id="text_17">
     <!-- score -->
     <g style="fill:#262626;" transform="translate(357.043 40.526625)scale(0.088 -0.088)">
      <use xlink:href="#DejaVuSans-115"/>
      <use x="52.099609" xlink:href="#DejaVuSans-99"/>
      <use x="107.080078" xlink:href="#DejaVuSans-111"/>
      <use x="168.261719" xlink:href="#DejaVuSans-114"/>
      <use x="209.34375" xlink:href="#DejaVuSans-101"/>
     </g>
    </g>
   </g>
  </g>
 </g>
 <defs>
  <clipPath id="pba85884fa9">
   <rect height="157.68" width="334.8" x="54" y="25.92"/>
  </clipPath>
 </defs>
</svg>
