<?xml version="1.0" encoding="utf-8" standalone="no"?>
<!DOCTYPE svg PUBLIC "-//W3C//DTD SVG 1.1//EN"
  "http://www.w3.org/Graphics/SVG/1.1/DTD/svg11.dtd">
<!-- Created with matplotlib (https://matplotlib.org/) -->
<svg height="288pt" version="1.1" viewBox="0 0 648 288" width="648pt" xmlns="http://www.w3.org/2000/svg" xmlns:xlink="http://www.w3.org/1999/xlink">
 <defs>
  <style type="text/css">
*{stroke-linecap:butt;stroke-linejoin:round;}
  </style>
 </defs>
 <g id="figure_1">
  <g id="patch_1">
   <path d="M 0 288 
L 648 288 
L 648 0 
L 0 0 
z
" style="fill:#ffffff;"/>
  </g>
  <g id="axes_1">
   <g id="patch_2">
    <path d="M 97.2 239.04 
L 583.2 239.04 
L 583.2 34.56 
L 97.2 34.56 
z
" style="fill:#eaeaf2;"/>
   </g>
   <g id="matplotlib.axis_1">
    <g id="xtick_1">
     <g id="line2d_1">
      <path clip-path="url(#p22982835f8)" d="M 97.2 239.04 
L 97.2 34.56 
" style="fill:none;stroke:#ffffff;stroke-linecap:round;"/>
     </g>
     <g id="text_1">
      <!-- 0 -->
      <defs>
       <path d="M 31.78125 66.40625 
Q 24.171875 66.40625 20.328125 58.90625 
Q 16.5 51.421875 16.5 36.375 
Q 16.5 21.390625 20.328125 13.890625 
Q 24.171875 6.390625 31.78125 6.390625 
Q 39.453125 6.390625 43.28125 13.890625 
Q 47.125 21.390625 47.125 36.375 
Q 47.125 51.421875 43.28125 58.90625 
Q 39.453125 66.40625 31.78125 66.40625 
z
M 31.78125 74.21875 
Q 44.046875 74.21875 50.515625 64.515625 
Q 56.984375 54.828125 56.984375 36.375 
Q 56.984375 17.96875 50.515625 8.265625 
Q 44.046875 -1.421875 31.78125 -1.421875 
Q 19.53125 -1.421875 13.0625 8.265625 
Q 6.59375 17.96875 6.59375 36.375 
Q 6.59375 54.828125 13.0625 64.515625 
Q 19.53125 74.21875 31.78125 74.21875 
z
" id="DejaVuSans-48"/>
      </defs>
      <g style="fill:#262626;" transform="translate(94.4005 255.226625)scale(0.088 -0.088)">
       <use xlink:href="#DejaVuSans-48"/>
      </g>
      <!-- (0.0%) -->
      <defs>
       <path d="M 31 75.875 
Q 24.46875 64.65625 21.28125 53.65625 
Q 18.109375 42.671875 18.109375 31.390625 
Q 18.109375 20.125 21.3125 9.0625 
Q 24.515625 -2 31 -13.1875 
L 23.1875 -13.1875 
Q 15.875 -1.703125 12.234375 9.375 
Q 8.59375 20.453125 8.59375 31.390625 
Q 8.59375 42.28125 12.203125 53.3125 
Q 15.828125 64.359375 23.1875 75.875 
z
" id="DejaVuSans-40"/>
       <path d="M 10.6875 12.40625 
L 21 12.40625 
L 21 0 
L 10.6875 0 
z
" id="DejaVuSans-46"/>
       <path d="M 72.703125 32.078125 
Q 68.453125 32.078125 66.03125 28.46875 
Q 63.625 24.859375 63.625 18.40625 
Q 63.625 12.0625 66.03125 8.421875 
Q 68.453125 4.78125 72.703125 4.78125 
Q 76.859375 4.78125 79.265625 8.421875 
Q 81.6875 12.0625 81.6875 18.40625 
Q 81.6875 24.8125 79.265625 28.4375 
Q 76.859375 32.078125 72.703125 32.078125 
z
M 72.703125 38.28125 
Q 80.421875 38.28125 84.953125 32.90625 
Q 89.5 27.546875 89.5 18.40625 
Q 89.5 9.28125 84.9375 3.921875 
Q 80.375 -1.421875 72.703125 -1.421875 
Q 64.890625 -1.421875 60.34375 3.921875 
Q 55.8125 9.28125 55.8125 18.40625 
Q 55.8125 27.59375 60.375 32.9375 
Q 64.9375 38.28125 72.703125 38.28125 
z
M 22.3125 68.015625 
Q 18.109375 68.015625 15.6875 64.375 
Q 13.28125 60.75 13.28125 54.390625 
Q 13.28125 47.953125 15.671875 44.328125 
Q 18.0625 40.71875 22.3125 40.71875 
Q 26.5625 40.71875 28.96875 44.328125 
Q 31.390625 47.953125 31.390625 54.390625 
Q 31.390625 60.6875 28.953125 64.34375 
Q 26.515625 68.015625 22.3125 68.015625 
z
M 66.40625 74.21875 
L 74.21875 74.21875 
L 28.609375 -1.421875 
L 20.796875 -1.421875 
z
M 22.3125 74.21875 
Q 30.03125 74.21875 34.609375 68.875 
Q 39.203125 63.53125 39.203125 54.390625 
Q 39.203125 45.171875 34.640625 39.84375 
Q 30.078125 34.515625 22.3125 34.515625 
Q 14.546875 34.515625 10.03125 39.859375 
Q 5.515625 45.21875 5.515625 54.390625 
Q 5.515625 63.484375 10.046875 68.84375 
Q 14.59375 74.21875 22.3125 74.21875 
z
" id="DejaVuSans-37"/>
       <path d="M 8.015625 75.875 
L 15.828125 75.875 
Q 23.140625 64.359375 26.78125 53.3125 
Q 30.421875 42.28125 30.421875 31.390625 
Q 30.421875 20.453125 26.78125 9.375 
Q 23.140625 -1.703125 15.828125 -13.1875 
L 8.015625 -13.1875 
Q 14.5 -2 17.703125 9.0625 
Q 20.90625 20.125 20.90625 31.390625 
Q 20.90625 42.671875 17.703125 53.65625 
Q 14.5 64.65625 8.015625 75.875 
z
" id="DejaVuSans-41"/>
      </defs>
      <g style="fill:#262626;" transform="translate(82.588562 265.0807)scale(0.088 -0.088)">
       <use xlink:href="#DejaVuSans-40"/>
       <use x="39.013672" xlink:href="#DejaVuSans-48"/>
       <use x="102.636719" xlink:href="#DejaVuSans-46"/>
       <use x="134.423828" xlink:href="#DejaVuSans-48"/>
       <use x="198.046875" xlink:href="#DejaVuSans-37"/>
       <use x="293.066406" xlink:href="#DejaVuSans-41"/>
      </g>
     </g>
    </g>
    <g id="xtick_2">
     <g id="line2d_2">
      <path clip-path="url(#p22982835f8)" d="M 162.898226 239.04 
L 162.898226 34.56 
" style="fill:none;stroke:#ffffff;stroke-linecap:round;"/>
     </g>
     <g id="text_2">
      <!-- 2500 -->
      <defs>
       <path d="M 19.1875 8.296875 
L 53.609375 8.296875 
L 53.609375 0 
L 7.328125 0 
L 7.328125 8.296875 
Q 12.9375 14.109375 22.625 23.890625 
Q 32.328125 33.6875 34.8125 36.53125 
Q 39.546875 41.84375 41.421875 45.53125 
Q 43.3125 49.21875 43.3125 52.78125 
Q 43.3125 58.59375 39.234375 62.25 
Q 35.15625 65.921875 28.609375 65.921875 
Q 23.96875 65.921875 18.8125 64.3125 
Q 13.671875 62.703125 7.8125 59.421875 
L 7.8125 69.390625 
Q 13.765625 71.78125 18.9375 73 
Q 24.125 74.21875 28.421875 74.21875 
Q 39.75 74.21875 46.484375 68.546875 
Q 53.21875 62.890625 53.21875 53.421875 
Q 53.21875 48.921875 51.53125 44.890625 
Q 49.859375 40.875 45.40625 35.40625 
Q 44.1875 33.984375 37.640625 27.21875 
Q 31.109375 20.453125 19.1875 8.296875 
z
" id="DejaVuSans-50"/>
       <path d="M 10.796875 72.90625 
L 49.515625 72.90625 
L 49.515625 64.59375 
L 19.828125 64.59375 
L 19.828125 46.734375 
Q 21.96875 47.46875 24.109375 47.828125 
Q 26.265625 48.1875 28.421875 48.1875 
Q 40.625 48.1875 47.75 41.5 
Q 54.890625 34.8125 54.890625 23.390625 
Q 54.890625 11.625 47.5625 5.09375 
Q 40.234375 -1.421875 26.90625 -1.421875 
Q 22.3125 -1.421875 17.546875 -0.640625 
Q 12.796875 0.140625 7.71875 1.703125 
L 7.71875 11.625 
Q 12.109375 9.234375 16.796875 8.0625 
Q 21.484375 6.890625 26.703125 6.890625 
Q 35.15625 6.890625 40.078125 11.328125 
Q 45.015625 15.765625 45.015625 23.390625 
Q 45.015625 31 40.078125 35.4375 
Q 35.15625 39.890625 26.703125 39.890625 
Q 22.75 39.890625 18.8125 39.015625 
Q 14.890625 38.140625 10.796875 36.28125 
z
" id="DejaVuSans-53"/>
      </defs>
      <g style="fill:#262626;" transform="translate(151.700226 255.226625)scale(0.088 -0.088)">
       <use xlink:href="#DejaVuSans-50"/>
       <use x="63.623047" xlink:href="#DejaVuSans-53"/>
       <use x="127.246094" xlink:href="#DejaVuSans-48"/>
       <use x="190.869141" xlink:href="#DejaVuSans-48"/>
      </g>
      <!-- (8.0%) -->
      <defs>
       <path d="M 31.78125 34.625 
Q 24.75 34.625 20.71875 30.859375 
Q 16.703125 27.09375 16.703125 20.515625 
Q 16.703125 13.921875 20.71875 10.15625 
Q 24.75 6.390625 31.78125 6.390625 
Q 38.8125 6.390625 42.859375 10.171875 
Q 46.921875 13.96875 46.921875 20.515625 
Q 46.921875 27.09375 42.890625 30.859375 
Q 38.875 34.625 31.78125 34.625 
z
M 21.921875 38.8125 
Q 15.578125 40.375 12.03125 44.71875 
Q 8.5 49.078125 8.5 55.328125 
Q 8.5 64.0625 14.71875 69.140625 
Q 20.953125 74.21875 31.78125 74.21875 
Q 42.671875 74.21875 48.875 69.140625 
Q 55.078125 64.0625 55.078125 55.328125 
Q 55.078125 49.078125 51.53125 44.71875 
Q 48 40.375 41.703125 38.8125 
Q 48.828125 37.15625 52.796875 32.3125 
Q 56.78125 27.484375 56.78125 20.515625 
Q 56.78125 9.90625 50.3125 4.234375 
Q 43.84375 -1.421875 31.78125 -1.421875 
Q 19.734375 -1.421875 13.25 4.234375 
Q 6.78125 9.90625 6.78125 20.515625 
Q 6.78125 27.484375 10.78125 32.3125 
Q 14.796875 37.15625 21.921875 38.8125 
z
M 18.3125 54.390625 
Q 18.3125 48.734375 21.84375 45.5625 
Q 25.390625 42.390625 31.78125 42.390625 
Q 38.140625 42.390625 41.71875 45.5625 
Q 45.3125 48.734375 45.3125 54.390625 
Q 45.3125 60.0625 41.71875 63.234375 
Q 38.140625 66.40625 31.78125 66.40625 
Q 25.390625 66.40625 21.84375 63.234375 
Q 18.3125 60.0625 18.3125 54.390625 
z
" id="DejaVuSans-56"/>
      </defs>
      <g style="fill:#262626;" transform="translate(148.286789 265.0807)scale(0.088 -0.088)">
       <use xlink:href="#DejaVuSans-40"/>
       <use x="39.013672" xlink:href="#DejaVuSans-56"/>
       <use x="102.636719" xlink:href="#DejaVuSans-46"/>
       <use x="134.423828" xlink:href="#DejaVuSans-48"/>
       <use x="198.046875" xlink:href="#DejaVuSans-37"/>
       <use x="293.066406" xlink:href="#DejaVuSans-41"/>
      </g>
     </g>
    </g>
    <g id="xtick_3">
     <g id="line2d_3">
      <path clip-path="url(#p22982835f8)" d="M 228.596452 239.04 
L 228.596452 34.56 
" style="fill:none;stroke:#ffffff;stroke-linecap:round;"/>
     </g>
     <g id="text_3">
      <!-- 5000 -->
      <g style="fill:#262626;" transform="translate(217.398452 255.226625)scale(0.088 -0.088)">
       <use xlink:href="#DejaVuSans-53"/>
       <use x="63.623047" xlink:href="#DejaVuSans-48"/>
       <use x="127.246094" xlink:href="#DejaVuSans-48"/>
       <use x="190.869141" xlink:href="#DejaVuSans-48"/>
      </g>
      <!-- (15.9%) -->
      <defs>
       <path d="M 12.40625 8.296875 
L 28.515625 8.296875 
L 28.515625 63.921875 
L 10.984375 60.40625 
L 10.984375 69.390625 
L 28.421875 72.90625 
L 38.28125 72.90625 
L 38.28125 8.296875 
L 54.390625 8.296875 
L 54.390625 0 
L 12.40625 0 
z
" id="DejaVuSans-49"/>
       <path d="M 10.984375 1.515625 
L 10.984375 10.5 
Q 14.703125 8.734375 18.5 7.8125 
Q 22.3125 6.890625 25.984375 6.890625 
Q 35.75 6.890625 40.890625 13.453125 
Q 46.046875 20.015625 46.78125 33.40625 
Q 43.953125 29.203125 39.59375 26.953125 
Q 35.25 24.703125 29.984375 24.703125 
Q 19.046875 24.703125 12.671875 31.3125 
Q 6.296875 37.9375 6.296875 49.421875 
Q 6.296875 60.640625 12.9375 67.421875 
Q 19.578125 74.21875 30.609375 74.21875 
Q 43.265625 74.21875 49.921875 64.515625 
Q 56.59375 54.828125 56.59375 36.375 
Q 56.59375 19.140625 48.40625 8.859375 
Q 40.234375 -1.421875 26.421875 -1.421875 
Q 22.703125 -1.421875 18.890625 -0.6875 
Q 15.09375 0.046875 10.984375 1.515625 
z
M 30.609375 32.421875 
Q 37.25 32.421875 41.125 36.953125 
Q 45.015625 41.5 45.015625 49.421875 
Q 45.015625 57.28125 41.125 61.84375 
Q 37.25 66.40625 30.609375 66.40625 
Q 23.96875 66.40625 20.09375 61.84375 
Q 16.21875 57.28125 16.21875 49.421875 
Q 16.21875 41.5 20.09375 36.953125 
Q 23.96875 32.421875 30.609375 32.421875 
z
" id="DejaVuSans-57"/>
      </defs>
      <g style="fill:#262626;" transform="translate(211.185515 265.0807)scale(0.088 -0.088)">
       <use xlink:href="#DejaVuSans-40"/>
       <use x="39.013672" xlink:href="#DejaVuSans-49"/>
       <use x="102.636719" xlink:href="#DejaVuSans-53"/>
       <use x="166.259766" xlink:href="#DejaVuSans-46"/>
       <use x="198.046875" xlink:href="#DejaVuSans-57"/>
       <use x="261.669922" xlink:href="#DejaVuSans-37"/>
       <use x="356.689453" xlink:href="#DejaVuSans-41"/>
      </g>
     </g>
    </g>
    <g id="xtick_4">
     <g id="line2d_4">
      <path clip-path="url(#p22982835f8)" d="M 294.294678 239.04 
L 294.294678 34.56 
" style="fill:none;stroke:#ffffff;stroke-linecap:round;"/>
     </g>
     <g id="text_4">
      <!-- 7500 -->
      <defs>
       <path d="M 8.203125 72.90625 
L 55.078125 72.90625 
L 55.078125 68.703125 
L 28.609375 0 
L 18.3125 0 
L 43.21875 64.59375 
L 8.203125 64.59375 
z
" id="DejaVuSans-55"/>
      </defs>
      <g style="fill:#262626;" transform="translate(283.096678 255.226625)scale(0.088 -0.088)">
       <use xlink:href="#DejaVuSans-55"/>
       <use x="63.623047" xlink:href="#DejaVuSans-53"/>
       <use x="127.246094" xlink:href="#DejaVuSans-48"/>
       <use x="190.869141" xlink:href="#DejaVuSans-48"/>
      </g>
      <!-- (23.9%) -->
      <defs>
       <path d="M 40.578125 39.3125 
Q 47.65625 37.796875 51.625 33 
Q 55.609375 28.21875 55.609375 21.1875 
Q 55.609375 10.40625 48.1875 4.484375 
Q 40.765625 -1.421875 27.09375 -1.421875 
Q 22.515625 -1.421875 17.65625 -0.515625 
Q 12.796875 0.390625 7.625 2.203125 
L 7.625 11.71875 
Q 11.71875 9.328125 16.59375 8.109375 
Q 21.484375 6.890625 26.8125 6.890625 
Q 36.078125 6.890625 40.9375 10.546875 
Q 45.796875 14.203125 45.796875 21.1875 
Q 45.796875 27.640625 41.28125 31.265625 
Q 36.765625 34.90625 28.71875 34.90625 
L 20.21875 34.90625 
L 20.21875 43.015625 
L 29.109375 43.015625 
Q 36.375 43.015625 40.234375 45.921875 
Q 44.09375 48.828125 44.09375 54.296875 
Q 44.09375 59.90625 40.109375 62.90625 
Q 36.140625 65.921875 28.71875 65.921875 
Q 24.65625 65.921875 20.015625 65.03125 
Q 15.375 64.15625 9.8125 62.3125 
L 9.8125 71.09375 
Q 15.4375 72.65625 20.34375 73.4375 
Q 25.25 74.21875 29.59375 74.21875 
Q 40.828125 74.21875 47.359375 69.109375 
Q 53.90625 64.015625 53.90625 55.328125 
Q 53.90625 49.265625 50.4375 45.09375 
Q 46.96875 40.921875 40.578125 39.3125 
z
" id="DejaVuSans-51"/>
      </defs>
      <g style="fill:#262626;" transform="translate(276.883741 265.0807)scale(0.088 -0.088)">
       <use xlink:href="#DejaVuSans-40"/>
       <use x="39.013672" xlink:href="#DejaVuSans-50"/>
       <use x="102.636719" xlink:href="#DejaVuSans-51"/>
       <use x="166.259766" xlink:href="#DejaVuSans-46"/>
       <use x="198.046875" xlink:href="#DejaVuSans-57"/>
       <use x="261.669922" xlink:href="#DejaVuSans-37"/>
       <use x="356.689453" xlink:href="#DejaVuSans-41"/>
      </g>
     </g>
    </g>
    <g id="xtick_5">
     <g id="line2d_5">
      <path clip-path="url(#p22982835f8)" d="M 359.992905 239.04 
L 359.992905 34.56 
" style="fill:none;stroke:#ffffff;stroke-linecap:round;"/>
     </g>
     <g id="text_5">
      <!-- 10000 -->
      <g style="fill:#262626;" transform="translate(345.995405 255.226625)scale(0.088 -0.088)">
       <use xlink:href="#DejaVuSans-49"/>
       <use x="63.623047" xlink:href="#DejaVuSans-48"/>
       <use x="127.246094" xlink:href="#DejaVuSans-48"/>
       <use x="190.869141" xlink:href="#DejaVuSans-48"/>
       <use x="254.492188" xlink:href="#DejaVuSans-48"/>
      </g>
      <!-- (31.8%) -->
      <g style="fill:#262626;" transform="translate(342.581967 265.0807)scale(0.088 -0.088)">
       <use xlink:href="#DejaVuSans-40"/>
       <use x="39.013672" xlink:href="#DejaVuSans-51"/>
       <use x="102.636719" xlink:href="#DejaVuSans-49"/>
       <use x="166.259766" xlink:href="#DejaVuSans-46"/>
       <use x="198.046875" xlink:href="#DejaVuSans-56"/>
       <use x="261.669922" xlink:href="#DejaVuSans-37"/>
       <use x="356.689453" xlink:href="#DejaVuSans-41"/>
      </g>
     </g>
    </g>
    <g id="xtick_6">
     <g id="line2d_6">
      <path clip-path="url(#p22982835f8)" d="M 425.691131 239.04 
L 425.691131 34.56 
" style="fill:none;stroke:#ffffff;stroke-linecap:round;"/>
     </g>
     <g id="text_6">
      <!-- 12500 -->
      <g style="fill:#262626;" transform="translate(411.693631 255.226625)scale(0.088 -0.088)">
       <use xlink:href="#DejaVuSans-49"/>
       <use x="63.623047" xlink:href="#DejaVuSans-50"/>
       <use x="127.246094" xlink:href="#DejaVuSans-53"/>
       <use x="190.869141" xlink:href="#DejaVuSans-48"/>
       <use x="254.492188" xlink:href="#DejaVuSans-48"/>
      </g>
      <!-- (39.8%) -->
      <g style="fill:#262626;" transform="translate(408.280193 265.0807)scale(0.088 -0.088)">
       <use xlink:href="#DejaVuSans-40"/>
       <use x="39.013672" xlink:href="#DejaVuSans-51"/>
       <use x="102.636719" xlink:href="#DejaVuSans-57"/>
       <use x="166.259766" xlink:href="#DejaVuSans-46"/>
       <use x="198.046875" xlink:href="#DejaVuSans-56"/>
       <use x="261.669922" xlink:href="#DejaVuSans-37"/>
       <use x="356.689453" xlink:href="#DejaVuSans-41"/>
      </g>
     </g>
    </g>
    <g id="xtick_7">
     <g id="line2d_7">
      <path clip-path="url(#p22982835f8)" d="M 491.389357 239.04 
L 491.389357 34.56 
" style="fill:none;stroke:#ffffff;stroke-linecap:round;"/>
     </g>
     <g id="text_7">
      <!-- 15000 -->
      <g style="fill:#262626;" transform="translate(477.391857 255.226625)scale(0.088 -0.088)">
       <use xlink:href="#DejaVuSans-49"/>
       <use x="63.623047" xlink:href="#DejaVuSans-53"/>
       <use x="127.246094" xlink:href="#DejaVuSans-48"/>
       <use x="190.869141" xlink:href="#DejaVuSans-48"/>
       <use x="254.492188" xlink:href="#DejaVuSans-48"/>
      </g>
      <!-- (47.8%) -->
      <defs>
       <path d="M 37.796875 64.3125 
L 12.890625 25.390625 
L 37.796875 25.390625 
z
M 35.203125 72.90625 
L 47.609375 72.90625 
L 47.609375 25.390625 
L 58.015625 25.390625 
L 58.015625 17.1875 
L 47.609375 17.1875 
L 47.609375 0 
L 37.796875 0 
L 37.796875 17.1875 
L 4.890625 17.1875 
L 4.890625 26.703125 
z
" id="DejaVuSans-52"/>
      </defs>
      <g style="fill:#262626;" transform="translate(473.978419 265.0807)scale(0.088 -0.088)">
       <use xlink:href="#DejaVuSans-40"/>
       <use x="39.013672" xlink:href="#DejaVuSans-52"/>
       <use x="102.636719" xlink:href="#DejaVuSans-55"/>
       <use x="166.259766" xlink:href="#DejaVuSans-46"/>
       <use x="198.046875" xlink:href="#DejaVuSans-56"/>
       <use x="261.669922" xlink:href="#DejaVuSans-37"/>
       <use x="356.689453" xlink:href="#DejaVuSans-41"/>
      </g>
     </g>
    </g>
    <g id="xtick_8">
     <g id="line2d_8">
      <path clip-path="url(#p22982835f8)" d="M 557.087583 239.04 
L 557.087583 34.56 
" style="fill:none;stroke:#ffffff;stroke-linecap:round;"/>
     </g>
     <g id="text_8">
      <!-- 17500 -->
      <g style="fill:#262626;" transform="translate(543.090083 255.226625)scale(0.088 -0.088)">
       <use xlink:href="#DejaVuSans-49"/>
       <use x="63.623047" xlink:href="#DejaVuSans-55"/>
       <use x="127.246094" xlink:href="#DejaVuSans-53"/>
       <use x="190.869141" xlink:href="#DejaVuSans-48"/>
       <use x="254.492188" xlink:href="#DejaVuSans-48"/>
      </g>
      <!-- (55.7%) -->
      <g style="fill:#262626;" transform="translate(539.676646 265.0807)scale(0.088 -0.088)">
       <use xlink:href="#DejaVuSans-40"/>
       <use x="39.013672" xlink:href="#DejaVuSans-53"/>
       <use x="102.636719" xlink:href="#DejaVuSans-53"/>
       <use x="166.259766" xlink:href="#DejaVuSans-46"/>
       <use x="198.046875" xlink:href="#DejaVuSans-55"/>
       <use x="261.669922" xlink:href="#DejaVuSans-37"/>
       <use x="356.689453" xlink:href="#DejaVuSans-41"/>
      </g>
     </g>
    </g>
    <g id="text_9">
     <!-- count -->
     <defs>
      <path d="M 48.78125 52.59375 
L 48.78125 44.1875 
Q 44.96875 46.296875 41.140625 47.34375 
Q 37.3125 48.390625 33.40625 48.390625 
Q 24.65625 48.390625 19.8125 42.84375 
Q 14.984375 37.3125 14.984375 27.296875 
Q 14.984375 17.28125 19.8125 11.734375 
Q 24.65625 6.203125 33.40625 6.203125 
Q 37.3125 6.203125 41.140625 7.25 
Q 44.96875 8.296875 48.78125 10.40625 
L 48.78125 2.09375 
Q 45.015625 0.34375 40.984375 -0.53125 
Q 36.96875 -1.421875 32.421875 -1.421875 
Q 20.0625 -1.421875 12.78125 6.34375 
Q 5.515625 14.109375 5.515625 27.296875 
Q 5.515625 40.671875 12.859375 48.328125 
Q 20.21875 56 33.015625 56 
Q 37.15625 56 41.109375 55.140625 
Q 45.0625 54.296875 48.78125 52.59375 
z
" id="DejaVuSans-99"/>
      <path d="M 30.609375 48.390625 
Q 23.390625 48.390625 19.1875 42.75 
Q 14.984375 37.109375 14.984375 27.296875 
Q 14.984375 17.484375 19.15625 11.84375 
Q 23.34375 6.203125 30.609375 6.203125 
Q 37.796875 6.203125 41.984375 11.859375 
Q 46.1875 17.53125 46.1875 27.296875 
Q 46.1875 37.015625 41.984375 42.703125 
Q 37.796875 48.390625 30.609375 48.390625 
z
M 30.609375 56 
Q 42.328125 56 49.015625 48.375 
Q 55.71875 40.765625 55.71875 27.296875 
Q 55.71875 13.875 49.015625 6.21875 
Q 42.328125 -1.421875 30.609375 -1.421875 
Q 18.84375 -1.421875 12.171875 6.21875 
Q 5.515625 13.875 5.515625 27.296875 
Q 5.515625 40.765625 12.171875 48.375 
Q 18.84375 56 30.609375 56 
z
" id="DejaVuSans-111"/>
      <path d="M 8.5 21.578125 
L 8.5 54.6875 
L 17.484375 54.6875 
L 17.484375 21.921875 
Q 17.484375 14.15625 20.5 10.265625 
Q 23.53125 6.390625 29.59375 6.390625 
Q 36.859375 6.390625 41.078125 11.03125 
Q 45.3125 15.671875 45.3125 23.6875 
L 45.3125 54.6875 
L 54.296875 54.6875 
L 54.296875 0 
L 45.3125 0 
L 45.3125 8.40625 
Q 42.046875 3.421875 37.71875 1 
Q 33.40625 -1.421875 27.6875 -1.421875 
Q 18.265625 -1.421875 13.375 4.4375 
Q 8.5 10.296875 8.5 21.578125 
z
M 31.109375 56 
z
" id="DejaVuSans-117"/>
      <path d="M 54.890625 33.015625 
L 54.890625 0 
L 45.90625 0 
L 45.90625 32.71875 
Q 45.90625 40.484375 42.875 44.328125 
Q 39.84375 48.1875 33.796875 48.1875 
Q 26.515625 48.1875 22.3125 43.546875 
Q 18.109375 38.921875 18.109375 30.90625 
L 18.109375 0 
L 9.078125 0 
L 9.078125 54.6875 
L 18.109375 54.6875 
L 18.109375 46.1875 
Q 21.34375 51.125 25.703125 53.5625 
Q 30.078125 56 35.796875 56 
Q 45.21875 56 50.046875 50.171875 
Q 54.890625 44.34375 54.890625 33.015625 
z
" id="DejaVuSans-110"/>
      <path d="M 18.3125 70.21875 
L 18.3125 54.6875 
L 36.8125 54.6875 
L 36.8125 47.703125 
L 18.3125 47.703125 
L 18.3125 18.015625 
Q 18.3125 11.328125 20.140625 9.421875 
Q 21.96875 7.515625 27.59375 7.515625 
L 36.8125 7.515625 
L 36.8125 0 
L 27.59375 0 
Q 17.1875 0 13.234375 3.875 
Q 9.28125 7.765625 9.28125 18.015625 
L 9.28125 47.703125 
L 2.6875 47.703125 
L 2.6875 54.6875 
L 9.28125 54.6875 
L 9.28125 70.21875 
z
" id="DejaVuSans-116"/>
     </defs>
     <g style="fill:#262626;" transform="translate(326.658 278.205325)scale(0.096 -0.096)">
      <use xlink:href="#DejaVuSans-99"/>
      <use x="54.980469" xlink:href="#DejaVuSans-111"/>
      <use x="116.162109" xlink:href="#DejaVuSans-117"/>
      <use x="179.541016" xlink:href="#DejaVuSans-110"/>
      <use x="242.919922" xlink:href="#DejaVuSans-116"/>
     </g>
    </g>
   </g>
   <g id="matplotlib.axis_2">
    <g id="ytick_1">
     <g id="text_10">
      <!-- BE (56.08%) -->
      <defs>
       <path d="M 19.671875 34.8125 
L 19.671875 8.109375 
L 35.5 8.109375 
Q 43.453125 8.109375 47.28125 11.40625 
Q 51.125 14.703125 51.125 21.484375 
Q 51.125 28.328125 47.28125 31.5625 
Q 43.453125 34.8125 35.5 34.8125 
z
M 19.671875 64.796875 
L 19.671875 42.828125 
L 34.28125 42.828125 
Q 41.5 42.828125 45.03125 45.53125 
Q 48.578125 48.25 48.578125 53.8125 
Q 48.578125 59.328125 45.03125 62.0625 
Q 41.5 64.796875 34.28125 64.796875 
z
M 9.8125 72.90625 
L 35.015625 72.90625 
Q 46.296875 72.90625 52.390625 68.21875 
Q 58.5 63.53125 58.5 54.890625 
Q 58.5 48.1875 55.375 44.234375 
Q 52.25 40.28125 46.1875 39.3125 
Q 53.46875 37.75 57.5 32.78125 
Q 61.53125 27.828125 61.53125 20.40625 
Q 61.53125 10.640625 54.890625 5.3125 
Q 48.25 0 35.984375 0 
L 9.8125 0 
z
" id="DejaVuSans-66"/>
       <path d="M 9.8125 72.90625 
L 55.90625 72.90625 
L 55.90625 64.59375 
L 19.671875 64.59375 
L 19.671875 43.015625 
L 54.390625 43.015625 
L 54.390625 34.71875 
L 19.671875 34.71875 
L 19.671875 8.296875 
L 56.78125 8.296875 
L 56.78125 0 
L 9.8125 0 
z
" id="DejaVuSans-69"/>
       <path id="DejaVuSans-32"/>
       <path d="M 33.015625 40.375 
Q 26.375 40.375 22.484375 35.828125 
Q 18.609375 31.296875 18.609375 23.390625 
Q 18.609375 15.53125 22.484375 10.953125 
Q 26.375 6.390625 33.015625 6.390625 
Q 39.65625 6.390625 43.53125 10.953125 
Q 47.40625 15.53125 47.40625 23.390625 
Q 47.40625 31.296875 43.53125 35.828125 
Q 39.65625 40.375 33.015625 40.375 
z
M 52.59375 71.296875 
L 52.59375 62.3125 
Q 48.875 64.0625 45.09375 64.984375 
Q 41.3125 65.921875 37.59375 65.921875 
Q 27.828125 65.921875 22.671875 59.328125 
Q 17.53125 52.734375 16.796875 39.40625 
Q 19.671875 43.65625 24.015625 45.921875 
Q 28.375 48.1875 33.59375 48.1875 
Q 44.578125 48.1875 50.953125 41.515625 
Q 57.328125 34.859375 57.328125 23.390625 
Q 57.328125 12.15625 50.6875 5.359375 
Q 44.046875 -1.421875 33.015625 -1.421875 
Q 20.359375 -1.421875 13.671875 8.265625 
Q 6.984375 17.96875 6.984375 36.375 
Q 6.984375 53.65625 15.1875 63.9375 
Q 23.390625 74.21875 37.203125 74.21875 
Q 40.921875 74.21875 44.703125 73.484375 
Q 48.484375 72.75 52.59375 71.296875 
z
" id="DejaVuSans-54"/>
      </defs>
      <g style="fill:#262626;" transform="translate(32.88425 40.280987)scale(0.088 -0.088)">
       <use xlink:href="#DejaVuSans-66"/>
       <use x="68.603516" xlink:href="#DejaVuSans-69"/>
       <use x="131.787109" xlink:href="#DejaVuSans-32"/>
       <use x="163.574219" xlink:href="#DejaVuSans-40"/>
       <use x="202.587891" xlink:href="#DejaVuSans-53"/>
       <use x="266.210938" xlink:href="#DejaVuSans-54"/>
       <use x="329.833984" xlink:href="#DejaVuSans-46"/>
       <use x="361.621094" xlink:href="#DejaVuSans-48"/>
       <use x="425.244141" xlink:href="#DejaVuSans-56"/>
       <use x="488.867188" xlink:href="#DejaVuSans-37"/>
       <use x="583.886719" xlink:href="#DejaVuSans-41"/>
      </g>
     </g>
    </g>
    <g id="ytick_2">
     <g id="text_11">
      <!-- GB (14.53%) -->
      <defs>
       <path d="M 59.515625 10.40625 
L 59.515625 29.984375 
L 43.40625 29.984375 
L 43.40625 38.09375 
L 69.28125 38.09375 
L 69.28125 6.78125 
Q 63.578125 2.734375 56.6875 0.65625 
Q 49.8125 -1.421875 42 -1.421875 
Q 24.90625 -1.421875 15.25 8.5625 
Q 5.609375 18.5625 5.609375 36.375 
Q 5.609375 54.25 15.25 64.234375 
Q 24.90625 74.21875 42 74.21875 
Q 49.125 74.21875 55.546875 72.453125 
Q 61.96875 70.703125 67.390625 67.28125 
L 67.390625 56.78125 
Q 61.921875 61.421875 55.765625 63.765625 
Q 49.609375 66.109375 42.828125 66.109375 
Q 29.4375 66.109375 22.71875 58.640625 
Q 16.015625 51.171875 16.015625 36.375 
Q 16.015625 21.625 22.71875 14.15625 
Q 29.4375 6.6875 42.828125 6.6875 
Q 48.046875 6.6875 52.140625 7.59375 
Q 56.25 8.5 59.515625 10.40625 
z
" id="DejaVuSans-71"/>
      </defs>
      <g style="fill:#262626;" transform="translate(31.626125 45.036336)scale(0.088 -0.088)">
       <use xlink:href="#DejaVuSans-71"/>
       <use x="77.490234" xlink:href="#DejaVuSans-66"/>
       <use x="146.09375" xlink:href="#DejaVuSans-32"/>
       <use x="177.880859" xlink:href="#DejaVuSans-40"/>
       <use x="216.894531" xlink:href="#DejaVuSans-49"/>
       <use x="280.517578" xlink:href="#DejaVuSans-52"/>
       <use x="344.140625" xlink:href="#DejaVuSans-46"/>
       <use x="375.927734" xlink:href="#DejaVuSans-53"/>
       <use x="439.550781" xlink:href="#DejaVuSans-51"/>
       <use x="503.173828" xlink:href="#DejaVuSans-37"/>
       <use x="598.193359" xlink:href="#DejaVuSans-41"/>
      </g>
     </g>
    </g>
    <g id="ytick_3">
     <g id="text_12">
      <!-- XX (13.20%) -->
      <defs>
       <path d="M 6.296875 72.90625 
L 16.890625 72.90625 
L 35.015625 45.796875 
L 53.21875 72.90625 
L 63.8125 72.90625 
L 40.375 37.890625 
L 65.375 0 
L 54.78125 0 
L 34.28125 31 
L 13.625 0 
L 2.984375 0 
L 29 38.921875 
z
" id="DejaVuSans-88"/>
      </defs>
      <g style="fill:#262626;" transform="translate(32.426375 49.791685)scale(0.088 -0.088)">
       <use xlink:href="#DejaVuSans-88"/>
       <use x="68.505859" xlink:href="#DejaVuSans-88"/>
       <use x="137.011719" xlink:href="#DejaVuSans-32"/>
       <use x="168.798828" xlink:href="#DejaVuSans-40"/>
       <use x="207.8125" xlink:href="#DejaVuSans-49"/>
       <use x="271.435547" xlink:href="#DejaVuSans-51"/>
       <use x="335.058594" xlink:href="#DejaVuSans-46"/>
       <use x="366.845703" xlink:href="#DejaVuSans-50"/>
       <use x="430.46875" xlink:href="#DejaVuSans-48"/>
       <use x="494.091797" xlink:href="#DejaVuSans-37"/>
       <use x="589.111328" xlink:href="#DejaVuSans-41"/>
      </g>
     </g>
    </g>
    <g id="ytick_4">
     <g id="text_13">
      <!-- FR (12.72%) -->
      <defs>
       <path d="M 9.8125 72.90625 
L 51.703125 72.90625 
L 51.703125 64.59375 
L 19.671875 64.59375 
L 19.671875 43.109375 
L 48.578125 43.109375 
L 48.578125 34.8125 
L 19.671875 34.8125 
L 19.671875 0 
L 9.8125 0 
z
" id="DejaVuSans-70"/>
       <path d="M 44.390625 34.1875 
Q 47.5625 33.109375 50.5625 29.59375 
Q 53.5625 26.078125 56.59375 19.921875 
L 66.609375 0 
L 56 0 
L 46.6875 18.703125 
Q 43.0625 26.03125 39.671875 28.421875 
Q 36.28125 30.8125 30.421875 30.8125 
L 19.671875 30.8125 
L 19.671875 0 
L 9.8125 0 
L 9.8125 72.90625 
L 32.078125 72.90625 
Q 44.578125 72.90625 50.734375 67.671875 
Q 56.890625 62.453125 56.890625 51.90625 
Q 56.890625 45.015625 53.6875 40.46875 
Q 50.484375 35.9375 44.390625 34.1875 
z
M 19.671875 64.796875 
L 19.671875 38.921875 
L 32.078125 38.921875 
Q 39.203125 38.921875 42.84375 42.21875 
Q 46.484375 45.515625 46.484375 51.90625 
Q 46.484375 58.296875 42.84375 61.546875 
Q 39.203125 64.796875 32.078125 64.796875 
z
" id="DejaVuSans-82"/>
      </defs>
      <g style="fill:#262626;" transform="translate(33.306375 54.547033)scale(0.088 -0.088)">
       <use xlink:href="#DejaVuSans-70"/>
       <use x="57.519531" xlink:href="#DejaVuSans-82"/>
       <use x="127.001953" xlink:href="#DejaVuSans-32"/>
       <use x="158.789062" xlink:href="#DejaVuSans-40"/>
       <use x="197.802734" xlink:href="#DejaVuSans-49"/>
       <use x="261.425781" xlink:href="#DejaVuSans-50"/>
       <use x="325.048828" xlink:href="#DejaVuSans-46"/>
       <use x="356.835938" xlink:href="#DejaVuSans-55"/>
       <use x="420.458984" xlink:href="#DejaVuSans-50"/>
       <use x="484.082031" xlink:href="#DejaVuSans-37"/>
       <use x="579.101562" xlink:href="#DejaVuSans-41"/>
      </g>
     </g>
    </g>
    <g id="ytick_5">
     <g id="text_14">
      <!-- DE (1.06%) -->
      <defs>
       <path d="M 19.671875 64.796875 
L 19.671875 8.109375 
L 31.59375 8.109375 
Q 46.6875 8.109375 53.6875 14.9375 
Q 60.6875 21.78125 60.6875 36.53125 
Q 60.6875 51.171875 53.6875 57.984375 
Q 46.6875 64.796875 31.59375 64.796875 
z
M 9.8125 72.90625 
L 30.078125 72.90625 
Q 51.265625 72.90625 61.171875 64.09375 
Q 71.09375 55.28125 71.09375 36.53125 
Q 71.09375 17.671875 61.125 8.828125 
Q 51.171875 0 30.078125 0 
L 9.8125 0 
z
" id="DejaVuSans-68"/>
      </defs>
      <g style="fill:#262626;" transform="translate(37.744875 59.302382)scale(0.088 -0.088)">
       <use xlink:href="#DejaVuSans-68"/>
       <use x="77.001953" xlink:href="#DejaVuSans-69"/>
       <use x="140.185547" xlink:href="#DejaVuSans-32"/>
       <use x="171.972656" xlink:href="#DejaVuSans-40"/>
       <use x="210.986328" xlink:href="#DejaVuSans-49"/>
       <use x="274.609375" xlink:href="#DejaVuSans-46"/>
       <use x="306.396484" xlink:href="#DejaVuSans-48"/>
       <use x="370.019531" xlink:href="#DejaVuSans-54"/>
       <use x="433.642578" xlink:href="#DejaVuSans-37"/>
       <use x="528.662109" xlink:href="#DejaVuSans-41"/>
      </g>
     </g>
    </g>
    <g id="ytick_6">
     <g id="text_15">
      <!-- AU (0.80%) -->
      <defs>
       <path d="M 34.1875 63.1875 
L 20.796875 26.90625 
L 47.609375 26.90625 
z
M 28.609375 72.90625 
L 39.796875 72.90625 
L 67.578125 0 
L 57.328125 0 
L 50.6875 18.703125 
L 17.828125 18.703125 
L 11.1875 0 
L 0.78125 0 
z
" id="DejaVuSans-65"/>
       <path d="M 8.6875 72.90625 
L 18.609375 72.90625 
L 18.609375 28.609375 
Q 18.609375 16.890625 22.84375 11.734375 
Q 27.09375 6.59375 36.625 6.59375 
Q 46.09375 6.59375 50.34375 11.734375 
Q 54.59375 16.890625 54.59375 28.609375 
L 54.59375 72.90625 
L 64.5 72.90625 
L 64.5 27.390625 
Q 64.5 13.140625 57.4375 5.859375 
Q 50.390625 -1.421875 36.625 -1.421875 
Q 22.796875 -1.421875 15.734375 5.859375 
Q 8.6875 13.140625 8.6875 27.390625 
z
" id="DejaVuSans-85"/>
      </defs>
      <g style="fill:#262626;" transform="translate(37.621125 64.057731)scale(0.088 -0.088)">
       <use xlink:href="#DejaVuSans-65"/>
       <use x="68.408203" xlink:href="#DejaVuSans-85"/>
       <use x="141.601562" xlink:href="#DejaVuSans-32"/>
       <use x="173.388672" xlink:href="#DejaVuSans-40"/>
       <use x="212.402344" xlink:href="#DejaVuSans-48"/>
       <use x="276.025391" xlink:href="#DejaVuSans-46"/>
       <use x="307.8125" xlink:href="#DejaVuSans-56"/>
       <use x="371.435547" xlink:href="#DejaVuSans-48"/>
       <use x="435.058594" xlink:href="#DejaVuSans-37"/>
       <use x="530.078125" xlink:href="#DejaVuSans-41"/>
      </g>
     </g>
    </g>
    <g id="ytick_7">
     <g id="text_16">
      <!-- CA (0.56%) -->
      <defs>
       <path d="M 64.40625 67.28125 
L 64.40625 56.890625 
Q 59.421875 61.53125 53.78125 63.8125 
Q 48.140625 66.109375 41.796875 66.109375 
Q 29.296875 66.109375 22.65625 58.46875 
Q 16.015625 50.828125 16.015625 36.375 
Q 16.015625 21.96875 22.65625 14.328125 
Q 29.296875 6.6875 41.796875 6.6875 
Q 48.140625 6.6875 53.78125 8.984375 
Q 59.421875 11.28125 64.40625 15.921875 
L 64.40625 5.609375 
Q 59.234375 2.09375 53.4375 0.328125 
Q 47.65625 -1.421875 41.21875 -1.421875 
Q 24.65625 -1.421875 15.125 8.703125 
Q 5.609375 18.84375 5.609375 36.375 
Q 5.609375 53.953125 15.125 64.078125 
Q 24.65625 74.21875 41.21875 74.21875 
Q 47.75 74.21875 53.53125 72.484375 
Q 59.328125 70.75 64.40625 67.28125 
z
" id="DejaVuSans-67"/>
      </defs>
      <g style="fill:#262626;" transform="translate(37.91675 68.81308)scale(0.088 -0.088)">
       <use xlink:href="#DejaVuSans-67"/>
       <use x="69.824219" xlink:href="#DejaVuSans-65"/>
       <use x="138.232422" xlink:href="#DejaVuSans-32"/>
       <use x="170.019531" xlink:href="#DejaVuSans-40"/>
       <use x="209.033203" xlink:href="#DejaVuSans-48"/>
       <use x="272.65625" xlink:href="#DejaVuSans-46"/>
       <use x="304.443359" xlink:href="#DejaVuSans-53"/>
       <use x="368.066406" xlink:href="#DejaVuSans-54"/>
       <use x="431.689453" xlink:href="#DejaVuSans-37"/>
       <use x="526.708984" xlink:href="#DejaVuSans-41"/>
      </g>
     </g>
    </g>
    <g id="ytick_8">
     <g id="text_17">
      <!-- IE (0.38%) -->
      <defs>
       <path d="M 9.8125 72.90625 
L 19.671875 72.90625 
L 19.671875 0 
L 9.8125 0 
z
" id="DejaVuSans-73"/>
      </defs>
      <g style="fill:#262626;" transform="translate(41.924875 73.568429)scale(0.088 -0.088)">
       <use xlink:href="#DejaVuSans-73"/>
       <use x="29.492188" xlink:href="#DejaVuSans-69"/>
       <use x="92.675781" xlink:href="#DejaVuSans-32"/>
       <use x="124.462891" xlink:href="#DejaVuSans-40"/>
       <use x="163.476562" xlink:href="#DejaVuSans-48"/>
       <use x="227.099609" xlink:href="#DejaVuSans-46"/>
       <use x="258.886719" xlink:href="#DejaVuSans-51"/>
       <use x="322.509766" xlink:href="#DejaVuSans-56"/>
       <use x="386.132812" xlink:href="#DejaVuSans-37"/>
       <use x="481.152344" xlink:href="#DejaVuSans-41"/>
      </g>
     </g>
    </g>
    <g id="ytick_9">
     <g id="text_18">
      <!-- NL (0.13%) -->
      <defs>
       <path d="M 9.8125 72.90625 
L 23.09375 72.90625 
L 55.421875 11.921875 
L 55.421875 72.90625 
L 64.984375 72.90625 
L 64.984375 0 
L 51.703125 0 
L 19.390625 60.984375 
L 19.390625 0 
L 9.8125 0 
z
" id="DejaVuSans-78"/>
       <path d="M 9.8125 72.90625 
L 19.671875 72.90625 
L 19.671875 8.296875 
L 55.171875 8.296875 
L 55.171875 0 
L 9.8125 0 
z
" id="DejaVuSans-76"/>
      </defs>
      <g style="fill:#262626;" transform="translate(38.594625 78.323778)scale(0.088 -0.088)">
       <use xlink:href="#DejaVuSans-78"/>
       <use x="74.804688" xlink:href="#DejaVuSans-76"/>
       <use x="130.517578" xlink:href="#DejaVuSans-32"/>
       <use x="162.304688" xlink:href="#DejaVuSans-40"/>
       <use x="201.318359" xlink:href="#DejaVuSans-48"/>
       <use x="264.941406" xlink:href="#DejaVuSans-46"/>
       <use x="296.728516" xlink:href="#DejaVuSans-49"/>
       <use x="360.351562" xlink:href="#DejaVuSans-51"/>
       <use x="423.974609" xlink:href="#DejaVuSans-37"/>
       <use x="518.994141" xlink:href="#DejaVuSans-41"/>
      </g>
     </g>
    </g>
    <g id="ytick_10">
     <g id="text_19">
      <!-- DZ (0.12%) -->
      <defs>
       <path d="M 5.609375 72.90625 
L 62.890625 72.90625 
L 62.890625 65.375 
L 16.796875 8.296875 
L 64.015625 8.296875 
L 64.015625 0 
L 4.5 0 
L 4.5 7.515625 
L 50.59375 64.59375 
L 5.609375 64.59375 
z
" id="DejaVuSans-90"/>
      </defs>
      <g style="fill:#262626;" transform="translate(37.277375 83.079126)scale(0.088 -0.088)">
       <use xlink:href="#DejaVuSans-68"/>
       <use x="77.001953" xlink:href="#DejaVuSans-90"/>
       <use x="145.507812" xlink:href="#DejaVuSans-32"/>
       <use x="177.294922" xlink:href="#DejaVuSans-40"/>
       <use x="216.308594" xlink:href="#DejaVuSans-48"/>
       <use x="279.931641" xlink:href="#DejaVuSans-46"/>
       <use x="311.71875" xlink:href="#DejaVuSans-49"/>
       <use x="375.341797" xlink:href="#DejaVuSans-50"/>
       <use x="438.964844" xlink:href="#DejaVuSans-37"/>
       <use x="533.984375" xlink:href="#DejaVuSans-41"/>
      </g>
     </g>
    </g>
    <g id="ytick_11">
     <g id="text_20">
      <!-- US (0.06%) -->
      <defs>
       <path d="M 53.515625 70.515625 
L 53.515625 60.890625 
Q 47.90625 63.578125 42.921875 64.890625 
Q 37.9375 66.21875 33.296875 66.21875 
Q 25.25 66.21875 20.875 63.09375 
Q 16.5 59.96875 16.5 54.203125 
Q 16.5 49.359375 19.40625 46.890625 
Q 22.3125 44.4375 30.421875 42.921875 
L 36.375 41.703125 
Q 47.40625 39.59375 52.65625 34.296875 
Q 57.90625 29 57.90625 20.125 
Q 57.90625 9.515625 50.796875 4.046875 
Q 43.703125 -1.421875 29.984375 -1.421875 
Q 24.8125 -1.421875 18.96875 -0.25 
Q 13.140625 0.921875 6.890625 3.21875 
L 6.890625 13.375 
Q 12.890625 10.015625 18.65625 8.296875 
Q 24.421875 6.59375 29.984375 6.59375 
Q 38.421875 6.59375 43.015625 9.90625 
Q 47.609375 13.234375 47.609375 19.390625 
Q 47.609375 24.75 44.3125 27.78125 
Q 41.015625 30.8125 33.5 32.328125 
L 27.484375 33.5 
Q 16.453125 35.6875 11.515625 40.375 
Q 6.59375 45.0625 6.59375 53.421875 
Q 6.59375 63.09375 13.40625 68.65625 
Q 20.21875 74.21875 32.171875 74.21875 
Q 37.3125 74.21875 42.625 73.28125 
Q 47.953125 72.359375 53.515625 70.515625 
z
" id="DejaVuSans-83"/>
      </defs>
      <g style="fill:#262626;" transform="translate(38.05425 87.834475)scale(0.088 -0.088)">
       <use xlink:href="#DejaVuSans-85"/>
       <use x="73.193359" xlink:href="#DejaVuSans-83"/>
       <use x="136.669922" xlink:href="#DejaVuSans-32"/>
       <use x="168.457031" xlink:href="#DejaVuSans-40"/>
       <use x="207.470703" xlink:href="#DejaVuSans-48"/>
       <use x="271.09375" xlink:href="#DejaVuSans-46"/>
       <use x="302.880859" xlink:href="#DejaVuSans-48"/>
       <use x="366.503906" xlink:href="#DejaVuSans-54"/>
       <use x="430.126953" xlink:href="#DejaVuSans-37"/>
       <use x="525.146484" xlink:href="#DejaVuSans-41"/>
      </g>
     </g>
    </g>
    <g id="ytick_12">
     <g id="text_21">
      <!-- NZ (0.06%) -->
      <g style="fill:#262626;" transform="translate(37.469875 92.589824)scale(0.088 -0.088)">
       <use xlink:href="#DejaVuSans-78"/>
       <use x="74.804688" xlink:href="#DejaVuSans-90"/>
       <use x="143.310547" xlink:href="#DejaVuSans-32"/>
       <use x="175.097656" xlink:href="#DejaVuSans-40"/>
       <use x="214.111328" xlink:href="#DejaVuSans-48"/>
       <use x="277.734375" xlink:href="#DejaVuSans-46"/>
       <use x="309.521484" xlink:href="#DejaVuSans-48"/>
       <use x="373.144531" xlink:href="#DejaVuSans-54"/>
       <use x="436.767578" xlink:href="#DejaVuSans-37"/>
       <use x="531.787109" xlink:href="#DejaVuSans-41"/>
      </g>
     </g>
    </g>
    <g id="ytick_13">
     <g id="text_22">
      <!-- AR (0.03%) -->
      <g style="fill:#262626;" transform="translate(37.947 97.345173)scale(0.088 -0.088)">
       <use xlink:href="#DejaVuSans-65"/>
       <use x="68.408203" xlink:href="#DejaVuSans-82"/>
       <use x="137.890625" xlink:href="#DejaVuSans-32"/>
       <use x="169.677734" xlink:href="#DejaVuSans-40"/>
       <use x="208.691406" xlink:href="#DejaVuSans-48"/>
       <use x="272.314453" xlink:href="#DejaVuSans-46"/>
       <use x="304.101562" xlink:href="#DejaVuSans-48"/>
       <use x="367.724609" xlink:href="#DejaVuSans-51"/>
       <use x="431.347656" xlink:href="#DejaVuSans-37"/>
       <use x="526.367188" xlink:href="#DejaVuSans-41"/>
      </g>
     </g>
    </g>
    <g id="ytick_14">
     <g id="text_23">
      <!-- LU (0.03%) -->
      <g style="fill:#262626;" transform="translate(38.7445 102.100522)scale(0.088 -0.088)">
       <use xlink:href="#DejaVuSans-76"/>
       <use x="55.634766" xlink:href="#DejaVuSans-85"/>
       <use x="128.828125" xlink:href="#DejaVuSans-32"/>
       <use x="160.615234" xlink:href="#DejaVuSans-40"/>
       <use x="199.628906" xlink:href="#DejaVuSans-48"/>
       <use x="263.251953" xlink:href="#DejaVuSans-46"/>
       <use x="295.039062" xlink:href="#DejaVuSans-48"/>
       <use x="358.662109" xlink:href="#DejaVuSans-51"/>
       <use x="422.285156" xlink:href="#DejaVuSans-37"/>
       <use x="517.304688" xlink:href="#DejaVuSans-41"/>
      </g>
     </g>
    </g>
    <g id="ytick_15">
     <g id="text_24">
      <!-- IT (0.03%) -->
      <defs>
       <path d="M -0.296875 72.90625 
L 61.375 72.90625 
L 61.375 64.59375 
L 35.5 64.59375 
L 35.5 0 
L 25.59375 0 
L 25.59375 64.59375 
L -0.296875 64.59375 
z
" id="DejaVuSans-84"/>
      </defs>
      <g style="fill:#262626;" transform="translate(42.1105 106.855871)scale(0.088 -0.088)">
       <use xlink:href="#DejaVuSans-73"/>
       <use x="29.492188" xlink:href="#DejaVuSans-84"/>
       <use x="90.576172" xlink:href="#DejaVuSans-32"/>
       <use x="122.363281" xlink:href="#DejaVuSans-40"/>
       <use x="161.376953" xlink:href="#DejaVuSans-48"/>
       <use x="225" xlink:href="#DejaVuSans-46"/>
       <use x="256.787109" xlink:href="#DejaVuSans-48"/>
       <use x="320.410156" xlink:href="#DejaVuSans-51"/>
       <use x="384.033203" xlink:href="#DejaVuSans-37"/>
       <use x="479.052734" xlink:href="#DejaVuSans-41"/>
      </g>
     </g>
    </g>
    <g id="ytick_16">
     <g id="text_25">
      <!-- IN (0.03%) -->
      <g style="fill:#262626;" transform="translate(40.901875 111.611219)scale(0.088 -0.088)">
       <use xlink:href="#DejaVuSans-73"/>
       <use x="29.492188" xlink:href="#DejaVuSans-78"/>
       <use x="104.296875" xlink:href="#DejaVuSans-32"/>
       <use x="136.083984" xlink:href="#DejaVuSans-40"/>
       <use x="175.097656" xlink:href="#DejaVuSans-48"/>
       <use x="238.720703" xlink:href="#DejaVuSans-46"/>
       <use x="270.507812" xlink:href="#DejaVuSans-48"/>
       <use x="334.130859" xlink:href="#DejaVuSans-51"/>
       <use x="397.753906" xlink:href="#DejaVuSans-37"/>
       <use x="492.773438" xlink:href="#DejaVuSans-41"/>
      </g>
     </g>
    </g>
    <g id="ytick_17">
     <g id="text_26">
      <!-- RU (0.03%) -->
      <g style="fill:#262626;" transform="translate(37.52625 116.366568)scale(0.088 -0.088)">
       <use xlink:href="#DejaVuSans-82"/>
       <use x="69.482422" xlink:href="#DejaVuSans-85"/>
       <use x="142.675781" xlink:href="#DejaVuSans-32"/>
       <use x="174.462891" xlink:href="#DejaVuSans-40"/>
       <use x="213.476562" xlink:href="#DejaVuSans-48"/>
       <use x="277.099609" xlink:href="#DejaVuSans-46"/>
       <use x="308.886719" xlink:href="#DejaVuSans-48"/>
       <use x="372.509766" xlink:href="#DejaVuSans-51"/>
       <use x="436.132812" xlink:href="#DejaVuSans-37"/>
       <use x="531.152344" xlink:href="#DejaVuSans-41"/>
      </g>
     </g>
    </g>
    <g id="ytick_18">
     <g id="text_27">
      <!-- PL (0.03%) -->
      <defs>
       <path d="M 19.671875 64.796875 
L 19.671875 37.40625 
L 32.078125 37.40625 
Q 38.96875 37.40625 42.71875 40.96875 
Q 46.484375 44.53125 46.484375 51.125 
Q 46.484375 57.671875 42.71875 61.234375 
Q 38.96875 64.796875 32.078125 64.796875 
z
M 9.8125 72.90625 
L 32.078125 72.90625 
Q 44.34375 72.90625 50.609375 67.359375 
Q 56.890625 61.8125 56.890625 51.125 
Q 56.890625 40.328125 50.609375 34.8125 
Q 44.34375 29.296875 32.078125 29.296875 
L 19.671875 29.296875 
L 19.671875 0 
L 9.8125 0 
z
" id="DejaVuSans-80"/>
      </defs>
      <g style="fill:#262626;" transform="translate(39.872 121.121917)scale(0.088 -0.088)">
       <use xlink:href="#DejaVuSans-80"/>
       <use x="60.302734" xlink:href="#DejaVuSans-76"/>
       <use x="116.015625" xlink:href="#DejaVuSans-32"/>
       <use x="147.802734" xlink:href="#DejaVuSans-40"/>
       <use x="186.816406" xlink:href="#DejaVuSans-48"/>
       <use x="250.439453" xlink:href="#DejaVuSans-46"/>
       <use x="282.226562" xlink:href="#DejaVuSans-48"/>
       <use x="345.849609" xlink:href="#DejaVuSans-51"/>
       <use x="409.472656" xlink:href="#DejaVuSans-37"/>
       <use x="504.492188" xlink:href="#DejaVuSans-41"/>
      </g>
     </g>
    </g>
    <g id="ytick_19">
     <g id="text_28">
      <!-- TN (0.02%) -->
      <g style="fill:#262626;" transform="translate(38.123 125.877266)scale(0.088 -0.088)">
       <use xlink:href="#DejaVuSans-84"/>
       <use x="61.083984" xlink:href="#DejaVuSans-78"/>
       <use x="135.888672" xlink:href="#DejaVuSans-32"/>
       <use x="167.675781" xlink:href="#DejaVuSans-40"/>
       <use x="206.689453" xlink:href="#DejaVuSans-48"/>
       <use x="270.3125" xlink:href="#DejaVuSans-46"/>
       <use x="302.099609" xlink:href="#DejaVuSans-48"/>
       <use x="365.722656" xlink:href="#DejaVuSans-50"/>
       <use x="429.345703" xlink:href="#DejaVuSans-37"/>
       <use x="524.365234" xlink:href="#DejaVuSans-41"/>
      </g>
     </g>
    </g>
    <g id="ytick_20">
     <g id="text_29">
      <!-- CH (0.01%) -->
      <defs>
       <path d="M 9.8125 72.90625 
L 19.671875 72.90625 
L 19.671875 43.015625 
L 55.515625 43.015625 
L 55.515625 72.90625 
L 65.375 72.90625 
L 65.375 0 
L 55.515625 0 
L 55.515625 34.71875 
L 19.671875 34.71875 
L 19.671875 0 
L 9.8125 0 
z
" id="DejaVuSans-72"/>
      </defs>
      <g style="fill:#262626;" transform="translate(37.318625 130.632615)scale(0.088 -0.088)">
       <use xlink:href="#DejaVuSans-67"/>
       <use x="69.824219" xlink:href="#DejaVuSans-72"/>
       <use x="145.019531" xlink:href="#DejaVuSans-32"/>
       <use x="176.806641" xlink:href="#DejaVuSans-40"/>
       <use x="215.820312" xlink:href="#DejaVuSans-48"/>
       <use x="279.443359" xlink:href="#DejaVuSans-46"/>
       <use x="311.230469" xlink:href="#DejaVuSans-48"/>
       <use x="374.853516" xlink:href="#DejaVuSans-49"/>
       <use x="438.476562" xlink:href="#DejaVuSans-37"/>
       <use x="533.496094" xlink:href="#DejaVuSans-41"/>
      </g>
     </g>
    </g>
    <g id="ytick_21">
     <g id="text_30">
      <!-- IM (0.01%) -->
      <defs>
       <path d="M 9.8125 72.90625 
L 24.515625 72.90625 
L 43.109375 23.296875 
L 61.8125 72.90625 
L 76.515625 72.90625 
L 76.515625 0 
L 66.890625 0 
L 66.890625 64.015625 
L 48.09375 14.015625 
L 38.1875 14.015625 
L 19.390625 64.015625 
L 19.390625 0 
L 9.8125 0 
z
" id="DejaVuSans-77"/>
      </defs>
      <g style="fill:#262626;" transform="translate(39.892625 135.387964)scale(0.088 -0.088)">
       <use xlink:href="#DejaVuSans-73"/>
       <use x="29.492188" xlink:href="#DejaVuSans-77"/>
       <use x="115.771484" xlink:href="#DejaVuSans-32"/>
       <use x="147.558594" xlink:href="#DejaVuSans-40"/>
       <use x="186.572266" xlink:href="#DejaVuSans-48"/>
       <use x="250.195312" xlink:href="#DejaVuSans-46"/>
       <use x="281.982422" xlink:href="#DejaVuSans-48"/>
       <use x="345.605469" xlink:href="#DejaVuSans-49"/>
       <use x="409.228516" xlink:href="#DejaVuSans-37"/>
       <use x="504.248047" xlink:href="#DejaVuSans-41"/>
      </g>
     </g>
    </g>
    <g id="ytick_22">
     <g id="text_31">
      <!-- __ (0.01%) -->
      <defs>
       <path d="M 50.984375 -16.609375 
L 50.984375 -23.578125 
L -0.984375 -23.578125 
L -0.984375 -16.609375 
z
" id="DejaVuSans-95"/>
      </defs>
      <g style="fill:#262626;" transform="translate(41.281375 140.1385)scale(0.088 -0.088)">
       <use xlink:href="#DejaVuSans-95"/>
       <use x="50" xlink:href="#DejaVuSans-95"/>
       <use x="100" xlink:href="#DejaVuSans-32"/>
       <use x="131.787109" xlink:href="#DejaVuSans-40"/>
       <use x="170.800781" xlink:href="#DejaVuSans-48"/>
       <use x="234.423828" xlink:href="#DejaVuSans-46"/>
       <use x="266.210938" xlink:href="#DejaVuSans-48"/>
       <use x="329.833984" xlink:href="#DejaVuSans-49"/>
       <use x="393.457031" xlink:href="#DejaVuSans-37"/>
       <use x="488.476562" xlink:href="#DejaVuSans-41"/>
      </g>
     </g>
    </g>
    <g id="ytick_23">
     <g id="text_32">
      <!-- AT (0.01%) -->
      <g style="fill:#262626;" transform="translate(38.696375 144.898661)scale(0.088 -0.088)">
       <use xlink:href="#DejaVuSans-65"/>
       <use x="68.298828" xlink:href="#DejaVuSans-84"/>
       <use x="129.382812" xlink:href="#DejaVuSans-32"/>
       <use x="161.169922" xlink:href="#DejaVuSans-40"/>
       <use x="200.183594" xlink:href="#DejaVuSans-48"/>
       <use x="263.806641" xlink:href="#DejaVuSans-46"/>
       <use x="295.59375" xlink:href="#DejaVuSans-48"/>
       <use x="359.216797" xlink:href="#DejaVuSans-49"/>
       <use x="422.839844" xlink:href="#DejaVuSans-37"/>
       <use x="517.859375" xlink:href="#DejaVuSans-41"/>
      </g>
     </g>
    </g>
    <g id="ytick_24">
     <g id="text_33">
      <!-- CL (0.01%) -->
      <g style="fill:#262626;" transform="translate(39.03325 149.65401)scale(0.088 -0.088)">
       <use xlink:href="#DejaVuSans-67"/>
       <use x="69.824219" xlink:href="#DejaVuSans-76"/>
       <use x="125.537109" xlink:href="#DejaVuSans-32"/>
       <use x="157.324219" xlink:href="#DejaVuSans-40"/>
       <use x="196.337891" xlink:href="#DejaVuSans-48"/>
       <use x="259.960938" xlink:href="#DejaVuSans-46"/>
       <use x="291.748047" xlink:href="#DejaVuSans-48"/>
       <use x="355.371094" xlink:href="#DejaVuSans-49"/>
       <use x="418.994141" xlink:href="#DejaVuSans-37"/>
       <use x="514.013672" xlink:href="#DejaVuSans-41"/>
      </g>
     </g>
    </g>
    <g id="ytick_25">
     <g id="text_34">
      <!-- ZA (0.01%) -->
      <g style="fill:#262626;" transform="translate(38.033625 154.409359)scale(0.088 -0.088)">
       <use xlink:href="#DejaVuSans-90"/>
       <use x="68.505859" xlink:href="#DejaVuSans-65"/>
       <use x="136.914062" xlink:href="#DejaVuSans-32"/>
       <use x="168.701172" xlink:href="#DejaVuSans-40"/>
       <use x="207.714844" xlink:href="#DejaVuSans-48"/>
       <use x="271.337891" xlink:href="#DejaVuSans-46"/>
       <use x="303.125" xlink:href="#DejaVuSans-48"/>
       <use x="366.748047" xlink:href="#DejaVuSans-49"/>
       <use x="430.371094" xlink:href="#DejaVuSans-37"/>
       <use x="525.390625" xlink:href="#DejaVuSans-41"/>
      </g>
     </g>
    </g>
    <g id="ytick_26">
     <g id="text_35">
      <!-- ES (0.01%) -->
      <g style="fill:#262626;" transform="translate(38.93425 159.164708)scale(0.088 -0.088)">
       <use xlink:href="#DejaVuSans-69"/>
       <use x="63.183594" xlink:href="#DejaVuSans-83"/>
       <use x="126.660156" xlink:href="#DejaVuSans-32"/>
       <use x="158.447266" xlink:href="#DejaVuSans-40"/>
       <use x="197.460938" xlink:href="#DejaVuSans-48"/>
       <use x="261.083984" xlink:href="#DejaVuSans-46"/>
       <use x="292.871094" xlink:href="#DejaVuSans-48"/>
       <use x="356.494141" xlink:href="#DejaVuSans-49"/>
       <use x="420.117188" xlink:href="#DejaVuSans-37"/>
       <use x="515.136719" xlink:href="#DejaVuSans-41"/>
      </g>
     </g>
    </g>
    <g id="ytick_27">
     <g id="text_36">
      <!-- GI (0.01%) -->
      <g style="fill:#262626;" transform="translate(40.66675 163.920057)scale(0.088 -0.088)">
       <use xlink:href="#DejaVuSans-71"/>
       <use x="77.490234" xlink:href="#DejaVuSans-73"/>
       <use x="106.982422" xlink:href="#DejaVuSans-32"/>
       <use x="138.769531" xlink:href="#DejaVuSans-40"/>
       <use x="177.783203" xlink:href="#DejaVuSans-48"/>
       <use x="241.40625" xlink:href="#DejaVuSans-46"/>
       <use x="273.193359" xlink:href="#DejaVuSans-48"/>
       <use x="336.816406" xlink:href="#DejaVuSans-49"/>
       <use x="400.439453" xlink:href="#DejaVuSans-37"/>
       <use x="495.458984" xlink:href="#DejaVuSans-41"/>
      </g>
     </g>
    </g>
    <g id="ytick_28">
     <g id="text_37">
      <!-- GP (0.00%) -->
      <g style="fill:#262626;" transform="translate(37.956625 168.675406)scale(0.088 -0.088)">
       <use xlink:href="#DejaVuSans-71"/>
       <use x="77.490234" xlink:href="#DejaVuSans-80"/>
       <use x="137.792969" xlink:href="#DejaVuSans-32"/>
       <use x="169.580078" xlink:href="#DejaVuSans-40"/>
       <use x="208.59375" xlink:href="#DejaVuSans-48"/>
       <use x="272.216797" xlink:href="#DejaVuSans-46"/>
       <use x="304.003906" xlink:href="#DejaVuSans-48"/>
       <use x="367.626953" xlink:href="#DejaVuSans-48"/>
       <use x="431.25" xlink:href="#DejaVuSans-37"/>
       <use x="526.269531" xlink:href="#DejaVuSans-41"/>
      </g>
     </g>
    </g>
    <g id="ytick_29">
     <g id="text_38">
      <!-- RO (0.00%) -->
      <defs>
       <path d="M 39.40625 66.21875 
Q 28.65625 66.21875 22.328125 58.203125 
Q 16.015625 50.203125 16.015625 36.375 
Q 16.015625 22.609375 22.328125 14.59375 
Q 28.65625 6.59375 39.40625 6.59375 
Q 50.140625 6.59375 56.421875 14.59375 
Q 62.703125 22.609375 62.703125 36.375 
Q 62.703125 50.203125 56.421875 58.203125 
Q 50.140625 66.21875 39.40625 66.21875 
z
M 39.40625 74.21875 
Q 54.734375 74.21875 63.90625 63.9375 
Q 73.09375 53.65625 73.09375 36.375 
Q 73.09375 19.140625 63.90625 8.859375 
Q 54.734375 -1.421875 39.40625 -1.421875 
Q 24.03125 -1.421875 14.8125 8.828125 
Q 5.609375 19.09375 5.609375 36.375 
Q 5.609375 53.65625 14.8125 63.9375 
Q 24.03125 74.21875 39.40625 74.21875 
z
" id="DejaVuSans-79"/>
      </defs>
      <g style="fill:#262626;" transform="translate(37.0395 173.430754)scale(0.088 -0.088)">
       <use xlink:href="#DejaVuSans-82"/>
       <use x="69.482422" xlink:href="#DejaVuSans-79"/>
       <use x="148.193359" xlink:href="#DejaVuSans-32"/>
       <use x="179.980469" xlink:href="#DejaVuSans-40"/>
       <use x="218.994141" xlink:href="#DejaVuSans-48"/>
       <use x="282.617188" xlink:href="#DejaVuSans-46"/>
       <use x="314.404297" xlink:href="#DejaVuSans-48"/>
       <use x="378.027344" xlink:href="#DejaVuSans-48"/>
       <use x="441.650391" xlink:href="#DejaVuSans-37"/>
       <use x="536.669922" xlink:href="#DejaVuSans-41"/>
      </g>
     </g>
    </g>
    <g id="ytick_30">
     <g id="text_39">
      <!-- TH (0.00%) -->
      <g style="fill:#262626;" transform="translate(38.088625 178.186103)scale(0.088 -0.088)">
       <use xlink:href="#DejaVuSans-84"/>
       <use x="61.083984" xlink:href="#DejaVuSans-72"/>
       <use x="136.279297" xlink:href="#DejaVuSans-32"/>
       <use x="168.066406" xlink:href="#DejaVuSans-40"/>
       <use x="207.080078" xlink:href="#DejaVuSans-48"/>
       <use x="270.703125" xlink:href="#DejaVuSans-46"/>
       <use x="302.490234" xlink:href="#DejaVuSans-48"/>
       <use x="366.113281" xlink:href="#DejaVuSans-48"/>
       <use x="429.736328" xlink:href="#DejaVuSans-37"/>
       <use x="524.755859" xlink:href="#DejaVuSans-41"/>
      </g>
     </g>
    </g>
    <g id="ytick_31">
     <g id="text_40">
      <!-- GG (0.00%) -->
      <g style="fill:#262626;" transform="translate(36.444125 182.941452)scale(0.088 -0.088)">
       <use xlink:href="#DejaVuSans-71"/>
       <use x="77.490234" xlink:href="#DejaVuSans-71"/>
       <use x="154.980469" xlink:href="#DejaVuSans-32"/>
       <use x="186.767578" xlink:href="#DejaVuSans-40"/>
       <use x="225.78125" xlink:href="#DejaVuSans-48"/>
       <use x="289.404297" xlink:href="#DejaVuSans-46"/>
       <use x="321.191406" xlink:href="#DejaVuSans-48"/>
       <use x="384.814453" xlink:href="#DejaVuSans-48"/>
       <use x="448.4375" xlink:href="#DejaVuSans-37"/>
       <use x="543.457031" xlink:href="#DejaVuSans-41"/>
      </g>
     </g>
    </g>
    <g id="ytick_32">
     <g id="text_41">
      <!-- VN (0.00%) -->
      <defs>
       <path d="M 28.609375 0 
L 0.78125 72.90625 
L 11.078125 72.90625 
L 34.1875 11.53125 
L 57.328125 72.90625 
L 67.578125 72.90625 
L 39.796875 0 
z
" id="DejaVuSans-86"/>
      </defs>
      <g style="fill:#262626;" transform="translate(37.478125 187.696801)scale(0.088 -0.088)">
       <use xlink:href="#DejaVuSans-86"/>
       <use x="68.408203" xlink:href="#DejaVuSans-78"/>
       <use x="143.212891" xlink:href="#DejaVuSans-32"/>
       <use x="175" xlink:href="#DejaVuSans-40"/>
       <use x="214.013672" xlink:href="#DejaVuSans-48"/>
       <use x="277.636719" xlink:href="#DejaVuSans-46"/>
       <use x="309.423828" xlink:href="#DejaVuSans-48"/>
       <use x="373.046875" xlink:href="#DejaVuSans-48"/>
       <use x="436.669922" xlink:href="#DejaVuSans-37"/>
       <use x="531.689453" xlink:href="#DejaVuSans-41"/>
      </g>
     </g>
    </g>
    <g id="ytick_33">
     <g id="text_42">
      <!-- SE (0.00%) -->
      <g style="fill:#262626;" transform="translate(38.93425 192.45215)scale(0.088 -0.088)">
       <use xlink:href="#DejaVuSans-83"/>
       <use x="63.476562" xlink:href="#DejaVuSans-69"/>
       <use x="126.660156" xlink:href="#DejaVuSans-32"/>
       <use x="158.447266" xlink:href="#DejaVuSans-40"/>
       <use x="197.460938" xlink:href="#DejaVuSans-48"/>
       <use x="261.083984" xlink:href="#DejaVuSans-46"/>
       <use x="292.871094" xlink:href="#DejaVuSans-48"/>
       <use x="356.494141" xlink:href="#DejaVuSans-48"/>
       <use x="420.117188" xlink:href="#DejaVuSans-37"/>
       <use x="515.136719" xlink:href="#DejaVuSans-41"/>
      </g>
     </g>
    </g>
    <g id="ytick_34">
     <g id="text_43">
      <!-- PT (0.00%) -->
      <g style="fill:#262626;" transform="translate(39.400375 197.207499)scale(0.088 -0.088)">
       <use xlink:href="#DejaVuSans-80"/>
       <use x="60.302734" xlink:href="#DejaVuSans-84"/>
       <use x="121.386719" xlink:href="#DejaVuSans-32"/>
       <use x="153.173828" xlink:href="#DejaVuSans-40"/>
       <use x="192.1875" xlink:href="#DejaVuSans-48"/>
       <use x="255.810547" xlink:href="#DejaVuSans-46"/>
       <use x="287.597656" xlink:href="#DejaVuSans-48"/>
       <use x="351.220703" xlink:href="#DejaVuSans-48"/>
       <use x="414.84375" xlink:href="#DejaVuSans-37"/>
       <use x="509.863281" xlink:href="#DejaVuSans-41"/>
      </g>
     </g>
    </g>
    <g id="ytick_35">
     <g id="text_44">
      <!-- FJ (0.00%) -->
      <defs>
       <path d="M 9.8125 72.90625 
L 19.671875 72.90625 
L 19.671875 5.078125 
Q 19.671875 -8.109375 14.671875 -14.0625 
Q 9.671875 -20.015625 -1.421875 -20.015625 
L -5.171875 -20.015625 
L -5.171875 -11.71875 
L -2.09375 -11.71875 
Q 4.4375 -11.71875 7.125 -8.046875 
Q 9.8125 -4.390625 9.8125 5.078125 
z
" id="DejaVuSans-74"/>
      </defs>
      <g style="fill:#262626;" transform="translate(42.424 201.962847)scale(0.088 -0.088)">
       <use xlink:href="#DejaVuSans-70"/>
       <use x="57.519531" xlink:href="#DejaVuSans-74"/>
       <use x="87.011719" xlink:href="#DejaVuSans-32"/>
       <use x="118.798828" xlink:href="#DejaVuSans-40"/>
       <use x="157.8125" xlink:href="#DejaVuSans-48"/>
       <use x="221.435547" xlink:href="#DejaVuSans-46"/>
       <use x="253.222656" xlink:href="#DejaVuSans-48"/>
       <use x="316.845703" xlink:href="#DejaVuSans-48"/>
       <use x="380.46875" xlink:href="#DejaVuSans-37"/>
       <use x="475.488281" xlink:href="#DejaVuSans-41"/>
      </g>
     </g>
    </g>
    <g id="ytick_36">
     <g id="text_45">
      <!-- JE (0.00%) -->
      <g style="fill:#262626;" transform="translate(41.924875 206.718196)scale(0.088 -0.088)">
       <use xlink:href="#DejaVuSans-74"/>
       <use x="29.492188" xlink:href="#DejaVuSans-69"/>
       <use x="92.675781" xlink:href="#DejaVuSans-32"/>
       <use x="124.462891" xlink:href="#DejaVuSans-40"/>
       <use x="163.476562" xlink:href="#DejaVuSans-48"/>
       <use x="227.099609" xlink:href="#DejaVuSans-46"/>
       <use x="258.886719" xlink:href="#DejaVuSans-48"/>
       <use x="322.509766" xlink:href="#DejaVuSans-48"/>
       <use x="386.132812" xlink:href="#DejaVuSans-37"/>
       <use x="481.152344" xlink:href="#DejaVuSans-41"/>
      </g>
     </g>
    </g>
    <g id="ytick_37">
     <g id="text_46">
      <!-- NF (0.00%) -->
      <g style="fill:#262626;" transform="translate(38.4365 211.473545)scale(0.088 -0.088)">
       <use xlink:href="#DejaVuSans-78"/>
       <use x="74.804688" xlink:href="#DejaVuSans-70"/>
       <use x="132.324219" xlink:href="#DejaVuSans-32"/>
       <use x="164.111328" xlink:href="#DejaVuSans-40"/>
       <use x="203.125" xlink:href="#DejaVuSans-48"/>
       <use x="266.748047" xlink:href="#DejaVuSans-46"/>
       <use x="298.535156" xlink:href="#DejaVuSans-48"/>
       <use x="362.158203" xlink:href="#DejaVuSans-48"/>
       <use x="425.78125" xlink:href="#DejaVuSans-37"/>
       <use x="520.800781" xlink:href="#DejaVuSans-41"/>
      </g>
     </g>
    </g>
    <g id="ytick_38">
     <g id="text_47">
      <!-- BB (0.00%) -->
      <g style="fill:#262626;" transform="translate(38.006125 216.228894)scale(0.088 -0.088)">
       <use xlink:href="#DejaVuSans-66"/>
       <use x="68.603516" xlink:href="#DejaVuSans-66"/>
       <use x="137.207031" xlink:href="#DejaVuSans-32"/>
       <use x="168.994141" xlink:href="#DejaVuSans-40"/>
       <use x="208.007812" xlink:href="#DejaVuSans-48"/>
       <use x="271.630859" xlink:href="#DejaVuSans-46"/>
       <use x="303.417969" xlink:href="#DejaVuSans-48"/>
       <use x="367.041016" xlink:href="#DejaVuSans-48"/>
       <use x="430.664062" xlink:href="#DejaVuSans-37"/>
       <use x="525.683594" xlink:href="#DejaVuSans-41"/>
      </g>
     </g>
    </g>
    <g id="ytick_39">
     <g id="text_48">
      <!-- RS (0.00%) -->
      <g style="fill:#262626;" transform="translate(38.380125 220.984243)scale(0.088 -0.088)">
       <use xlink:href="#DejaVuSans-82"/>
       <use x="69.482422" xlink:href="#DejaVuSans-83"/>
       <use x="132.958984" xlink:href="#DejaVuSans-32"/>
       <use x="164.746094" xlink:href="#DejaVuSans-40"/>
       <use x="203.759766" xlink:href="#DejaVuSans-48"/>
       <use x="267.382812" xlink:href="#DejaVuSans-46"/>
       <use x="299.169922" xlink:href="#DejaVuSans-48"/>
       <use x="362.792969" xlink:href="#DejaVuSans-48"/>
       <use x="426.416016" xlink:href="#DejaVuSans-37"/>
       <use x="521.435547" xlink:href="#DejaVuSans-41"/>
      </g>
     </g>
    </g>
    <g id="ytick_40">
     <g id="text_49">
      <!-- HK (0.00%) -->
      <defs>
       <path d="M 9.8125 72.90625 
L 19.671875 72.90625 
L 19.671875 42.09375 
L 52.390625 72.90625 
L 65.09375 72.90625 
L 28.90625 38.921875 
L 67.671875 0 
L 54.6875 0 
L 19.671875 35.109375 
L 19.671875 0 
L 9.8125 0 
z
" id="DejaVuSans-75"/>
      </defs>
      <g style="fill:#262626;" transform="translate(37.692625 225.739592)scale(0.088 -0.088)">
       <use xlink:href="#DejaVuSans-72"/>
       <use x="75.195312" xlink:href="#DejaVuSans-75"/>
       <use x="140.771484" xlink:href="#DejaVuSans-32"/>
       <use x="172.558594" xlink:href="#DejaVuSans-40"/>
       <use x="211.572266" xlink:href="#DejaVuSans-48"/>
       <use x="275.195312" xlink:href="#DejaVuSans-46"/>
       <use x="306.982422" xlink:href="#DejaVuSans-48"/>
       <use x="370.605469" xlink:href="#DejaVuSans-48"/>
       <use x="434.228516" xlink:href="#DejaVuSans-37"/>
       <use x="529.248047" xlink:href="#DejaVuSans-41"/>
      </g>
     </g>
    </g>
    <g id="ytick_41">
     <g id="text_50">
      <!-- UA (0.00%) -->
      <g style="fill:#262626;" transform="translate(37.621125 230.49494)scale(0.088 -0.088)">
       <use xlink:href="#DejaVuSans-85"/>
       <use x="73.193359" xlink:href="#DejaVuSans-65"/>
       <use x="141.601562" xlink:href="#DejaVuSans-32"/>
       <use x="173.388672" xlink:href="#DejaVuSans-40"/>
       <use x="212.402344" xlink:href="#DejaVuSans-48"/>
       <use x="276.025391" xlink:href="#DejaVuSans-46"/>
       <use x="307.8125" xlink:href="#DejaVuSans-48"/>
       <use x="371.435547" xlink:href="#DejaVuSans-48"/>
       <use x="435.058594" xlink:href="#DejaVuSans-37"/>
       <use x="530.078125" xlink:href="#DejaVuSans-41"/>
      </g>
     </g>
    </g>
    <g id="ytick_42">
     <g id="text_51">
      <!-- EG (0.00%) -->
      <g style="fill:#262626;" transform="translate(37.70225 235.250289)scale(0.088 -0.088)">
       <use xlink:href="#DejaVuSans-69"/>
       <use x="63.183594" xlink:href="#DejaVuSans-71"/>
       <use x="140.673828" xlink:href="#DejaVuSans-32"/>
       <use x="172.460938" xlink:href="#DejaVuSans-40"/>
       <use x="211.474609" xlink:href="#DejaVuSans-48"/>
       <use x="275.097656" xlink:href="#DejaVuSans-46"/>
       <use x="306.884766" xlink:href="#DejaVuSans-48"/>
       <use x="370.507812" xlink:href="#DejaVuSans-48"/>
       <use x="434.130859" xlink:href="#DejaVuSans-37"/>
       <use x="529.150391" xlink:href="#DejaVuSans-41"/>
      </g>
     </g>
    </g>
    <g id="ytick_43">
     <g id="text_52">
      <!-- MT (0.00%) -->
      <g style="fill:#262626;" transform="translate(37.11375 240.005638)scale(0.088 -0.088)">
       <use xlink:href="#DejaVuSans-77"/>
       <use x="86.279297" xlink:href="#DejaVuSans-84"/>
       <use x="147.363281" xlink:href="#DejaVuSans-32"/>
       <use x="179.150391" xlink:href="#DejaVuSans-40"/>
       <use x="218.164062" xlink:href="#DejaVuSans-48"/>
       <use x="281.787109" xlink:href="#DejaVuSans-46"/>
       <use x="313.574219" xlink:href="#DejaVuSans-48"/>
       <use x="377.197266" xlink:href="#DejaVuSans-48"/>
       <use x="440.820312" xlink:href="#DejaVuSans-37"/>
       <use x="535.839844" xlink:href="#DejaVuSans-41"/>
      </g>
     </g>
    </g>
    <g id="text_53">
     <!-- born_country -->
     <defs>
      <path d="M 48.6875 27.296875 
Q 48.6875 37.203125 44.609375 42.84375 
Q 40.53125 48.484375 33.40625 48.484375 
Q 26.265625 48.484375 22.1875 42.84375 
Q 18.109375 37.203125 18.109375 27.296875 
Q 18.109375 17.390625 22.1875 11.75 
Q 26.265625 6.109375 33.40625 6.109375 
Q 40.53125 6.109375 44.609375 11.75 
Q 48.6875 17.390625 48.6875 27.296875 
z
M 18.109375 46.390625 
Q 20.953125 51.265625 25.265625 53.625 
Q 29.59375 56 35.59375 56 
Q 45.5625 56 51.78125 48.09375 
Q 58.015625 40.1875 58.015625 27.296875 
Q 58.015625 14.40625 51.78125 6.484375 
Q 45.5625 -1.421875 35.59375 -1.421875 
Q 29.59375 -1.421875 25.265625 0.953125 
Q 20.953125 3.328125 18.109375 8.203125 
L 18.109375 0 
L 9.078125 0 
L 9.078125 75.984375 
L 18.109375 75.984375 
z
" id="DejaVuSans-98"/>
      <path d="M 41.109375 46.296875 
Q 39.59375 47.171875 37.8125 47.578125 
Q 36.03125 48 33.890625 48 
Q 26.265625 48 22.1875 43.046875 
Q 18.109375 38.09375 18.109375 28.8125 
L 18.109375 0 
L 9.078125 0 
L 9.078125 54.6875 
L 18.109375 54.6875 
L 18.109375 46.1875 
Q 20.953125 51.171875 25.484375 53.578125 
Q 30.03125 56 36.53125 56 
Q 37.453125 56 38.578125 55.875 
Q 39.703125 55.765625 41.0625 55.515625 
z
" id="DejaVuSans-114"/>
      <path d="M 32.171875 -5.078125 
Q 28.375 -14.84375 24.75 -17.8125 
Q 21.140625 -20.796875 15.09375 -20.796875 
L 7.90625 -20.796875 
L 7.90625 -13.28125 
L 13.1875 -13.28125 
Q 16.890625 -13.28125 18.9375 -11.515625 
Q 21 -9.765625 23.484375 -3.21875 
L 25.09375 0.875 
L 2.984375 54.6875 
L 12.5 54.6875 
L 29.59375 11.921875 
L 46.6875 54.6875 
L 56.203125 54.6875 
z
" id="DejaVuSans-121"/>
     </defs>
     <g style="fill:#262626;" transform="translate(25.362625 168.555)rotate(-90)scale(0.096 -0.096)">
      <use xlink:href="#DejaVuSans-98"/>
      <use x="63.476562" xlink:href="#DejaVuSans-111"/>
      <use x="124.658203" xlink:href="#DejaVuSans-114"/>
      <use x="165.755859" xlink:href="#DejaVuSans-110"/>
      <use x="229.134766" xlink:href="#DejaVuSans-95"/>
      <use x="279.134766" xlink:href="#DejaVuSans-99"/>
      <use x="334.115234" xlink:href="#DejaVuSans-111"/>
      <use x="395.296875" xlink:href="#DejaVuSans-117"/>
      <use x="458.675781" xlink:href="#DejaVuSans-110"/>
      <use x="522.054688" xlink:href="#DejaVuSans-116"/>
      <use x="561.263672" xlink:href="#DejaVuSans-114"/>
      <use x="602.376953" xlink:href="#DejaVuSans-121"/>
     </g>
    </g>
   </g>
   <g id="patch_3">
    <path clip-path="url(#p22982835f8)" d="M 97.2 35.035535 
L 560.057143 35.035535 
L 560.057143 38.839814 
L 97.2 38.839814 
z
" style="fill:#ea96a3;stroke:#ffffff;stroke-linejoin:miter;"/>
   </g>
   <g id="patch_4">
    <path clip-path="url(#p22982835f8)" d="M 97.2 39.790884 
L 217.112402 39.790884 
L 217.112402 43.595163 
L 97.2 43.595163 
z
" style="fill:#ea9798;stroke:#ffffff;stroke-linejoin:miter;"/>
   </g>
   <g id="patch_5">
    <path clip-path="url(#p22982835f8)" d="M 97.2 44.546233 
L 206.180218 44.546233 
L 206.180218 48.350512 
L 97.2 48.350512 
z
" style="fill:#e89686;stroke:#ffffff;stroke-linejoin:miter;"/>
   </g>
   <g id="patch_6">
    <path clip-path="url(#p22982835f8)" d="M 97.2 49.301581 
L 202.185765 49.301581 
L 202.185765 53.10586 
L 97.2 53.10586 
z
" style="fill:#e4946c;stroke:#ffffff;stroke-linejoin:miter;"/>
   </g>
   <g id="patch_7">
    <path clip-path="url(#p22982835f8)" d="M 97.2 54.05693 
L 105.977283 54.05693 
L 105.977283 57.861209 
L 97.2 57.861209 
z
" style="fill:#db934e;stroke:#ffffff;stroke-linejoin:miter;"/>
   </g>
   <g id="patch_8">
    <path clip-path="url(#p22982835f8)" d="M 97.2 58.812279 
L 103.796102 58.812279 
L 103.796102 62.616558 
L 97.2 62.616558 
z
" style="fill:#ce974c;stroke:#ffffff;stroke-linejoin:miter;"/>
   </g>
   <g id="patch_9">
    <path clip-path="url(#p22982835f8)" d="M 97.2 63.567628 
L 101.798876 63.567628 
L 101.798876 67.371907 
L 97.2 67.371907 
z
" style="fill:#c4994b;stroke:#ffffff;stroke-linejoin:miter;"/>
   </g>
   <g id="patch_10">
    <path clip-path="url(#p22982835f8)" d="M 97.2 68.322977 
L 100.327236 68.322977 
L 100.327236 72.127256 
L 97.2 72.127256 
z
" style="fill:#ba9b49;stroke:#ffffff;stroke-linejoin:miter;"/>
   </g>
   <g id="patch_11">
    <path clip-path="url(#p22982835f8)" d="M 97.2 73.078326 
L 98.251172 73.078326 
L 98.251172 76.882605 
L 97.2 76.882605 
z
" style="fill:#b19d48;stroke:#ffffff;stroke-linejoin:miter;"/>
   </g>
   <g id="patch_12">
    <path clip-path="url(#p22982835f8)" d="M 97.2 77.833674 
L 98.198613 77.833674 
L 98.198613 81.637953 
L 97.2 81.637953 
z
" style="fill:#a89e47;stroke:#ffffff;stroke-linejoin:miter;"/>
   </g>
   <g id="patch_13">
    <path clip-path="url(#p22982835f8)" d="M 97.2 82.589023 
L 97.725586 82.589023 
L 97.725586 86.393302 
L 97.2 86.393302 
z
" style="fill:#9ea045;stroke:#ffffff;stroke-linejoin:miter;"/>
   </g>
   <g id="patch_14">
    <path clip-path="url(#p22982835f8)" d="M 97.2 87.344372 
L 97.699307 87.344372 
L 97.699307 91.148651 
L 97.2 91.148651 
z
" style="fill:#95a346;stroke:#ffffff;stroke-linejoin:miter;"/>
   </g>
   <g id="patch_15">
    <path clip-path="url(#p22982835f8)" d="M 97.2 92.099721 
L 97.436514 92.099721 
L 97.436514 95.904 
L 97.2 95.904 
z
" style="fill:#8ba646;stroke:#ffffff;stroke-linejoin:miter;"/>
   </g>
   <g id="patch_16">
    <path clip-path="url(#p22982835f8)" d="M 97.2 96.85507 
L 97.436514 96.85507 
L 97.436514 100.659349 
L 97.2 100.659349 
z
" style="fill:#7ea947;stroke:#ffffff;stroke-linejoin:miter;"/>
   </g>
   <g id="patch_17">
    <path clip-path="url(#p22982835f8)" d="M 97.2 101.610419 
L 97.436514 101.610419 
L 97.436514 105.414698 
L 97.2 105.414698 
z
" style="fill:#6aad47;stroke:#ffffff;stroke-linejoin:miter;"/>
   </g>
   <g id="patch_18">
    <path clip-path="url(#p22982835f8)" d="M 97.2 106.365767 
L 97.436514 106.365767 
L 97.436514 110.170047 
L 97.2 110.170047 
z
" style="fill:#48b14f;stroke:#ffffff;stroke-linejoin:miter;"/>
   </g>
   <g id="patch_19">
    <path clip-path="url(#p22982835f8)" d="M 97.2 111.121116 
L 97.410234 111.121116 
L 97.410234 114.925395 
L 97.2 114.925395 
z
" style="fill:#48af70;stroke:#ffffff;stroke-linejoin:miter;"/>
   </g>
   <g id="patch_20">
    <path clip-path="url(#p22982835f8)" d="M 97.2 115.876465 
L 97.410234 115.876465 
L 97.410234 119.680744 
L 97.2 119.680744 
z
" style="fill:#49ae80;stroke:#ffffff;stroke-linejoin:miter;"/>
   </g>
   <g id="patch_21">
    <path clip-path="url(#p22982835f8)" d="M 97.2 120.631814 
L 97.357676 120.631814 
L 97.357676 124.436093 
L 97.2 124.436093 
z
" style="fill:#4aad8b;stroke:#ffffff;stroke-linejoin:miter;"/>
   </g>
   <g id="patch_22">
    <path clip-path="url(#p22982835f8)" d="M 97.2 125.387163 
L 97.278838 125.387163 
L 97.278838 129.191442 
L 97.2 129.191442 
z
" style="fill:#4aad94;stroke:#ffffff;stroke-linejoin:miter;"/>
   </g>
   <g id="patch_23">
    <path clip-path="url(#p22982835f8)" d="M 97.2 130.142512 
L 97.278838 130.142512 
L 97.278838 133.946791 
L 97.2 133.946791 
z
" style="fill:#4aac9b;stroke:#ffffff;stroke-linejoin:miter;"/>
   </g>
   <g id="patch_24">
    <path clip-path="url(#p22982835f8)" d="M 97.2 134.89786 
L 97.278838 134.89786 
L 97.278838 138.70214 
L 97.2 138.70214 
z
" style="fill:#4baba1;stroke:#ffffff;stroke-linejoin:miter;"/>
   </g>
   <g id="patch_25">
    <path clip-path="url(#p22982835f8)" d="M 97.2 139.653209 
L 97.252559 139.653209 
L 97.252559 143.457488 
L 97.2 143.457488 
z
" style="fill:#4baba7;stroke:#ffffff;stroke-linejoin:miter;"/>
   </g>
   <g id="patch_26">
    <path clip-path="url(#p22982835f8)" d="M 97.2 144.408558 
L 97.252559 144.408558 
L 97.252559 148.212837 
L 97.2 148.212837 
z
" style="fill:#4cabad;stroke:#ffffff;stroke-linejoin:miter;"/>
   </g>
   <g id="patch_27">
    <path clip-path="url(#p22982835f8)" d="M 97.2 149.163907 
L 97.252559 149.163907 
L 97.252559 152.968186 
L 97.2 152.968186 
z
" style="fill:#4dabb4;stroke:#ffffff;stroke-linejoin:miter;"/>
   </g>
   <g id="patch_28">
    <path clip-path="url(#p22982835f8)" d="M 97.2 153.919256 
L 97.252559 153.919256 
L 97.252559 157.723535 
L 97.2 157.723535 
z
" style="fill:#4fabbc;stroke:#ffffff;stroke-linejoin:miter;"/>
   </g>
   <g id="patch_29">
    <path clip-path="url(#p22982835f8)" d="M 97.2 158.674605 
L 97.252559 158.674605 
L 97.252559 162.478884 
L 97.2 162.478884 
z
" style="fill:#51acc4;stroke:#ffffff;stroke-linejoin:miter;"/>
   </g>
   <g id="patch_30">
    <path clip-path="url(#p22982835f8)" d="M 97.2 163.429953 
L 97.226279 163.429953 
L 97.226279 167.234233 
L 97.2 167.234233 
z
" style="fill:#53accf;stroke:#ffffff;stroke-linejoin:miter;"/>
   </g>
   <g id="patch_31">
    <path clip-path="url(#p22982835f8)" d="M 97.2 168.185302 
L 97.226279 168.185302 
L 97.226279 171.989581 
L 97.2 171.989581 
z
" style="fill:#56addc;stroke:#ffffff;stroke-linejoin:miter;"/>
   </g>
   <g id="patch_32">
    <path clip-path="url(#p22982835f8)" d="M 97.2 172.940651 
L 97.226279 172.940651 
L 97.226279 176.74493 
L 97.2 176.74493 
z
" style="fill:#78aee4;stroke:#ffffff;stroke-linejoin:miter;"/>
   </g>
   <g id="patch_33">
    <path clip-path="url(#p22982835f8)" d="M 97.2 177.696 
L 97.226279 177.696 
L 97.226279 181.500279 
L 97.2 181.500279 
z
" style="fill:#92aee8;stroke:#ffffff;stroke-linejoin:miter;"/>
   </g>
   <g id="patch_34">
    <path clip-path="url(#p22982835f8)" d="M 97.2 182.451349 
L 97.226279 182.451349 
L 97.226279 186.255628 
L 97.2 186.255628 
z
" style="fill:#a5acea;stroke:#ffffff;stroke-linejoin:miter;"/>
   </g>
   <g id="patch_35">
    <path clip-path="url(#p22982835f8)" d="M 97.2 187.206698 
L 97.226279 187.206698 
L 97.226279 191.010977 
L 97.2 191.010977 
z
" style="fill:#b3a9eb;stroke:#ffffff;stroke-linejoin:miter;"/>
   </g>
   <g id="patch_36">
    <path clip-path="url(#p22982835f8)" d="M 97.2 191.962047 
L 97.226279 191.962047 
L 97.226279 195.766326 
L 97.2 195.766326 
z
" style="fill:#bfa4ea;stroke:#ffffff;stroke-linejoin:miter;"/>
   </g>
   <g id="patch_37">
    <path clip-path="url(#p22982835f8)" d="M 97.2 196.717395 
L 97.226279 196.717395 
L 97.226279 200.521674 
L 97.2 200.521674 
z
" style="fill:#ca9ee9;stroke:#ffffff;stroke-linejoin:miter;"/>
   </g>
   <g id="patch_38">
    <path clip-path="url(#p22982835f8)" d="M 97.2 201.472744 
L 97.226279 201.472744 
L 97.226279 205.277023 
L 97.2 205.277023 
z
" style="fill:#d597e8;stroke:#ffffff;stroke-linejoin:miter;"/>
   </g>
   <g id="patch_39">
    <path clip-path="url(#p22982835f8)" d="M 97.2 206.228093 
L 97.226279 206.228093 
L 97.226279 210.032372 
L 97.2 210.032372 
z
" style="fill:#e18de7;stroke:#ffffff;stroke-linejoin:miter;"/>
   </g>
   <g id="patch_40">
    <path clip-path="url(#p22982835f8)" d="M 97.2 210.983442 
L 97.226279 210.983442 
L 97.226279 214.787721 
L 97.2 214.787721 
z
" style="fill:#e78adf;stroke:#ffffff;stroke-linejoin:miter;"/>
   </g>
   <g id="patch_41">
    <path clip-path="url(#p22982835f8)" d="M 97.2 215.738791 
L 97.226279 215.738791 
L 97.226279 219.54307 
L 97.2 219.54307 
z
" style="fill:#e78dd3;stroke:#ffffff;stroke-linejoin:miter;"/>
   </g>
   <g id="patch_42">
    <path clip-path="url(#p22982835f8)" d="M 97.2 220.49414 
L 97.226279 220.49414 
L 97.226279 224.298419 
L 97.2 224.298419 
z
" style="fill:#e88fca;stroke:#ffffff;stroke-linejoin:miter;"/>
   </g>
   <g id="patch_43">
    <path clip-path="url(#p22982835f8)" d="M 97.2 225.249488 
L 97.226279 225.249488 
L 97.226279 229.053767 
L 97.2 229.053767 
z
" style="fill:#e891c0;stroke:#ffffff;stroke-linejoin:miter;"/>
   </g>
   <g id="patch_44">
    <path clip-path="url(#p22982835f8)" d="M 97.2 230.004837 
L 97.226279 230.004837 
L 97.226279 233.809116 
L 97.2 233.809116 
z
" style="fill:#e993b8;stroke:#ffffff;stroke-linejoin:miter;"/>
   </g>
   <g id="patch_45">
    <path clip-path="url(#p22982835f8)" d="M 97.2 234.760186 
L 97.226279 234.760186 
L 97.226279 238.564465 
L 97.2 238.564465 
z
" style="fill:#e994ae;stroke:#ffffff;stroke-linejoin:miter;"/>
   </g>
   <g id="patch_46">
    <path d="M 97.2 239.04 
L 97.2 34.56 
" style="fill:none;stroke:#ffffff;stroke-linecap:square;stroke-linejoin:miter;stroke-width:1.25;"/>
   </g>
   <g id="patch_47">
    <path d="M 583.2 239.04 
L 583.2 34.56 
" style="fill:none;stroke:#ffffff;stroke-linecap:square;stroke-linejoin:miter;stroke-width:1.25;"/>
   </g>
   <g id="patch_48">
    <path d="M 97.2 239.04 
L 583.2 239.04 
" style="fill:none;stroke:#ffffff;stroke-linecap:square;stroke-linejoin:miter;stroke-width:1.25;"/>
   </g>
   <g id="patch_49">
    <path d="M 97.2 34.56 
L 583.2 34.56 
" style="fill:none;stroke:#ffffff;stroke-linecap:square;stroke-linejoin:miter;stroke-width:1.25;"/>
   </g>
   <g id="text_54">
    <!-- Segmented per born_country -->
    <defs>
     <path d="M 56.203125 29.59375 
L 56.203125 25.203125 
L 14.890625 25.203125 
Q 15.484375 15.921875 20.484375 11.0625 
Q 25.484375 6.203125 34.421875 6.203125 
Q 39.59375 6.203125 44.453125 7.46875 
Q 49.3125 8.734375 54.109375 11.28125 
L 54.109375 2.78125 
Q 49.265625 0.734375 44.1875 -0.34375 
Q 39.109375 -1.421875 33.890625 -1.421875 
Q 20.796875 -1.421875 13.15625 6.1875 
Q 5.515625 13.8125 5.515625 26.8125 
Q 5.515625 40.234375 12.765625 48.109375 
Q 20.015625 56 32.328125 56 
Q 43.359375 56 49.78125 48.890625 
Q 56.203125 41.796875 56.203125 29.59375 
z
M 47.21875 32.234375 
Q 47.125 39.59375 43.09375 43.984375 
Q 39.0625 48.390625 32.421875 48.390625 
Q 24.90625 48.390625 20.390625 44.140625 
Q 15.875 39.890625 15.1875 32.171875 
z
" id="DejaVuSans-101"/>
     <path d="M 45.40625 27.984375 
Q 45.40625 37.75 41.375 43.109375 
Q 37.359375 48.484375 30.078125 48.484375 
Q 22.859375 48.484375 18.828125 43.109375 
Q 14.796875 37.75 14.796875 27.984375 
Q 14.796875 18.265625 18.828125 12.890625 
Q 22.859375 7.515625 30.078125 7.515625 
Q 37.359375 7.515625 41.375 12.890625 
Q 45.40625 18.265625 45.40625 27.984375 
z
M 54.390625 6.78125 
Q 54.390625 -7.171875 48.1875 -13.984375 
Q 42 -20.796875 29.203125 -20.796875 
Q 24.46875 -20.796875 20.265625 -20.09375 
Q 16.0625 -19.390625 12.109375 -17.921875 
L 12.109375 -9.1875 
Q 16.0625 -11.328125 19.921875 -12.34375 
Q 23.78125 -13.375 27.78125 -13.375 
Q 36.625 -13.375 41.015625 -8.765625 
Q 45.40625 -4.15625 45.40625 5.171875 
L 45.40625 9.625 
Q 42.625 4.78125 38.28125 2.390625 
Q 33.9375 0 27.875 0 
Q 17.828125 0 11.671875 7.65625 
Q 5.515625 15.328125 5.515625 27.984375 
Q 5.515625 40.671875 11.671875 48.328125 
Q 17.828125 56 27.875 56 
Q 33.9375 56 38.28125 53.609375 
Q 42.625 51.21875 45.40625 46.390625 
L 45.40625 54.6875 
L 54.390625 54.6875 
z
" id="DejaVuSans-103"/>
     <path d="M 52 44.1875 
Q 55.375 50.25 60.0625 53.125 
Q 64.75 56 71.09375 56 
Q 79.640625 56 84.28125 50.015625 
Q 88.921875 44.046875 88.921875 33.015625 
L 88.921875 0 
L 79.890625 0 
L 79.890625 32.71875 
Q 79.890625 40.578125 77.09375 44.375 
Q 74.3125 48.1875 68.609375 48.1875 
Q 61.625 48.1875 57.5625 43.546875 
Q 53.515625 38.921875 53.515625 30.90625 
L 53.515625 0 
L 44.484375 0 
L 44.484375 32.71875 
Q 44.484375 40.625 41.703125 44.40625 
Q 38.921875 48.1875 33.109375 48.1875 
Q 26.21875 48.1875 22.15625 43.53125 
Q 18.109375 38.875 18.109375 30.90625 
L 18.109375 0 
L 9.078125 0 
L 9.078125 54.6875 
L 18.109375 54.6875 
L 18.109375 46.1875 
Q 21.1875 51.21875 25.484375 53.609375 
Q 29.78125 56 35.6875 56 
Q 41.65625 56 45.828125 52.96875 
Q 50 49.953125 52 44.1875 
z
" id="DejaVuSans-109"/>
     <path d="M 45.40625 46.390625 
L 45.40625 75.984375 
L 54.390625 75.984375 
L 54.390625 0 
L 45.40625 0 
L 45.40625 8.203125 
Q 42.578125 3.328125 38.25 0.953125 
Q 33.9375 -1.421875 27.875 -1.421875 
Q 17.96875 -1.421875 11.734375 6.484375 
Q 5.515625 14.40625 5.515625 27.296875 
Q 5.515625 40.1875 11.734375 48.09375 
Q 17.96875 56 27.875 56 
Q 33.9375 56 38.25 53.625 
Q 42.578125 51.265625 45.40625 46.390625 
z
M 14.796875 27.296875 
Q 14.796875 17.390625 18.875 11.75 
Q 22.953125 6.109375 30.078125 6.109375 
Q 37.203125 6.109375 41.296875 11.75 
Q 45.40625 17.390625 45.40625 27.296875 
Q 45.40625 37.203125 41.296875 42.84375 
Q 37.203125 48.484375 30.078125 48.484375 
Q 22.953125 48.484375 18.875 42.84375 
Q 14.796875 37.203125 14.796875 27.296875 
z
" id="DejaVuSans-100"/>
     <path d="M 18.109375 8.203125 
L 18.109375 -20.796875 
L 9.078125 -20.796875 
L 9.078125 54.6875 
L 18.109375 54.6875 
L 18.109375 46.390625 
Q 20.953125 51.265625 25.265625 53.625 
Q 29.59375 56 35.59375 56 
Q 45.5625 56 51.78125 48.09375 
Q 58.015625 40.1875 58.015625 27.296875 
Q 58.015625 14.40625 51.78125 6.484375 
Q 45.5625 -1.421875 35.59375 -1.421875 
Q 29.59375 -1.421875 25.265625 0.953125 
Q 20.953125 3.328125 18.109375 8.203125 
z
M 48.6875 27.296875 
Q 48.6875 37.203125 44.609375 42.84375 
Q 40.53125 48.484375 33.40625 48.484375 
Q 26.265625 48.484375 22.1875 42.84375 
Q 18.109375 37.203125 18.109375 27.296875 
Q 18.109375 17.390625 22.1875 11.75 
Q 26.265625 6.109375 33.40625 6.109375 
Q 40.53125 6.109375 44.609375 11.75 
Q 48.6875 17.390625 48.6875 27.296875 
z
" id="DejaVuSans-112"/>
    </defs>
    <g style="fill:#262626;" transform="translate(269.8185 28.56)scale(0.096 -0.096)">
     <use xlink:href="#DejaVuSans-83"/>
     <use x="63.476562" xlink:href="#DejaVuSans-101"/>
     <use x="125" xlink:href="#DejaVuSans-103"/>
     <use x="188.476562" xlink:href="#DejaVuSans-109"/>
     <use x="285.888672" xlink:href="#DejaVuSans-101"/>
     <use x="347.412109" xlink:href="#DejaVuSans-110"/>
     <use x="410.791016" xlink:href="#DejaVuSans-116"/>
     <use x="450" xlink:href="#DejaVuSans-101"/>
     <use x="511.523438" xlink:href="#DejaVuSans-100"/>
     <use x="575" xlink:href="#DejaVuSans-32"/>
     <use x="606.787109" xlink:href="#DejaVuSans-112"/>
     <use x="670.263672" xlink:href="#DejaVuSans-101"/>
     <use x="731.787109" xlink:href="#DejaVuSans-114"/>
     <use x="772.900391" xlink:href="#DejaVuSans-32"/>
     <use x="804.6875" xlink:href="#DejaVuSans-98"/>
     <use x="868.164062" xlink:href="#DejaVuSans-111"/>
     <use x="929.345703" xlink:href="#DejaVuSans-114"/>
     <use x="970.443359" xlink:href="#DejaVuSans-110"/>
     <use x="1033.822266" xlink:href="#DejaVuSans-95"/>
     <use x="1083.822266" xlink:href="#DejaVuSans-99"/>
     <use x="1138.802734" xlink:href="#DejaVuSans-111"/>
     <use x="1199.984375" xlink:href="#DejaVuSans-117"/>
     <use x="1263.363281" xlink:href="#DejaVuSans-110"/>
     <use x="1326.742188" xlink:href="#DejaVuSans-116"/>
     <use x="1365.951172" xlink:href="#DejaVuSans-114"/>
     <use x="1407.064453" xlink:href="#DejaVuSans-121"/>
    </g>
   </g>
  </g>
 </g>
 <defs>
  <clipPath id="p22982835f8">
   <rect height="204.48" width="486" x="97.2" y="34.56"/>
  </clipPath>
 </defs>
</svg>
