<?xml version="1.0" encoding="utf-8" standalone="no"?>
<!DOCTYPE svg PUBLIC "-//W3C//DTD SVG 1.1//EN"
  "http://www.w3.org/Graphics/SVG/1.1/DTD/svg11.dtd">
<!-- Created with matplotlib (https://matplotlib.org/) -->
<svg height="288pt" version="1.1" viewBox="0 0 648 288" width="648pt" xmlns="http://www.w3.org/2000/svg" xmlns:xlink="http://www.w3.org/1999/xlink">
 <defs>
  <style type="text/css">
*{stroke-linecap:butt;stroke-linejoin:round;}
  </style>
 </defs>
 <g id="figure_1">
  <g id="patch_1">
   <path d="M 0 288 
L 648 288 
L 648 0 
L 0 0 
z
" style="fill:#ffffff;"/>
  </g>
  <g id="axes_1">
   <g id="patch_2">
    <path d="M 97.2 239.04 
L 583.2 239.04 
L 583.2 34.56 
L 97.2 34.56 
z
" style="fill:#eaeaf2;"/>
   </g>
   <g id="matplotlib.axis_1">
    <g id="xtick_1">
     <g id="line2d_1">
      <path clip-path="url(#p47e3748896)" d="M 97.2 239.04 
L 97.2 34.56 
" style="fill:none;stroke:#ffffff;stroke-linecap:round;"/>
     </g>
     <g id="text_1">
      <!-- 0 -->
      <defs>
       <path d="M 31.78125 66.40625 
Q 24.171875 66.40625 20.328125 58.90625 
Q 16.5 51.421875 16.5 36.375 
Q 16.5 21.390625 20.328125 13.890625 
Q 24.171875 6.390625 31.78125 6.390625 
Q 39.453125 6.390625 43.28125 13.890625 
Q 47.125 21.390625 47.125 36.375 
Q 47.125 51.421875 43.28125 58.90625 
Q 39.453125 66.40625 31.78125 66.40625 
z
M 31.78125 74.21875 
Q 44.046875 74.21875 50.515625 64.515625 
Q 56.984375 54.828125 56.984375 36.375 
Q 56.984375 17.96875 50.515625 8.265625 
Q 44.046875 -1.421875 31.78125 -1.421875 
Q 19.53125 -1.421875 13.0625 8.265625 
Q 6.59375 17.96875 6.59375 36.375 
Q 6.59375 54.828125 13.0625 64.515625 
Q 19.53125 74.21875 31.78125 74.21875 
z
" id="DejaVuSans-48"/>
      </defs>
      <g style="fill:#262626;" transform="translate(94.4005 255.226625)scale(0.088 -0.088)">
       <use xlink:href="#DejaVuSans-48"/>
      </g>
      <!-- (0.0%) -->
      <defs>
       <path d="M 31 75.875 
Q 24.46875 64.65625 21.28125 53.65625 
Q 18.109375 42.671875 18.109375 31.390625 
Q 18.109375 20.125 21.3125 9.0625 
Q 24.515625 -2 31 -13.1875 
L 23.1875 -13.1875 
Q 15.875 -1.703125 12.234375 9.375 
Q 8.59375 20.453125 8.59375 31.390625 
Q 8.59375 42.28125 12.203125 53.3125 
Q 15.828125 64.359375 23.1875 75.875 
z
" id="DejaVuSans-40"/>
       <path d="M 10.6875 12.40625 
L 21 12.40625 
L 21 0 
L 10.6875 0 
z
" id="DejaVuSans-46"/>
       <path d="M 72.703125 32.078125 
Q 68.453125 32.078125 66.03125 28.46875 
Q 63.625 24.859375 63.625 18.40625 
Q 63.625 12.0625 66.03125 8.421875 
Q 68.453125 4.78125 72.703125 4.78125 
Q 76.859375 4.78125 79.265625 8.421875 
Q 81.6875 12.0625 81.6875 18.40625 
Q 81.6875 24.8125 79.265625 28.4375 
Q 76.859375 32.078125 72.703125 32.078125 
z
M 72.703125 38.28125 
Q 80.421875 38.28125 84.953125 32.90625 
Q 89.5 27.546875 89.5 18.40625 
Q 89.5 9.28125 84.9375 3.921875 
Q 80.375 -1.421875 72.703125 -1.421875 
Q 64.890625 -1.421875 60.34375 3.921875 
Q 55.8125 9.28125 55.8125 18.40625 
Q 55.8125 27.59375 60.375 32.9375 
Q 64.9375 38.28125 72.703125 38.28125 
z
M 22.3125 68.015625 
Q 18.109375 68.015625 15.6875 64.375 
Q 13.28125 60.75 13.28125 54.390625 
Q 13.28125 47.953125 15.671875 44.328125 
Q 18.0625 40.71875 22.3125 40.71875 
Q 26.5625 40.71875 28.96875 44.328125 
Q 31.390625 47.953125 31.390625 54.390625 
Q 31.390625 60.6875 28.953125 64.34375 
Q 26.515625 68.015625 22.3125 68.015625 
z
M 66.40625 74.21875 
L 74.21875 74.21875 
L 28.609375 -1.421875 
L 20.796875 -1.421875 
z
M 22.3125 74.21875 
Q 30.03125 74.21875 34.609375 68.875 
Q 39.203125 63.53125 39.203125 54.390625 
Q 39.203125 45.171875 34.640625 39.84375 
Q 30.078125 34.515625 22.3125 34.515625 
Q 14.546875 34.515625 10.03125 39.859375 
Q 5.515625 45.21875 5.515625 54.390625 
Q 5.515625 63.484375 10.046875 68.84375 
Q 14.59375 74.21875 22.3125 74.21875 
z
" id="DejaVuSans-37"/>
       <path d="M 8.015625 75.875 
L 15.828125 75.875 
Q 23.140625 64.359375 26.78125 53.3125 
Q 30.421875 42.28125 30.421875 31.390625 
Q 30.421875 20.453125 26.78125 9.375 
Q 23.140625 -1.703125 15.828125 -13.1875 
L 8.015625 -13.1875 
Q 14.5 -2 17.703125 9.0625 
Q 20.90625 20.125 20.90625 31.390625 
Q 20.90625 42.671875 17.703125 53.65625 
Q 14.5 64.65625 8.015625 75.875 
z
" id="DejaVuSans-41"/>
      </defs>
      <g style="fill:#262626;" transform="translate(82.588562 265.0807)scale(0.088 -0.088)">
       <use xlink:href="#DejaVuSans-40"/>
       <use x="39.013672" xlink:href="#DejaVuSans-48"/>
       <use x="102.636719" xlink:href="#DejaVuSans-46"/>
       <use x="134.423828" xlink:href="#DejaVuSans-48"/>
       <use x="198.046875" xlink:href="#DejaVuSans-37"/>
       <use x="293.066406" xlink:href="#DejaVuSans-41"/>
      </g>
     </g>
    </g>
    <g id="xtick_2">
     <g id="line2d_2">
      <path clip-path="url(#p47e3748896)" d="M 155.371268 239.04 
L 155.371268 34.56 
" style="fill:none;stroke:#ffffff;stroke-linecap:round;"/>
     </g>
     <g id="text_2">
      <!-- 2500 -->
      <defs>
       <path d="M 19.1875 8.296875 
L 53.609375 8.296875 
L 53.609375 0 
L 7.328125 0 
L 7.328125 8.296875 
Q 12.9375 14.109375 22.625 23.890625 
Q 32.328125 33.6875 34.8125 36.53125 
Q 39.546875 41.84375 41.421875 45.53125 
Q 43.3125 49.21875 43.3125 52.78125 
Q 43.3125 58.59375 39.234375 62.25 
Q 35.15625 65.921875 28.609375 65.921875 
Q 23.96875 65.921875 18.8125 64.3125 
Q 13.671875 62.703125 7.8125 59.421875 
L 7.8125 69.390625 
Q 13.765625 71.78125 18.9375 73 
Q 24.125 74.21875 28.421875 74.21875 
Q 39.75 74.21875 46.484375 68.546875 
Q 53.21875 62.890625 53.21875 53.421875 
Q 53.21875 48.921875 51.53125 44.890625 
Q 49.859375 40.875 45.40625 35.40625 
Q 44.1875 33.984375 37.640625 27.21875 
Q 31.109375 20.453125 19.1875 8.296875 
z
" id="DejaVuSans-50"/>
       <path d="M 10.796875 72.90625 
L 49.515625 72.90625 
L 49.515625 64.59375 
L 19.828125 64.59375 
L 19.828125 46.734375 
Q 21.96875 47.46875 24.109375 47.828125 
Q 26.265625 48.1875 28.421875 48.1875 
Q 40.625 48.1875 47.75 41.5 
Q 54.890625 34.8125 54.890625 23.390625 
Q 54.890625 11.625 47.5625 5.09375 
Q 40.234375 -1.421875 26.90625 -1.421875 
Q 22.3125 -1.421875 17.546875 -0.640625 
Q 12.796875 0.140625 7.71875 1.703125 
L 7.71875 11.625 
Q 12.109375 9.234375 16.796875 8.0625 
Q 21.484375 6.890625 26.703125 6.890625 
Q 35.15625 6.890625 40.078125 11.328125 
Q 45.015625 15.765625 45.015625 23.390625 
Q 45.015625 31 40.078125 35.4375 
Q 35.15625 39.890625 26.703125 39.890625 
Q 22.75 39.890625 18.8125 39.015625 
Q 14.890625 38.140625 10.796875 36.28125 
z
" id="DejaVuSans-53"/>
      </defs>
      <g style="fill:#262626;" transform="translate(144.173268 255.226625)scale(0.088 -0.088)">
       <use xlink:href="#DejaVuSans-50"/>
       <use x="63.623047" xlink:href="#DejaVuSans-53"/>
       <use x="127.246094" xlink:href="#DejaVuSans-48"/>
       <use x="190.869141" xlink:href="#DejaVuSans-48"/>
      </g>
      <!-- (8.0%) -->
      <defs>
       <path d="M 31.78125 34.625 
Q 24.75 34.625 20.71875 30.859375 
Q 16.703125 27.09375 16.703125 20.515625 
Q 16.703125 13.921875 20.71875 10.15625 
Q 24.75 6.390625 31.78125 6.390625 
Q 38.8125 6.390625 42.859375 10.171875 
Q 46.921875 13.96875 46.921875 20.515625 
Q 46.921875 27.09375 42.890625 30.859375 
Q 38.875 34.625 31.78125 34.625 
z
M 21.921875 38.8125 
Q 15.578125 40.375 12.03125 44.71875 
Q 8.5 49.078125 8.5 55.328125 
Q 8.5 64.0625 14.71875 69.140625 
Q 20.953125 74.21875 31.78125 74.21875 
Q 42.671875 74.21875 48.875 69.140625 
Q 55.078125 64.0625 55.078125 55.328125 
Q 55.078125 49.078125 51.53125 44.71875 
Q 48 40.375 41.703125 38.8125 
Q 48.828125 37.15625 52.796875 32.3125 
Q 56.78125 27.484375 56.78125 20.515625 
Q 56.78125 9.90625 50.3125 4.234375 
Q 43.84375 -1.421875 31.78125 -1.421875 
Q 19.734375 -1.421875 13.25 4.234375 
Q 6.78125 9.90625 6.78125 20.515625 
Q 6.78125 27.484375 10.78125 32.3125 
Q 14.796875 37.15625 21.921875 38.8125 
z
M 18.3125 54.390625 
Q 18.3125 48.734375 21.84375 45.5625 
Q 25.390625 42.390625 31.78125 42.390625 
Q 38.140625 42.390625 41.71875 45.5625 
Q 45.3125 48.734375 45.3125 54.390625 
Q 45.3125 60.0625 41.71875 63.234375 
Q 38.140625 66.40625 31.78125 66.40625 
Q 25.390625 66.40625 21.84375 63.234375 
Q 18.3125 60.0625 18.3125 54.390625 
z
" id="DejaVuSans-56"/>
      </defs>
      <g style="fill:#262626;" transform="translate(140.75983 265.0807)scale(0.088 -0.088)">
       <use xlink:href="#DejaVuSans-40"/>
       <use x="39.013672" xlink:href="#DejaVuSans-56"/>
       <use x="102.636719" xlink:href="#DejaVuSans-46"/>
       <use x="134.423828" xlink:href="#DejaVuSans-48"/>
       <use x="198.046875" xlink:href="#DejaVuSans-37"/>
       <use x="293.066406" xlink:href="#DejaVuSans-41"/>
      </g>
     </g>
    </g>
    <g id="xtick_3">
     <g id="line2d_3">
      <path clip-path="url(#p47e3748896)" d="M 213.542535 239.04 
L 213.542535 34.56 
" style="fill:none;stroke:#ffffff;stroke-linecap:round;"/>
     </g>
     <g id="text_3">
      <!-- 5000 -->
      <g style="fill:#262626;" transform="translate(202.344535 255.226625)scale(0.088 -0.088)">
       <use xlink:href="#DejaVuSans-53"/>
       <use x="63.623047" xlink:href="#DejaVuSans-48"/>
       <use x="127.246094" xlink:href="#DejaVuSans-48"/>
       <use x="190.869141" xlink:href="#DejaVuSans-48"/>
      </g>
      <!-- (15.9%) -->
      <defs>
       <path d="M 12.40625 8.296875 
L 28.515625 8.296875 
L 28.515625 63.921875 
L 10.984375 60.40625 
L 10.984375 69.390625 
L 28.421875 72.90625 
L 38.28125 72.90625 
L 38.28125 8.296875 
L 54.390625 8.296875 
L 54.390625 0 
L 12.40625 0 
z
" id="DejaVuSans-49"/>
       <path d="M 10.984375 1.515625 
L 10.984375 10.5 
Q 14.703125 8.734375 18.5 7.8125 
Q 22.3125 6.890625 25.984375 6.890625 
Q 35.75 6.890625 40.890625 13.453125 
Q 46.046875 20.015625 46.78125 33.40625 
Q 43.953125 29.203125 39.59375 26.953125 
Q 35.25 24.703125 29.984375 24.703125 
Q 19.046875 24.703125 12.671875 31.3125 
Q 6.296875 37.9375 6.296875 49.421875 
Q 6.296875 60.640625 12.9375 67.421875 
Q 19.578125 74.21875 30.609375 74.21875 
Q 43.265625 74.21875 49.921875 64.515625 
Q 56.59375 54.828125 56.59375 36.375 
Q 56.59375 19.140625 48.40625 8.859375 
Q 40.234375 -1.421875 26.421875 -1.421875 
Q 22.703125 -1.421875 18.890625 -0.6875 
Q 15.09375 0.046875 10.984375 1.515625 
z
M 30.609375 32.421875 
Q 37.25 32.421875 41.125 36.953125 
Q 45.015625 41.5 45.015625 49.421875 
Q 45.015625 57.28125 41.125 61.84375 
Q 37.25 66.40625 30.609375 66.40625 
Q 23.96875 66.40625 20.09375 61.84375 
Q 16.21875 57.28125 16.21875 49.421875 
Q 16.21875 41.5 20.09375 36.953125 
Q 23.96875 32.421875 30.609375 32.421875 
z
" id="DejaVuSans-57"/>
      </defs>
      <g style="fill:#262626;" transform="translate(196.131598 265.0807)scale(0.088 -0.088)">
       <use xlink:href="#DejaVuSans-40"/>
       <use x="39.013672" xlink:href="#DejaVuSans-49"/>
       <use x="102.636719" xlink:href="#DejaVuSans-53"/>
       <use x="166.259766" xlink:href="#DejaVuSans-46"/>
       <use x="198.046875" xlink:href="#DejaVuSans-57"/>
       <use x="261.669922" xlink:href="#DejaVuSans-37"/>
       <use x="356.689453" xlink:href="#DejaVuSans-41"/>
      </g>
     </g>
    </g>
    <g id="xtick_4">
     <g id="line2d_4">
      <path clip-path="url(#p47e3748896)" d="M 271.713803 239.04 
L 271.713803 34.56 
" style="fill:none;stroke:#ffffff;stroke-linecap:round;"/>
     </g>
     <g id="text_4">
      <!-- 7500 -->
      <defs>
       <path d="M 8.203125 72.90625 
L 55.078125 72.90625 
L 55.078125 68.703125 
L 28.609375 0 
L 18.3125 0 
L 43.21875 64.59375 
L 8.203125 64.59375 
z
" id="DejaVuSans-55"/>
      </defs>
      <g style="fill:#262626;" transform="translate(260.515803 255.226625)scale(0.088 -0.088)">
       <use xlink:href="#DejaVuSans-55"/>
       <use x="63.623047" xlink:href="#DejaVuSans-53"/>
       <use x="127.246094" xlink:href="#DejaVuSans-48"/>
       <use x="190.869141" xlink:href="#DejaVuSans-48"/>
      </g>
      <!-- (23.9%) -->
      <defs>
       <path d="M 40.578125 39.3125 
Q 47.65625 37.796875 51.625 33 
Q 55.609375 28.21875 55.609375 21.1875 
Q 55.609375 10.40625 48.1875 4.484375 
Q 40.765625 -1.421875 27.09375 -1.421875 
Q 22.515625 -1.421875 17.65625 -0.515625 
Q 12.796875 0.390625 7.625 2.203125 
L 7.625 11.71875 
Q 11.71875 9.328125 16.59375 8.109375 
Q 21.484375 6.890625 26.8125 6.890625 
Q 36.078125 6.890625 40.9375 10.546875 
Q 45.796875 14.203125 45.796875 21.1875 
Q 45.796875 27.640625 41.28125 31.265625 
Q 36.765625 34.90625 28.71875 34.90625 
L 20.21875 34.90625 
L 20.21875 43.015625 
L 29.109375 43.015625 
Q 36.375 43.015625 40.234375 45.921875 
Q 44.09375 48.828125 44.09375 54.296875 
Q 44.09375 59.90625 40.109375 62.90625 
Q 36.140625 65.921875 28.71875 65.921875 
Q 24.65625 65.921875 20.015625 65.03125 
Q 15.375 64.15625 9.8125 62.3125 
L 9.8125 71.09375 
Q 15.4375 72.65625 20.34375 73.4375 
Q 25.25 74.21875 29.59375 74.21875 
Q 40.828125 74.21875 47.359375 69.109375 
Q 53.90625 64.015625 53.90625 55.328125 
Q 53.90625 49.265625 50.4375 45.09375 
Q 46.96875 40.921875 40.578125 39.3125 
z
" id="DejaVuSans-51"/>
      </defs>
      <g style="fill:#262626;" transform="translate(254.302866 265.0807)scale(0.088 -0.088)">
       <use xlink:href="#DejaVuSans-40"/>
       <use x="39.013672" xlink:href="#DejaVuSans-50"/>
       <use x="102.636719" xlink:href="#DejaVuSans-51"/>
       <use x="166.259766" xlink:href="#DejaVuSans-46"/>
       <use x="198.046875" xlink:href="#DejaVuSans-57"/>
       <use x="261.669922" xlink:href="#DejaVuSans-37"/>
       <use x="356.689453" xlink:href="#DejaVuSans-41"/>
      </g>
     </g>
    </g>
    <g id="xtick_5">
     <g id="line2d_5">
      <path clip-path="url(#p47e3748896)" d="M 329.885071 239.04 
L 329.885071 34.56 
" style="fill:none;stroke:#ffffff;stroke-linecap:round;"/>
     </g>
     <g id="text_5">
      <!-- 10000 -->
      <g style="fill:#262626;" transform="translate(315.887571 255.226625)scale(0.088 -0.088)">
       <use xlink:href="#DejaVuSans-49"/>
       <use x="63.623047" xlink:href="#DejaVuSans-48"/>
       <use x="127.246094" xlink:href="#DejaVuSans-48"/>
       <use x="190.869141" xlink:href="#DejaVuSans-48"/>
       <use x="254.492188" xlink:href="#DejaVuSans-48"/>
      </g>
      <!-- (31.8%) -->
      <g style="fill:#262626;" transform="translate(312.474133 265.0807)scale(0.088 -0.088)">
       <use xlink:href="#DejaVuSans-40"/>
       <use x="39.013672" xlink:href="#DejaVuSans-51"/>
       <use x="102.636719" xlink:href="#DejaVuSans-49"/>
       <use x="166.259766" xlink:href="#DejaVuSans-46"/>
       <use x="198.046875" xlink:href="#DejaVuSans-56"/>
       <use x="261.669922" xlink:href="#DejaVuSans-37"/>
       <use x="356.689453" xlink:href="#DejaVuSans-41"/>
      </g>
     </g>
    </g>
    <g id="xtick_6">
     <g id="line2d_6">
      <path clip-path="url(#p47e3748896)" d="M 388.056339 239.04 
L 388.056339 34.56 
" style="fill:none;stroke:#ffffff;stroke-linecap:round;"/>
     </g>
     <g id="text_6">
      <!-- 12500 -->
      <g style="fill:#262626;" transform="translate(374.058839 255.226625)scale(0.088 -0.088)">
       <use xlink:href="#DejaVuSans-49"/>
       <use x="63.623047" xlink:href="#DejaVuSans-50"/>
       <use x="127.246094" xlink:href="#DejaVuSans-53"/>
       <use x="190.869141" xlink:href="#DejaVuSans-48"/>
       <use x="254.492188" xlink:href="#DejaVuSans-48"/>
      </g>
      <!-- (39.8%) -->
      <g style="fill:#262626;" transform="translate(370.645401 265.0807)scale(0.088 -0.088)">
       <use xlink:href="#DejaVuSans-40"/>
       <use x="39.013672" xlink:href="#DejaVuSans-51"/>
       <use x="102.636719" xlink:href="#DejaVuSans-57"/>
       <use x="166.259766" xlink:href="#DejaVuSans-46"/>
       <use x="198.046875" xlink:href="#DejaVuSans-56"/>
       <use x="261.669922" xlink:href="#DejaVuSans-37"/>
       <use x="356.689453" xlink:href="#DejaVuSans-41"/>
      </g>
     </g>
    </g>
    <g id="xtick_7">
     <g id="line2d_7">
      <path clip-path="url(#p47e3748896)" d="M 446.227606 239.04 
L 446.227606 34.56 
" style="fill:none;stroke:#ffffff;stroke-linecap:round;"/>
     </g>
     <g id="text_7">
      <!-- 15000 -->
      <g style="fill:#262626;" transform="translate(432.230106 255.226625)scale(0.088 -0.088)">
       <use xlink:href="#DejaVuSans-49"/>
       <use x="63.623047" xlink:href="#DejaVuSans-53"/>
       <use x="127.246094" xlink:href="#DejaVuSans-48"/>
       <use x="190.869141" xlink:href="#DejaVuSans-48"/>
       <use x="254.492188" xlink:href="#DejaVuSans-48"/>
      </g>
      <!-- (47.8%) -->
      <defs>
       <path d="M 37.796875 64.3125 
L 12.890625 25.390625 
L 37.796875 25.390625 
z
M 35.203125 72.90625 
L 47.609375 72.90625 
L 47.609375 25.390625 
L 58.015625 25.390625 
L 58.015625 17.1875 
L 47.609375 17.1875 
L 47.609375 0 
L 37.796875 0 
L 37.796875 17.1875 
L 4.890625 17.1875 
L 4.890625 26.703125 
z
" id="DejaVuSans-52"/>
      </defs>
      <g style="fill:#262626;" transform="translate(428.816669 265.0807)scale(0.088 -0.088)">
       <use xlink:href="#DejaVuSans-40"/>
       <use x="39.013672" xlink:href="#DejaVuSans-52"/>
       <use x="102.636719" xlink:href="#DejaVuSans-55"/>
       <use x="166.259766" xlink:href="#DejaVuSans-46"/>
       <use x="198.046875" xlink:href="#DejaVuSans-56"/>
       <use x="261.669922" xlink:href="#DejaVuSans-37"/>
       <use x="356.689453" xlink:href="#DejaVuSans-41"/>
      </g>
     </g>
    </g>
    <g id="xtick_8">
     <g id="line2d_8">
      <path clip-path="url(#p47e3748896)" d="M 504.398874 239.04 
L 504.398874 34.56 
" style="fill:none;stroke:#ffffff;stroke-linecap:round;"/>
     </g>
     <g id="text_8">
      <!-- 17500 -->
      <g style="fill:#262626;" transform="translate(490.401374 255.226625)scale(0.088 -0.088)">
       <use xlink:href="#DejaVuSans-49"/>
       <use x="63.623047" xlink:href="#DejaVuSans-55"/>
       <use x="127.246094" xlink:href="#DejaVuSans-53"/>
       <use x="190.869141" xlink:href="#DejaVuSans-48"/>
       <use x="254.492188" xlink:href="#DejaVuSans-48"/>
      </g>
      <!-- (55.7%) -->
      <g style="fill:#262626;" transform="translate(486.987936 265.0807)scale(0.088 -0.088)">
       <use xlink:href="#DejaVuSans-40"/>
       <use x="39.013672" xlink:href="#DejaVuSans-53"/>
       <use x="102.636719" xlink:href="#DejaVuSans-53"/>
       <use x="166.259766" xlink:href="#DejaVuSans-46"/>
       <use x="198.046875" xlink:href="#DejaVuSans-55"/>
       <use x="261.669922" xlink:href="#DejaVuSans-37"/>
       <use x="356.689453" xlink:href="#DejaVuSans-41"/>
      </g>
     </g>
    </g>
    <g id="xtick_9">
     <g id="line2d_9">
      <path clip-path="url(#p47e3748896)" d="M 562.570142 239.04 
L 562.570142 34.56 
" style="fill:none;stroke:#ffffff;stroke-linecap:round;"/>
     </g>
     <g id="text_9">
      <!-- 20000 -->
      <g style="fill:#262626;" transform="translate(548.572642 255.226625)scale(0.088 -0.088)">
       <use xlink:href="#DejaVuSans-50"/>
       <use x="63.623047" xlink:href="#DejaVuSans-48"/>
       <use x="127.246094" xlink:href="#DejaVuSans-48"/>
       <use x="190.869141" xlink:href="#DejaVuSans-48"/>
       <use x="254.492188" xlink:href="#DejaVuSans-48"/>
      </g>
      <!-- (63.7%) -->
      <defs>
       <path d="M 33.015625 40.375 
Q 26.375 40.375 22.484375 35.828125 
Q 18.609375 31.296875 18.609375 23.390625 
Q 18.609375 15.53125 22.484375 10.953125 
Q 26.375 6.390625 33.015625 6.390625 
Q 39.65625 6.390625 43.53125 10.953125 
Q 47.40625 15.53125 47.40625 23.390625 
Q 47.40625 31.296875 43.53125 35.828125 
Q 39.65625 40.375 33.015625 40.375 
z
M 52.59375 71.296875 
L 52.59375 62.3125 
Q 48.875 64.0625 45.09375 64.984375 
Q 41.3125 65.921875 37.59375 65.921875 
Q 27.828125 65.921875 22.671875 59.328125 
Q 17.53125 52.734375 16.796875 39.40625 
Q 19.671875 43.65625 24.015625 45.921875 
Q 28.375 48.1875 33.59375 48.1875 
Q 44.578125 48.1875 50.953125 41.515625 
Q 57.328125 34.859375 57.328125 23.390625 
Q 57.328125 12.15625 50.6875 5.359375 
Q 44.046875 -1.421875 33.015625 -1.421875 
Q 20.359375 -1.421875 13.671875 8.265625 
Q 6.984375 17.96875 6.984375 36.375 
Q 6.984375 53.65625 15.1875 63.9375 
Q 23.390625 74.21875 37.203125 74.21875 
Q 40.921875 74.21875 44.703125 73.484375 
Q 48.484375 72.75 52.59375 71.296875 
z
" id="DejaVuSans-54"/>
      </defs>
      <g style="fill:#262626;" transform="translate(545.159204 265.0807)scale(0.088 -0.088)">
       <use xlink:href="#DejaVuSans-40"/>
       <use x="39.013672" xlink:href="#DejaVuSans-54"/>
       <use x="102.636719" xlink:href="#DejaVuSans-51"/>
       <use x="166.259766" xlink:href="#DejaVuSans-46"/>
       <use x="198.046875" xlink:href="#DejaVuSans-55"/>
       <use x="261.669922" xlink:href="#DejaVuSans-37"/>
       <use x="356.689453" xlink:href="#DejaVuSans-41"/>
      </g>
     </g>
    </g>
    <g id="text_10">
     <!-- count -->
     <defs>
      <path d="M 48.78125 52.59375 
L 48.78125 44.1875 
Q 44.96875 46.296875 41.140625 47.34375 
Q 37.3125 48.390625 33.40625 48.390625 
Q 24.65625 48.390625 19.8125 42.84375 
Q 14.984375 37.3125 14.984375 27.296875 
Q 14.984375 17.28125 19.8125 11.734375 
Q 24.65625 6.203125 33.40625 6.203125 
Q 37.3125 6.203125 41.140625 7.25 
Q 44.96875 8.296875 48.78125 10.40625 
L 48.78125 2.09375 
Q 45.015625 0.34375 40.984375 -0.53125 
Q 36.96875 -1.421875 32.421875 -1.421875 
Q 20.0625 -1.421875 12.78125 6.34375 
Q 5.515625 14.109375 5.515625 27.296875 
Q 5.515625 40.671875 12.859375 48.328125 
Q 20.21875 56 33.015625 56 
Q 37.15625 56 41.109375 55.140625 
Q 45.0625 54.296875 48.78125 52.59375 
z
" id="DejaVuSans-99"/>
      <path d="M 30.609375 48.390625 
Q 23.390625 48.390625 19.1875 42.75 
Q 14.984375 37.109375 14.984375 27.296875 
Q 14.984375 17.484375 19.15625 11.84375 
Q 23.34375 6.203125 30.609375 6.203125 
Q 37.796875 6.203125 41.984375 11.859375 
Q 46.1875 17.53125 46.1875 27.296875 
Q 46.1875 37.015625 41.984375 42.703125 
Q 37.796875 48.390625 30.609375 48.390625 
z
M 30.609375 56 
Q 42.328125 56 49.015625 48.375 
Q 55.71875 40.765625 55.71875 27.296875 
Q 55.71875 13.875 49.015625 6.21875 
Q 42.328125 -1.421875 30.609375 -1.421875 
Q 18.84375 -1.421875 12.171875 6.21875 
Q 5.515625 13.875 5.515625 27.296875 
Q 5.515625 40.765625 12.171875 48.375 
Q 18.84375 56 30.609375 56 
z
" id="DejaVuSans-111"/>
      <path d="M 8.5 21.578125 
L 8.5 54.6875 
L 17.484375 54.6875 
L 17.484375 21.921875 
Q 17.484375 14.15625 20.5 10.265625 
Q 23.53125 6.390625 29.59375 6.390625 
Q 36.859375 6.390625 41.078125 11.03125 
Q 45.3125 15.671875 45.3125 23.6875 
L 45.3125 54.6875 
L 54.296875 54.6875 
L 54.296875 0 
L 45.3125 0 
L 45.3125 8.40625 
Q 42.046875 3.421875 37.71875 1 
Q 33.40625 -1.421875 27.6875 -1.421875 
Q 18.265625 -1.421875 13.375 4.4375 
Q 8.5 10.296875 8.5 21.578125 
z
M 31.109375 56 
z
" id="DejaVuSans-117"/>
      <path d="M 54.890625 33.015625 
L 54.890625 0 
L 45.90625 0 
L 45.90625 32.71875 
Q 45.90625 40.484375 42.875 44.328125 
Q 39.84375 48.1875 33.796875 48.1875 
Q 26.515625 48.1875 22.3125 43.546875 
Q 18.109375 38.921875 18.109375 30.90625 
L 18.109375 0 
L 9.078125 0 
L 9.078125 54.6875 
L 18.109375 54.6875 
L 18.109375 46.1875 
Q 21.34375 51.125 25.703125 53.5625 
Q 30.078125 56 35.796875 56 
Q 45.21875 56 50.046875 50.171875 
Q 54.890625 44.34375 54.890625 33.015625 
z
" id="DejaVuSans-110"/>
      <path d="M 18.3125 70.21875 
L 18.3125 54.6875 
L 36.8125 54.6875 
L 36.8125 47.703125 
L 18.3125 47.703125 
L 18.3125 18.015625 
Q 18.3125 11.328125 20.140625 9.421875 
Q 21.96875 7.515625 27.59375 7.515625 
L 36.8125 7.515625 
L 36.8125 0 
L 27.59375 0 
Q 17.1875 0 13.234375 3.875 
Q 9.28125 7.765625 9.28125 18.015625 
L 9.28125 47.703125 
L 2.6875 47.703125 
L 2.6875 54.6875 
L 9.28125 54.6875 
L 9.28125 70.21875 
z
" id="DejaVuSans-116"/>
     </defs>
     <g style="fill:#262626;" transform="translate(326.658 278.205325)scale(0.096 -0.096)">
      <use xlink:href="#DejaVuSans-99"/>
      <use x="54.980469" xlink:href="#DejaVuSans-111"/>
      <use x="116.162109" xlink:href="#DejaVuSans-117"/>
      <use x="179.541016" xlink:href="#DejaVuSans-110"/>
      <use x="242.919922" xlink:href="#DejaVuSans-116"/>
     </g>
    </g>
   </g>
   <g id="matplotlib.axis_2">
    <g id="ytick_1">
     <g id="text_11">
      <!-- BE (63.34%) -->
      <defs>
       <path d="M 19.671875 34.8125 
L 19.671875 8.109375 
L 35.5 8.109375 
Q 43.453125 8.109375 47.28125 11.40625 
Q 51.125 14.703125 51.125 21.484375 
Q 51.125 28.328125 47.28125 31.5625 
Q 43.453125 34.8125 35.5 34.8125 
z
M 19.671875 64.796875 
L 19.671875 42.828125 
L 34.28125 42.828125 
Q 41.5 42.828125 45.03125 45.53125 
Q 48.578125 48.25 48.578125 53.8125 
Q 48.578125 59.328125 45.03125 62.0625 
Q 41.5 64.796875 34.28125 64.796875 
z
M 9.8125 72.90625 
L 35.015625 72.90625 
Q 46.296875 72.90625 52.390625 68.21875 
Q 58.5 63.53125 58.5 54.890625 
Q 58.5 48.1875 55.375 44.234375 
Q 52.25 40.28125 46.1875 39.3125 
Q 53.46875 37.75 57.5 32.78125 
Q 61.53125 27.828125 61.53125 20.40625 
Q 61.53125 10.640625 54.890625 5.3125 
Q 48.25 0 35.984375 0 
L 9.8125 0 
z
" id="DejaVuSans-66"/>
       <path d="M 9.8125 72.90625 
L 55.90625 72.90625 
L 55.90625 64.59375 
L 19.671875 64.59375 
L 19.671875 43.015625 
L 54.390625 43.015625 
L 54.390625 34.71875 
L 19.671875 34.71875 
L 19.671875 8.296875 
L 56.78125 8.296875 
L 56.78125 0 
L 9.8125 0 
z
" id="DejaVuSans-69"/>
       <path id="DejaVuSans-32"/>
      </defs>
      <g style="fill:#262626;" transform="translate(32.88425 41.001494)scale(0.088 -0.088)">
       <use xlink:href="#DejaVuSans-66"/>
       <use x="68.603516" xlink:href="#DejaVuSans-69"/>
       <use x="131.787109" xlink:href="#DejaVuSans-32"/>
       <use x="163.574219" xlink:href="#DejaVuSans-40"/>
       <use x="202.587891" xlink:href="#DejaVuSans-54"/>
       <use x="266.210938" xlink:href="#DejaVuSans-51"/>
       <use x="329.833984" xlink:href="#DejaVuSans-46"/>
       <use x="361.621094" xlink:href="#DejaVuSans-51"/>
       <use x="425.244141" xlink:href="#DejaVuSans-52"/>
       <use x="488.867188" xlink:href="#DejaVuSans-37"/>
       <use x="583.886719" xlink:href="#DejaVuSans-41"/>
      </g>
     </g>
    </g>
    <g id="ytick_2">
     <g id="text_12">
      <!-- XX (22.07%) -->
      <defs>
       <path d="M 6.296875 72.90625 
L 16.890625 72.90625 
L 35.015625 45.796875 
L 53.21875 72.90625 
L 63.8125 72.90625 
L 40.375 37.890625 
L 65.375 0 
L 54.78125 0 
L 34.28125 31 
L 13.625 0 
L 2.984375 0 
L 29 38.921875 
z
" id="DejaVuSans-88"/>
      </defs>
      <g style="fill:#262626;" transform="translate(32.426375 47.197858)scale(0.088 -0.088)">
       <use xlink:href="#DejaVuSans-88"/>
       <use x="68.505859" xlink:href="#DejaVuSans-88"/>
       <use x="137.011719" xlink:href="#DejaVuSans-32"/>
       <use x="168.798828" xlink:href="#DejaVuSans-40"/>
       <use x="207.8125" xlink:href="#DejaVuSans-50"/>
       <use x="271.435547" xlink:href="#DejaVuSans-50"/>
       <use x="335.058594" xlink:href="#DejaVuSans-46"/>
       <use x="366.845703" xlink:href="#DejaVuSans-48"/>
       <use x="430.46875" xlink:href="#DejaVuSans-55"/>
       <use x="494.091797" xlink:href="#DejaVuSans-37"/>
       <use x="589.111328" xlink:href="#DejaVuSans-41"/>
      </g>
     </g>
    </g>
    <g id="ytick_3">
     <g id="text_13">
      <!-- FR (9.77%) -->
      <defs>
       <path d="M 9.8125 72.90625 
L 51.703125 72.90625 
L 51.703125 64.59375 
L 19.671875 64.59375 
L 19.671875 43.109375 
L 48.578125 43.109375 
L 48.578125 34.8125 
L 19.671875 34.8125 
L 19.671875 0 
L 9.8125 0 
z
" id="DejaVuSans-70"/>
       <path d="M 44.390625 34.1875 
Q 47.5625 33.109375 50.5625 29.59375 
Q 53.5625 26.078125 56.59375 19.921875 
L 66.609375 0 
L 56 0 
L 46.6875 18.703125 
Q 43.0625 26.03125 39.671875 28.421875 
Q 36.28125 30.8125 30.421875 30.8125 
L 19.671875 30.8125 
L 19.671875 0 
L 9.8125 0 
L 9.8125 72.90625 
L 32.078125 72.90625 
Q 44.578125 72.90625 50.734375 67.671875 
Q 56.890625 62.453125 56.890625 51.90625 
Q 56.890625 45.015625 53.6875 40.46875 
Q 50.484375 35.9375 44.390625 34.1875 
z
M 19.671875 64.796875 
L 19.671875 38.921875 
L 32.078125 38.921875 
Q 39.203125 38.921875 42.84375 42.21875 
Q 46.484375 45.515625 46.484375 51.90625 
Q 46.484375 58.296875 42.84375 61.546875 
Q 39.203125 64.796875 32.078125 64.796875 
z
" id="DejaVuSans-82"/>
      </defs>
      <g style="fill:#262626;" transform="translate(38.905375 53.394222)scale(0.088 -0.088)">
       <use xlink:href="#DejaVuSans-70"/>
       <use x="57.519531" xlink:href="#DejaVuSans-82"/>
       <use x="127.001953" xlink:href="#DejaVuSans-32"/>
       <use x="158.789062" xlink:href="#DejaVuSans-40"/>
       <use x="197.802734" xlink:href="#DejaVuSans-57"/>
       <use x="261.425781" xlink:href="#DejaVuSans-46"/>
       <use x="293.212891" xlink:href="#DejaVuSans-55"/>
       <use x="356.835938" xlink:href="#DejaVuSans-55"/>
       <use x="420.458984" xlink:href="#DejaVuSans-37"/>
       <use x="515.478516" xlink:href="#DejaVuSans-41"/>
      </g>
     </g>
    </g>
    <g id="ytick_4">
     <g id="text_14">
      <!-- DE (2.67%) -->
      <defs>
       <path d="M 19.671875 64.796875 
L 19.671875 8.109375 
L 31.59375 8.109375 
Q 46.6875 8.109375 53.6875 14.9375 
Q 60.6875 21.78125 60.6875 36.53125 
Q 60.6875 51.171875 53.6875 57.984375 
Q 46.6875 64.796875 31.59375 64.796875 
z
M 9.8125 72.90625 
L 30.078125 72.90625 
Q 51.265625 72.90625 61.171875 64.09375 
Q 71.09375 55.28125 71.09375 36.53125 
Q 71.09375 17.671875 61.125 8.828125 
Q 51.171875 0 30.078125 0 
L 9.8125 0 
z
" id="DejaVuSans-68"/>
      </defs>
      <g style="fill:#262626;" transform="translate(37.744875 59.590585)scale(0.088 -0.088)">
       <use xlink:href="#DejaVuSans-68"/>
       <use x="77.001953" xlink:href="#DejaVuSans-69"/>
       <use x="140.185547" xlink:href="#DejaVuSans-32"/>
       <use x="171.972656" xlink:href="#DejaVuSans-40"/>
       <use x="210.986328" xlink:href="#DejaVuSans-50"/>
       <use x="274.609375" xlink:href="#DejaVuSans-46"/>
       <use x="306.396484" xlink:href="#DejaVuSans-54"/>
       <use x="370.019531" xlink:href="#DejaVuSans-55"/>
       <use x="433.642578" xlink:href="#DejaVuSans-37"/>
       <use x="528.662109" xlink:href="#DejaVuSans-41"/>
      </g>
     </g>
    </g>
    <g id="ytick_5">
     <g id="text_15">
      <!-- NL (0.83%) -->
      <defs>
       <path d="M 9.8125 72.90625 
L 23.09375 72.90625 
L 55.421875 11.921875 
L 55.421875 72.90625 
L 64.984375 72.90625 
L 64.984375 0 
L 51.703125 0 
L 19.390625 60.984375 
L 19.390625 0 
L 9.8125 0 
z
" id="DejaVuSans-78"/>
       <path d="M 9.8125 72.90625 
L 19.671875 72.90625 
L 19.671875 8.296875 
L 55.171875 8.296875 
L 55.171875 0 
L 9.8125 0 
z
" id="DejaVuSans-76"/>
      </defs>
      <g style="fill:#262626;" transform="translate(38.594625 65.786949)scale(0.088 -0.088)">
       <use xlink:href="#DejaVuSans-78"/>
       <use x="74.804688" xlink:href="#DejaVuSans-76"/>
       <use x="130.517578" xlink:href="#DejaVuSans-32"/>
       <use x="162.304688" xlink:href="#DejaVuSans-40"/>
       <use x="201.318359" xlink:href="#DejaVuSans-48"/>
       <use x="264.941406" xlink:href="#DejaVuSans-46"/>
       <use x="296.728516" xlink:href="#DejaVuSans-56"/>
       <use x="360.351562" xlink:href="#DejaVuSans-51"/>
       <use x="423.974609" xlink:href="#DejaVuSans-37"/>
       <use x="518.994141" xlink:href="#DejaVuSans-41"/>
      </g>
     </g>
    </g>
    <g id="ytick_6">
     <g id="text_16">
      <!-- GB (0.82%) -->
      <defs>
       <path d="M 59.515625 10.40625 
L 59.515625 29.984375 
L 43.40625 29.984375 
L 43.40625 38.09375 
L 69.28125 38.09375 
L 69.28125 6.78125 
Q 63.578125 2.734375 56.6875 0.65625 
Q 49.8125 -1.421875 42 -1.421875 
Q 24.90625 -1.421875 15.25 8.5625 
Q 5.609375 18.5625 5.609375 36.375 
Q 5.609375 54.25 15.25 64.234375 
Q 24.90625 74.21875 42 74.21875 
Q 49.125 74.21875 55.546875 72.453125 
Q 61.96875 70.703125 67.390625 67.28125 
L 67.390625 56.78125 
Q 61.921875 61.421875 55.765625 63.765625 
Q 49.609375 66.109375 42.828125 66.109375 
Q 29.4375 66.109375 22.71875 58.640625 
Q 16.015625 51.171875 16.015625 36.375 
Q 16.015625 21.625 22.71875 14.15625 
Q 29.4375 6.6875 42.828125 6.6875 
Q 48.046875 6.6875 52.140625 7.59375 
Q 56.25 8.5 59.515625 10.40625 
z
" id="DejaVuSans-71"/>
      </defs>
      <g style="fill:#262626;" transform="translate(37.225125 71.983312)scale(0.088 -0.088)">
       <use xlink:href="#DejaVuSans-71"/>
       <use x="77.490234" xlink:href="#DejaVuSans-66"/>
       <use x="146.09375" xlink:href="#DejaVuSans-32"/>
       <use x="177.880859" xlink:href="#DejaVuSans-40"/>
       <use x="216.894531" xlink:href="#DejaVuSans-48"/>
       <use x="280.517578" xlink:href="#DejaVuSans-46"/>
       <use x="312.304688" xlink:href="#DejaVuSans-56"/>
       <use x="375.927734" xlink:href="#DejaVuSans-50"/>
       <use x="439.550781" xlink:href="#DejaVuSans-37"/>
       <use x="534.570312" xlink:href="#DejaVuSans-41"/>
      </g>
     </g>
    </g>
    <g id="ytick_7">
     <g id="text_17">
      <!-- CH (0.11%) -->
      <defs>
       <path d="M 64.40625 67.28125 
L 64.40625 56.890625 
Q 59.421875 61.53125 53.78125 63.8125 
Q 48.140625 66.109375 41.796875 66.109375 
Q 29.296875 66.109375 22.65625 58.46875 
Q 16.015625 50.828125 16.015625 36.375 
Q 16.015625 21.96875 22.65625 14.328125 
Q 29.296875 6.6875 41.796875 6.6875 
Q 48.140625 6.6875 53.78125 8.984375 
Q 59.421875 11.28125 64.40625 15.921875 
L 64.40625 5.609375 
Q 59.234375 2.09375 53.4375 0.328125 
Q 47.65625 -1.421875 41.21875 -1.421875 
Q 24.65625 -1.421875 15.125 8.703125 
Q 5.609375 18.84375 5.609375 36.375 
Q 5.609375 53.953125 15.125 64.078125 
Q 24.65625 74.21875 41.21875 74.21875 
Q 47.75 74.21875 53.53125 72.484375 
Q 59.328125 70.75 64.40625 67.28125 
z
" id="DejaVuSans-67"/>
       <path d="M 9.8125 72.90625 
L 19.671875 72.90625 
L 19.671875 43.015625 
L 55.515625 43.015625 
L 55.515625 72.90625 
L 65.375 72.90625 
L 65.375 0 
L 55.515625 0 
L 55.515625 34.71875 
L 19.671875 34.71875 
L 19.671875 0 
L 9.8125 0 
z
" id="DejaVuSans-72"/>
      </defs>
      <g style="fill:#262626;" transform="translate(37.318625 78.179676)scale(0.088 -0.088)">
       <use xlink:href="#DejaVuSans-67"/>
       <use x="69.824219" xlink:href="#DejaVuSans-72"/>
       <use x="145.019531" xlink:href="#DejaVuSans-32"/>
       <use x="176.806641" xlink:href="#DejaVuSans-40"/>
       <use x="215.820312" xlink:href="#DejaVuSans-48"/>
       <use x="279.443359" xlink:href="#DejaVuSans-46"/>
       <use x="311.230469" xlink:href="#DejaVuSans-49"/>
       <use x="374.853516" xlink:href="#DejaVuSans-49"/>
       <use x="438.476562" xlink:href="#DejaVuSans-37"/>
       <use x="533.496094" xlink:href="#DejaVuSans-41"/>
      </g>
     </g>
    </g>
    <g id="ytick_8">
     <g id="text_18">
      <!-- CD (0.06%) -->
      <g style="fill:#262626;" transform="translate(37.1605 84.37604)scale(0.088 -0.088)">
       <use xlink:href="#DejaVuSans-67"/>
       <use x="69.824219" xlink:href="#DejaVuSans-68"/>
       <use x="146.826172" xlink:href="#DejaVuSans-32"/>
       <use x="178.613281" xlink:href="#DejaVuSans-40"/>
       <use x="217.626953" xlink:href="#DejaVuSans-48"/>
       <use x="281.25" xlink:href="#DejaVuSans-46"/>
       <use x="313.037109" xlink:href="#DejaVuSans-48"/>
       <use x="376.660156" xlink:href="#DejaVuSans-54"/>
       <use x="440.283203" xlink:href="#DejaVuSans-37"/>
       <use x="535.302734" xlink:href="#DejaVuSans-41"/>
      </g>
     </g>
    </g>
    <g id="ytick_9">
     <g id="text_19">
      <!-- TZ (0.06%) -->
      <defs>
       <path d="M -0.296875 72.90625 
L 61.375 72.90625 
L 61.375 64.59375 
L 35.5 64.59375 
L 35.5 0 
L 25.59375 0 
L 25.59375 64.59375 
L -0.296875 64.59375 
z
" id="DejaVuSans-84"/>
       <path d="M 5.609375 72.90625 
L 62.890625 72.90625 
L 62.890625 65.375 
L 16.796875 8.296875 
L 64.015625 8.296875 
L 64.015625 0 
L 4.5 0 
L 4.5 7.515625 
L 50.59375 64.59375 
L 5.609375 64.59375 
z
" id="DejaVuSans-90"/>
      </defs>
      <g style="fill:#262626;" transform="translate(38.6785 90.572403)scale(0.088 -0.088)">
       <use xlink:href="#DejaVuSans-84"/>
       <use x="61.083984" xlink:href="#DejaVuSans-90"/>
       <use x="129.589844" xlink:href="#DejaVuSans-32"/>
       <use x="161.376953" xlink:href="#DejaVuSans-40"/>
       <use x="200.390625" xlink:href="#DejaVuSans-48"/>
       <use x="264.013672" xlink:href="#DejaVuSans-46"/>
       <use x="295.800781" xlink:href="#DejaVuSans-48"/>
       <use x="359.423828" xlink:href="#DejaVuSans-54"/>
       <use x="423.046875" xlink:href="#DejaVuSans-37"/>
       <use x="518.066406" xlink:href="#DejaVuSans-41"/>
      </g>
     </g>
    </g>
    <g id="ytick_10">
     <g id="text_20">
      <!-- PL (0.06%) -->
      <defs>
       <path d="M 19.671875 64.796875 
L 19.671875 37.40625 
L 32.078125 37.40625 
Q 38.96875 37.40625 42.71875 40.96875 
Q 46.484375 44.53125 46.484375 51.125 
Q 46.484375 57.671875 42.71875 61.234375 
Q 38.96875 64.796875 32.078125 64.796875 
z
M 9.8125 72.90625 
L 32.078125 72.90625 
Q 44.34375 72.90625 50.609375 67.359375 
Q 56.890625 61.8125 56.890625 51.125 
Q 56.890625 40.328125 50.609375 34.8125 
Q 44.34375 29.296875 32.078125 29.296875 
L 19.671875 29.296875 
L 19.671875 0 
L 9.8125 0 
z
" id="DejaVuSans-80"/>
      </defs>
      <g style="fill:#262626;" transform="translate(39.872 96.768767)scale(0.088 -0.088)">
       <use xlink:href="#DejaVuSans-80"/>
       <use x="60.302734" xlink:href="#DejaVuSans-76"/>
       <use x="116.015625" xlink:href="#DejaVuSans-32"/>
       <use x="147.802734" xlink:href="#DejaVuSans-40"/>
       <use x="186.816406" xlink:href="#DejaVuSans-48"/>
       <use x="250.439453" xlink:href="#DejaVuSans-46"/>
       <use x="282.226562" xlink:href="#DejaVuSans-48"/>
       <use x="345.849609" xlink:href="#DejaVuSans-54"/>
       <use x="409.472656" xlink:href="#DejaVuSans-37"/>
       <use x="504.492188" xlink:href="#DejaVuSans-41"/>
      </g>
     </g>
    </g>
    <g id="ytick_11">
     <g id="text_21">
      <!-- CG (0.04%) -->
      <g style="fill:#262626;" transform="translate(37.117875 102.965131)scale(0.088 -0.088)">
       <use xlink:href="#DejaVuSans-67"/>
       <use x="69.824219" xlink:href="#DejaVuSans-71"/>
       <use x="147.314453" xlink:href="#DejaVuSans-32"/>
       <use x="179.101562" xlink:href="#DejaVuSans-40"/>
       <use x="218.115234" xlink:href="#DejaVuSans-48"/>
       <use x="281.738281" xlink:href="#DejaVuSans-46"/>
       <use x="313.525391" xlink:href="#DejaVuSans-48"/>
       <use x="377.148438" xlink:href="#DejaVuSans-52"/>
       <use x="440.771484" xlink:href="#DejaVuSans-37"/>
       <use x="535.791016" xlink:href="#DejaVuSans-41"/>
      </g>
     </g>
    </g>
    <g id="ytick_12">
     <g id="text_22">
      <!-- POLEN (0.04%) -->
      <defs>
       <path d="M 39.40625 66.21875 
Q 28.65625 66.21875 22.328125 58.203125 
Q 16.015625 50.203125 16.015625 36.375 
Q 16.015625 22.609375 22.328125 14.59375 
Q 28.65625 6.59375 39.40625 6.59375 
Q 50.140625 6.59375 56.421875 14.59375 
Q 62.703125 22.609375 62.703125 36.375 
Q 62.703125 50.203125 56.421875 58.203125 
Q 50.140625 66.21875 39.40625 66.21875 
z
M 39.40625 74.21875 
Q 54.734375 74.21875 63.90625 63.9375 
Q 73.09375 53.65625 73.09375 36.375 
Q 73.09375 19.140625 63.90625 8.859375 
Q 54.734375 -1.421875 39.40625 -1.421875 
Q 24.03125 -1.421875 14.8125 8.828125 
Q 5.609375 19.09375 5.609375 36.375 
Q 5.609375 53.65625 14.8125 63.9375 
Q 24.03125 74.21875 39.40625 74.21875 
z
" id="DejaVuSans-79"/>
      </defs>
      <g style="fill:#262626;" transform="translate(20.80075 109.161494)scale(0.088 -0.088)">
       <use xlink:href="#DejaVuSans-80"/>
       <use x="60.302734" xlink:href="#DejaVuSans-79"/>
       <use x="139.013672" xlink:href="#DejaVuSans-76"/>
       <use x="194.726562" xlink:href="#DejaVuSans-69"/>
       <use x="257.910156" xlink:href="#DejaVuSans-78"/>
       <use x="332.714844" xlink:href="#DejaVuSans-32"/>
       <use x="364.501953" xlink:href="#DejaVuSans-40"/>
       <use x="403.515625" xlink:href="#DejaVuSans-48"/>
       <use x="467.138672" xlink:href="#DejaVuSans-46"/>
       <use x="498.925781" xlink:href="#DejaVuSans-48"/>
       <use x="562.548828" xlink:href="#DejaVuSans-52"/>
       <use x="626.171875" xlink:href="#DejaVuSans-37"/>
       <use x="721.191406" xlink:href="#DejaVuSans-41"/>
      </g>
     </g>
    </g>
    <g id="ytick_13">
     <g id="text_23">
      <!-- UA (0.03%) -->
      <defs>
       <path d="M 8.6875 72.90625 
L 18.609375 72.90625 
L 18.609375 28.609375 
Q 18.609375 16.890625 22.84375 11.734375 
Q 27.09375 6.59375 36.625 6.59375 
Q 46.09375 6.59375 50.34375 11.734375 
Q 54.59375 16.890625 54.59375 28.609375 
L 54.59375 72.90625 
L 64.5 72.90625 
L 64.5 27.390625 
Q 64.5 13.140625 57.4375 5.859375 
Q 50.390625 -1.421875 36.625 -1.421875 
Q 22.796875 -1.421875 15.734375 5.859375 
Q 8.6875 13.140625 8.6875 27.390625 
z
" id="DejaVuSans-85"/>
       <path d="M 34.1875 63.1875 
L 20.796875 26.90625 
L 47.609375 26.90625 
z
M 28.609375 72.90625 
L 39.796875 72.90625 
L 67.578125 0 
L 57.328125 0 
L 50.6875 18.703125 
L 17.828125 18.703125 
L 11.1875 0 
L 0.78125 0 
z
" id="DejaVuSans-65"/>
      </defs>
      <g style="fill:#262626;" transform="translate(37.621125 115.357858)scale(0.088 -0.088)">
       <use xlink:href="#DejaVuSans-85"/>
       <use x="73.193359" xlink:href="#DejaVuSans-65"/>
       <use x="141.601562" xlink:href="#DejaVuSans-32"/>
       <use x="173.388672" xlink:href="#DejaVuSans-40"/>
       <use x="212.402344" xlink:href="#DejaVuSans-48"/>
       <use x="276.025391" xlink:href="#DejaVuSans-46"/>
       <use x="307.8125" xlink:href="#DejaVuSans-48"/>
       <use x="371.435547" xlink:href="#DejaVuSans-51"/>
       <use x="435.058594" xlink:href="#DejaVuSans-37"/>
       <use x="530.078125" xlink:href="#DejaVuSans-41"/>
      </g>
     </g>
    </g>
    <g id="ytick_14">
     <g id="text_24">
      <!-- DK (0.01%) -->
      <defs>
       <path d="M 9.8125 72.90625 
L 19.671875 72.90625 
L 19.671875 42.09375 
L 52.390625 72.90625 
L 65.09375 72.90625 
L 28.90625 38.921875 
L 67.671875 0 
L 54.6875 0 
L 19.671875 35.109375 
L 19.671875 0 
L 9.8125 0 
z
" id="DejaVuSans-75"/>
      </defs>
      <g style="fill:#262626;" transform="translate(37.5345 121.554222)scale(0.088 -0.088)">
       <use xlink:href="#DejaVuSans-68"/>
       <use x="77.001953" xlink:href="#DejaVuSans-75"/>
       <use x="142.578125" xlink:href="#DejaVuSans-32"/>
       <use x="174.365234" xlink:href="#DejaVuSans-40"/>
       <use x="213.378906" xlink:href="#DejaVuSans-48"/>
       <use x="277.001953" xlink:href="#DejaVuSans-46"/>
       <use x="308.789062" xlink:href="#DejaVuSans-48"/>
       <use x="372.412109" xlink:href="#DejaVuSans-49"/>
       <use x="436.035156" xlink:href="#DejaVuSans-37"/>
       <use x="531.054688" xlink:href="#DejaVuSans-41"/>
      </g>
     </g>
    </g>
    <g id="ytick_15">
     <g id="text_25">
      <!-- MZ (0.01%) -->
      <defs>
       <path d="M 9.8125 72.90625 
L 24.515625 72.90625 
L 43.109375 23.296875 
L 61.8125 72.90625 
L 76.515625 72.90625 
L 76.515625 0 
L 66.890625 0 
L 66.890625 64.015625 
L 48.09375 14.015625 
L 38.1875 14.015625 
L 19.390625 64.015625 
L 19.390625 0 
L 9.8125 0 
z
" id="DejaVuSans-77"/>
      </defs>
      <g style="fill:#262626;" transform="translate(36.460625 127.750585)scale(0.088 -0.088)">
       <use xlink:href="#DejaVuSans-77"/>
       <use x="86.279297" xlink:href="#DejaVuSans-90"/>
       <use x="154.785156" xlink:href="#DejaVuSans-32"/>
       <use x="186.572266" xlink:href="#DejaVuSans-40"/>
       <use x="225.585938" xlink:href="#DejaVuSans-48"/>
       <use x="289.208984" xlink:href="#DejaVuSans-46"/>
       <use x="320.996094" xlink:href="#DejaVuSans-48"/>
       <use x="384.619141" xlink:href="#DejaVuSans-49"/>
       <use x="448.242188" xlink:href="#DejaVuSans-37"/>
       <use x="543.261719" xlink:href="#DejaVuSans-41"/>
      </g>
     </g>
    </g>
    <g id="ytick_16">
     <g id="text_26">
      <!-- RU (0.01%) -->
      <g style="fill:#262626;" transform="translate(37.52625 133.946949)scale(0.088 -0.088)">
       <use xlink:href="#DejaVuSans-82"/>
       <use x="69.482422" xlink:href="#DejaVuSans-85"/>
       <use x="142.675781" xlink:href="#DejaVuSans-32"/>
       <use x="174.462891" xlink:href="#DejaVuSans-40"/>
       <use x="213.476562" xlink:href="#DejaVuSans-48"/>
       <use x="277.099609" xlink:href="#DejaVuSans-46"/>
       <use x="308.886719" xlink:href="#DejaVuSans-48"/>
       <use x="372.509766" xlink:href="#DejaVuSans-49"/>
       <use x="436.132812" xlink:href="#DejaVuSans-37"/>
       <use x="531.152344" xlink:href="#DejaVuSans-41"/>
      </g>
     </g>
    </g>
    <g id="ytick_17">
     <g id="text_27">
      <!-- ES (0.01%) -->
      <defs>
       <path d="M 53.515625 70.515625 
L 53.515625 60.890625 
Q 47.90625 63.578125 42.921875 64.890625 
Q 37.9375 66.21875 33.296875 66.21875 
Q 25.25 66.21875 20.875 63.09375 
Q 16.5 59.96875 16.5 54.203125 
Q 16.5 49.359375 19.40625 46.890625 
Q 22.3125 44.4375 30.421875 42.921875 
L 36.375 41.703125 
Q 47.40625 39.59375 52.65625 34.296875 
Q 57.90625 29 57.90625 20.125 
Q 57.90625 9.515625 50.796875 4.046875 
Q 43.703125 -1.421875 29.984375 -1.421875 
Q 24.8125 -1.421875 18.96875 -0.25 
Q 13.140625 0.921875 6.890625 3.21875 
L 6.890625 13.375 
Q 12.890625 10.015625 18.65625 8.296875 
Q 24.421875 6.59375 29.984375 6.59375 
Q 38.421875 6.59375 43.015625 9.90625 
Q 47.609375 13.234375 47.609375 19.390625 
Q 47.609375 24.75 44.3125 27.78125 
Q 41.015625 30.8125 33.5 32.328125 
L 27.484375 33.5 
Q 16.453125 35.6875 11.515625 40.375 
Q 6.59375 45.0625 6.59375 53.421875 
Q 6.59375 63.09375 13.40625 68.65625 
Q 20.21875 74.21875 32.171875 74.21875 
Q 37.3125 74.21875 42.625 73.28125 
Q 47.953125 72.359375 53.515625 70.515625 
z
" id="DejaVuSans-83"/>
      </defs>
      <g style="fill:#262626;" transform="translate(38.93425 140.143313)scale(0.088 -0.088)">
       <use xlink:href="#DejaVuSans-69"/>
       <use x="63.183594" xlink:href="#DejaVuSans-83"/>
       <use x="126.660156" xlink:href="#DejaVuSans-32"/>
       <use x="158.447266" xlink:href="#DejaVuSans-40"/>
       <use x="197.460938" xlink:href="#DejaVuSans-48"/>
       <use x="261.083984" xlink:href="#DejaVuSans-46"/>
       <use x="292.871094" xlink:href="#DejaVuSans-48"/>
       <use x="356.494141" xlink:href="#DejaVuSans-49"/>
       <use x="420.117188" xlink:href="#DejaVuSans-37"/>
       <use x="515.136719" xlink:href="#DejaVuSans-41"/>
      </g>
     </g>
    </g>
    <g id="ytick_18">
     <g id="text_28">
      <!-- IE (0.01%) -->
      <defs>
       <path d="M 9.8125 72.90625 
L 19.671875 72.90625 
L 19.671875 0 
L 9.8125 0 
z
" id="DejaVuSans-73"/>
      </defs>
      <g style="fill:#262626;" transform="translate(41.924875 146.339676)scale(0.088 -0.088)">
       <use xlink:href="#DejaVuSans-73"/>
       <use x="29.492188" xlink:href="#DejaVuSans-69"/>
       <use x="92.675781" xlink:href="#DejaVuSans-32"/>
       <use x="124.462891" xlink:href="#DejaVuSans-40"/>
       <use x="163.476562" xlink:href="#DejaVuSans-48"/>
       <use x="227.099609" xlink:href="#DejaVuSans-46"/>
       <use x="258.886719" xlink:href="#DejaVuSans-48"/>
       <use x="322.509766" xlink:href="#DejaVuSans-49"/>
       <use x="386.132812" xlink:href="#DejaVuSans-37"/>
       <use x="481.152344" xlink:href="#DejaVuSans-41"/>
      </g>
     </g>
    </g>
    <g id="ytick_19">
     <g id="text_29">
      <!-- JE (0.01%) -->
      <defs>
       <path d="M 9.8125 72.90625 
L 19.671875 72.90625 
L 19.671875 5.078125 
Q 19.671875 -8.109375 14.671875 -14.0625 
Q 9.671875 -20.015625 -1.421875 -20.015625 
L -5.171875 -20.015625 
L -5.171875 -11.71875 
L -2.09375 -11.71875 
Q 4.4375 -11.71875 7.125 -8.046875 
Q 9.8125 -4.390625 9.8125 5.078125 
z
" id="DejaVuSans-74"/>
      </defs>
      <g style="fill:#262626;" transform="translate(41.924875 152.53604)scale(0.088 -0.088)">
       <use xlink:href="#DejaVuSans-74"/>
       <use x="29.492188" xlink:href="#DejaVuSans-69"/>
       <use x="92.675781" xlink:href="#DejaVuSans-32"/>
       <use x="124.462891" xlink:href="#DejaVuSans-40"/>
       <use x="163.476562" xlink:href="#DejaVuSans-48"/>
       <use x="227.099609" xlink:href="#DejaVuSans-46"/>
       <use x="258.886719" xlink:href="#DejaVuSans-48"/>
       <use x="322.509766" xlink:href="#DejaVuSans-49"/>
       <use x="386.132812" xlink:href="#DejaVuSans-37"/>
       <use x="481.152344" xlink:href="#DejaVuSans-41"/>
      </g>
     </g>
    </g>
    <g id="ytick_20">
     <g id="text_30">
      <!-- LU (0.01%) -->
      <g style="fill:#262626;" transform="translate(38.7445 158.732403)scale(0.088 -0.088)">
       <use xlink:href="#DejaVuSans-76"/>
       <use x="55.634766" xlink:href="#DejaVuSans-85"/>
       <use x="128.828125" xlink:href="#DejaVuSans-32"/>
       <use x="160.615234" xlink:href="#DejaVuSans-40"/>
       <use x="199.628906" xlink:href="#DejaVuSans-48"/>
       <use x="263.251953" xlink:href="#DejaVuSans-46"/>
       <use x="295.039062" xlink:href="#DejaVuSans-48"/>
       <use x="358.662109" xlink:href="#DejaVuSans-49"/>
       <use x="422.285156" xlink:href="#DejaVuSans-37"/>
       <use x="517.304688" xlink:href="#DejaVuSans-41"/>
      </g>
     </g>
    </g>
    <g id="ytick_21">
     <g id="text_31">
      <!-- UG (0.01%) -->
      <g style="fill:#262626;" transform="translate(36.82225 164.928767)scale(0.088 -0.088)">
       <use xlink:href="#DejaVuSans-85"/>
       <use x="73.193359" xlink:href="#DejaVuSans-71"/>
       <use x="150.683594" xlink:href="#DejaVuSans-32"/>
       <use x="182.470703" xlink:href="#DejaVuSans-40"/>
       <use x="221.484375" xlink:href="#DejaVuSans-48"/>
       <use x="285.107422" xlink:href="#DejaVuSans-46"/>
       <use x="316.894531" xlink:href="#DejaVuSans-48"/>
       <use x="380.517578" xlink:href="#DejaVuSans-49"/>
       <use x="444.140625" xlink:href="#DejaVuSans-37"/>
       <use x="539.160156" xlink:href="#DejaVuSans-41"/>
      </g>
     </g>
    </g>
    <g id="ytick_22">
     <g id="text_32">
      <!-- TR (0.01%) -->
      <g style="fill:#262626;" transform="translate(38.591875 171.125131)scale(0.088 -0.088)">
       <use xlink:href="#DejaVuSans-84"/>
       <use x="61.083984" xlink:href="#DejaVuSans-82"/>
       <use x="130.566406" xlink:href="#DejaVuSans-32"/>
       <use x="162.353516" xlink:href="#DejaVuSans-40"/>
       <use x="201.367188" xlink:href="#DejaVuSans-48"/>
       <use x="264.990234" xlink:href="#DejaVuSans-46"/>
       <use x="296.777344" xlink:href="#DejaVuSans-48"/>
       <use x="360.400391" xlink:href="#DejaVuSans-49"/>
       <use x="424.023438" xlink:href="#DejaVuSans-37"/>
       <use x="519.042969" xlink:href="#DejaVuSans-41"/>
      </g>
     </g>
    </g>
    <g id="ytick_23">
     <g id="text_33">
      <!-- US (0.00%) -->
      <g style="fill:#262626;" transform="translate(38.05425 177.321494)scale(0.088 -0.088)">
       <use xlink:href="#DejaVuSans-85"/>
       <use x="73.193359" xlink:href="#DejaVuSans-83"/>
       <use x="136.669922" xlink:href="#DejaVuSans-32"/>
       <use x="168.457031" xlink:href="#DejaVuSans-40"/>
       <use x="207.470703" xlink:href="#DejaVuSans-48"/>
       <use x="271.09375" xlink:href="#DejaVuSans-46"/>
       <use x="302.880859" xlink:href="#DejaVuSans-48"/>
       <use x="366.503906" xlink:href="#DejaVuSans-48"/>
       <use x="430.126953" xlink:href="#DejaVuSans-37"/>
       <use x="525.146484" xlink:href="#DejaVuSans-41"/>
      </g>
     </g>
    </g>
    <g id="ytick_24">
     <g id="text_34">
      <!-- CA (0.00%) -->
      <g style="fill:#262626;" transform="translate(37.91675 183.517858)scale(0.088 -0.088)">
       <use xlink:href="#DejaVuSans-67"/>
       <use x="69.824219" xlink:href="#DejaVuSans-65"/>
       <use x="138.232422" xlink:href="#DejaVuSans-32"/>
       <use x="170.019531" xlink:href="#DejaVuSans-40"/>
       <use x="209.033203" xlink:href="#DejaVuSans-48"/>
       <use x="272.65625" xlink:href="#DejaVuSans-46"/>
       <use x="304.443359" xlink:href="#DejaVuSans-48"/>
       <use x="368.066406" xlink:href="#DejaVuSans-48"/>
       <use x="431.689453" xlink:href="#DejaVuSans-37"/>
       <use x="526.708984" xlink:href="#DejaVuSans-41"/>
      </g>
     </g>
    </g>
    <g id="ytick_25">
     <g id="text_35">
      <!-- KE (0.00%) -->
      <g style="fill:#262626;" transform="translate(38.75 189.714222)scale(0.088 -0.088)">
       <use xlink:href="#DejaVuSans-75"/>
       <use x="65.576172" xlink:href="#DejaVuSans-69"/>
       <use x="128.759766" xlink:href="#DejaVuSans-32"/>
       <use x="160.546875" xlink:href="#DejaVuSans-40"/>
       <use x="199.560547" xlink:href="#DejaVuSans-48"/>
       <use x="263.183594" xlink:href="#DejaVuSans-46"/>
       <use x="294.970703" xlink:href="#DejaVuSans-48"/>
       <use x="358.59375" xlink:href="#DejaVuSans-48"/>
       <use x="422.216797" xlink:href="#DejaVuSans-37"/>
       <use x="517.236328" xlink:href="#DejaVuSans-41"/>
      </g>
     </g>
    </g>
    <g id="ytick_26">
     <g id="text_36">
      <!-- BI (0.00%) -->
      <g style="fill:#262626;" transform="translate(41.44775 195.910585)scale(0.088 -0.088)">
       <use xlink:href="#DejaVuSans-66"/>
       <use x="68.603516" xlink:href="#DejaVuSans-73"/>
       <use x="98.095703" xlink:href="#DejaVuSans-32"/>
       <use x="129.882812" xlink:href="#DejaVuSans-40"/>
       <use x="168.896484" xlink:href="#DejaVuSans-48"/>
       <use x="232.519531" xlink:href="#DejaVuSans-46"/>
       <use x="264.306641" xlink:href="#DejaVuSans-48"/>
       <use x="327.929688" xlink:href="#DejaVuSans-48"/>
       <use x="391.552734" xlink:href="#DejaVuSans-37"/>
       <use x="486.572266" xlink:href="#DejaVuSans-41"/>
      </g>
     </g>
    </g>
    <g id="ytick_27">
     <g id="text_37">
      <!-- MC (0.00%) -->
      <g style="fill:#262626;" transform="translate(36.34375 202.106949)scale(0.088 -0.088)">
       <use xlink:href="#DejaVuSans-77"/>
       <use x="86.279297" xlink:href="#DejaVuSans-67"/>
       <use x="156.103516" xlink:href="#DejaVuSans-32"/>
       <use x="187.890625" xlink:href="#DejaVuSans-40"/>
       <use x="226.904297" xlink:href="#DejaVuSans-48"/>
       <use x="290.527344" xlink:href="#DejaVuSans-46"/>
       <use x="322.314453" xlink:href="#DejaVuSans-48"/>
       <use x="385.9375" xlink:href="#DejaVuSans-48"/>
       <use x="449.560547" xlink:href="#DejaVuSans-37"/>
       <use x="544.580078" xlink:href="#DejaVuSans-41"/>
      </g>
     </g>
    </g>
    <g id="ytick_28">
     <g id="text_38">
      <!-- CN (0.00%) -->
      <g style="fill:#262626;" transform="translate(37.353 208.303313)scale(0.088 -0.088)">
       <use xlink:href="#DejaVuSans-67"/>
       <use x="69.824219" xlink:href="#DejaVuSans-78"/>
       <use x="144.628906" xlink:href="#DejaVuSans-32"/>
       <use x="176.416016" xlink:href="#DejaVuSans-40"/>
       <use x="215.429688" xlink:href="#DejaVuSans-48"/>
       <use x="279.052734" xlink:href="#DejaVuSans-46"/>
       <use x="310.839844" xlink:href="#DejaVuSans-48"/>
       <use x="374.462891" xlink:href="#DejaVuSans-48"/>
       <use x="438.085938" xlink:href="#DejaVuSans-37"/>
       <use x="533.105469" xlink:href="#DejaVuSans-41"/>
      </g>
     </g>
    </g>
    <g id="ytick_29">
     <g id="text_39">
      <!-- ZW (0.00%) -->
      <defs>
       <path d="M 3.328125 72.90625 
L 13.28125 72.90625 
L 28.609375 11.28125 
L 43.890625 72.90625 
L 54.984375 72.90625 
L 70.3125 11.28125 
L 85.59375 72.90625 
L 95.609375 72.90625 
L 77.296875 0 
L 64.890625 0 
L 49.515625 63.28125 
L 33.984375 0 
L 21.578125 0 
z
" id="DejaVuSans-87"/>
      </defs>
      <g style="fill:#262626;" transform="translate(35.352375 214.499676)scale(0.088 -0.088)">
       <use xlink:href="#DejaVuSans-90"/>
       <use x="68.505859" xlink:href="#DejaVuSans-87"/>
       <use x="167.382812" xlink:href="#DejaVuSans-32"/>
       <use x="199.169922" xlink:href="#DejaVuSans-40"/>
       <use x="238.183594" xlink:href="#DejaVuSans-48"/>
       <use x="301.806641" xlink:href="#DejaVuSans-46"/>
       <use x="333.59375" xlink:href="#DejaVuSans-48"/>
       <use x="397.216797" xlink:href="#DejaVuSans-48"/>
       <use x="460.839844" xlink:href="#DejaVuSans-37"/>
       <use x="555.859375" xlink:href="#DejaVuSans-41"/>
      </g>
     </g>
    </g>
    <g id="ytick_30">
     <g id="text_40">
      <!-- PT (0.00%) -->
      <g style="fill:#262626;" transform="translate(39.400375 220.69604)scale(0.088 -0.088)">
       <use xlink:href="#DejaVuSans-80"/>
       <use x="60.302734" xlink:href="#DejaVuSans-84"/>
       <use x="121.386719" xlink:href="#DejaVuSans-32"/>
       <use x="153.173828" xlink:href="#DejaVuSans-40"/>
       <use x="192.1875" xlink:href="#DejaVuSans-48"/>
       <use x="255.810547" xlink:href="#DejaVuSans-46"/>
       <use x="287.597656" xlink:href="#DejaVuSans-48"/>
       <use x="351.220703" xlink:href="#DejaVuSans-48"/>
       <use x="414.84375" xlink:href="#DejaVuSans-37"/>
       <use x="509.863281" xlink:href="#DejaVuSans-41"/>
      </g>
     </g>
    </g>
    <g id="ytick_31">
     <g id="text_41">
      <!-- RW (0.00%) -->
      <g style="fill:#262626;" transform="translate(35.27125 226.892403)scale(0.088 -0.088)">
       <use xlink:href="#DejaVuSans-82"/>
       <use x="69.419922" xlink:href="#DejaVuSans-87"/>
       <use x="168.296875" xlink:href="#DejaVuSans-32"/>
       <use x="200.083984" xlink:href="#DejaVuSans-40"/>
       <use x="239.097656" xlink:href="#DejaVuSans-48"/>
       <use x="302.720703" xlink:href="#DejaVuSans-46"/>
       <use x="334.507812" xlink:href="#DejaVuSans-48"/>
       <use x="398.130859" xlink:href="#DejaVuSans-48"/>
       <use x="461.753906" xlink:href="#DejaVuSans-37"/>
       <use x="556.773438" xlink:href="#DejaVuSans-41"/>
      </g>
     </g>
    </g>
    <g id="ytick_32">
     <g id="text_42">
      <!-- DZ (0.00%) -->
      <g style="fill:#262626;" transform="translate(37.277375 233.088767)scale(0.088 -0.088)">
       <use xlink:href="#DejaVuSans-68"/>
       <use x="77.001953" xlink:href="#DejaVuSans-90"/>
       <use x="145.507812" xlink:href="#DejaVuSans-32"/>
       <use x="177.294922" xlink:href="#DejaVuSans-40"/>
       <use x="216.308594" xlink:href="#DejaVuSans-48"/>
       <use x="279.931641" xlink:href="#DejaVuSans-46"/>
       <use x="311.71875" xlink:href="#DejaVuSans-48"/>
       <use x="375.341797" xlink:href="#DejaVuSans-48"/>
       <use x="438.964844" xlink:href="#DejaVuSans-37"/>
       <use x="533.984375" xlink:href="#DejaVuSans-41"/>
      </g>
     </g>
    </g>
    <g id="ytick_33">
     <g id="text_43">
      <!-- ZA (0.00%) -->
      <g style="fill:#262626;" transform="translate(38.033625 239.285131)scale(0.088 -0.088)">
       <use xlink:href="#DejaVuSans-90"/>
       <use x="68.505859" xlink:href="#DejaVuSans-65"/>
       <use x="136.914062" xlink:href="#DejaVuSans-32"/>
       <use x="168.701172" xlink:href="#DejaVuSans-40"/>
       <use x="207.714844" xlink:href="#DejaVuSans-48"/>
       <use x="271.337891" xlink:href="#DejaVuSans-46"/>
       <use x="303.125" xlink:href="#DejaVuSans-48"/>
       <use x="366.748047" xlink:href="#DejaVuSans-48"/>
       <use x="430.371094" xlink:href="#DejaVuSans-37"/>
       <use x="525.390625" xlink:href="#DejaVuSans-41"/>
      </g>
     </g>
    </g>
    <g id="text_44">
     <!-- died_country -->
     <defs>
      <path d="M 45.40625 46.390625 
L 45.40625 75.984375 
L 54.390625 75.984375 
L 54.390625 0 
L 45.40625 0 
L 45.40625 8.203125 
Q 42.578125 3.328125 38.25 0.953125 
Q 33.9375 -1.421875 27.875 -1.421875 
Q 17.96875 -1.421875 11.734375 6.484375 
Q 5.515625 14.40625 5.515625 27.296875 
Q 5.515625 40.1875 11.734375 48.09375 
Q 17.96875 56 27.875 56 
Q 33.9375 56 38.25 53.625 
Q 42.578125 51.265625 45.40625 46.390625 
z
M 14.796875 27.296875 
Q 14.796875 17.390625 18.875 11.75 
Q 22.953125 6.109375 30.078125 6.109375 
Q 37.203125 6.109375 41.296875 11.75 
Q 45.40625 17.390625 45.40625 27.296875 
Q 45.40625 37.203125 41.296875 42.84375 
Q 37.203125 48.484375 30.078125 48.484375 
Q 22.953125 48.484375 18.875 42.84375 
Q 14.796875 37.203125 14.796875 27.296875 
z
" id="DejaVuSans-100"/>
      <path d="M 9.421875 54.6875 
L 18.40625 54.6875 
L 18.40625 0 
L 9.421875 0 
z
M 9.421875 75.984375 
L 18.40625 75.984375 
L 18.40625 64.59375 
L 9.421875 64.59375 
z
" id="DejaVuSans-105"/>
      <path d="M 56.203125 29.59375 
L 56.203125 25.203125 
L 14.890625 25.203125 
Q 15.484375 15.921875 20.484375 11.0625 
Q 25.484375 6.203125 34.421875 6.203125 
Q 39.59375 6.203125 44.453125 7.46875 
Q 49.3125 8.734375 54.109375 11.28125 
L 54.109375 2.78125 
Q 49.265625 0.734375 44.1875 -0.34375 
Q 39.109375 -1.421875 33.890625 -1.421875 
Q 20.796875 -1.421875 13.15625 6.1875 
Q 5.515625 13.8125 5.515625 26.8125 
Q 5.515625 40.234375 12.765625 48.109375 
Q 20.015625 56 32.328125 56 
Q 43.359375 56 49.78125 48.890625 
Q 56.203125 41.796875 56.203125 29.59375 
z
M 47.21875 32.234375 
Q 47.125 39.59375 43.09375 43.984375 
Q 39.0625 48.390625 32.421875 48.390625 
Q 24.90625 48.390625 20.390625 44.140625 
Q 15.875 39.890625 15.1875 32.171875 
z
" id="DejaVuSans-101"/>
      <path d="M 50.984375 -16.609375 
L 50.984375 -23.578125 
L -0.984375 -23.578125 
L -0.984375 -16.609375 
z
" id="DejaVuSans-95"/>
      <path d="M 41.109375 46.296875 
Q 39.59375 47.171875 37.8125 47.578125 
Q 36.03125 48 33.890625 48 
Q 26.265625 48 22.1875 43.046875 
Q 18.109375 38.09375 18.109375 28.8125 
L 18.109375 0 
L 9.078125 0 
L 9.078125 54.6875 
L 18.109375 54.6875 
L 18.109375 46.1875 
Q 20.953125 51.171875 25.484375 53.578125 
Q 30.03125 56 36.53125 56 
Q 37.453125 56 38.578125 55.875 
Q 39.703125 55.765625 41.0625 55.515625 
z
" id="DejaVuSans-114"/>
      <path d="M 32.171875 -5.078125 
Q 28.375 -14.84375 24.75 -17.8125 
Q 21.140625 -20.796875 15.09375 -20.796875 
L 7.90625 -20.796875 
L 7.90625 -13.28125 
L 13.1875 -13.28125 
Q 16.890625 -13.28125 18.9375 -11.515625 
Q 21 -9.765625 23.484375 -3.21875 
L 25.09375 0.875 
L 2.984375 54.6875 
L 12.5 54.6875 
L 29.59375 11.921875 
L 46.6875 54.6875 
L 56.203125 54.6875 
z
" id="DejaVuSans-121"/>
     </defs>
     <g style="fill:#262626;" transform="translate(14.53725 167.93775)rotate(-90)scale(0.096 -0.096)">
      <use xlink:href="#DejaVuSans-100"/>
      <use x="63.476562" xlink:href="#DejaVuSans-105"/>
      <use x="91.259766" xlink:href="#DejaVuSans-101"/>
      <use x="152.783203" xlink:href="#DejaVuSans-100"/>
      <use x="216.259766" xlink:href="#DejaVuSans-95"/>
      <use x="266.259766" xlink:href="#DejaVuSans-99"/>
      <use x="321.240234" xlink:href="#DejaVuSans-111"/>
      <use x="382.421875" xlink:href="#DejaVuSans-117"/>
      <use x="445.800781" xlink:href="#DejaVuSans-110"/>
      <use x="509.179688" xlink:href="#DejaVuSans-116"/>
      <use x="548.388672" xlink:href="#DejaVuSans-114"/>
      <use x="589.501953" xlink:href="#DejaVuSans-121"/>
     </g>
    </g>
   </g>
   <g id="patch_3">
    <path clip-path="url(#p47e3748896)" d="M 97.2 35.179636 
L 560.057143 35.179636 
L 560.057143 40.136727 
L 97.2 40.136727 
z
" style="fill:#ea96a3;stroke:#ffffff;stroke-linejoin:miter;"/>
   </g>
   <g id="patch_4">
    <path clip-path="url(#p47e3748896)" d="M 97.2 41.376 
L 258.497291 41.376 
L 258.497291 46.333091 
L 97.2 46.333091 
z
" style="fill:#e99793;stroke:#ffffff;stroke-linejoin:miter;"/>
   </g>
   <g id="patch_5">
    <path clip-path="url(#p47e3748896)" d="M 97.2 47.572364 
L 168.58778 47.572364 
L 168.58778 52.529455 
L 97.2 52.529455 
z
" style="fill:#e69578;stroke:#ffffff;stroke-linejoin:miter;"/>
   </g>
   <g id="patch_6">
    <path clip-path="url(#p47e3748896)" d="M 97.2 53.768727 
L 116.699009 53.768727 
L 116.699009 58.725818 
L 97.2 58.725818 
z
" style="fill:#dc924e;stroke:#ffffff;stroke-linejoin:miter;"/>
   </g>
   <g id="patch_7">
    <path clip-path="url(#p47e3748896)" d="M 97.2 59.965091 
L 103.249812 59.965091 
L 103.249812 64.922182 
L 97.2 64.922182 
z
" style="fill:#cc974c;stroke:#ffffff;stroke-linejoin:miter;"/>
   </g>
   <g id="patch_8">
    <path clip-path="url(#p47e3748896)" d="M 97.2 66.161455 
L 103.156738 66.161455 
L 103.156738 71.118545 
L 97.2 71.118545 
z
" style="fill:#bf9a4a;stroke:#ffffff;stroke-linejoin:miter;"/>
   </g>
   <g id="patch_9">
    <path clip-path="url(#p47e3748896)" d="M 97.2 72.357818 
L 97.991129 72.357818 
L 97.991129 77.314909 
L 97.2 77.314909 
z
" style="fill:#b39d48;stroke:#ffffff;stroke-linejoin:miter;"/>
   </g>
   <g id="patch_10">
    <path clip-path="url(#p47e3748896)" d="M 97.2 78.554182 
L 97.66537 78.554182 
L 97.66537 83.511273 
L 97.2 83.511273 
z
" style="fill:#a79f46;stroke:#ffffff;stroke-linejoin:miter;"/>
   </g>
   <g id="patch_11">
    <path clip-path="url(#p47e3748896)" d="M 97.2 84.750545 
L 97.66537 84.750545 
L 97.66537 89.707636 
L 97.2 89.707636 
z
" style="fill:#9ba146;stroke:#ffffff;stroke-linejoin:miter;"/>
   </g>
   <g id="patch_12">
    <path clip-path="url(#p47e3748896)" d="M 97.2 90.946909 
L 97.642102 90.946909 
L 97.642102 95.904 
L 97.2 95.904 
z
" style="fill:#8ea546;stroke:#ffffff;stroke-linejoin:miter;"/>
   </g>
   <g id="patch_13">
    <path clip-path="url(#p47e3748896)" d="M 97.2 97.143273 
L 97.502491 97.143273 
L 97.502491 102.100364 
L 97.2 102.100364 
z
" style="fill:#7da947;stroke:#ffffff;stroke-linejoin:miter;"/>
   </g>
   <g id="patch_14">
    <path clip-path="url(#p47e3748896)" d="M 97.2 103.339636 
L 97.455954 103.339636 
L 97.455954 108.296727 
L 97.2 108.296727 
z
" style="fill:#60ae47;stroke:#ffffff;stroke-linejoin:miter;"/>
   </g>
   <g id="patch_15">
    <path clip-path="url(#p47e3748896)" d="M 97.2 109.536 
L 97.432685 109.536 
L 97.432685 114.493091 
L 97.2 114.493091 
z
" style="fill:#48b067;stroke:#ffffff;stroke-linejoin:miter;"/>
   </g>
   <g id="patch_16">
    <path clip-path="url(#p47e3748896)" d="M 97.2 115.732364 
L 97.293074 115.732364 
L 97.293074 120.689455 
L 97.2 120.689455 
z
" style="fill:#49ae7f;stroke:#ffffff;stroke-linejoin:miter;"/>
   </g>
   <g id="patch_17">
    <path clip-path="url(#p47e3748896)" d="M 97.2 121.928727 
L 97.269806 121.928727 
L 97.269806 126.885818 
L 97.2 126.885818 
z
" style="fill:#4aad8d;stroke:#ffffff;stroke-linejoin:miter;"/>
   </g>
   <g id="patch_18">
    <path clip-path="url(#p47e3748896)" d="M 97.2 128.125091 
L 97.269806 128.125091 
L 97.269806 133.082182 
L 97.2 133.082182 
z
" style="fill:#4aac98;stroke:#ffffff;stroke-linejoin:miter;"/>
   </g>
   <g id="patch_19">
    <path clip-path="url(#p47e3748896)" d="M 97.2 134.321455 
L 97.269806 134.321455 
L 97.269806 139.278545 
L 97.2 139.278545 
z
" style="fill:#4baca0;stroke:#ffffff;stroke-linejoin:miter;"/>
   </g>
   <g id="patch_20">
    <path clip-path="url(#p47e3748896)" d="M 97.2 140.517818 
L 97.246537 140.517818 
L 97.246537 145.474909 
L 97.2 145.474909 
z
" style="fill:#4baba8;stroke:#ffffff;stroke-linejoin:miter;"/>
   </g>
   <g id="patch_21">
    <path clip-path="url(#p47e3748896)" d="M 97.2 146.714182 
L 97.246537 146.714182 
L 97.246537 151.671273 
L 97.2 151.671273 
z
" style="fill:#4dabb0;stroke:#ffffff;stroke-linejoin:miter;"/>
   </g>
   <g id="patch_22">
    <path clip-path="url(#p47e3748896)" d="M 97.2 152.910545 
L 97.246537 152.910545 
L 97.246537 157.867636 
L 97.2 157.867636 
z
" style="fill:#4fabba;stroke:#ffffff;stroke-linejoin:miter;"/>
   </g>
   <g id="patch_23">
    <path clip-path="url(#p47e3748896)" d="M 97.2 159.106909 
L 97.246537 159.106909 
L 97.246537 164.064 
L 97.2 164.064 
z
" style="fill:#51acc5;stroke:#ffffff;stroke-linejoin:miter;"/>
   </g>
   <g id="patch_24">
    <path clip-path="url(#p47e3748896)" d="M 97.2 165.303273 
L 97.246537 165.303273 
L 97.246537 170.260364 
L 97.2 170.260364 
z
" style="fill:#54acd3;stroke:#ffffff;stroke-linejoin:miter;"/>
   </g>
   <g id="patch_25">
    <path clip-path="url(#p47e3748896)" d="M 97.2 171.499636 
L 97.223269 171.499636 
L 97.223269 176.456727 
L 97.2 176.456727 
z
" style="fill:#6daee2;stroke:#ffffff;stroke-linejoin:miter;"/>
   </g>
   <g id="patch_26">
    <path clip-path="url(#p47e3748896)" d="M 97.2 177.696 
L 97.223269 177.696 
L 97.223269 182.653091 
L 97.2 182.653091 
z
" style="fill:#91aee8;stroke:#ffffff;stroke-linejoin:miter;"/>
   </g>
   <g id="patch_27">
    <path clip-path="url(#p47e3748896)" d="M 97.2 183.892364 
L 97.223269 183.892364 
L 97.223269 188.849455 
L 97.2 188.849455 
z
" style="fill:#a9aceb;stroke:#ffffff;stroke-linejoin:miter;"/>
   </g>
   <g id="patch_28">
    <path clip-path="url(#p47e3748896)" d="M 97.2 190.088727 
L 97.223269 190.088727 
L 97.223269 195.045818 
L 97.2 195.045818 
z
" style="fill:#baa6ea;stroke:#ffffff;stroke-linejoin:miter;"/>
   </g>
   <g id="patch_29">
    <path clip-path="url(#p47e3748896)" d="M 97.2 196.285091 
L 97.223269 196.285091 
L 97.223269 201.242182 
L 97.2 201.242182 
z
" style="fill:#c89fe9;stroke:#ffffff;stroke-linejoin:miter;"/>
   </g>
   <g id="patch_30">
    <path clip-path="url(#p47e3748896)" d="M 97.2 202.481455 
L 97.223269 202.481455 
L 97.223269 207.438545 
L 97.2 207.438545 
z
" style="fill:#d795e8;stroke:#ffffff;stroke-linejoin:miter;"/>
   </g>
   <g id="patch_31">
    <path clip-path="url(#p47e3748896)" d="M 97.2 208.677818 
L 97.223269 208.677818 
L 97.223269 213.634909 
L 97.2 213.634909 
z
" style="fill:#e688e5;stroke:#ffffff;stroke-linejoin:miter;"/>
   </g>
   <g id="patch_32">
    <path clip-path="url(#p47e3748896)" d="M 97.2 214.874182 
L 97.223269 214.874182 
L 97.223269 219.831273 
L 97.2 219.831273 
z
" style="fill:#e78dd6;stroke:#ffffff;stroke-linejoin:miter;"/>
   </g>
   <g id="patch_33">
    <path clip-path="url(#p47e3748896)" d="M 97.2 221.070545 
L 97.223269 221.070545 
L 97.223269 226.027636 
L 97.2 226.027636 
z
" style="fill:#e88fc9;stroke:#ffffff;stroke-linejoin:miter;"/>
   </g>
   <g id="patch_34">
    <path clip-path="url(#p47e3748896)" d="M 97.2 227.266909 
L 97.223269 227.266909 
L 97.223269 232.224 
L 97.2 232.224 
z
" style="fill:#e992bd;stroke:#ffffff;stroke-linejoin:miter;"/>
   </g>
   <g id="patch_35">
    <path clip-path="url(#p47e3748896)" d="M 97.2 233.463273 
L 97.223269 233.463273 
L 97.223269 238.420364 
L 97.2 238.420364 
z
" style="fill:#e994b1;stroke:#ffffff;stroke-linejoin:miter;"/>
   </g>
   <g id="patch_36">
    <path d="M 97.2 239.04 
L 97.2 34.56 
" style="fill:none;stroke:#ffffff;stroke-linecap:square;stroke-linejoin:miter;stroke-width:1.25;"/>
   </g>
   <g id="patch_37">
    <path d="M 583.2 239.04 
L 583.2 34.56 
" style="fill:none;stroke:#ffffff;stroke-linecap:square;stroke-linejoin:miter;stroke-width:1.25;"/>
   </g>
   <g id="patch_38">
    <path d="M 97.2 239.04 
L 583.2 239.04 
" style="fill:none;stroke:#ffffff;stroke-linecap:square;stroke-linejoin:miter;stroke-width:1.25;"/>
   </g>
   <g id="patch_39">
    <path d="M 97.2 34.56 
L 583.2 34.56 
" style="fill:none;stroke:#ffffff;stroke-linecap:square;stroke-linejoin:miter;stroke-width:1.25;"/>
   </g>
   <g id="text_45">
    <!-- Segmented per died_country -->
    <defs>
     <path d="M 45.40625 27.984375 
Q 45.40625 37.75 41.375 43.109375 
Q 37.359375 48.484375 30.078125 48.484375 
Q 22.859375 48.484375 18.828125 43.109375 
Q 14.796875 37.75 14.796875 27.984375 
Q 14.796875 18.265625 18.828125 12.890625 
Q 22.859375 7.515625 30.078125 7.515625 
Q 37.359375 7.515625 41.375 12.890625 
Q 45.40625 18.265625 45.40625 27.984375 
z
M 54.390625 6.78125 
Q 54.390625 -7.171875 48.1875 -13.984375 
Q 42 -20.796875 29.203125 -20.796875 
Q 24.46875 -20.796875 20.265625 -20.09375 
Q 16.0625 -19.390625 12.109375 -17.921875 
L 12.109375 -9.1875 
Q 16.0625 -11.328125 19.921875 -12.34375 
Q 23.78125 -13.375 27.78125 -13.375 
Q 36.625 -13.375 41.015625 -8.765625 
Q 45.40625 -4.15625 45.40625 5.171875 
L 45.40625 9.625 
Q 42.625 4.78125 38.28125 2.390625 
Q 33.9375 0 27.875 0 
Q 17.828125 0 11.671875 7.65625 
Q 5.515625 15.328125 5.515625 27.984375 
Q 5.515625 40.671875 11.671875 48.328125 
Q 17.828125 56 27.875 56 
Q 33.9375 56 38.28125 53.609375 
Q 42.625 51.21875 45.40625 46.390625 
L 45.40625 54.6875 
L 54.390625 54.6875 
z
" id="DejaVuSans-103"/>
     <path d="M 52 44.1875 
Q 55.375 50.25 60.0625 53.125 
Q 64.75 56 71.09375 56 
Q 79.640625 56 84.28125 50.015625 
Q 88.921875 44.046875 88.921875 33.015625 
L 88.921875 0 
L 79.890625 0 
L 79.890625 32.71875 
Q 79.890625 40.578125 77.09375 44.375 
Q 74.3125 48.1875 68.609375 48.1875 
Q 61.625 48.1875 57.5625 43.546875 
Q 53.515625 38.921875 53.515625 30.90625 
L 53.515625 0 
L 44.484375 0 
L 44.484375 32.71875 
Q 44.484375 40.625 41.703125 44.40625 
Q 38.921875 48.1875 33.109375 48.1875 
Q 26.21875 48.1875 22.15625 43.53125 
Q 18.109375 38.875 18.109375 30.90625 
L 18.109375 0 
L 9.078125 0 
L 9.078125 54.6875 
L 18.109375 54.6875 
L 18.109375 46.1875 
Q 21.1875 51.21875 25.484375 53.609375 
Q 29.78125 56 35.6875 56 
Q 41.65625 56 45.828125 52.96875 
Q 50 49.953125 52 44.1875 
z
" id="DejaVuSans-109"/>
     <path d="M 18.109375 8.203125 
L 18.109375 -20.796875 
L 9.078125 -20.796875 
L 9.078125 54.6875 
L 18.109375 54.6875 
L 18.109375 46.390625 
Q 20.953125 51.265625 25.265625 53.625 
Q 29.59375 56 35.59375 56 
Q 45.5625 56 51.78125 48.09375 
Q 58.015625 40.1875 58.015625 27.296875 
Q 58.015625 14.40625 51.78125 6.484375 
Q 45.5625 -1.421875 35.59375 -1.421875 
Q 29.59375 -1.421875 25.265625 0.953125 
Q 20.953125 3.328125 18.109375 8.203125 
z
M 48.6875 27.296875 
Q 48.6875 37.203125 44.609375 42.84375 
Q 40.53125 48.484375 33.40625 48.484375 
Q 26.265625 48.484375 22.1875 42.84375 
Q 18.109375 37.203125 18.109375 27.296875 
Q 18.109375 17.390625 22.1875 11.75 
Q 26.265625 6.109375 33.40625 6.109375 
Q 40.53125 6.109375 44.609375 11.75 
Q 48.6875 17.390625 48.6875 27.296875 
z
" id="DejaVuSans-112"/>
    </defs>
    <g style="fill:#262626;" transform="translate(270.43575 28.56)scale(0.096 -0.096)">
     <use xlink:href="#DejaVuSans-83"/>
     <use x="63.476562" xlink:href="#DejaVuSans-101"/>
     <use x="125" xlink:href="#DejaVuSans-103"/>
     <use x="188.476562" xlink:href="#DejaVuSans-109"/>
     <use x="285.888672" xlink:href="#DejaVuSans-101"/>
     <use x="347.412109" xlink:href="#DejaVuSans-110"/>
     <use x="410.791016" xlink:href="#DejaVuSans-116"/>
     <use x="450" xlink:href="#DejaVuSans-101"/>
     <use x="511.523438" xlink:href="#DejaVuSans-100"/>
     <use x="575" xlink:href="#DejaVuSans-32"/>
     <use x="606.787109" xlink:href="#DejaVuSans-112"/>
     <use x="670.263672" xlink:href="#DejaVuSans-101"/>
     <use x="731.787109" xlink:href="#DejaVuSans-114"/>
     <use x="772.900391" xlink:href="#DejaVuSans-32"/>
     <use x="804.6875" xlink:href="#DejaVuSans-100"/>
     <use x="868.164062" xlink:href="#DejaVuSans-105"/>
     <use x="895.947266" xlink:href="#DejaVuSans-101"/>
     <use x="957.470703" xlink:href="#DejaVuSans-100"/>
     <use x="1020.947266" xlink:href="#DejaVuSans-95"/>
     <use x="1070.947266" xlink:href="#DejaVuSans-99"/>
     <use x="1125.927734" xlink:href="#DejaVuSans-111"/>
     <use x="1187.109375" xlink:href="#DejaVuSans-117"/>
     <use x="1250.488281" xlink:href="#DejaVuSans-110"/>
     <use x="1313.867188" xlink:href="#DejaVuSans-116"/>
     <use x="1353.076172" xlink:href="#DejaVuSans-114"/>
     <use x="1394.189453" xlink:href="#DejaVuSans-121"/>
    </g>
   </g>
  </g>
 </g>
 <defs>
  <clipPath id="p47e3748896">
   <rect height="204.48" width="486" x="97.2" y="34.56"/>
  </clipPath>
 </defs>
</svg>
