<?xml version="1.0" encoding="utf-8" standalone="no"?>
<!DOCTYPE svg PUBLIC "-//W3C//DTD SVG 1.1//EN"
  "http://www.w3.org/Graphics/SVG/1.1/DTD/svg11.dtd">
<!-- Created with matplotlib (https://matplotlib.org/) -->
<svg height="432pt" version="1.1" viewBox="0 0 360 432" width="360pt" xmlns="http://www.w3.org/2000/svg" xmlns:xlink="http://www.w3.org/1999/xlink">
 <defs>
  <style type="text/css">
*{stroke-linecap:butt;stroke-linejoin:round;}
  </style>
 </defs>
 <g id="figure_1">
  <g id="patch_1">
   <path d="M 0 432 
L 360 432 
L 360 0 
L 0 0 
z
" style="fill:#ffffff;"/>
  </g>
  <g id="axes_1">
   <g id="patch_2">
    <path d="M 72 384.48 
L 324 384.48 
L 324 21.6 
L 72 21.6 
z
" style="fill:#eaeaf2;"/>
   </g>
   <g id="matplotlib.axis_1">
    <g id="xtick_1">
     <g id="text_1">
      <!-- Match -->
      <defs>
       <path d="M 9.8125 72.90625 
L 24.515625 72.90625 
L 43.109375 23.296875 
L 61.8125 72.90625 
L 76.515625 72.90625 
L 76.515625 0 
L 66.890625 0 
L 66.890625 64.015625 
L 48.09375 14.015625 
L 38.1875 14.015625 
L 19.390625 64.015625 
L 19.390625 0 
L 9.8125 0 
z
" id="DejaVuSans-77"/>
       <path d="M 34.28125 27.484375 
Q 23.390625 27.484375 19.1875 25 
Q 14.984375 22.515625 14.984375 16.5 
Q 14.984375 11.71875 18.140625 8.90625 
Q 21.296875 6.109375 26.703125 6.109375 
Q 34.1875 6.109375 38.703125 11.40625 
Q 43.21875 16.703125 43.21875 25.484375 
L 43.21875 27.484375 
z
M 52.203125 31.203125 
L 52.203125 0 
L 43.21875 0 
L 43.21875 8.296875 
Q 40.140625 3.328125 35.546875 0.953125 
Q 30.953125 -1.421875 24.3125 -1.421875 
Q 15.921875 -1.421875 10.953125 3.296875 
Q 6 8.015625 6 15.921875 
Q 6 25.140625 12.171875 29.828125 
Q 18.359375 34.515625 30.609375 34.515625 
L 43.21875 34.515625 
L 43.21875 35.40625 
Q 43.21875 41.609375 39.140625 45 
Q 35.0625 48.390625 27.6875 48.390625 
Q 23 48.390625 18.546875 47.265625 
Q 14.109375 46.140625 10.015625 43.890625 
L 10.015625 52.203125 
Q 14.9375 54.109375 19.578125 55.046875 
Q 24.21875 56 28.609375 56 
Q 40.484375 56 46.34375 49.84375 
Q 52.203125 43.703125 52.203125 31.203125 
z
" id="DejaVuSans-97"/>
       <path d="M 18.3125 70.21875 
L 18.3125 54.6875 
L 36.8125 54.6875 
L 36.8125 47.703125 
L 18.3125 47.703125 
L 18.3125 18.015625 
Q 18.3125 11.328125 20.140625 9.421875 
Q 21.96875 7.515625 27.59375 7.515625 
L 36.8125 7.515625 
L 36.8125 0 
L 27.59375 0 
Q 17.1875 0 13.234375 3.875 
Q 9.28125 7.765625 9.28125 18.015625 
L 9.28125 47.703125 
L 2.6875 47.703125 
L 2.6875 54.6875 
L 9.28125 54.6875 
L 9.28125 70.21875 
z
" id="DejaVuSans-116"/>
       <path d="M 48.78125 52.59375 
L 48.78125 44.1875 
Q 44.96875 46.296875 41.140625 47.34375 
Q 37.3125 48.390625 33.40625 48.390625 
Q 24.65625 48.390625 19.8125 42.84375 
Q 14.984375 37.3125 14.984375 27.296875 
Q 14.984375 17.28125 19.8125 11.734375 
Q 24.65625 6.203125 33.40625 6.203125 
Q 37.3125 6.203125 41.140625 7.25 
Q 44.96875 8.296875 48.78125 10.40625 
L 48.78125 2.09375 
Q 45.015625 0.34375 40.984375 -0.53125 
Q 36.96875 -1.421875 32.421875 -1.421875 
Q 20.0625 -1.421875 12.78125 6.34375 
Q 5.515625 14.109375 5.515625 27.296875 
Q 5.515625 40.671875 12.859375 48.328125 
Q 20.21875 56 33.015625 56 
Q 37.15625 56 41.109375 55.140625 
Q 45.0625 54.296875 48.78125 52.59375 
z
" id="DejaVuSans-99"/>
       <path d="M 54.890625 33.015625 
L 54.890625 0 
L 45.90625 0 
L 45.90625 32.71875 
Q 45.90625 40.484375 42.875 44.328125 
Q 39.84375 48.1875 33.796875 48.1875 
Q 26.515625 48.1875 22.3125 43.546875 
Q 18.109375 38.921875 18.109375 30.90625 
L 18.109375 0 
L 9.078125 0 
L 9.078125 75.984375 
L 18.109375 75.984375 
L 18.109375 46.1875 
Q 21.34375 51.125 25.703125 53.5625 
Q 30.078125 56 35.796875 56 
Q 45.21875 56 50.046875 50.171875 
Q 54.890625 44.34375 54.890625 33.015625 
z
" id="DejaVuSans-104"/>
      </defs>
      <g style="fill:#262626;" transform="translate(100.5745 400.666625)scale(0.088 -0.088)">
       <use xlink:href="#DejaVuSans-77"/>
       <use x="86.279297" xlink:href="#DejaVuSans-97"/>
       <use x="147.558594" xlink:href="#DejaVuSans-116"/>
       <use x="186.767578" xlink:href="#DejaVuSans-99"/>
       <use x="241.748047" xlink:href="#DejaVuSans-104"/>
      </g>
     </g>
    </g>
    <g id="xtick_2">
     <g id="text_2">
      <!-- Unknown -->
      <defs>
       <path d="M 8.6875 72.90625 
L 18.609375 72.90625 
L 18.609375 28.609375 
Q 18.609375 16.890625 22.84375 11.734375 
Q 27.09375 6.59375 36.625 6.59375 
Q 46.09375 6.59375 50.34375 11.734375 
Q 54.59375 16.890625 54.59375 28.609375 
L 54.59375 72.90625 
L 64.5 72.90625 
L 64.5 27.390625 
Q 64.5 13.140625 57.4375 5.859375 
Q 50.390625 -1.421875 36.625 -1.421875 
Q 22.796875 -1.421875 15.734375 5.859375 
Q 8.6875 13.140625 8.6875 27.390625 
z
" id="DejaVuSans-85"/>
       <path d="M 54.890625 33.015625 
L 54.890625 0 
L 45.90625 0 
L 45.90625 32.71875 
Q 45.90625 40.484375 42.875 44.328125 
Q 39.84375 48.1875 33.796875 48.1875 
Q 26.515625 48.1875 22.3125 43.546875 
Q 18.109375 38.921875 18.109375 30.90625 
L 18.109375 0 
L 9.078125 0 
L 9.078125 54.6875 
L 18.109375 54.6875 
L 18.109375 46.1875 
Q 21.34375 51.125 25.703125 53.5625 
Q 30.078125 56 35.796875 56 
Q 45.21875 56 50.046875 50.171875 
Q 54.890625 44.34375 54.890625 33.015625 
z
" id="DejaVuSans-110"/>
       <path d="M 9.078125 75.984375 
L 18.109375 75.984375 
L 18.109375 31.109375 
L 44.921875 54.6875 
L 56.390625 54.6875 
L 27.390625 29.109375 
L 57.625 0 
L 45.90625 0 
L 18.109375 26.703125 
L 18.109375 0 
L 9.078125 0 
z
" id="DejaVuSans-107"/>
       <path d="M 30.609375 48.390625 
Q 23.390625 48.390625 19.1875 42.75 
Q 14.984375 37.109375 14.984375 27.296875 
Q 14.984375 17.484375 19.15625 11.84375 
Q 23.34375 6.203125 30.609375 6.203125 
Q 37.796875 6.203125 41.984375 11.859375 
Q 46.1875 17.53125 46.1875 27.296875 
Q 46.1875 37.015625 41.984375 42.703125 
Q 37.796875 48.390625 30.609375 48.390625 
z
M 30.609375 56 
Q 42.328125 56 49.015625 48.375 
Q 55.71875 40.765625 55.71875 27.296875 
Q 55.71875 13.875 49.015625 6.21875 
Q 42.328125 -1.421875 30.609375 -1.421875 
Q 18.84375 -1.421875 12.171875 6.21875 
Q 5.515625 13.875 5.515625 27.296875 
Q 5.515625 40.765625 12.171875 48.375 
Q 18.84375 56 30.609375 56 
z
" id="DejaVuSans-111"/>
       <path d="M 4.203125 54.6875 
L 13.1875 54.6875 
L 24.421875 12.015625 
L 35.59375 54.6875 
L 46.1875 54.6875 
L 57.421875 12.015625 
L 68.609375 54.6875 
L 77.59375 54.6875 
L 63.28125 0 
L 52.6875 0 
L 40.921875 44.828125 
L 29.109375 0 
L 18.5 0 
z
" id="DejaVuSans-119"/>
      </defs>
      <g style="fill:#262626;" transform="translate(177.57575 400.666625)scale(0.088 -0.088)">
       <use xlink:href="#DejaVuSans-85"/>
       <use x="73.193359" xlink:href="#DejaVuSans-110"/>
       <use x="136.572266" xlink:href="#DejaVuSans-107"/>
       <use x="194.482422" xlink:href="#DejaVuSans-110"/>
       <use x="257.861328" xlink:href="#DejaVuSans-111"/>
       <use x="319.042969" xlink:href="#DejaVuSans-119"/>
       <use x="400.830078" xlink:href="#DejaVuSans-110"/>
      </g>
     </g>
    </g>
    <g id="xtick_3">
     <g id="text_3">
      <!-- No match -->
      <defs>
       <path d="M 9.8125 72.90625 
L 23.09375 72.90625 
L 55.421875 11.921875 
L 55.421875 72.90625 
L 64.984375 72.90625 
L 64.984375 0 
L 51.703125 0 
L 19.390625 60.984375 
L 19.390625 0 
L 9.8125 0 
z
" id="DejaVuSans-78"/>
       <path id="DejaVuSans-32"/>
       <path d="M 52 44.1875 
Q 55.375 50.25 60.0625 53.125 
Q 64.75 56 71.09375 56 
Q 79.640625 56 84.28125 50.015625 
Q 88.921875 44.046875 88.921875 33.015625 
L 88.921875 0 
L 79.890625 0 
L 79.890625 32.71875 
Q 79.890625 40.578125 77.09375 44.375 
Q 74.3125 48.1875 68.609375 48.1875 
Q 61.625 48.1875 57.5625 43.546875 
Q 53.515625 38.921875 53.515625 30.90625 
L 53.515625 0 
L 44.484375 0 
L 44.484375 32.71875 
Q 44.484375 40.625 41.703125 44.40625 
Q 38.921875 48.1875 33.109375 48.1875 
Q 26.21875 48.1875 22.15625 43.53125 
Q 18.109375 38.875 18.109375 30.90625 
L 18.109375 0 
L 9.078125 0 
L 9.078125 54.6875 
L 18.109375 54.6875 
L 18.109375 46.1875 
Q 21.1875 51.21875 25.484375 53.609375 
Q 29.78125 56 35.6875 56 
Q 41.65625 56 45.828125 52.96875 
Q 50 49.953125 52 44.1875 
z
" id="DejaVuSans-109"/>
      </defs>
      <g style="fill:#262626;" transform="translate(260.702625 400.666625)scale(0.088 -0.088)">
       <use xlink:href="#DejaVuSans-78"/>
       <use x="74.804688" xlink:href="#DejaVuSans-111"/>
       <use x="135.986328" xlink:href="#DejaVuSans-32"/>
       <use x="167.773438" xlink:href="#DejaVuSans-109"/>
       <use x="265.185547" xlink:href="#DejaVuSans-97"/>
       <use x="326.464844" xlink:href="#DejaVuSans-116"/>
       <use x="365.673828" xlink:href="#DejaVuSans-99"/>
       <use x="420.654297" xlink:href="#DejaVuSans-104"/>
      </g>
     </g>
    </g>
    <g id="text_4">
     <!-- status -->
     <defs>
      <path d="M 44.28125 53.078125 
L 44.28125 44.578125 
Q 40.484375 46.53125 36.375 47.5 
Q 32.28125 48.484375 27.875 48.484375 
Q 21.1875 48.484375 17.84375 46.4375 
Q 14.5 44.390625 14.5 40.28125 
Q 14.5 37.15625 16.890625 35.375 
Q 19.28125 33.59375 26.515625 31.984375 
L 29.59375 31.296875 
Q 39.15625 29.25 43.1875 25.515625 
Q 47.21875 21.78125 47.21875 15.09375 
Q 47.21875 7.46875 41.1875 3.015625 
Q 35.15625 -1.421875 24.609375 -1.421875 
Q 20.21875 -1.421875 15.453125 -0.5625 
Q 10.6875 0.296875 5.421875 2 
L 5.421875 11.28125 
Q 10.40625 8.6875 15.234375 7.390625 
Q 20.0625 6.109375 24.8125 6.109375 
Q 31.15625 6.109375 34.5625 8.28125 
Q 37.984375 10.453125 37.984375 14.40625 
Q 37.984375 18.0625 35.515625 20.015625 
Q 33.0625 21.96875 24.703125 23.78125 
L 21.578125 24.515625 
Q 13.234375 26.265625 9.515625 29.90625 
Q 5.8125 33.546875 5.8125 39.890625 
Q 5.8125 47.609375 11.28125 51.796875 
Q 16.75 56 26.8125 56 
Q 31.78125 56 36.171875 55.265625 
Q 40.578125 54.546875 44.28125 53.078125 
z
" id="DejaVuSans-115"/>
      <path d="M 8.5 21.578125 
L 8.5 54.6875 
L 17.484375 54.6875 
L 17.484375 21.921875 
Q 17.484375 14.15625 20.5 10.265625 
Q 23.53125 6.390625 29.59375 6.390625 
Q 36.859375 6.390625 41.078125 11.03125 
Q 45.3125 15.671875 45.3125 23.6875 
L 45.3125 54.6875 
L 54.296875 54.6875 
L 54.296875 0 
L 45.3125 0 
L 45.3125 8.40625 
Q 42.046875 3.421875 37.71875 1 
Q 33.40625 -1.421875 27.6875 -1.421875 
Q 18.265625 -1.421875 13.375 4.4375 
Q 8.5 10.296875 8.5 21.578125 
z
M 31.109375 56 
z
" id="DejaVuSans-117"/>
     </defs>
     <g style="fill:#262626;" transform="translate(183.252 413.79125)scale(0.096 -0.096)">
      <use xlink:href="#DejaVuSans-115"/>
      <use x="52.099609" xlink:href="#DejaVuSans-116"/>
      <use x="91.308594" xlink:href="#DejaVuSans-97"/>
      <use x="152.587891" xlink:href="#DejaVuSans-116"/>
      <use x="191.796875" xlink:href="#DejaVuSans-117"/>
      <use x="255.175781" xlink:href="#DejaVuSans-115"/>
     </g>
    </g>
   </g>
   <g id="matplotlib.axis_2">
    <g id="ytick_1">
     <g id="line2d_1">
      <path clip-path="url(#pdfb6a89d37)" d="M 72 336.98471 
L 324 336.98471 
" style="fill:none;stroke:#ffffff;stroke-linecap:round;"/>
     </g>
     <g id="text_5">
      <!-- 0% -->
      <defs>
       <path d="M 31.78125 66.40625 
Q 24.171875 66.40625 20.328125 58.90625 
Q 16.5 51.421875 16.5 36.375 
Q 16.5 21.390625 20.328125 13.890625 
Q 24.171875 6.390625 31.78125 6.390625 
Q 39.453125 6.390625 43.28125 13.890625 
Q 47.125 21.390625 47.125 36.375 
Q 47.125 51.421875 43.28125 58.90625 
Q 39.453125 66.40625 31.78125 66.40625 
z
M 31.78125 74.21875 
Q 44.046875 74.21875 50.515625 64.515625 
Q 56.984375 54.828125 56.984375 36.375 
Q 56.984375 17.96875 50.515625 8.265625 
Q 44.046875 -1.421875 31.78125 -1.421875 
Q 19.53125 -1.421875 13.0625 8.265625 
Q 6.59375 17.96875 6.59375 36.375 
Q 6.59375 54.828125 13.0625 64.515625 
Q 19.53125 74.21875 31.78125 74.21875 
z
" id="DejaVuSans-48"/>
       <path d="M 72.703125 32.078125 
Q 68.453125 32.078125 66.03125 28.46875 
Q 63.625 24.859375 63.625 18.40625 
Q 63.625 12.0625 66.03125 8.421875 
Q 68.453125 4.78125 72.703125 4.78125 
Q 76.859375 4.78125 79.265625 8.421875 
Q 81.6875 12.0625 81.6875 18.40625 
Q 81.6875 24.8125 79.265625 28.4375 
Q 76.859375 32.078125 72.703125 32.078125 
z
M 72.703125 38.28125 
Q 80.421875 38.28125 84.953125 32.90625 
Q 89.5 27.546875 89.5 18.40625 
Q 89.5 9.28125 84.9375 3.921875 
Q 80.375 -1.421875 72.703125 -1.421875 
Q 64.890625 -1.421875 60.34375 3.921875 
Q 55.8125 9.28125 55.8125 18.40625 
Q 55.8125 27.59375 60.375 32.9375 
Q 64.9375 38.28125 72.703125 38.28125 
z
M 22.3125 68.015625 
Q 18.109375 68.015625 15.6875 64.375 
Q 13.28125 60.75 13.28125 54.390625 
Q 13.28125 47.953125 15.671875 44.328125 
Q 18.0625 40.71875 22.3125 40.71875 
Q 26.5625 40.71875 28.96875 44.328125 
Q 31.390625 47.953125 31.390625 54.390625 
Q 31.390625 60.6875 28.953125 64.34375 
Q 26.515625 68.015625 22.3125 68.015625 
z
M 66.40625 74.21875 
L 74.21875 74.21875 
L 28.609375 -1.421875 
L 20.796875 -1.421875 
z
M 22.3125 74.21875 
Q 30.03125 74.21875 34.609375 68.875 
Q 39.203125 63.53125 39.203125 54.390625 
Q 39.203125 45.171875 34.640625 39.84375 
Q 30.078125 34.515625 22.3125 34.515625 
Q 14.546875 34.515625 10.03125 39.859375 
Q 5.515625 45.21875 5.515625 54.390625 
Q 5.515625 63.484375 10.046875 68.84375 
Q 14.59375 74.21875 22.3125 74.21875 
z
" id="DejaVuSans-37"/>
      </defs>
      <g style="fill:#262626;" transform="translate(48.539625 340.328023)scale(0.088 -0.088)">
       <use xlink:href="#DejaVuSans-48"/>
       <use x="63.623047" xlink:href="#DejaVuSans-37"/>
      </g>
     </g>
    </g>
    <g id="ytick_2">
     <g id="line2d_2">
      <path clip-path="url(#pdfb6a89d37)" d="M 72 283.97456 
L 324 283.97456 
" style="fill:none;stroke:#ffffff;stroke-linecap:round;"/>
     </g>
     <g id="text_6">
      <!-- 20% -->
      <defs>
       <path d="M 19.1875 8.296875 
L 53.609375 8.296875 
L 53.609375 0 
L 7.328125 0 
L 7.328125 8.296875 
Q 12.9375 14.109375 22.625 23.890625 
Q 32.328125 33.6875 34.8125 36.53125 
Q 39.546875 41.84375 41.421875 45.53125 
Q 43.3125 49.21875 43.3125 52.78125 
Q 43.3125 58.59375 39.234375 62.25 
Q 35.15625 65.921875 28.609375 65.921875 
Q 23.96875 65.921875 18.8125 64.3125 
Q 13.671875 62.703125 7.8125 59.421875 
L 7.8125 69.390625 
Q 13.765625 71.78125 18.9375 73 
Q 24.125 74.21875 28.421875 74.21875 
Q 39.75 74.21875 46.484375 68.546875 
Q 53.21875 62.890625 53.21875 53.421875 
Q 53.21875 48.921875 51.53125 44.890625 
Q 49.859375 40.875 45.40625 35.40625 
Q 44.1875 33.984375 37.640625 27.21875 
Q 31.109375 20.453125 19.1875 8.296875 
z
" id="DejaVuSans-50"/>
      </defs>
      <g style="fill:#262626;" transform="translate(42.940625 287.317872)scale(0.088 -0.088)">
       <use xlink:href="#DejaVuSans-50"/>
       <use x="63.623047" xlink:href="#DejaVuSans-48"/>
       <use x="127.246094" xlink:href="#DejaVuSans-37"/>
      </g>
     </g>
    </g>
    <g id="ytick_3">
     <g id="line2d_3">
      <path clip-path="url(#pdfb6a89d37)" d="M 72 230.96441 
L 324 230.96441 
" style="fill:none;stroke:#ffffff;stroke-linecap:round;"/>
     </g>
     <g id="text_7">
      <!-- 40% -->
      <defs>
       <path d="M 37.796875 64.3125 
L 12.890625 25.390625 
L 37.796875 25.390625 
z
M 35.203125 72.90625 
L 47.609375 72.90625 
L 47.609375 25.390625 
L 58.015625 25.390625 
L 58.015625 17.1875 
L 47.609375 17.1875 
L 47.609375 0 
L 37.796875 0 
L 37.796875 17.1875 
L 4.890625 17.1875 
L 4.890625 26.703125 
z
" id="DejaVuSans-52"/>
      </defs>
      <g style="fill:#262626;" transform="translate(42.940625 234.307722)scale(0.088 -0.088)">
       <use xlink:href="#DejaVuSans-52"/>
       <use x="63.623047" xlink:href="#DejaVuSans-48"/>
       <use x="127.246094" xlink:href="#DejaVuSans-37"/>
      </g>
     </g>
    </g>
    <g id="ytick_4">
     <g id="line2d_4">
      <path clip-path="url(#pdfb6a89d37)" d="M 72 177.954259 
L 324 177.954259 
" style="fill:none;stroke:#ffffff;stroke-linecap:round;"/>
     </g>
     <g id="text_8">
      <!-- 60% -->
      <defs>
       <path d="M 33.015625 40.375 
Q 26.375 40.375 22.484375 35.828125 
Q 18.609375 31.296875 18.609375 23.390625 
Q 18.609375 15.53125 22.484375 10.953125 
Q 26.375 6.390625 33.015625 6.390625 
Q 39.65625 6.390625 43.53125 10.953125 
Q 47.40625 15.53125 47.40625 23.390625 
Q 47.40625 31.296875 43.53125 35.828125 
Q 39.65625 40.375 33.015625 40.375 
z
M 52.59375 71.296875 
L 52.59375 62.3125 
Q 48.875 64.0625 45.09375 64.984375 
Q 41.3125 65.921875 37.59375 65.921875 
Q 27.828125 65.921875 22.671875 59.328125 
Q 17.53125 52.734375 16.796875 39.40625 
Q 19.671875 43.65625 24.015625 45.921875 
Q 28.375 48.1875 33.59375 48.1875 
Q 44.578125 48.1875 50.953125 41.515625 
Q 57.328125 34.859375 57.328125 23.390625 
Q 57.328125 12.15625 50.6875 5.359375 
Q 44.046875 -1.421875 33.015625 -1.421875 
Q 20.359375 -1.421875 13.671875 8.265625 
Q 6.984375 17.96875 6.984375 36.375 
Q 6.984375 53.65625 15.1875 63.9375 
Q 23.390625 74.21875 37.203125 74.21875 
Q 40.921875 74.21875 44.703125 73.484375 
Q 48.484375 72.75 52.59375 71.296875 
z
" id="DejaVuSans-54"/>
      </defs>
      <g style="fill:#262626;" transform="translate(42.940625 181.297572)scale(0.088 -0.088)">
       <use xlink:href="#DejaVuSans-54"/>
       <use x="63.623047" xlink:href="#DejaVuSans-48"/>
       <use x="127.246094" xlink:href="#DejaVuSans-37"/>
      </g>
     </g>
    </g>
    <g id="ytick_5">
     <g id="line2d_5">
      <path clip-path="url(#pdfb6a89d37)" d="M 72 124.944109 
L 324 124.944109 
" style="fill:none;stroke:#ffffff;stroke-linecap:round;"/>
     </g>
     <g id="text_9">
      <!-- 80% -->
      <defs>
       <path d="M 31.78125 34.625 
Q 24.75 34.625 20.71875 30.859375 
Q 16.703125 27.09375 16.703125 20.515625 
Q 16.703125 13.921875 20.71875 10.15625 
Q 24.75 6.390625 31.78125 6.390625 
Q 38.8125 6.390625 42.859375 10.171875 
Q 46.921875 13.96875 46.921875 20.515625 
Q 46.921875 27.09375 42.890625 30.859375 
Q 38.875 34.625 31.78125 34.625 
z
M 21.921875 38.8125 
Q 15.578125 40.375 12.03125 44.71875 
Q 8.5 49.078125 8.5 55.328125 
Q 8.5 64.0625 14.71875 69.140625 
Q 20.953125 74.21875 31.78125 74.21875 
Q 42.671875 74.21875 48.875 69.140625 
Q 55.078125 64.0625 55.078125 55.328125 
Q 55.078125 49.078125 51.53125 44.71875 
Q 48 40.375 41.703125 38.8125 
Q 48.828125 37.15625 52.796875 32.3125 
Q 56.78125 27.484375 56.78125 20.515625 
Q 56.78125 9.90625 50.3125 4.234375 
Q 43.84375 -1.421875 31.78125 -1.421875 
Q 19.734375 -1.421875 13.25 4.234375 
Q 6.78125 9.90625 6.78125 20.515625 
Q 6.78125 27.484375 10.78125 32.3125 
Q 14.796875 37.15625 21.921875 38.8125 
z
M 18.3125 54.390625 
Q 18.3125 48.734375 21.84375 45.5625 
Q 25.390625 42.390625 31.78125 42.390625 
Q 38.140625 42.390625 41.71875 45.5625 
Q 45.3125 48.734375 45.3125 54.390625 
Q 45.3125 60.0625 41.71875 63.234375 
Q 38.140625 66.40625 31.78125 66.40625 
Q 25.390625 66.40625 21.84375 63.234375 
Q 18.3125 60.0625 18.3125 54.390625 
z
" id="DejaVuSans-56"/>
      </defs>
      <g style="fill:#262626;" transform="translate(42.940625 128.287422)scale(0.088 -0.088)">
       <use xlink:href="#DejaVuSans-56"/>
       <use x="63.623047" xlink:href="#DejaVuSans-48"/>
       <use x="127.246094" xlink:href="#DejaVuSans-37"/>
      </g>
     </g>
    </g>
    <g id="ytick_6">
     <g id="line2d_6">
      <path clip-path="url(#pdfb6a89d37)" d="M 72 71.933959 
L 324 71.933959 
" style="fill:none;stroke:#ffffff;stroke-linecap:round;"/>
     </g>
     <g id="text_10">
      <!-- 100% -->
      <defs>
       <path d="M 12.40625 8.296875 
L 28.515625 8.296875 
L 28.515625 63.921875 
L 10.984375 60.40625 
L 10.984375 69.390625 
L 28.421875 72.90625 
L 38.28125 72.90625 
L 38.28125 8.296875 
L 54.390625 8.296875 
L 54.390625 0 
L 12.40625 0 
z
" id="DejaVuSans-49"/>
      </defs>
      <g style="fill:#262626;" transform="translate(37.341625 75.277271)scale(0.088 -0.088)">
       <use xlink:href="#DejaVuSans-49"/>
       <use x="63.623047" xlink:href="#DejaVuSans-48"/>
       <use x="127.246094" xlink:href="#DejaVuSans-48"/>
       <use x="190.869141" xlink:href="#DejaVuSans-37"/>
      </g>
     </g>
    </g>
    <g id="text_11">
     <!-- score -->
     <defs>
      <path d="M 41.109375 46.296875 
Q 39.59375 47.171875 37.8125 47.578125 
Q 36.03125 48 33.890625 48 
Q 26.265625 48 22.1875 43.046875 
Q 18.109375 38.09375 18.109375 28.8125 
L 18.109375 0 
L 9.078125 0 
L 9.078125 54.6875 
L 18.109375 54.6875 
L 18.109375 46.1875 
Q 20.953125 51.171875 25.484375 53.578125 
Q 30.03125 56 36.53125 56 
Q 37.453125 56 38.578125 55.875 
Q 39.703125 55.765625 41.0625 55.515625 
z
" id="DejaVuSans-114"/>
      <path d="M 56.203125 29.59375 
L 56.203125 25.203125 
L 14.890625 25.203125 
Q 15.484375 15.921875 20.484375 11.0625 
Q 25.484375 6.203125 34.421875 6.203125 
Q 39.59375 6.203125 44.453125 7.46875 
Q 49.3125 8.734375 54.109375 11.28125 
L 54.109375 2.78125 
Q 49.265625 0.734375 44.1875 -0.34375 
Q 39.109375 -1.421875 33.890625 -1.421875 
Q 20.796875 -1.421875 13.15625 6.1875 
Q 5.515625 13.8125 5.515625 26.8125 
Q 5.515625 40.234375 12.765625 48.109375 
Q 20.015625 56 32.328125 56 
Q 43.359375 56 49.78125 48.890625 
Q 56.203125 41.796875 56.203125 29.59375 
z
M 47.21875 32.234375 
Q 47.125 39.59375 43.09375 43.984375 
Q 39.0625 48.390625 32.421875 48.390625 
Q 24.90625 48.390625 20.390625 44.140625 
Q 15.875 39.890625 15.1875 32.171875 
z
" id="DejaVuSans-101"/>
     </defs>
     <g style="fill:#262626;" transform="translate(31.345125 216.042)rotate(-90)scale(0.096 -0.096)">
      <use xlink:href="#DejaVuSans-115"/>
      <use x="52.099609" xlink:href="#DejaVuSans-99"/>
      <use x="107.080078" xlink:href="#DejaVuSans-111"/>
      <use x="168.261719" xlink:href="#DejaVuSans-114"/>
      <use x="209.34375" xlink:href="#DejaVuSans-101"/>
     </g>
    </g>
   </g>
   <g id="PolyCollection_1">
    <defs>
     <path d="M 114.553809 -64.014545 
L 113.446191 -64.014545 
L 113.104139 -67.346777 
L 112.599306 -70.679008 
L 111.882339 -74.01124 
L 110.902666 -77.343471 
L 109.615033 -80.675702 
L 107.987694 -84.007934 
L 106.011159 -87.340165 
L 103.70593 -90.672397 
L 101.12746 -94.004628 
L 98.366818 -97.33686 
L 95.546207 -100.669091 
L 92.809425 -104.001322 
L 90.308392 -107.333554 
L 88.187672 -110.665785 
L 86.569337 -113.998017 
L 85.540448 -117.330248 
L 85.144909 -120.662479 
L 85.380636 -123.994711 
L 86.202111 -127.326942 
L 87.52754 -130.659174 
L 89.249221 -133.991405 
L 91.245427 -137.323636 
L 93.392075 -140.655868 
L 95.57278 -143.988099 
L 97.686401 -147.320331 
L 99.65182 -150.652562 
L 101.41022 -153.984793 
L 102.925434 -157.317025 
L 104.182952 -160.649256 
L 105.187947 -163.981488 
L 105.962365 -167.313719 
L 106.54098 -170.64595 
L 106.966382 -173.978182 
L 107.283258 -177.310413 
L 107.53275 -180.642645 
L 107.747992 -183.974876 
L 107.95182 -187.307107 
L 108.157153 -190.639339 
L 108.369719 -193.97157 
L 108.592046 -197.303802 
L 108.827221 -200.636033 
L 109.081048 -203.968264 
L 109.361898 -207.300496 
L 109.678439 -210.632727 
L 110.036237 -213.964959 
L 110.434574 -217.29719 
L 110.864708 -220.629421 
L 111.310188 -223.961653 
L 111.749108 -227.293884 
L 112.157592 -230.626116 
L 112.513524 -233.958347 
L 112.799658 -237.290579 
L 113.005596 -240.62281 
L 113.128546 -243.955041 
L 113.173077 -247.287273 
L 113.150196 -250.619504 
L 113.076009 -253.951736 
L 112.970106 -257.283967 
L 112.853673 -260.616198 
L 112.747397 -263.94843 
L 112.669251 -267.280661 
L 112.632482 -270.612893 
L 112.644132 -273.945124 
L 112.704443 -277.277355 
L 112.80733 -280.609587 
L 112.941825 -283.941818 
L 113.094196 -287.27405 
L 113.250248 -290.606281 
L 113.397322 -293.938512 
L 113.525604 -297.270744 
L 113.628571 -300.602975 
L 113.702622 -303.935207 
L 113.746096 -307.267438 
L 113.757995 -310.599669 
L 113.736751 -313.931901 
L 113.679337 -317.264132 
L 113.580967 -320.596364 
L 113.435558 -323.928595 
L 113.236997 -327.260826 
L 112.981118 -330.593058 
L 112.668101 -333.925289 
L 112.304798 -337.257521 
L 111.906368 -340.589752 
L 111.496567 -343.921983 
L 111.106248 -347.254215 
L 110.769979 -350.586446 
L 110.521223 -353.918678 
L 110.386965 -357.250909 
L 110.382978 -360.58314 
L 110.510878 -363.915372 
L 110.757714 -367.247603 
L 111.098225 -370.579835 
L 111.499205 -373.912066 
L 111.924935 -377.244298 
L 112.342426 -380.576529 
L 112.725449 -383.90876 
L 113.056705 -387.240992 
L 113.32809 -390.573223 
L 113.539403 -393.905455 
L 114.460597 -393.905455 
L 114.460597 -393.905455 
L 114.67191 -390.573223 
L 114.943295 -387.240992 
L 115.274551 -383.90876 
L 115.657574 -380.576529 
L 116.075065 -377.244298 
L 116.500795 -373.912066 
L 116.901775 -370.579835 
L 117.242286 -367.247603 
L 117.489122 -363.915372 
L 117.617022 -360.58314 
L 117.613035 -357.250909 
L 117.478777 -353.918678 
L 117.230021 -350.586446 
L 116.893752 -347.254215 
L 116.503433 -343.921983 
L 116.093632 -340.589752 
L 115.695202 -337.257521 
L 115.331899 -333.925289 
L 115.018882 -330.593058 
L 114.763003 -327.260826 
L 114.564442 -323.928595 
L 114.419033 -320.596364 
L 114.320663 -317.264132 
L 114.263249 -313.931901 
L 114.242005 -310.599669 
L 114.253904 -307.267438 
L 114.297378 -303.935207 
L 114.371429 -300.602975 
L 114.474396 -297.270744 
L 114.602678 -293.938512 
L 114.749752 -290.606281 
L 114.905804 -287.27405 
L 115.058175 -283.941818 
L 115.19267 -280.609587 
L 115.295557 -277.277355 
L 115.355868 -273.945124 
L 115.367518 -270.612893 
L 115.330749 -267.280661 
L 115.252603 -263.94843 
L 115.146327 -260.616198 
L 115.029894 -257.283967 
L 114.923991 -253.951736 
L 114.849804 -250.619504 
L 114.826923 -247.287273 
L 114.871454 -243.955041 
L 114.994404 -240.62281 
L 115.200342 -237.290579 
L 115.486476 -233.958347 
L 115.842408 -230.626116 
L 116.250892 -227.293884 
L 116.689812 -223.961653 
L 117.135292 -220.629421 
L 117.565426 -217.29719 
L 117.963763 -213.964959 
L 118.321561 -210.632727 
L 118.638102 -207.300496 
L 118.918952 -203.968264 
L 119.172779 -200.636033 
L 119.407954 -197.303802 
L 119.630281 -193.97157 
L 119.842847 -190.639339 
L 120.04818 -187.307107 
L 120.252008 -183.974876 
L 120.46725 -180.642645 
L 120.716742 -177.310413 
L 121.033618 -173.978182 
L 121.45902 -170.64595 
L 122.037635 -167.313719 
L 122.812053 -163.981488 
L 123.817048 -160.649256 
L 125.074566 -157.317025 
L 126.58978 -153.984793 
L 128.34818 -150.652562 
L 130.313599 -147.320331 
L 132.42722 -143.988099 
L 134.607925 -140.655868 
L 136.754573 -137.323636 
L 138.750779 -133.991405 
L 140.47246 -130.659174 
L 141.797889 -127.326942 
L 142.619364 -123.994711 
L 142.855091 -120.662479 
L 142.459552 -117.330248 
L 141.430663 -113.998017 
L 139.812328 -110.665785 
L 137.691608 -107.333554 
L 135.190575 -104.001322 
L 132.453793 -100.669091 
L 129.633182 -97.33686 
L 126.87254 -94.004628 
L 124.29407 -90.672397 
L 121.988841 -87.340165 
L 120.012306 -84.007934 
L 118.384967 -80.675702 
L 117.097334 -77.343471 
L 116.117661 -74.01124 
L 115.400694 -70.679008 
L 114.895861 -67.346777 
L 114.553809 -64.014545 
z
" id="m9245186c17" style="stroke:#4c4c4c;stroke-width:1.5;"/>
    </defs>
    <g clip-path="url(#pdfb6a89d37)">
     <use style="fill:#5875a4;stroke:#4c4c4c;stroke-width:1.5;" x="0" xlink:href="#m9245186c17" y="432"/>
    </g>
   </g>
   <g id="PolyCollection_2">
    <defs>
     <path d="M 199.309148 -73.739626 
L 196.690852 -73.739626 
L 196.266824 -75.40331 
L 195.736541 -77.066994 
L 195.083808 -78.730678 
L 194.293083 -80.394361 
L 193.350522 -82.058045 
L 192.245146 -83.721729 
L 190.970086 -85.385413 
L 189.523803 -87.049097 
L 187.911162 -88.712781 
L 186.144274 -90.376465 
L 184.242956 -92.040149 
L 182.234741 -93.703833 
L 180.15434 -95.367517 
L 178.042562 -97.0312 
L 175.944687 -98.694884 
L 173.908384 -100.358568 
L 171.981306 -102.022252 
L 170.208539 -103.685936 
L 168.630101 -105.34962 
L 167.27872 -107.013304 
L 166.178082 -108.676988 
L 165.341732 -110.340672 
L 164.772727 -112.004356 
L 164.464084 -113.668039 
L 164.4 -115.331723 
L 164.557698 -116.995407 
L 164.909743 -118.659091 
L 165.426578 -120.322775 
L 166.079017 -121.986459 
L 166.840464 -123.650143 
L 167.688614 -125.313827 
L 168.606502 -126.977511 
L 169.582809 -128.641195 
L 170.611433 -130.304879 
L 171.690423 -131.968562 
L 172.820444 -133.632246 
L 174.002963 -135.29593 
L 175.238418 -136.959614 
L 176.524563 -138.623298 
L 177.855204 -140.286982 
L 179.219431 -141.950666 
L 180.601419 -143.61435 
L 181.9808 -145.278034 
L 183.333506 -146.941718 
L 184.633004 -148.605401 
L 185.851751 -150.269085 
L 186.962742 -151.932769 
L 187.941021 -153.596453 
L 188.765043 -155.260137 
L 189.417835 -156.923821 
L 189.887914 -158.587505 
L 190.169952 -160.251189 
L 190.265197 -161.914873 
L 190.181661 -163.578557 
L 189.934063 -165.24224 
L 189.54353 -166.905924 
L 189.037023 -168.569608 
L 188.446471 -170.233292 
L 187.807598 -171.896976 
L 187.158449 -173.56066 
L 186.537649 -175.224344 
L 185.98249 -176.888028 
L 185.526944 -178.551712 
L 185.19977 -180.215396 
L 185.02287 -181.879079 
L 185.010043 -183.542763 
L 185.166284 -185.206447 
L 185.487698 -186.870131 
L 185.962057 -188.533815 
L 186.569946 -190.197499 
L 187.286401 -191.861183 
L 188.082871 -193.524867 
L 188.929322 -195.188551 
L 189.796285 -196.852235 
L 190.656666 -198.515919 
L 191.48719 -200.179602 
L 192.269371 -201.843286 
L 192.989984 -203.50697 
L 193.641058 -205.170654 
L 194.219461 -206.834338 
L 194.726167 -208.498022 
L 195.165335 -210.161706 
L 195.543309 -211.82539 
L 195.867652 -213.489074 
L 196.146296 -215.152758 
L 196.386858 -216.816441 
L 196.596165 -218.480125 
L 196.779969 -220.143809 
L 196.942842 -221.807493 
L 197.088223 -223.471177 
L 197.218554 -225.134861 
L 197.335487 -226.798545 
L 197.440105 -228.462229 
L 197.53313 -230.125913 
L 197.615107 -231.789597 
L 197.68654 -233.45328 
L 197.747982 -235.116964 
L 197.800079 -236.780648 
L 197.843586 -238.444332 
L 198.156414 -238.444332 
L 198.156414 -238.444332 
L 198.199921 -236.780648 
L 198.252018 -235.116964 
L 198.31346 -233.45328 
L 198.384893 -231.789597 
L 198.46687 -230.125913 
L 198.559895 -228.462229 
L 198.664513 -226.798545 
L 198.781446 -225.134861 
L 198.911777 -223.471177 
L 199.057158 -221.807493 
L 199.220031 -220.143809 
L 199.403835 -218.480125 
L 199.613142 -216.816441 
L 199.853704 -215.152758 
L 200.132348 -213.489074 
L 200.456691 -211.82539 
L 200.834665 -210.161706 
L 201.273833 -208.498022 
L 201.780539 -206.834338 
L 202.358942 -205.170654 
L 203.010016 -203.50697 
L 203.730629 -201.843286 
L 204.51281 -200.179602 
L 205.343334 -198.515919 
L 206.203715 -196.852235 
L 207.070678 -195.188551 
L 207.917129 -193.524867 
L 208.713599 -191.861183 
L 209.430054 -190.197499 
L 210.037943 -188.533815 
L 210.512302 -186.870131 
L 210.833716 -185.206447 
L 210.989957 -183.542763 
L 210.97713 -181.879079 
L 210.80023 -180.215396 
L 210.473056 -178.551712 
L 210.01751 -176.888028 
L 209.462351 -175.224344 
L 208.841551 -173.56066 
L 208.192402 -171.896976 
L 207.553529 -170.233292 
L 206.962977 -168.569608 
L 206.45647 -166.905924 
L 206.065937 -165.24224 
L 205.818339 -163.578557 
L 205.734803 -161.914873 
L 205.830048 -160.251189 
L 206.112086 -158.587505 
L 206.582165 -156.923821 
L 207.234957 -155.260137 
L 208.058979 -153.596453 
L 209.037258 -151.932769 
L 210.148249 -150.269085 
L 211.366996 -148.605401 
L 212.666494 -146.941718 
L 214.0192 -145.278034 
L 215.398581 -143.61435 
L 216.780569 -141.950666 
L 218.144796 -140.286982 
L 219.475437 -138.623298 
L 220.761582 -136.959614 
L 221.997037 -135.29593 
L 223.179556 -133.632246 
L 224.309577 -131.968562 
L 225.388567 -130.304879 
L 226.417191 -128.641195 
L 227.393498 -126.977511 
L 228.311386 -125.313827 
L 229.159536 -123.650143 
L 229.920983 -121.986459 
L 230.573422 -120.322775 
L 231.090257 -118.659091 
L 231.442302 -116.995407 
L 231.6 -115.331723 
L 231.535916 -113.668039 
L 231.227273 -112.004356 
L 230.658268 -110.340672 
L 229.821918 -108.676988 
L 228.72128 -107.013304 
L 227.369899 -105.34962 
L 225.791461 -103.685936 
L 224.018694 -102.022252 
L 222.091616 -100.358568 
L 220.055313 -98.694884 
L 217.957438 -97.0312 
L 215.84566 -95.367517 
L 213.765259 -93.703833 
L 211.757044 -92.040149 
L 209.855726 -90.376465 
L 208.088838 -88.712781 
L 206.476197 -87.049097 
L 205.029914 -85.385413 
L 203.754854 -83.721729 
L 202.649478 -82.058045 
L 201.706917 -80.394361 
L 200.916192 -78.730678 
L 200.263459 -77.066994 
L 199.733176 -75.40331 
L 199.309148 -73.739626 
z
" id="mc06459c5ee" style="stroke:#4c4c4c;stroke-width:1.5;"/>
    </defs>
    <g clip-path="url(#pdfb6a89d37)">
     <use style="fill:#cc8963;stroke:#4c4c4c;stroke-width:1.5;" x="0" xlink:href="#mc06459c5ee" y="432"/>
    </g>
   </g>
   <g id="PolyCollection_3">
    <defs>
     <path d="M 282.726174 -71.838373 
L 281.273826 -71.838373 
L 280.935708 -74.15143 
L 280.474848 -76.464487 
L 279.8627 -78.777544 
L 279.070487 -81.090601 
L 278.071814 -83.403658 
L 276.845834 -85.716715 
L 275.38066 -88.029772 
L 273.676579 -90.342829 
L 271.748547 -92.655886 
L 269.627407 -94.968943 
L 267.359425 -97.282 
L 265.003905 -99.595056 
L 262.629005 -101.908113 
L 260.306159 -104.22117 
L 258.103877 -106.534227 
L 256.081852 -108.847284 
L 254.286356 -111.160341 
L 252.74772 -113.473398 
L 251.480359 -115.786455 
L 250.485275 -118.099512 
L 249.754519 -120.412569 
L 249.276618 -122.725626 
L 249.041786 -125.038683 
L 249.045738 -127.35174 
L 249.29124 -129.664797 
L 249.787004 -131.977853 
L 250.544157 -134.29091 
L 251.571016 -136.603967 
L 252.867332 -138.917024 
L 254.419254 -141.230081 
L 256.196116 -143.543138 
L 258.14978 -145.856195 
L 260.216752 -148.169252 
L 262.322757 -150.482309 
L 264.389062 -152.795366 
L 266.339594 -155.108423 
L 268.107834 -157.42148 
L 269.642636 -159.734537 
L 270.912324 -162.047594 
L 271.906709 -164.36065 
L 272.636949 -166.673707 
L 273.133377 -168.986764 
L 273.441624 -171.299821 
L 273.617477 -173.612878 
L 273.721008 -175.925935 
L 273.810595 -178.238992 
L 273.937431 -180.552049 
L 274.141123 -182.865106 
L 274.446814 -185.178163 
L 274.864112 -187.49122 
L 275.387849 -189.804277 
L 276.00045 -192.117334 
L 276.675471 -194.430391 
L 277.38173 -196.743447 
L 278.087419 -199.056504 
L 278.763657 -201.369561 
L 279.387088 -203.682618 
L 279.941346 -205.995675 
L 280.417401 -208.308732 
L 280.812964 -210.621789 
L 281.131243 -212.934846 
L 281.379354 -215.247903 
L 281.566686 -217.56096 
L 281.703435 -219.874017 
L 281.799429 -222.187074 
L 281.863309 -224.500131 
L 281.902034 -226.813188 
L 281.920661 -229.126244 
L 281.922337 -231.439301 
L 281.908434 -233.752358 
L 281.878798 -236.065415 
L 281.832069 -238.378472 
L 281.766098 -240.691529 
L 281.678432 -243.004586 
L 281.56688 -245.317643 
L 281.43014 -247.6307 
L 281.268412 -249.943757 
L 281.083957 -252.256814 
L 280.881478 -254.569871 
L 280.668239 -256.882928 
L 280.453856 -259.195985 
L 280.249703 -261.509041 
L 280.067985 -263.822098 
L 279.920565 -266.135155 
L 279.817692 -268.448212 
L 279.766825 -270.761269 
L 279.771744 -273.074326 
L 279.832079 -275.387383 
L 279.943364 -277.70044 
L 280.097576 -280.013497 
L 280.284096 -282.326554 
L 280.490912 -284.639611 
L 280.705888 -286.952668 
L 280.917906 -289.265725 
L 281.117746 -291.578782 
L 281.298612 -293.891838 
L 281.456301 -296.204895 
L 281.589044 -298.517952 
L 281.697122 -300.831009 
L 282.302878 -300.831009 
L 282.302878 -300.831009 
L 282.410956 -298.517952 
L 282.543699 -296.204895 
L 282.701388 -293.891838 
L 282.882254 -291.578782 
L 283.082094 -289.265725 
L 283.294112 -286.952668 
L 283.509088 -284.639611 
L 283.715904 -282.326554 
L 283.902424 -280.013497 
L 284.056636 -277.70044 
L 284.167921 -275.387383 
L 284.228256 -273.074326 
L 284.233175 -270.761269 
L 284.182308 -268.448212 
L 284.079435 -266.135155 
L 283.932015 -263.822098 
L 283.750297 -261.509041 
L 283.546144 -259.195985 
L 283.331761 -256.882928 
L 283.118522 -254.569871 
L 282.916043 -252.256814 
L 282.731588 -249.943757 
L 282.56986 -247.6307 
L 282.43312 -245.317643 
L 282.321568 -243.004586 
L 282.233902 -240.691529 
L 282.167931 -238.378472 
L 282.121202 -236.065415 
L 282.091566 -233.752358 
L 282.077663 -231.439301 
L 282.079339 -229.126244 
L 282.097966 -226.813188 
L 282.136691 -224.500131 
L 282.200571 -222.187074 
L 282.296565 -219.874017 
L 282.433314 -217.56096 
L 282.620646 -215.247903 
L 282.868757 -212.934846 
L 283.187036 -210.621789 
L 283.582599 -208.308732 
L 284.058654 -205.995675 
L 284.612912 -203.682618 
L 285.236343 -201.369561 
L 285.912581 -199.056504 
L 286.61827 -196.743447 
L 287.324529 -194.430391 
L 287.99955 -192.117334 
L 288.612151 -189.804277 
L 289.135888 -187.49122 
L 289.553186 -185.178163 
L 289.858877 -182.865106 
L 290.062569 -180.552049 
L 290.189405 -178.238992 
L 290.278992 -175.925935 
L 290.382523 -173.612878 
L 290.558376 -171.299821 
L 290.866623 -168.986764 
L 291.363051 -166.673707 
L 292.093291 -164.36065 
L 293.087676 -162.047594 
L 294.357364 -159.734537 
L 295.892166 -157.42148 
L 297.660406 -155.108423 
L 299.610938 -152.795366 
L 301.677243 -150.482309 
L 303.783248 -148.169252 
L 305.85022 -145.856195 
L 307.803884 -143.543138 
L 309.580746 -141.230081 
L 311.132668 -138.917024 
L 312.428984 -136.603967 
L 313.455843 -134.29091 
L 314.212996 -131.977853 
L 314.70876 -129.664797 
L 314.954262 -127.35174 
L 314.958214 -125.038683 
L 314.723382 -122.725626 
L 314.245481 -120.412569 
L 313.514725 -118.099512 
L 312.519641 -115.786455 
L 311.25228 -113.473398 
L 309.713644 -111.160341 
L 307.918148 -108.847284 
L 305.896123 -106.534227 
L 303.693841 -104.22117 
L 301.370995 -101.908113 
L 298.996095 -99.595056 
L 296.640575 -97.282 
L 294.372593 -94.968943 
L 292.251453 -92.655886 
L 290.323421 -90.342829 
L 288.61934 -88.029772 
L 287.154166 -85.716715 
L 285.928186 -83.403658 
L 284.929513 -81.090601 
L 284.1373 -78.777544 
L 283.525152 -76.464487 
L 283.064292 -74.15143 
L 282.726174 -71.838373 
z
" id="me564e846a0" style="stroke:#4c4c4c;stroke-width:1.5;"/>
    </defs>
    <g clip-path="url(#pdfb6a89d37)">
     <use style="fill:#5f9e6e;stroke:#4c4c4c;stroke-width:1.5;" x="0" xlink:href="#me564e846a0" y="432"/>
    </g>
   </g>
   <g id="line2d_7">
    <path clip-path="url(#pdfb6a89d37)" d="M 114 334.146041 
L 114 220.405856 
" style="fill:none;stroke:#4c4c4c;stroke-linecap:round;stroke-width:1.5;"/>
   </g>
   <g id="line2d_8">
    <path clip-path="url(#pdfb6a89d37)" d="M 114 316.739758 
L 114 269.709389 
" style="fill:none;stroke:#4c4c4c;stroke-linecap:round;stroke-width:4.5;"/>
   </g>
   <g id="line2d_9">
    <path clip-path="url(#pdfb6a89d37)" d="M 198 331.410186 
L 198 269.709389 
" style="fill:none;stroke:#4c4c4c;stroke-linecap:round;stroke-width:1.5;"/>
   </g>
   <g id="line2d_10">
    <path clip-path="url(#pdfb6a89d37)" d="M 198 321.387595 
L 198 292.809585 
" style="fill:none;stroke:#4c4c4c;stroke-linecap:round;stroke-width:4.5;"/>
   </g>
   <g id="line2d_11">
    <path clip-path="url(#pdfb6a89d37)" d="M 282 331.046408 
L 282 260.07135 
" style="fill:none;stroke:#4c4c4c;stroke-linecap:round;stroke-width:1.5;"/>
   </g>
   <g id="line2d_12">
    <path clip-path="url(#pdfb6a89d37)" d="M 282 317.257918 
L 282 291.282728 
" style="fill:none;stroke:#4c4c4c;stroke-linecap:round;stroke-width:4.5;"/>
   </g>
   <g id="patch_3">
    <path d="M 72 384.48 
L 72 21.6 
" style="fill:none;stroke:#ffffff;stroke-linecap:square;stroke-linejoin:miter;stroke-width:1.25;"/>
   </g>
   <g id="patch_4">
    <path d="M 324 384.48 
L 324 21.6 
" style="fill:none;stroke:#ffffff;stroke-linecap:square;stroke-linejoin:miter;stroke-width:1.25;"/>
   </g>
   <g id="patch_5">
    <path d="M 72 384.48 
L 324 384.48 
" style="fill:none;stroke:#ffffff;stroke-linecap:square;stroke-linejoin:miter;stroke-width:1.25;"/>
   </g>
   <g id="patch_6">
    <path d="M 72 21.6 
L 324 21.6 
" style="fill:none;stroke:#ffffff;stroke-linecap:square;stroke-linejoin:miter;stroke-width:1.25;"/>
   </g>
   <g id="PathCollection_1">
    <defs>
     <path d="M 0 1.5 
C 0.397805 1.5 0.77937 1.341951 1.06066 1.06066 
C 1.341951 0.77937 1.5 0.397805 1.5 0 
C 1.5 -0.397805 1.341951 -0.77937 1.06066 -1.06066 
C 0.77937 -1.341951 0.397805 -1.5 0 -1.5 
C -0.397805 -1.5 -0.77937 -1.341951 -1.06066 -1.06066 
C -1.341951 -0.77937 -1.5 -0.397805 -1.5 0 
C -1.5 0.397805 -1.341951 0.77937 -1.06066 1.06066 
C -0.77937 1.341951 -0.397805 1.5 0 1.5 
z
" id="m55fb919a74" style="stroke:#4c4c4c;"/>
    </defs>
    <g clip-path="url(#pdfb6a89d37)">
     <use style="fill:#ffffff;stroke:#4c4c4c;" x="114" xlink:href="#m55fb919a74" y="303.34705"/>
    </g>
   </g>
   <g id="PathCollection_2">
    <g clip-path="url(#pdfb6a89d37)">
     <use style="fill:#ffffff;stroke:#4c4c4c;" x="198" xlink:href="#m55fb919a74" y="303.34705"/>
    </g>
   </g>
   <g id="PathCollection_3">
    <g clip-path="url(#pdfb6a89d37)">
     <use style="fill:#ffffff;stroke:#4c4c4c;" x="282" xlink:href="#m55fb919a74" y="297.863427"/>
    </g>
   </g>
   <g id="text_12">
    <!-- Scores per status -->
    <defs>
     <path d="M 53.515625 70.515625 
L 53.515625 60.890625 
Q 47.90625 63.578125 42.921875 64.890625 
Q 37.9375 66.21875 33.296875 66.21875 
Q 25.25 66.21875 20.875 63.09375 
Q 16.5 59.96875 16.5 54.203125 
Q 16.5 49.359375 19.40625 46.890625 
Q 22.3125 44.4375 30.421875 42.921875 
L 36.375 41.703125 
Q 47.40625 39.59375 52.65625 34.296875 
Q 57.90625 29 57.90625 20.125 
Q 57.90625 9.515625 50.796875 4.046875 
Q 43.703125 -1.421875 29.984375 -1.421875 
Q 24.8125 -1.421875 18.96875 -0.25 
Q 13.140625 0.921875 6.890625 3.21875 
L 6.890625 13.375 
Q 12.890625 10.015625 18.65625 8.296875 
Q 24.421875 6.59375 29.984375 6.59375 
Q 38.421875 6.59375 43.015625 9.90625 
Q 47.609375 13.234375 47.609375 19.390625 
Q 47.609375 24.75 44.3125 27.78125 
Q 41.015625 30.8125 33.5 32.328125 
L 27.484375 33.5 
Q 16.453125 35.6875 11.515625 40.375 
Q 6.59375 45.0625 6.59375 53.421875 
Q 6.59375 63.09375 13.40625 68.65625 
Q 20.21875 74.21875 32.171875 74.21875 
Q 37.3125 74.21875 42.625 73.28125 
Q 47.953125 72.359375 53.515625 70.515625 
z
" id="DejaVuSans-83"/>
     <path d="M 18.109375 8.203125 
L 18.109375 -20.796875 
L 9.078125 -20.796875 
L 9.078125 54.6875 
L 18.109375 54.6875 
L 18.109375 46.390625 
Q 20.953125 51.265625 25.265625 53.625 
Q 29.59375 56 35.59375 56 
Q 45.5625 56 51.78125 48.09375 
Q 58.015625 40.1875 58.015625 27.296875 
Q 58.015625 14.40625 51.78125 6.484375 
Q 45.5625 -1.421875 35.59375 -1.421875 
Q 29.59375 -1.421875 25.265625 0.953125 
Q 20.953125 3.328125 18.109375 8.203125 
z
M 48.6875 27.296875 
Q 48.6875 37.203125 44.609375 42.84375 
Q 40.53125 48.484375 33.40625 48.484375 
Q 26.265625 48.484375 22.1875 42.84375 
Q 18.109375 37.203125 18.109375 27.296875 
Q 18.109375 17.390625 22.1875 11.75 
Q 26.265625 6.109375 33.40625 6.109375 
Q 40.53125 6.109375 44.609375 11.75 
Q 48.6875 17.390625 48.6875 27.296875 
z
" id="DejaVuSans-112"/>
    </defs>
    <g style="fill:#262626;" transform="translate(156.17775 15.6)scale(0.096 -0.096)">
     <use xlink:href="#DejaVuSans-83"/>
     <use x="63.476562" xlink:href="#DejaVuSans-99"/>
     <use x="118.457031" xlink:href="#DejaVuSans-111"/>
     <use x="179.638672" xlink:href="#DejaVuSans-114"/>
     <use x="220.720703" xlink:href="#DejaVuSans-101"/>
     <use x="282.244141" xlink:href="#DejaVuSans-115"/>
     <use x="334.34375" xlink:href="#DejaVuSans-32"/>
     <use x="366.130859" xlink:href="#DejaVuSans-112"/>
     <use x="429.607422" xlink:href="#DejaVuSans-101"/>
     <use x="491.130859" xlink:href="#DejaVuSans-114"/>
     <use x="532.244141" xlink:href="#DejaVuSans-32"/>
     <use x="564.03125" xlink:href="#DejaVuSans-115"/>
     <use x="616.130859" xlink:href="#DejaVuSans-116"/>
     <use x="655.339844" xlink:href="#DejaVuSans-97"/>
     <use x="716.619141" xlink:href="#DejaVuSans-116"/>
     <use x="755.828125" xlink:href="#DejaVuSans-117"/>
     <use x="819.207031" xlink:href="#DejaVuSans-115"/>
    </g>
   </g>
  </g>
 </g>
 <defs>
  <clipPath id="pdfb6a89d37">
   <rect height="362.88" width="252" x="72" y="21.6"/>
  </clipPath>
 </defs>
</svg>
